<svg id="Calque_1" data-name="Calque 1" xmlns="http://www.w3.org/2000/svg" viewBox="0 0 191.40001 175.89999"><g id="_34rysv.tif-6" data-name=" 34rysv.tif-6"><path d="M190.6,45.4V174.8H14.1a1.90919,1.90919,0,0,1-.8-.3c-3.9-3.6-7.8-7.1-11.8-10.7a1.08578,1.08578,0,0,1-.4-.9c0-12.3,0-24.6-.1-36.9C1,108.4.9,90.8.9,73.3Q.75,37,.8.7H144.7c.2,0,.4.1.6.1,2,.2,3.9.4,5.9.7a48.13437,48.13437,0,0,1,31,19.7,43.78393,43.78393,0,0,1,8.1,21.1C190.4,43.3,190.5,44.3,190.6,45.4Zm-3.7,125.7V47.5a44.69215,44.69215,0,0,0-.8-8.2,41.194,41.194,0,0,0-6.5-15.4c-9-12.8-21.4-19.6-37.1-19.6C96.8,4.2,51,4.3,5.3,4.3H4.6v.8c0,10.8.1,21.6.1,32.4,0,16.6.1,33.1.1,49.7,0,16.2.1,32.4.1,48.6,0,8.5,0,16.9.1,25.4a.90948.90948,0,0,0,.4.8c3.1,2.9,6.2,5.7,9.3,8.5a1.901,1.901,0,0,0,1.3.5H186.9Z"/><path d="M14.3,175.6a.60118.60118,0,0,1-.4-.1h-.1a2.995,2.995,0,0,1-1-.4c-2.2-2-4.5-4.1-6.7-6.1-1.7-1.5-3.4-3.1-5.1-4.6a2.12675,2.12675,0,0,1-.7-1.5c0-8.7,0-17.5-.1-26V126.1C.2,108.5.1,90.9.1,73.4.1,56.6,0,39.7,0,22.9V0H145a.36738.36738,0,0,1,.3.1c.6.1,1.3.1,1.9.2,1.3.1,2.7.3,4.1.5a48.967,48.967,0,0,1,31.5,20.1,46.143,46.143,0,0,1,8.3,21.5,14.97891,14.97891,0,0,1,.2,2.2c0,.3.1.7.1,1V175.9H14.5C14.5,175.6,14.4,175.6,14.3,175.6Zm-.4-1.7c.1,0,.2.1.3.1H189.8V45.4c0-.3-.1-.6-.1-1a14.91746,14.91746,0,0,1-.2-2.1,44.25874,44.25874,0,0,0-8-20.7A47.06108,47.06108,0,0,0,151,2.1c-1.3-.2-2.6-.4-3.9-.5-.6-.1-1.3-.1-1.9-.2a.90153.90153,0,0,1-.5-.1H1.6V22.6c0,16.8.1,33.7.1,50.5,0,17.6.1,35.2.1,52.7v10.8c0,8.5,0,17.4.1,26.1a.39923.39923,0,0,0,.2.4c1.7,1.5,3.4,3.1,5.1,4.6,2.2,2.1,4.5,4.2,6.7,6.2Zm2-2a2.40987,2.40987,0,0,1-1.8-.7c-1.5-1.3-2.9-2.7-4.4-4-1.6-1.5-3.3-3-4.9-4.5a1.97434,1.97434,0,0,1-.6-1.4c0-8.3-.1-16.4-.1-25.4V113.2c0-8.6,0-17.3-.1-25.9,0-16.6-.1-33.1-.1-49.7,0-7.3,0-14.7-.1-22V3.6H43.9c32.3,0,65.7,0,98.6.1,15.7,0,28.4,6.8,37.7,20a40.65477,40.65477,0,0,1,6.7,15.7,47.774,47.774,0,0,1,.8,8.4V172.1H168.4C118.2,171.9,66.6,171.9,15.9,171.9ZM5.4,5.1h0V15.6c0,7.3,0,14.7.1,22,0,16.6.1,33.1.1,49.7,0,8.6,0,17.3.1,25.9v22.7c0,9,0,17.1.1,25.4a.3491.3491,0,0,0,.1.2c1.6,1.5,3.3,3,4.9,4.5,1.4,1.3,2.9,2.7,4.4,4a1.08024,1.08024,0,0,0,.7.3H186.2V47.5a37.0949,37.0949,0,0,0-.8-8.1A40.34437,40.34437,0,0,0,179,24.3C170,11.5,157.7,5,142.5,5c-32.9-.1-66.3-.1-98.6-.1C31.3,5.1,18.2,5.1,5.4,5.1Z"/></g><path d="M125.11144,144.8573H42.49623a6.7458,6.7458,0,0,1-5.334-10.87511l23.20747-29.97587a36.48874,36.48874,0,0,0,7.59751-22.22481V58.06718a2.02987,2.02987,0,0,1,4.05974,0V81.78151a40.57258,40.57258,0,0,1-8.447,24.70966L40.37242,136.46705a2.68689,2.68689,0,0,0,2.12381,4.33133h82.61521a2.68689,2.68689,0,0,0,2.12462-4.33133l-23.20747-29.97588a40.5672,40.5672,0,0,1-8.447-24.70966V58.06718a2.02987,2.02987,0,0,1,4.05973,0V81.78151a36.48434,36.48434,0,0,0,7.59751,22.22481l23.20747,29.97587a6.74579,6.74579,0,0,1-5.33483,10.87511Z"/><path d="M125.11147,145.65435H42.49625a7.54286,7.54286,0,0,1-5.9644-12.16l23.20754-29.976a35.68776,35.68776,0,0,0,7.43075-21.73684V58.06717a2.82692,2.82692,0,0,1,5.65383,0V81.78154A41.372,41.372,0,0,1,64.21018,106.979l-23.20753,29.976a1.88985,1.88985,0,0,0,1.4936,3.04636h82.61522a1.88989,1.88989,0,0,0,1.49449-3.04613l-23.20764-29.97611a41.368,41.368,0,0,1-8.61379-25.19752V58.06717a2.82692,2.82692,0,0,1,5.65383,0V81.78154a35.68248,35.68248,0,0,0,7.43075,21.73684l23.20742,29.97588a7.54283,7.54283,0,0,1-5.96506,12.16009ZM69.99711,56.83477a1.23406,1.23406,0,0,0-1.23284,1.2324V81.78154a37.29029,37.29029,0,0,1-7.76435,22.7127L37.7925,134.47013a5.9487,5.9487,0,0,0,4.70375,9.5901h82.61522A5.94878,5.94878,0,0,0,129.816,134.47l-23.20742-29.97578a37.285,37.285,0,0,1-7.76435-22.7127V58.06717a1.23279,1.23279,0,0,0-2.46557,0V81.78154a39.76514,39.76514,0,0,0,8.28019,24.22165l23.20742,29.97589a3.484,3.484,0,0,1-2.7548,5.61635H42.49625a3.48395,3.48395,0,0,1-2.754-5.61646l23.20742-29.97578a39.77041,39.77041,0,0,0,8.28019-24.22165V58.06717A1.234,1.234,0,0,0,69.99711,56.83477Z"/><path d="M80.73616,99.98416h-3.644a2.02946,2.02946,0,1,1,0-4.05892h3.644a2.02946,2.02946,0,1,1,0,4.05892Z"/><path d="M80.73621,100.78126h-3.644a2.82653,2.82653,0,1,1,0-5.65305h3.644a2.82653,2.82653,0,1,1,0,5.65305Zm-3.644-4.05892a1.2324,1.2324,0,1,0,0,2.46479h3.644a1.2324,1.2324,0,1,0,0-2.46479Z"/><path d="M80.73616,126.59135h-3.644a2.02946,2.02946,0,1,1,0-4.05892h3.644a2.02946,2.02946,0,1,1,0,4.05892Z"/><path d="M80.73621,127.38842h-3.644a2.82652,2.82652,0,1,1,0-5.653h3.644a2.82652,2.82652,0,1,1,0,5.653Zm-3.644-4.05892a1.2324,1.2324,0,1,0,0,2.4648h3.644a1.2324,1.2324,0,1,0,0-2.4648Z"/><path d="M80.73616,117.72242h-3.644a2.02946,2.02946,0,1,1,0-4.05892h3.644a2.02946,2.02946,0,1,1,0,4.05892Z"/><path d="M80.73621,118.51944h-3.644a2.82652,2.82652,0,1,1,0-5.653h3.644a2.82652,2.82652,0,1,1,0,5.653Zm-3.644-4.05892a1.2324,1.2324,0,1,0,0,2.4648h3.644a1.2324,1.2324,0,1,0,0-2.4648Z"/><path d="M80.73616,135.46069h-3.644a2.02946,2.02946,0,1,1,0-4.05892h3.644a2.02946,2.02946,0,1,1,0,4.05892Z"/><path d="M80.73621,136.25774h-3.644a2.82653,2.82653,0,1,1,0-5.65305h3.644a2.82653,2.82653,0,1,1,0,5.65305Zm-3.644-4.05892a1.2324,1.2324,0,1,0,0,2.46479h3.644a1.2324,1.2324,0,1,0,0-2.46479Z"/><path d="M80.73616,108.85309h-3.644a2.02946,2.02946,0,1,1,0-4.05892h3.644a2.02946,2.02946,0,1,1,0,4.05892Z"/><path d="M80.73621,109.65013h-3.644a2.82653,2.82653,0,1,1,0-5.65305h3.644a2.82653,2.82653,0,1,1,0,5.65305Zm-3.644-4.05892a1.2324,1.2324,0,1,0,0,2.46479h3.644a1.2324,1.2324,0,1,0,0-2.46479Z"/><path d="M97.41947,60.09664H91.66641a2.02946,2.02946,0,1,1,0-4.05892h5.75306a4.10691,4.10691,0,0,0,0-8.21381H70.956a4.10691,4.10691,0,1,0,0,8.21381h7.95773a2.02946,2.02946,0,1,1,0,4.05892H70.956a8.16583,8.16583,0,1,1,0-16.33165H97.41947a8.16583,8.16583,0,1,1,0,16.33165Z"/><path d="M97.41946,60.89369h-5.753a2.82652,2.82652,0,1,1,0-5.653h5.753a3.30984,3.30984,0,0,0,0-6.61968H70.95607a3.30984,3.30984,0,1,0,0,6.61968h7.95772a2.82652,2.82652,0,1,1,0,5.653H70.95607a8.96289,8.96289,0,1,1,0-17.92577H97.41946a8.96289,8.96289,0,1,1,0,17.92577Zm-5.753-4.05892a1.2324,1.2324,0,1,0,0,2.4648h5.753a7.36877,7.36877,0,1,0,0-14.73753H70.95607a7.36877,7.36877,0,1,0,0,14.73753h7.95772a1.2324,1.2324,0,1,0,0-2.4648H70.95607a4.904,4.904,0,1,1,0-9.80793H97.41946a4.904,4.904,0,0,1,0,9.80793Z"/><path d="M97.71435,87.39448h-27.888a2.02946,2.02946,0,1,1,0-4.05891h27.888a2.02946,2.02946,0,1,1,0,4.05891Z"/><path d="M97.71436,88.19151h-27.888a2.82653,2.82653,0,1,1,0-5.653h27.888a2.82653,2.82653,0,1,1,0,5.653Zm-27.888-4.05893a1.2324,1.2324,0,1,0,0,2.4648h27.888a1.2324,1.2324,0,1,0,0-2.4648Z"/><path d="M145.64863,84.21123H119.329a2.02946,2.02946,0,1,1,0-4.05892h26.31966a2.14137,2.14137,0,0,0,0-4.28274H97.71435a2.02946,2.02946,0,1,1,0-4.05892h47.93428a6.20029,6.20029,0,1,1,0,12.40058Z"/><path d="M145.64871,85.00826H119.329a2.82652,2.82652,0,1,1,0-5.653h26.31972a1.34427,1.34427,0,0,0,0-2.68853H97.71436a2.82653,2.82653,0,1,1,0-5.65305h47.93435a6.99731,6.99731,0,1,1,0,13.99462ZM119.329,80.94934a1.2324,1.2324,0,1,0,0,2.4648h26.31972a5.40319,5.40319,0,1,0,0-10.80637H97.71436a1.2324,1.2324,0,1,0,0,2.4648h47.93435a2.93839,2.93839,0,0,1,0,5.87677Z"/><path d="M142.3404,144.8573h-19.704a2.02946,2.02946,0,1,1,0-4.05892h17.67414V82.18177a2.02987,2.02987,0,0,1,4.05974,0v60.64607A2.03,2.03,0,0,1,142.3404,144.8573Z"/><path d="M142.34037,145.65435H122.63644a2.82653,2.82653,0,1,1,0-5.65305h16.87707V82.18174a2.82686,2.82686,0,0,1,5.65371,0v60.64609A2.82987,2.82987,0,0,1,142.34037,145.65435Zm-19.70393-4.05892a1.2324,1.2324,0,1,0,0,2.4648h19.70393a1.234,1.234,0,0,0,1.23273-1.2324V82.18174a1.23273,1.23273,0,0,0-2.46546,0v59.41369Z"/><path d="M142.3404,101.91233a9.90674,9.90674,0,0,1-4.97706-1.22773,6.6573,6.6573,0,0,0-6.33465,0,10.69718,10.69718,0,0,1-9.95248-.0004,6.64749,6.64749,0,0,0-6.32894.0004,10.69388,10.69388,0,0,1-9.95085-.0004,5.91747,5.91747,0,0,0-3.16365-.80133,2.02946,2.02946,0,1,1,0-4.05892,9.897,9.897,0,0,1,4.97542,1.22813,6.64735,6.64735,0,0,0,6.32813,0,10.694,10.694,0,0,1,9.95166,0,6.65067,6.65067,0,0,0,6.33057-.00041,10.70377,10.70377,0,0,1,9.95493,0,5.924,5.924,0,0,0,3.16692.80174,2.02946,2.02946,0,1,1,0,4.05892Z"/><path d="M142.34037,102.70942a10.73387,10.73387,0,0,1-5.33258-1.31146,5.86421,5.86421,0,0,0-5.62191-.00078,11.49291,11.49291,0,0,1-10.66559.00022,5.85449,5.85449,0,0,0-5.61735.00056,11.48939,11.48939,0,0,1-10.66237-.00056,5.15155,5.15155,0,0,0-2.80784-.71744,2.82653,2.82653,0,1,1,0-5.653,10.72463,10.72463,0,0,1,5.33124,1.31191,5.854,5.854,0,0,0,5.61668-.00011,11.49006,11.49006,0,0,1,10.6627-.00012,5.85786,5.85786,0,0,0,5.61969-.00022,11.499,11.499,0,0,1,10.666,0,5.15606,5.15606,0,0,0,2.81129.718,2.82653,2.82653,0,1,1,0,5.653Zm-8.14387-3.62359a6.724,6.724,0,0,1,3.52251.88547,9.09627,9.09627,0,0,0,4.62136,1.144,1.2324,1.2324,0,1,0,0-2.46479,6.724,6.724,0,0,1-3.52251-.88547,9.90806,9.90806,0,0,0-9.24249-.00055,7.44442,7.44442,0,0,1-7.04279.001,9.89911,9.89911,0,0,0-9.2406-.00011,7.44023,7.44023,0,0,1-7.03923,0,9.0897,9.0897,0,0,0-4.62-1.14433,1.2324,1.2324,0,1,0,0,2.46479,6.71848,6.71848,0,0,1,3.51883.8848,9.89846,9.89846,0,0,0,9.24.00067,7.44112,7.44112,0,0,1,7.0399-.00056,9.90183,9.90183,0,0,0,9.24026.00122A6.73746,6.73746,0,0,1,134.1965,99.08583Z"/><path d="M139.22984,65.19051a8.77132,8.77132,0,1,1,8.77213-8.77132A8.7812,8.7812,0,0,1,139.22984,65.19051Zm0-13.48371a4.7124,4.7124,0,1,0,4.7124,4.71239A4.71707,4.71707,0,0,0,139.22984,51.7068Z"/><path d="M139.22974,65.98753a9.56836,9.56836,0,1,1,9.56919-9.5683A9.57907,9.57907,0,0,1,139.22974,65.98753Zm0-17.54259a7.97424,7.97424,0,1,0,7.97506,7.97429A7.98325,7.98325,0,0,0,139.22974,48.44494Zm0,13.48367a5.50944,5.50944,0,1,1,5.5096-5.50938A5.51511,5.51511,0,0,1,139.22974,61.92861Zm0-9.42475a3.91531,3.91531,0,1,0,3.91547,3.91537A3.91936,3.91936,0,0,0,139.22974,52.50386Z"/><path d="M121.41438,47.10467A10.587,10.587,0,1,1,132.00155,36.5175,10.59956,10.59956,0,0,1,121.41438,47.10467Zm0-17.115a6.528,6.528,0,1,0,6.52744,6.52784A6.53535,6.53535,0,0,0,121.41438,29.98966Z"/><path d="M121.41438,47.90174a11.384,11.384,0,1,1,11.38415-11.38426A11.39753,11.39753,0,0,1,121.41438,47.90174Zm0-21.17395a9.78992,9.78992,0,1,0,9.79,9.78969A9.80138,9.80138,0,0,0,121.41438,26.72779Zm0,17.115a7.32512,7.32512,0,1,1,7.32456-7.32534A7.33366,7.33366,0,0,1,121.41438,43.84282Zm0-13.05611a5.731,5.731,0,1,0,5.73044,5.73077A5.73745,5.73745,0,0,0,121.41438,30.78671Z"/></svg>