<svg id="Calque_1" data-name="Calque 1" xmlns="http://www.w3.org/2000/svg" xmlns:xlink="http://www.w3.org/1999/xlink" viewBox="0 0 191.40001 175.89999"><defs><style>.cls-1{fill:url(#Dégradé_sans_nom_12);}.cls-2{fill:url(#Dégradé_sans_nom_13);}.cls-3{fill:url(#Dégradé_sans_nom_13-2);}</style><linearGradient id="Dégradé_sans_nom_12" x1="0.8" y1="888.0472" x2="190.5" y2="888.0472" gradientTransform="translate(0 -800.1472)" gradientUnits="userSpaceOnUse"><stop offset="0" stop-color="#1697cb"/><stop offset="1" stop-color="#194e83"/></linearGradient><linearGradient id="Dégradé_sans_nom_13" x1="0" y1="888.0972" x2="191.40001" y2="888.0972" xlink:href="#Dégradé_sans_nom_12"/><linearGradient id="Dégradé_sans_nom_13-2" x1="22.45992" y1="91.56" x2="166.8" y2="91.56" gradientTransform="matrix(1, 0, 0, 1, 0, 0)" xlink:href="#Dégradé_sans_nom_12"/></defs><g id="_34rysv.tif" data-name=" 34rysv.tif"><path class="cls-1" d="M190.5,45.6V175H14a1.90932,1.90932,0,0,1-.8-.3c-3.9-3.6-7.8-7.1-11.8-10.7a1.08578,1.08578,0,0,1-.4-.9c0-12.3,0-24.6-.1-36.9q.15-26.4,0-52.8C.9,49.2.8,25,.8.8H144.6c.2,0,.4.1.6.1,2,.2,3.9.4,5.9.7a48.13437,48.13437,0,0,1,31,19.7,43.78393,43.78393,0,0,1,8.1,21.1C190.3,43.5,190.4,44.6,190.5,45.6Zm-3.7,125.7V47.7a44.69224,44.69224,0,0,0-.8-8.2,41.194,41.194,0,0,0-6.5-15.4c-9-12.8-21.4-19.6-37.1-19.6-45.7-.1-91.5,0-137.2,0H4.5v.8c0,10.8.1,21.6.1,32.4,0,16.6.1,33.1.1,49.7,0,16.2.1,32.4.1,48.6,0,8.5,0,16.9.1,25.4a.90949.90949,0,0,0,.4.8c3.1,2.9,6.2,5.7,9.3,8.5a1.901,1.901,0,0,0,1.3.5H186.8Z"/><path class="cls-2" d="M14.3,175.8a.60123.60123,0,0,1-.4-.1h-.1a2.99484,2.99484,0,0,1-1-.4c-2.2-2-4.5-4.1-6.7-6.1-1.7-1.5-3.4-3.1-5.1-4.6a2.12675,2.12675,0,0,1-.7-1.5c0-8.7,0-17.5-.1-26V126.3C.2,108.7.1,91.1.1,73.6.1,56.8,0,39.9,0,23.1V0H145a.36736.36736,0,0,1,.3.1c.6.1,1.3.1,1.9.2,1.3.1,2.7.3,4.1.5a48.967,48.967,0,0,1,31.5,20.1,46.143,46.143,0,0,1,8.3,21.5,14.97891,14.97891,0,0,1,.2,2.2c0,.3.1.7.1,1V175.9H14.5A.30972.30972,0,0,0,14.3,175.8Zm-.5-1.7c.1,0,.2.1.3.1H189.7V45.6c0-.3-.1-.6-.1-1a14.91746,14.91746,0,0,1-.2-2.1,44.25864,44.25864,0,0,0-8-20.7A47.06108,47.06108,0,0,0,150.9,2.3c-1.3-.2-2.6-.4-3.9-.5-.6-.1-1.3-.1-1.9-.2a.90149.90149,0,0,1-.5-.1H1.6V22.8c0,16.8.1,33.7.1,50.5,0,17.6.1,35.2.1,52.7v10.8c0,8.5,0,17.4.1,26.1a.39922.39922,0,0,0,.2.4c1.7,1.5,3.4,3.1,5.1,4.6C9.3,170,11.6,172.1,13.8,174.1Zm2-2a2.40988,2.40988,0,0,1-1.8-.7c-1.5-1.3-2.9-2.7-4.4-4-1.6-1.5-3.3-3-4.9-4.5a1.9743,1.9743,0,0,1-.6-1.4C4.1,153.1,4,145,4,136V113.3c0-8.6,0-17.3-.1-25.9,0-16.6-.1-33.1-.1-49.7,0-7.3,0-14.7-.1-22V3.7H43.8c32.3,0,65.7,0,98.6.1,15.7,0,28.4,6.8,37.7,20a40.65479,40.65479,0,0,1,6.7,15.7,47.77393,47.77393,0,0,1,.8,8.4V172.2H168.3C118.2,172.1,66.6,172.1,15.8,172.1ZM5.3,5.3h0V15.8c0,7.3,0,14.7.1,22,0,16.6.1,33.1.1,49.7,0,8.6,0,17.3.1,25.9v22.7c0,9,0,17.1.1,25.4a.3491.3491,0,0,0,.1.2c1.6,1.5,3.3,3,4.9,4.5,1.4,1.3,2.9,2.7,4.4,4a1.08029,1.08029,0,0,0,.7.3H186.1V47.7a37.0949,37.0949,0,0,0-.8-8.1,40.34437,40.34437,0,0,0-6.4-15.1c-9-12.8-21.3-19.3-36.5-19.3-32.9-.1-66.3-.1-98.6-.1C31.2,5.3,18.1,5.3,5.3,5.3Z"/></g><path class="cls-3" d="M97.192,151.32c-.28253-.601-.52141-1.2275-.85413-1.79935q-7.563-12.99872-15.13052-25.99472a1.744,1.744,0,0,0-1.76849-1.02929c-3.392.05763-6.78564.02336-10.25406.02336v-5.41908h8.1648c-.22322-.45207-.343-.73555-.49651-.99942-2.38986-4.10846-4.80087-8.20481-7.16076-12.3304a1.591,1.591,0,0,0-1.60993-.90871c-8.5991.02836-17.19853.05415-25.79743.00352a29.6215,29.6215,0,0,1-13.77876-3.11356,14.93479,14.93479,0,0,1-3.4016-2.41051c-3.70026-3.55651-3.48463-8.60827.43952-11.94941a18.98933,18.98933,0,0,1,9.07255-4.10932,53.05966,53.05966,0,0,1,8.67252-.959c8.23731-.12577,16.47784-.05865,24.71691-.02283a1.75855,1.75855,0,0,0,1.78177-1.01876c2.47117-4.33129,5.00047-8.62941,7.63727-13.15734H69.16834v-5.485l1.26824,0c2.95972,0,5.92022-.03813,8.87872.022a1.93151,1.93151,0,0,0,1.981-1.10832Q89.32369,45.65358,97.432,31.8h12.72147c-.07454.3893-.12888.78373-.22654,1.16714q-4.98262,19.56012-9.97258,39.11839c-.68716,2.69508-1.3705,5.39114-2.083,8.19447h1.44686c9.441,0,18.88244-.04645,28.3229.02745,2.94985.02308,5.90147.32493,8.84275.60081a1.455,1.455,0,0,0,1.65054-.73154c3.44789-5.38485,6.95342-10.73276,10.40817-16.11327a1.5772,1.5772,0,0,1,1.532-.84068c3.88008.03671,7.7607.01578,11.64113.02022.303.00035.606.04231.98183.07037-2.08787,8.107-4.15528,16.13444-6.23872,24.22412L166.8,91.56v.24a8.7651,8.7651,0,0,0-1.13691.27709c-2.38312.9187-4.75927,1.85555-7.13634,2.78987-.69077.27151-1.37718.55411-2.06127.82989,2.09873,8.14985,4.16295,16.16567,6.2584,24.30276-4.26256,0-8.33769-.02409-12.4121.01955a1.87048,1.87048,0,0,1-1.83411-.97549c-3.42183-5.35039-6.903-10.66282-10.33856-16.00449a1.33087,1.33087,0,0,0-1.51866-.75018,48.72834,48.72834,0,0,1-6.0835.52788c-10.39495.06342-20.79036.05-31.18561.06325-.45719.00059-.9144.00008-1.46793.00008.08183.37282.11771.563.16545.7501q3.96523,15.5453,7.92971,31.0908c1.4057,5.52939,2.78415,11.0657,4.1749,16.59889Zm54.62161-59.76411c-1.19407-.47389-2.2726-.8553-3.31268-1.32231a49.57585,49.57585,0,0,0-20.64968-4.57739c-28.35307.05777-56.70634.0165-85.05952.03314a24.90225,24.90225,0,0,0-9.634,1.5903,17.65938,17.65938,0,0,0-4.36157,2.631c-1.30435,1.06941-1.2358,2.20962-.024,3.39082a10.8269,10.8269,0,0,0,2.50165,1.8194,23.4439,23.4439,0,0,0,11.02481,2.37863c28.793.03716,57.58624-.01953,86.37919.04552C136.8796,97.56356,144.31552,94.90752,151.81359,91.55589ZM75.51512,102.92871c.27039.50507.45813.88387.67047,1.24833q11.69847,20.0793,23.40115,40.15613c1.03945,1.78351,1.467,1.95249,3.55178,1.39426a1.76313,1.76313,0,0,0-.01909-.35107q-5.29353-20.76621-10.57751-41.53481c-.19661-.77566-.54952-.98371-1.318-.97845-4.91732.03373-9.835.01664-14.75253.019C76.20737,102.88223,75.94333,102.90707,75.51512,102.92871ZM103.207,37.46439c-1.90325-.53009-2.93339.08877-3.89571,1.76567-7.312,12.74165-14.75006,25.411-22.14787,38.10341-.53533.91847-1.063,1.84137-1.66382,2.88272H92.29844C95.93918,65.94772,99.56752,51.72781,103.207,37.46439Zm52.54244,77.13353c-1.46813-5.68965-2.907-11.266-4.37062-16.93805l-8.068,3.12624c-.00821.12053-.02846.17163-.01114.19853q4.23965,6.58287,8.49859,13.1532a1.09188,1.09188,0,0,0,.74534.43947C153.57331,114.62742,154.60688,114.59792,155.74941,114.59792Zm-4.367-29.0492c1.45505-5.65165,2.88275-11.19712,4.3533-16.909a22.75653,22.75653,0,0,1-2.326-.015,1.98519,1.98519,0,0,0-2.11567,1.13772c-1.74489,2.81926-3.59314,5.57449-5.39642,8.35771-.9012,1.39093-1.791,2.78921-2.72413,4.2436Z"/></svg>