<?xml version="1.0" encoding="utf-8"?>
<!-- Generator: Adobe Illustrator 26.2.1, SVG Export Plug-In . SVG Version: 6.00 Build 0)  -->
<svg version="1.1" id="Calque_1" xmlns="http://www.w3.org/2000/svg" xmlns:xlink="http://www.w3.org/1999/xlink" x="0px" y="0px"
	 viewBox="0 0 191.4 175.9" style="enable-background:new 0 0 191.4 175.9;" xml:space="preserve">
<style type="text/css">
	.st0{stroke:#1D1D1B;stroke-miterlimit:10;}
</style>
<path class="st0" d="M43,85.5l1.2,4c-1.3,0.6-2.5,1-3.7,1.7c-1.3,0.7-2.8,1.5-2.8,3.1c0,1.7,1.5,2.5,2.8,3.3
	c3.2,1.6,6.7,2.6,10.3,2.7c5,0.5,10-0.1,14.6-1.9c1.1-0.5,2.2-1.1,3.1-1.8c1.8-1.4,1.9-2.9,0-4.3c-1.2-0.8-2.5-1.5-3.8-2.1
	c-0.5-0.2-0.9-0.4-1.4-0.5l1.1-3.8c3.2,1,6.2,2.2,8.1,4.9c0.8,1.2,1.3,2.5,1.4,3.9c0.1,14.9,0.1,29.8,0.1,44.6c0,2.1-1.1,4.1-3,5.3
	c-2.9,2-6.2,3.3-9.7,3.7c-7,1.3-14.2,0.8-20.9-1.6c-1.3-0.5-2.5-1.1-3.7-1.9c-2.1-1.3-3.4-3.7-3.3-6.3c0.1-14.3,0.1-28.7,0-43
	c-0.2-2.7,1.1-5.3,3.4-6.7C38.9,87.5,40.9,86.6,43,85.5z M37.6,100.9v1.3c0,8.3,0.1,16.6-0.1,24.8c-0.2,2.1,1,4,2.9,4.8
	c0.6,0.3,1.2,0.6,1.8,0.9c5.9,2.2,12.2,2.6,18.4,1.4c2.7-0.4,5.3-1.4,7.6-2.9c1.1-0.7,1.8-1.9,1.8-3.1c0-8.8,0-17.6,0-26.4
	c0-0.3,0-0.5-0.1-0.8C59.7,105.8,47.8,105.8,37.6,100.9L37.6,100.9z M45.8,144.2l5.9,0.8v-6l-5.9-0.7V144.2z M61.8,144.1v-5.9
	l-5.9,0.7v6c1-0.1,1.9-0.1,2.8-0.2C59.7,144.5,60.7,144.3,61.8,144.1z M37.6,135.1v2.6c0,2.8,1.1,4.2,4,5c0-1.8,0-3.5,0-5.3
	c-0.1-0.3-0.2-0.5-0.5-0.6C40.1,136.2,38.9,135.7,37.6,135.1L37.6,135.1z M65.9,142.7c3.6-1,4.8-3.5,3.8-7.5c-1.1,0.5-2.2,1-3.3,1.6
	c-0.2,0.1-0.5,0.4-0.6,0.7C65.9,139.1,65.9,140.9,65.9,142.7L65.9,142.7z"/>
<path class="st0" d="M94.2,27.8c11.9,0,23.7,0,35.6,0c4.4,0,6.8,2.4,6.8,6.8c0,9,0,17.9,0,26.9c0,4.3-2.4,6.7-6.7,6.7
	c-9.1,0-18.2,0-27.4,0c-0.8-0.1-1.6,0.3-2.1,1.1c-1.4,2-2.9,3.9-4.4,5.9c-1.2,1.6-2.6,1.6-3.8,0c-1.5-2-3-3.9-4.4-6
	c-0.4-0.6-1.1-1-1.9-0.9c-9.1,0-18.2,0-27.4,0c-4.4,0-6.8-2.4-6.8-6.8c0-9,0-17.9,0-26.9c0-4.3,2.4-6.7,6.7-6.7
	C70.4,27.8,82.3,27.8,94.2,27.8z M94.2,70.9c1.4-1.8,2.7-3.5,3.9-5.2c0.7-1,1.8-1.6,3.1-1.5c9.5,0,19.1,0,28.6,0
	c2.1,0,2.8-0.6,2.8-2.8c0-8.9,0-17.8,0-26.7c0-2.1-0.6-2.8-2.8-2.8c-23.7,0-47.4,0-71.1,0c-2.1,0-2.8,0.6-2.8,2.8
	c0,8.9,0,17.7,0,26.6c0,2.3,0.6,2.9,2.9,2.9c9.5,0,19,0,28.5,0c1.2-0.1,2.4,0.5,3.1,1.5C91.5,67.4,92.8,69.1,94.2,70.9L94.2,70.9z"
	/>
<path class="st0" d="M150.6,88.4h-24.1v-4h6c0-1,0-1.8,0-2.7c0-2.4,0-4.7,0-7.1c0-1.7,0.7-2.4,2.4-2.4c2.4,0,4.9,0,7.3,0
	c1.7,0,2.4,0.7,2.4,2.5c0,3.1,0,6.3,0,9.6c2.4,0,4.7,0,7.1,0c2.5,0,3,0.5,3,3.1c0,15.5,0,30.9,0,46.4c0,2.5-0.5,3-3.1,3
	c-2.3,0-4.6,0-7,0c0,3.1,0,6.1,0,9.2c0,2.4-0.6,3-3,3c-2.2,0-4.5,0-6.7,0c-1.7,0-2.4-0.7-2.4-2.5c0-3.1,0-6.3,0-9.6l-1.9-0.1v-4h20
	v-8h-13.9v-4.1h14v-8h-14v-4.1h13.9v-8.1h-22v-4h22.1v-8.1H150.6z M136.6,76.3v8h3.9v-8H136.6z M136.5,136.9v8h4v-8L136.5,136.9z"/>
<path class="st0" d="M95.5,144.8h5.3c0.6-4,1.9-7.6,6-9.2c4.1-1.7,7.5,0,10.7,2.3l3.8-3.8c-0.5-0.7-1-1.6-1.5-2.4
	c-2.7-4.2-1.5-9.7,2.6-12.4c1-0.6,2.1-1.1,3.2-1.3c0.9-0.2,1.7-0.4,2.6-0.6V112c-4-0.6-7.6-1.9-9.2-6c-1.7-4.1,0-7.5,2.3-10.7
	l-3.8-3.8c-3.2,2.3-6.6,4-10.7,2.3c-4.1-1.7-5.4-5.2-6-9.2h-5.4c-0.3,1.1-0.5,2.2-0.9,3.3c-1.3,4.7-6.1,7.5-10.9,6.3
	c-0.7-0.2-1.5-0.5-2.1-0.9c-1.5-0.8-2.9-1.7-4.4-2.7l2.1-3.4c1.2,0.8,2.4,1.5,3.6,2.2c3.5,2.1,6.9,0.8,7.9-3.3
	c0.3-1.3,0.6-2.6,0.9-3.9c0.2-1.1,1.1-1.9,2.2-1.8c2.7,0,5.4,0,8.1,0c1.1-0.1,2.1,0.7,2.2,1.8c0.3,1.4,0.7,2.9,1,4.3
	c0.5,2.6,3.1,4.3,5.8,3.8c0.6-0.1,1.2-0.4,1.7-0.7c1.2-0.7,2.4-1.5,3.7-2.2c1.3-0.8,2.1-0.7,3.2,0.3c1.8,1.8,3.6,3.6,5.4,5.4
	c1,0.7,1.2,2.1,0.4,3l-0.1,0.1c-0.7,1.2-1.5,2.4-2.2,3.6c-1.5,2.2-1,5.3,1.3,6.8c0.6,0.4,1.2,0.7,1.9,0.8c1.4,0.3,2.8,0.7,4.2,1
	c1.1,0.2,1.9,1.2,1.8,2.3c0,2.6,0,5.3,0,7.9c0.1,1.1-0.7,2.1-1.8,2.3c-1.4,0.4-2.9,0.7-4.3,1c-2.6,0.5-4.4,3.1-3.8,5.7
	c0.1,0.6,0.3,1.2,0.7,1.7c0.7,1.3,1.5,2.5,2.3,3.8c0.7,0.9,0.6,2.3-0.3,3l0,0c-1.8,1.9-3.7,3.7-5.5,5.5c-0.7,0.9-2,1-3,0.4
	c-1.3-0.8-2.5-1.6-3.8-2.3c-2.2-1.5-5.3-0.9-6.8,1.4c-0.4,0.5-0.6,1.2-0.7,1.8c-0.3,1.3-0.7,2.7-1,4c-0.1,1.2-1.1,2.1-2.3,2
	c-0.1,0-0.1,0-0.2,0c-2.6,0-5.1,0-7.7,0c-1.5,0-2.1-0.5-2.5-2c-0.3-1.4-0.6-2.8-1-4.2c-0.6-2.6-3.2-4.3-5.8-3.7
	c-0.5,0.1-1.1,0.3-1.5,0.6c-1.3,0.8-2.7,1.6-4.1,2.5l-2.1-3.4c3.1-1.8,5.8-4.3,9.8-3.8c3.6,0.3,6.6,2.9,7.6,6.3
	C95,142.4,95.2,143.6,95.5,144.8z"/>
<path class="st0" d="M112.3,114.7c0,7.8-6.4,14.1-14.2,14.1S84,122.4,84,114.6c0-7.8,6.3-14,14.1-14.1
	C106,100.5,112.3,106.8,112.3,114.7C112.3,114.6,112.3,114.7,112.3,114.7z M108.3,114.7c0-5.6-4.5-10.1-10-10.1
	c-5.6,0-10.1,4.5-10.1,10c0,5.6,4.5,10.1,10,10.1S108.2,120.3,108.3,114.7L108.3,114.7z"/>
<path class="st0" d="M59.8,94.4h-4c0-0.9,0-1.7,0-2.5c0-4.4,0-8.7,0-13.1c0-1.6-0.8-2.5-2.1-2.4c-1.2,0-1.9,0.9-2,2.4
	c0,5.2,0,10.3,0,15.6h-4c0-0.3-0.1-0.7-0.1-1c0-4.9,0-9.7,0-14.6c0-3.7,2.6-6.5,6.1-6.4c3.4,0,6,2.7,6,6.4
	C59.9,83.9,59.8,89.1,59.8,94.4z"/>
<path class="st0" d="M41.8,106.6h3.9v22h-3.9V106.6z"/>
<path class="st0" d="M65.8,128.7h-3.9v-22h3.9V128.7z"/>
<path class="st0" d="M55.8,108.6v22h-3.9v-22H55.8z"/>
<path class="st0" d="M78,35.8c2.1,0.1,4.1,0,6.1,0.3c6.6,1.1,11,7.4,9.8,13.9c-0.9,5.5-5.5,9.6-11,10c-3.7,0.2-7.4,0.2-11.1-0.2
	c-6.2-1-10.6-6.6-10-12.8c0.5-6.1,5.5-10.9,11.7-11.1c1.5,0,2.9,0,4.4,0L78,35.8z M74,56.1c4.5,0,8.1-3.7,8-8.1c0-4.5-3.7-8.1-8.1-8
	c-4.4,0-8,3.6-8,8.1C65.9,52.5,69.5,56.1,74,56.1z M89.7,46c-0.5-2.9-3.5-5.7-6.1-5.7l2.6,5.7H89.7z M89.8,50.1h-3.6l-2.6,5.7
	C86.1,55.8,88.9,53.3,89.8,50.1L89.8,50.1z"/>
<path class="st0" d="M114.2,47l7-7h-4.7v-4c3.4,0,6.9-0.1,10.3,0c1.1,0,1.7,1,1.7,2.1c0,3.2,0,6.5,0,9.8h-4v-4.8l-0.3-0.1
	c-1.2,1.2-2.4,2.5-3.7,3.7c-1.4,1.4-2.8,2.9-4.3,4.3c-1.4,1.4-2.3,1.4-3.7,0c-0.7-0.7-1.3-1.4-2-2.1L99.9,59.6
	c-1.1-1.2-1.9-2.1-2.9-3.1c1.3-1.3,2.8-2.7,4.1-4.1c2.5-2.5,5-5,7.5-7.5c1.3-1.3,2.3-1.3,3.6,0C112.8,45.6,113.5,46.3,114.2,47
	L114.2,47z"/>
<g id="_34rysv.tif-6">
	<path d="M190.6,45.4v129.4h-176c-0.2,0-0.3,0-0.5,0c-0.3,0-0.6-0.2-0.8-0.3c-3.9-3.6-7.8-7.1-11.8-10.7c-0.3-0.2-0.4-0.6-0.4-0.9
		c0-12.3,0-24.6-0.1-36.9c0-17.6-0.1-35.2-0.1-52.7C0.8,49.1,0.8,24.9,0.8,0.7h143.9c0.2,0,0.4,0.1,0.6,0.1c2,0.2,3.9,0.4,5.9,0.7
		c12.5,2.2,23.7,9.3,31,19.7c4.5,6.2,7.3,13.5,8.1,21.1C190.4,43.3,190.5,44.3,190.6,45.4z M186.9,171.1v-0.7c0-41,0-81.9,0-122.9
		c0-2.8-0.3-5.5-0.8-8.2c-1.1-5.5-3.3-10.8-6.5-15.4c-9-12.8-21.4-19.6-37.1-19.6C96.8,4.2,51,4.3,5.3,4.3H4.6c0,0.3,0,0.6,0,0.8
		c0,10.8,0.1,21.6,0.1,32.4c0,16.6,0.1,33.1,0.1,49.7c0,16.2,0.1,32.4,0.1,48.6c0,8.5,0,16.9,0.1,25.4c0,0.3,0.1,0.6,0.4,0.8
		c3.1,2.9,6.2,5.7,9.3,8.5c0.3,0.3,0.8,0.5,1.3,0.5c56.7,0,113.5,0,170.2,0h0.7V171.1z"/>
	<path d="M14.3,175.6c-0.1,0-0.3,0-0.4-0.1h-0.1c-0.4-0.1-0.7-0.2-1-0.4c-2.2-2-4.5-4.1-6.7-6.1c-1.7-1.5-3.4-3.1-5.1-4.6
		c-0.4-0.4-0.7-0.9-0.7-1.5c0-8.7,0-17.5-0.1-26c0-3.6,0-7.2,0-10.8c0-17.6-0.1-35.2-0.1-52.7C0.1,56.6,0,39.7,0,22.9V0h144.7h0.1
		c0.1,0,0.1,0,0.2,0s0.2,0,0.3,0.1c0.6,0.1,1.3,0.1,1.9,0.2c1.3,0.1,2.7,0.3,4.1,0.5c12.7,2.2,24,9.5,31.5,20.1
		c4.5,6.3,7.4,13.7,8.3,21.5c0.1,0.7,0.2,1.4,0.2,2.2c0,0.3,0.1,0.7,0.1,1v0.1v130.2H14.6h-0.1C14.5,175.6,14.4,175.6,14.3,175.6z
		 M13.9,173.9c0.1,0,0.2,0.1,0.3,0.1h0.1h0.1c0.1,0,0.1,0,0.2,0h175.2V45.4c0-0.3-0.1-0.6-0.1-1c-0.1-0.7-0.2-1.4-0.2-2.1
		c-0.9-7.5-3.6-14.6-8-20.7c-3.6-5.1-8.1-9.4-13.3-12.8c-5.3-3.3-11.1-5.6-17.2-6.7c-1.3-0.2-2.6-0.4-3.9-0.5
		c-0.6-0.1-1.3-0.1-1.9-0.2c-0.2,0-0.3,0-0.5-0.1h-0.1H1.6v21.3c0,16.8,0.1,33.7,0.1,50.5c0,17.6,0.1,35.2,0.1,52.7
		c0,3.6,0,7.2,0,10.8c0,8.5,0,17.4,0.1,26.1c0,0.1,0,0.3,0.2,0.4c1.7,1.5,3.4,3.1,5.1,4.6C9.4,169.8,11.7,171.9,13.9,173.9
		L13.9,173.9z M15.9,171.9c-0.7,0-1.3-0.2-1.8-0.7c-1.5-1.3-2.9-2.7-4.4-4c-1.6-1.5-3.3-3-4.9-4.5c-0.4-0.4-0.6-0.9-0.6-1.4
		c0-8.3-0.1-16.4-0.1-25.4c0-7.6,0-15.1,0-22.7c0-8.6,0-17.3-0.1-25.9c0-16.6-0.1-33.1-0.1-49.7c0-7.3,0-14.7-0.1-22V5.2
		c0-0.2,0-0.3,0-0.5V3.6h1.4c12.9,0,26,0,38.7,0c32.3,0,65.7,0,98.6,0.1c15.7,0,28.4,6.8,37.7,20c3.3,4.7,5.6,10,6.7,15.7
		c0.5,2.8,0.8,5.6,0.8,8.4c0,33.7,0,67.5,0,101.2v23.1h-19.3C118.2,171.9,66.6,171.9,15.9,171.9z M5.4,5.1L5.4,5.1v10.5
		c0,7.3,0,14.7,0.1,22c0,16.6,0.1,33.1,0.1,49.7c0,8.6,0,17.3,0.1,25.9c0,7.6,0,15.1,0,22.7c0,9,0,17.1,0.1,25.4
		c0,0.1,0.1,0.2,0.1,0.2c1.6,1.5,3.3,3,4.9,4.5c1.4,1.3,2.9,2.7,4.4,4c0.2,0.2,0.5,0.3,0.7,0.3c53.5,0,107.9,0,160.6,0h9.7v-21.6
		c0-33.7,0-67.5,0-101.2c0-2.7-0.2-5.4-0.8-8.1c-1.1-5.4-3.2-10.5-6.4-15.1C170,11.5,157.7,5,142.5,5c-32.9-0.1-66.3-0.1-98.6-0.1
		C31.3,5.1,18.2,5.1,5.4,5.1z"/>
</g>
</svg>
