<?xml version="1.0" encoding="utf-8"?>
<!-- Generator: Adobe Illustrator 26.2.1, SVG Export Plug-In . SVG Version: 6.00 Build 0)  -->
<svg version="1.1" id="Calque_1" xmlns="http://www.w3.org/2000/svg" xmlns:xlink="http://www.w3.org/1999/xlink" x="0px" y="0px"
	 viewBox="0 0 191.3 175.8" style="enable-background:new 0 0 191.3 175.8;" xml:space="preserve">
<style type="text/css">
	.st0{fill:url(#SVGID_1_);}
	.st1{fill:url(#SVGID_00000176012922034367306780000017546310099696125071_);}
	.st2{fill:url(#SVGID_00000057136671266432857400000010948882768217291683_);}
	.st3{fill:url(#SVGID_00000031176503955437958300000003591360788744006793_);}
	.st4{fill:url(#SVGID_00000014633261029789179770000012898225650910827424_);}
	.st5{fill:url(#SVGID_00000121243740115835695520000008088831399631619735_);}
	.st6{fill:url(#SVGID_00000145745671726146351430000010339955917567834524_);}
	.st7{fill:url(#SVGID_00000067949054392904718190000009338665445517972642_);}
	.st8{fill:url(#SVGID_00000171684408767455954860000005939498907960666773_);}
	.st9{fill:url(#SVGID_00000112597458677944319470000000765839554268642989_);}
	.st10{fill:url(#SVGID_00000183960778525359509760000016938222949511326089_);}
	.st11{fill:url(#SVGID_00000010277648205185433300000005372786731684036246_);}
	.st12{fill:url(#SVGID_00000021114935444578910880000004307719581157399435_);}
</style>
<linearGradient id="SVGID_1_" gradientUnits="userSpaceOnUse" x1="33.4986" y1="-305.6086" x2="73.9086" y2="-305.6086" gradientTransform="matrix(1 0 0 -1 0 -188.1472)">
	<stop  offset="0" style="stop-color:#1697CB"/>
	<stop  offset="1" style="stop-color:#194E83"/>
</linearGradient>
<path class="st0" d="M43,85.7l1.2,4c-1.3,0.6-2.5,1-3.7,1.7c-1.3,0.7-2.8,1.5-2.8,3.1c0,1.7,1.5,2.5,2.8,3.3
	c3.2,1.6,6.7,2.6,10.3,2.7c5,0.5,10-0.1,14.6-1.9c1.1-0.5,2.2-1.1,3.1-1.8c1.8-1.4,1.9-2.9,0-4.3c-1.2-0.8-2.5-1.5-3.8-2.1
	c-0.5-0.2-0.9-0.4-1.4-0.5l1.1-3.8c3.2,1,6.2,2.2,8.1,4.9c0.8,1.2,1.3,2.5,1.4,3.9c0.1,14.9,0.1,29.8,0.1,44.6c0,2.1-1.1,4.1-3,5.3
	c-2.9,2-6.2,3.3-9.7,3.7c-7,1.3-14.2,0.8-20.9-1.6c-1.3-0.5-2.5-1.1-3.7-1.9c-2.1-1.3-3.4-3.7-3.3-6.3c0.1-14.3,0.1-28.7,0-43
	c-0.2-2.7,1.1-5.3,3.4-6.7C38.8,87.7,40.8,86.8,43,85.7z M37.6,101.1v1.3c0,8.3,0.1,16.6-0.1,24.8c-0.2,2.1,1,4,2.9,4.8
	c0.6,0.3,1.2,0.6,1.8,0.9c5.9,2.2,12.2,2.6,18.4,1.4c2.7-0.4,5.3-1.4,7.6-2.9c1.1-0.7,1.8-1.9,1.8-3.1c0-8.8,0-17.6,0-26.4
	c0-0.3,0-0.5-0.1-0.8C59.6,106,47.8,106,37.6,101.1L37.6,101.1z M45.7,144.4l5.9,0.8v-6l-5.9-0.7V144.4z M61.7,144.3v-5.9l-5.9,0.7
	v6c1-0.1,1.9-0.1,2.8-0.2C59.7,144.7,60.7,144.5,61.7,144.3L61.7,144.3z M37.6,135.3c0,1,0,1.8,0,2.6c0,2.8,1.1,4.2,4,5
	c0-1.8,0-3.5,0-5.3c-0.1-0.3-0.2-0.5-0.5-0.6C40,136.4,38.9,135.9,37.6,135.3L37.6,135.3z M65.8,142.9c3.6-1,4.8-3.5,3.8-7.5
	c-1.1,0.5-2.2,1-3.3,1.6c-0.2,0.1-0.5,0.4-0.6,0.7C65.8,139.4,65.8,141.1,65.8,142.9L65.8,142.9z"/>
<linearGradient id="SVGID_00000165937006282638538940000012215128683211911323_" gradientUnits="userSpaceOnUse" x1="51.7057" y1="-240.4231" x2="136.4582" y2="-240.4231" gradientTransform="matrix(1 0 0 -1 0 -188.1472)">
	<stop  offset="0" style="stop-color:#1697CB"/>
	<stop  offset="1" style="stop-color:#194E83"/>
</linearGradient>
<path style="fill:url(#SVGID_00000165937006282638538940000012215128683211911323_);" d="M94.1,28.1c11.9,0,23.7,0,35.6,0
	c4.4,0,6.8,2.4,6.8,6.8c0,9,0,17.9,0,26.9c0,4.3-2.4,6.7-6.7,6.7c-9.1,0-18.2,0-27.4,0c-0.8-0.1-1.6,0.3-2.1,1.1
	c-1.4,2-2.9,3.9-4.4,5.9c-1.2,1.6-2.6,1.6-3.8,0c-1.5-2-3-3.9-4.4-6c-0.4-0.6-1.1-1-1.9-0.9c-9.1,0-18.2,0-27.4,0
	c-4.4,0-6.8-2.4-6.8-6.8c0-9,0-17.9,0-26.9c0-4.3,2.4-6.7,6.7-6.7C70.3,28,82.2,28,94.1,28.1z M94.1,71.1c1.4-1.8,2.7-3.5,3.9-5.2
	c0.7-1,1.8-1.6,3.1-1.5c9.5,0,19.1,0,28.6,0c2.1,0,2.8-0.6,2.8-2.8c0-8.9,0-17.8,0-26.7c0-2.1-0.6-2.8-2.8-2.8
	c-23.7,0-47.4,0-71.1,0c-2.1,0-2.8,0.6-2.8,2.8c0,8.9,0,17.7,0,26.6c0,2.3,0.6,2.9,2.9,2.9c9.5,0,19,0,28.5,0
	c1.2-0.1,2.4,0.5,3.1,1.5C91.4,67.6,92.7,69.3,94.1,71.1z"/>
<linearGradient id="SVGID_00000179612770507998270940000009108020993013885867_" gradientUnits="userSpaceOnUse" x1="126.456" y1="-298.9384" x2="154.6176" y2="-298.9384" gradientTransform="matrix(1 0 0 -1 0 -188.1472)">
	<stop  offset="0" style="stop-color:#1697CB"/>
	<stop  offset="1" style="stop-color:#194E83"/>
</linearGradient>
<path style="fill:url(#SVGID_00000179612770507998270940000009108020993013885867_);" d="M150.5,88.6h-24.1v-4h6c0-1,0-1.8,0-2.7
	c0-2.4,0-4.7,0-7.1c0-1.7,0.7-2.4,2.4-2.4c2.4,0,4.9,0,7.3,0c1.7,0,2.4,0.7,2.4,2.5c0,3.1,0,6.3,0,9.6c2.4,0,4.7,0,7.1,0
	c2.5,0,3,0.5,3,3.1c0,15.5,0,30.9,0,46.4c0,2.5-0.5,3-3.1,3c-2.3,0-4.6,0-7,0c0,3.1,0,6.1,0,9.2c0,2.4-0.6,3-3,3c-2.2,0-4.5,0-6.7,0
	c-1.7,0-2.4-0.7-2.4-2.5c0-3.1,0-6.3,0-9.6l-1.9-0.1v-4h20v-8h-13.9v-4.1h14v-8h-14v-4.1h13.9v-8.1h-22v-4h22.1V88.6z M136.6,76.5v8
	h3.9v-8H136.6z M136.5,137.1v8h4v-8H136.5z"/>
<linearGradient id="SVGID_00000119831999146153004970000001747051727798928296_" gradientUnits="userSpaceOnUse" x1="77.226" y1="-302.9832" x2="132.4366" y2="-302.9832" gradientTransform="matrix(1 0 0 -1 0 -188.1472)">
	<stop  offset="0" style="stop-color:#1697CB"/>
	<stop  offset="1" style="stop-color:#194E83"/>
</linearGradient>
<path style="fill:url(#SVGID_00000119831999146153004970000001747051727798928296_);" d="M95.5,145.1h5.3c0.6-4,1.9-7.6,6-9.2
	c4.1-1.7,7.5,0,10.7,2.3l3.8-3.8c-0.5-0.7-1-1.6-1.5-2.4c-2.7-4.2-1.5-9.7,2.6-12.4c1-0.6,2.1-1.1,3.2-1.3c0.9-0.2,1.7-0.4,2.6-0.6
	v-5.4c-4-0.6-7.6-1.9-9.2-6c-1.7-4.1,0-7.5,2.3-10.7l-3.8-3.8c-3.2,2.3-6.6,4-10.7,2.3c-4.1-1.7-5.4-5.2-6-9.2h-5.4
	c-0.3,1.1-0.5,2.2-0.9,3.3c-1.3,4.7-6.1,7.5-10.9,6.3c-0.7-0.2-1.5-0.5-2.1-0.9c-1.5-0.8-2.9-1.7-4.4-2.7l2.1-3.4
	c1.2,0.8,2.4,1.5,3.6,2.2c3.5,2.1,6.9,0.8,7.9-3.3c0.3-1.3,0.6-2.6,0.9-3.9c0.2-1.1,1.1-1.9,2.2-1.8c2.7,0,5.4,0,8.1,0
	c1.1-0.1,2.1,0.7,2.2,1.8c0.3,1.4,0.7,2.9,1,4.3c0.5,2.6,3.1,4.3,5.8,3.8c0.6-0.1,1.2-0.4,1.7-0.7c1.2-0.7,2.4-1.5,3.7-2.2
	c1.3-0.8,2.1-0.7,3.2,0.3c1.8,1.8,3.6,3.6,5.4,5.4c1,0.7,1.2,2.1,0.4,3c0,0-0.1,0.1-0.1,0.1c-0.7,1.2-1.5,2.4-2.2,3.6
	c-1.5,2.2-1,5.3,1.3,6.8c0.6,0.4,1.2,0.7,1.9,0.8c1.4,0.3,2.8,0.7,4.2,1c1.1,0.2,1.9,1.2,1.8,2.3c0,2.6,0,5.3,0,7.9
	c0.1,1.1-0.7,2.1-1.8,2.3c-1.4,0.4-2.9,0.7-4.3,1c-2.6,0.5-4.4,3.1-3.8,5.7c0.1,0.6,0.3,1.2,0.7,1.7c0.7,1.3,1.5,2.5,2.3,3.8
	c0.7,0.9,0.6,2.3-0.3,3c0,0,0,0,0,0c-1.8,1.9-3.7,3.7-5.5,5.5c-0.7,0.9-2,1-3,0.4c-1.3-0.8-2.5-1.6-3.8-2.3
	c-2.2-1.5-5.3-0.9-6.8,1.4c-0.4,0.5-0.6,1.2-0.7,1.8c-0.3,1.3-0.7,2.7-1,4c-0.1,1.2-1.1,2.1-2.3,2c-0.1,0-0.1,0-0.2,0
	c-2.6,0-5.1,0-7.7,0c-1.5,0-2.1-0.5-2.5-2c-0.3-1.4-0.6-2.8-1-4.2c-0.6-2.6-3.2-4.3-5.8-3.7c-0.5,0.1-1.1,0.3-1.5,0.6
	c-1.3,0.8-2.7,1.6-4.1,2.5l-2.1-3.4c3.1-1.8,5.8-4.3,9.8-3.8c3.6,0.3,6.6,2.9,7.6,6.3C94.9,142.6,95.2,143.8,95.5,145.1z"/>
<linearGradient id="SVGID_00000152238697386620880190000011690257627765851563_" gradientUnits="userSpaceOnUse" x1="83.9951" y1="-302.9723" x2="112.2373" y2="-302.9723" gradientTransform="matrix(1 0 0 -1 0 -188.1472)">
	<stop  offset="0" style="stop-color:#1697CB"/>
	<stop  offset="1" style="stop-color:#194E83"/>
</linearGradient>
<path style="fill:url(#SVGID_00000152238697386620880190000011690257627765851563_);" d="M112.2,114.9c0,7.8-6.4,14.1-14.2,14.1
	S84,122.6,84,114.8c0-7.8,6.3-14,14.1-14.1C105.9,100.7,112.2,107,112.2,114.9C112.2,114.9,112.2,114.9,112.2,114.9z M108.2,114.9
	c0-5.6-4.5-10.1-10-10.1c-5.6,0-10.1,4.5-10.1,10c0,5.6,4.5,10.1,10,10.1C103.6,125,108.2,120.5,108.2,114.9
	C108.2,114.9,108.2,114.9,108.2,114.9L108.2,114.9z"/>
<linearGradient id="SVGID_00000101782573116492258650000008846734270831188875_" gradientUnits="userSpaceOnUse" x1="47.6706" y1="-271.6685" x2="59.7812" y2="-271.6685" gradientTransform="matrix(1 0 0 -1 0 -188.1472)">
	<stop  offset="0" style="stop-color:#1697CB"/>
	<stop  offset="1" style="stop-color:#194E83"/>
</linearGradient>
<path style="fill:url(#SVGID_00000101782573116492258650000008846734270831188875_);" d="M59.8,94.6h-4c0-0.9,0-1.7,0-2.5
	c0-4.4,0-8.7,0-13.1c0-1.6-0.8-2.5-2.1-2.4c-1.2,0-1.9,0.9-2,2.4c0,5.2,0,10.3,0,15.6h-4c0-0.3-0.1-0.7-0.1-1c0-4.9,0-9.7,0-14.6
	c0-3.7,2.6-6.5,6.1-6.4c3.4,0,6,2.7,6,6.4C59.8,84.1,59.8,89.3,59.8,94.6z"/>
<linearGradient id="SVGID_00000080913181723252806410000018373181187434340274_" gradientUnits="userSpaceOnUse" x1="41.6996" y1="-305.9872" x2="45.5932" y2="-305.9872" gradientTransform="matrix(1 0 0 -1 0 -188.1472)">
	<stop  offset="0" style="stop-color:#1697CB"/>
	<stop  offset="1" style="stop-color:#194E83"/>
</linearGradient>
<path style="fill:url(#SVGID_00000080913181723252806410000018373181187434340274_);" d="M41.7,106.8h3.9v22h-3.9V106.8z"/>
<linearGradient id="SVGID_00000074440191715766255070000003710118265343728573_" gradientUnits="userSpaceOnUse" x1="61.8603" y1="-306.0256" x2="65.7452" y2="-306.0256" gradientTransform="matrix(1 0 0 -1 0 -188.1472)">
	<stop  offset="0" style="stop-color:#1697CB"/>
	<stop  offset="1" style="stop-color:#194E83"/>
</linearGradient>
<path style="fill:url(#SVGID_00000074440191715766255070000003710118265343728573_);" d="M65.7,128.9h-3.9v-22h3.9V128.9z"/>
<linearGradient id="SVGID_00000173149417084043943960000008555009266306339715_" gradientUnits="userSpaceOnUse" x1="51.7854" y1="-308.0112" x2="55.686" y2="-308.0112" gradientTransform="matrix(1 0 0 -1 0 -188.1472)">
	<stop  offset="0" style="stop-color:#1697CB"/>
	<stop  offset="1" style="stop-color:#194E83"/>
</linearGradient>
<path style="fill:url(#SVGID_00000173149417084043943960000008555009266306339715_);" d="M55.7,108.8v22h-3.9v-22H55.7z"/>
<linearGradient id="SVGID_00000017518549363124836960000011182823313716240556_" gradientUnits="userSpaceOnUse" x1="61.7764" y1="-236.3679" x2="94.0825" y2="-236.3679" gradientTransform="matrix(1 0 0 -1 0 -188.1472)">
	<stop  offset="0" style="stop-color:#1697CB"/>
	<stop  offset="1" style="stop-color:#194E83"/>
</linearGradient>
<path style="fill:url(#SVGID_00000017518549363124836960000011182823313716240556_);" d="M77.9,36c2.1,0.1,4.1,0,6.1,0.3
	c6.6,1.1,11,7.4,9.8,13.9c-0.9,5.5-5.5,9.6-11,10c-3.7,0.2-7.4,0.2-11.1-0.2c-6.2-1-10.6-6.6-10-12.8c0.5-6.1,5.5-10.9,11.7-11.1
	c1.5,0,2.9,0,4.4,0L77.9,36z M73.9,56.3c4.5,0,8.1-3.7,8-8.1c0-4.5-3.7-8.1-8.1-8c-4.4,0-8,3.6-8,8.1C65.9,52.7,69.5,56.3,73.9,56.3
	L73.9,56.3z M89.6,46.2c-0.5-2.9-3.5-5.7-6.1-5.7l2.6,5.7H89.6z M89.7,50.3h-3.6L83.5,56C86,56,88.8,53.5,89.7,50.3z"/>
<linearGradient id="SVGID_00000091720230478304619420000004418720970476469175_" gradientUnits="userSpaceOnUse" x1="96.8038" y1="-236.1392" x2="128.3847" y2="-236.1392" gradientTransform="matrix(1 0 0 -1 0 -188.1472)">
	<stop  offset="0" style="stop-color:#1697CB"/>
	<stop  offset="1" style="stop-color:#194E83"/>
</linearGradient>
<path style="fill:url(#SVGID_00000091720230478304619420000004418720970476469175_);" d="M114.1,47.2l7-7h-4.7v-4
	c3.4,0,6.9-0.1,10.3,0c1.1,0,1.7,1,1.7,2.1c0,3.2,0,6.5,0,9.8h-4v-4.8l-0.3-0.1c-1.2,1.2-2.4,2.5-3.7,3.7c-1.4,1.4-2.8,2.9-4.3,4.3
	c-1.4,1.4-2.3,1.4-3.7,0c-0.7-0.7-1.3-1.4-2-2.1L99.7,59.9c-1.1-1.2-1.9-2.1-2.9-3.1c1.3-1.3,2.8-2.7,4.1-4.1c2.5-2.5,5-5,7.5-7.5
	c1.3-1.3,2.3-1.3,3.6,0C112.7,45.8,113.4,46.5,114.1,47.2C114.1,47.2,114.1,47.2,114.1,47.2z"/>
<g id="_34rysv.tif">
	
		<linearGradient id="SVGID_00000018197675591016820750000013664516076141460646_" gradientUnits="userSpaceOnUse" x1="0.7831" y1="-276.0539" x2="190.5339" y2="-276.0539" gradientTransform="matrix(1 0 0 -1 0 -188.1472)">
		<stop  offset="0" style="stop-color:#1697CB"/>
		<stop  offset="1" style="stop-color:#194E83"/>
	</linearGradient>
	<path style="fill:url(#SVGID_00000018197675591016820750000013664516076141460646_);" d="M190.5,45.6V175h-176c-0.2,0-0.3,0-0.5,0
		c-0.3,0-0.6-0.2-0.8-0.3c-3.9-3.6-7.8-7.1-11.8-10.7c-0.3-0.2-0.4-0.6-0.4-0.9c0-12.3,0-24.6-0.1-36.9C1,108.6,1,91,0.9,73.4
		C0.9,49.2,0.8,25,0.8,0.8h143.8c0.2,0,0.4,0.1,0.6,0.1c2,0.2,3.9,0.4,5.9,0.7c12.5,2.2,23.7,9.3,31,19.7c4.5,6.2,7.3,13.5,8.1,21.1
		C190.3,43.5,190.4,44.6,190.5,45.6z M186.8,171.3v-0.7c0-41,0-81.9,0-122.9c0-2.8-0.3-5.5-0.8-8.2c-1.1-5.5-3.3-10.8-6.5-15.4
		c-9-12.8-21.4-19.6-37.1-19.6c-45.7-0.1-91.5,0-137.2,0H4.5c0,0.3,0,0.6,0,0.8c0,10.8,0.1,21.6,0.1,32.4c0,16.6,0.1,33.1,0.1,49.7
		c0,16.2,0.1,32.4,0.1,48.6c0,8.5,0,16.9,0.1,25.4c0,0.3,0.1,0.6,0.4,0.8c3.1,2.9,6.2,5.7,9.3,8.5c0.3,0.3,0.8,0.5,1.3,0.5
		c56.7,0,113.5,0,170.2,0H186.8z"/>
	
		<linearGradient id="SVGID_00000041296125676053770380000002145289907590049938_" gradientUnits="userSpaceOnUse" x1="0" y1="-276.0544" x2="191.3156" y2="-276.0544" gradientTransform="matrix(1 0 0 -1 0 -188.1472)">
		<stop  offset="0" style="stop-color:#1697CB"/>
		<stop  offset="1" style="stop-color:#194E83"/>
	</linearGradient>
	<path style="fill:url(#SVGID_00000041296125676053770380000002145289907590049938_);" d="M14.3,175.8c-0.1,0-0.3,0-0.4-0.1
		c0,0-0.1,0-0.1,0c-0.4-0.1-0.7-0.2-1-0.4c-2.2-2-4.5-4.1-6.7-6.1c-1.7-1.5-3.4-3.1-5.1-4.6c-0.4-0.4-0.7-0.9-0.7-1.5
		c0-8.7,0-17.5-0.1-26c0-3.6,0-7.2,0-10.8c0-17.6-0.1-35.2-0.1-52.7c0-16.8-0.1-33.7-0.1-50.5L0,0h144.7l0.1,0c0.1,0,0.1,0,0.2,0
		c0.1,0,0.2,0,0.3,0.1c0.6,0.1,1.3,0.1,1.9,0.2c1.3,0.1,2.7,0.3,4.1,0.5c12.7,2.2,24,9.5,31.5,20.1c4.5,6.3,7.4,13.7,8.3,21.5
		c0.1,0.7,0.2,1.4,0.2,2.2c0,0.3,0.1,0.7,0.1,1l0,0.1v130.2H14.6c0,0-0.1,0-0.1,0C14.4,175.8,14.3,175.8,14.3,175.8z M13.8,174.1
		c0.1,0,0.2,0.1,0.3,0.1c0,0,0.1,0,0.1,0c0,0,0.1,0,0.1,0c0.1,0,0.1,0,0.2,0h175.2V45.6c0-0.3-0.1-0.6-0.1-1
		c-0.1-0.7-0.2-1.4-0.2-2.1c-0.9-7.5-3.6-14.6-8-20.7c-3.6-5.1-8.1-9.4-13.3-12.8c-5.3-3.3-11.1-5.6-17.2-6.7
		c-1.3-0.2-2.6-0.4-3.9-0.5c-0.6-0.1-1.3-0.1-1.9-0.2c-0.2,0-0.3,0-0.5-0.1l-0.1,0H1.6l0,21.3c0,16.8,0.1,33.7,0.1,50.5
		c0,17.6,0.1,35.2,0.1,52.7c0,3.6,0,7.2,0,10.8c0,8.5,0,17.4,0.1,26.1c0,0.1,0,0.3,0.2,0.4c1.7,1.5,3.4,3.1,5.1,4.6
		C9.3,170,11.6,172.1,13.8,174.1z M15.8,172.1c-0.7,0-1.3-0.2-1.8-0.7c-1.5-1.3-2.9-2.7-4.4-4c-1.6-1.5-3.3-3-4.9-4.5
		c-0.4-0.4-0.6-0.9-0.6-1.4C4.1,153.1,4,145,4,136c0-7.6,0-15.1,0-22.7c0-8.6,0-17.3-0.1-25.9c0-16.6-0.1-33.1-0.1-49.7
		c0-7.3,0-14.7-0.1-22l0-10.4c0-0.2,0-0.3,0-0.5l0-1.1h1.4c12.9,0,26,0,38.7,0c32.3,0,65.7,0,98.6,0.1c15.7,0,28.4,6.8,37.7,20
		c3.3,4.7,5.6,10,6.7,15.7c0.5,2.8,0.8,5.6,0.8,8.4c0,33.7,0,67.5,0,101.2v23.1h-19.3C118.2,172.1,66.6,172.1,15.8,172.1z M5.3,5.3
		L5.3,5.3l0,10.5c0,7.3,0,14.7,0.1,22c0,16.6,0.1,33.1,0.1,49.7c0,8.6,0,17.3,0.1,25.9c0,7.6,0,15.1,0,22.7c0,9,0,17.1,0.1,25.4
		c0,0.1,0.1,0.2,0.1,0.2c1.6,1.5,3.3,3,4.9,4.5c1.4,1.3,2.9,2.7,4.4,4c0.2,0.2,0.5,0.3,0.7,0.3c53.5,0,107.9,0,160.6,0h9.7v-21.6
		c0-33.7,0-67.5,0-101.2c0-2.7-0.2-5.4-0.8-8.1c-1.1-5.4-3.2-10.5-6.4-15.1c-9-12.8-21.3-19.3-36.5-19.3
		c-32.9-0.1-66.3-0.1-98.6-0.1C31.2,5.3,18.1,5.3,5.3,5.3z"/>
</g>
</svg>
