<svg id="Calque_1" data-name="Calque 1" xmlns="http://www.w3.org/2000/svg" viewBox="0 0 191.40001 175.89999"><g id="_34rysv.tif-6" data-name=" 34rysv.tif-6"><path d="M190.6,45.4V174.8H14.1a1.90919,1.90919,0,0,1-.8-.3c-3.9-3.6-7.8-7.1-11.8-10.7a1.08578,1.08578,0,0,1-.4-.9c0-12.3,0-24.6-.1-36.9C1,108.4.9,90.8.9,73.3Q.75,37,.8.7H144.7c.2,0,.4.1.6.1,2,.2,3.9.4,5.9.7a48.13437,48.13437,0,0,1,31,19.7,43.78393,43.78393,0,0,1,8.1,21.1C190.4,43.3,190.5,44.3,190.6,45.4Zm-3.7,125.7V47.5a44.69215,44.69215,0,0,0-.8-8.2,41.194,41.194,0,0,0-6.5-15.4c-9-12.8-21.4-19.6-37.1-19.6C96.8,4.2,51,4.3,5.3,4.3H4.6v.8c0,10.8.1,21.6.1,32.4,0,16.6.1,33.1.1,49.7,0,16.2.1,32.4.1,48.6,0,8.5,0,16.9.1,25.4a.90948.90948,0,0,0,.4.8c3.1,2.9,6.2,5.7,9.3,8.5a1.901,1.901,0,0,0,1.3.5H186.9Z"/><path d="M14.3,175.6a.60118.60118,0,0,1-.4-.1h-.1a2.995,2.995,0,0,1-1-.4c-2.2-2-4.5-4.1-6.7-6.1-1.7-1.5-3.4-3.1-5.1-4.6a2.12675,2.12675,0,0,1-.7-1.5c0-8.7,0-17.5-.1-26V126.1C.2,108.5.1,90.9.1,73.4.1,56.6,0,39.7,0,22.9V0H145a.36738.36738,0,0,1,.3.1c.6.1,1.3.1,1.9.2,1.3.1,2.7.3,4.1.5a48.967,48.967,0,0,1,31.5,20.1,46.143,46.143,0,0,1,8.3,21.5,14.97891,14.97891,0,0,1,.2,2.2c0,.3.1.7.1,1V175.9H14.5C14.5,175.6,14.4,175.6,14.3,175.6Zm-.4-1.7c.1,0,.2.1.3.1H189.8V45.4c0-.3-.1-.6-.1-1a14.91746,14.91746,0,0,1-.2-2.1,44.25874,44.25874,0,0,0-8-20.7A47.06108,47.06108,0,0,0,151,2.1c-1.3-.2-2.6-.4-3.9-.5-.6-.1-1.3-.1-1.9-.2a.90153.90153,0,0,1-.5-.1H1.6V22.6c0,16.8.1,33.7.1,50.5,0,17.6.1,35.2.1,52.7v10.8c0,8.5,0,17.4.1,26.1a.39923.39923,0,0,0,.2.4c1.7,1.5,3.4,3.1,5.1,4.6,2.2,2.1,4.5,4.2,6.7,6.2Zm2-2a2.40987,2.40987,0,0,1-1.8-.7c-1.5-1.3-2.9-2.7-4.4-4-1.6-1.5-3.3-3-4.9-4.5a1.97434,1.97434,0,0,1-.6-1.4c0-8.3-.1-16.4-.1-25.4V113.2c0-8.6,0-17.3-.1-25.9,0-16.6-.1-33.1-.1-49.7,0-7.3,0-14.7-.1-22V3.6H43.9c32.3,0,65.7,0,98.6.1,15.7,0,28.4,6.8,37.7,20a40.65477,40.65477,0,0,1,6.7,15.7,47.774,47.774,0,0,1,.8,8.4V172.1H168.4C118.2,171.9,66.6,171.9,15.9,171.9ZM5.4,5.1h0V15.6c0,7.3,0,14.7.1,22,0,16.6.1,33.1.1,49.7,0,8.6,0,17.3.1,25.9v22.7c0,9,0,17.1.1,25.4a.3491.3491,0,0,0,.1.2c1.6,1.5,3.3,3,4.9,4.5,1.4,1.3,2.9,2.7,4.4,4a1.08024,1.08024,0,0,0,.7.3H186.2V47.5a37.0949,37.0949,0,0,0-.8-8.1A40.34437,40.34437,0,0,0,179,24.3C170,11.5,157.7,5,142.5,5c-32.9-.1-66.3-.1-98.6-.1C31.3,5.1,18.2,5.1,5.4,5.1Z"/></g><g id="_3YzTRA.tif" data-name="3YzTRA.tif"><path d="M82.47175,47.08305c3.10358.29231,6.23814.40175,9.30363.91893a141.89266,141.89266,0,0,1,14.4354,2.983c2.415.67171,4.586,2.3057,6.77792,3.6498a2.14567,2.14567,0,0,1-2.39177,3.56273c-4.19046-3.19355-9.1064-4.30272-14.14493-5.13636-16.511-2.7318-32.77093-1.88476-48.71963,3.3852A22.12488,22.12488,0,0,0,35.9281,65.35122c-2.37282,3.56284-4.65727,7.1843-6.99867,10.8073,4.38381,1.39623,5.93014,3.8838,5.37227,8.48313-.44183,3.64257-2.48754,5.07641-8.012,5.54533a12.17371,12.17371,0,0,0,.79394,6.36417c.10625.28637.90607.52127,1.31565.43861a2.09078,2.09078,0,0,0,1.37043-.88231,17.2739,17.2739,0,0,1,31.48309-.37226A1.8947,1.8947,0,0,0,63.3,97.06321q29.15578-.051,58.31166-.00233a1.9169,1.9169,0,0,0,2.07725-1.26816c3.16528-6.53156,8.49154-10.0395,15.72123-10.01016,7.17113.0291,12.4234,3.567,15.56348,10.03648a1.78852,1.78852,0,0,0,1.94209,1.24326c2.13992-.07846,4.28473-.02378,6.545-.02378V92.63144c-1.25645,0-2.464.01148-3.67117-.0021-3.99649-.04494-6.45873-2.49039-6.51611-6.49507-.02786-1.945-.00482-3.89081-.00482-5.95669l-18.91869-3.86426c-.13144.09681-.26067.1413-.27508.20984-.92387,4.39206-2.7772,5.86875-7.29507,5.903-2.1744.01647-4.28434-.01074-6.09049-1.53545-.36581-.30881-1.11562-.22087-1.68844-.22111q-33.55122-.01435-67.1024.01865a6.33924,6.33924,0,0,1-4.6271-1.72226c-2.47471-2.2797-5.072-4.42645-7.60131-6.6477-1.89362-1.66295-2.06256-3.30451-.61915-5.39819,3.08023-4.46792,7.5822-6.67983,12.64232-8.11726a99.05578,99.05578,0,0,1,49.08785-1.347,19.38831,19.38831,0,0,1,8.6615,4.35766q4.14909,3.59309,8.32439,7.156c.50932.43709,1.02815.86314,1.25749,1.05535l2.53881-2.34268c-.84614-.73319-1.87091-1.61461-2.88836-2.50437q-2.13987-1.87129-.76728-3.51366c.917-1.10228,2.1547-1.06048,3.58173.14269,1.15626.97488,2.29779,1.96718,3.44455,2.95326,1.42036,1.22133,2.7156,2.50246,4.79642,2.76336,1.7754.2226,2.904,1.61191,3.7691,3.18839a2.63777,2.63777,0,0,0,1.52964,1.21548c6.9614,1.48882,13.95077,2.84755,20.91089,4.34205a14.648,14.648,0,0,1,12.0294,14.67371c.03051,1.80279-.05823,3.61011.04335,5.40772a2.43286,2.43286,0,0,0,.79745,1.64651c2.15023,1.59146,2.27325,5.00475,1.56011,7.73059-.58949,2.25323-2.50646,3.29676-5.41,3.30024-2.83256.00339-5.66633-.04053-8.49651.04149a1.905,1.905,0,0,0-1.37865.87557c-3.25439,6.46429-8.46677,10.11109-15.70645,10.12546-7.29638.01448-12.60628-3.60227-15.76989-10.18506-.43713-.90959-1.02676-.85833-1.75434-.85814q-13.47909.00333-26.9582.0013c-.39069,0-.78222.01478-1.17194-.00506-1.56786-.07979-2.51575-.97472-2.45823-2.307.05466-1.266.97255-2.06328,2.5125-2.0658q13.186-.02155,26.37214-.00879c.579-.00005,1.158,0,1.84385,0V101.555H62.90871v3.08723q.77676,0,1.5536,0,9.23025.00167,18.46047-.00266c1.1667-.00221,2.17315.456,2.29178,1.58348a3.52177,3.52177,0,0,1-.9076,2.36162c-.3473.40046-1.25892.42274-1.91888.42664-5.27425.0312-10.55432.16272-15.821-.038-3.04758-.11618-5.68047-.03794-6.63758,3.51284A17.19866,17.19866,0,0,1,30.178,110.39586a1.98553,1.98553,0,0,0-2.31137-1.37426c-.38509.04638-.7825-.01845-1.17089.01143a5.42327,5.42327,0,0,1-6.05667-3.75277v-4.67917c.57947-.81992,1.17811-1.62736,1.72676-2.46732a1.26953,1.26953,0,0,0,.2601-.89188c-1.38492-4.284-.74378-8.69562-.83932-13.05529a16.11925,16.11925,0,0,1,2.64325-9.121c2.61029-4.10893,5.21787-8.22122,7.92045-12.26968a25.5421,25.5421,0,0,1,12.757-10.06334,92.52332,92.52332,0,0,1,23.50185-5.08726q3.12215-.276,6.24338-.56228Zm3.56246,12.694c-6.96234-.85034-21.13971-.02191-24.93975,1.44884.01893.25816.01618.54719.06427.82755.73238,4.26938,1.5188,8.53039,2.1762,12.81115.16838,1.09655.50906,1.44544,1.63548,1.4363,6.59134-.05347,13.18335-.02447,19.77513-.03069.41628-.00039.83252-.06318,1.28867-.10018Zm4.56542.34714v16.027h28.50783c-.55927-.59826-.83811-.957-1.17551-1.24814-3.47024-2.99474-7.0862-5.83659-10.39458-8.99918C102.76176,61.33866,96.65024,61.17348,90.59963,60.12415Zm48.768,29.98232a12.82124,12.82124,0,1,0,12.80123,12.90218A12.92694,12.92694,0,0,0,139.36764,90.10647Zm-80.9168,12.80937a12.81581,12.81581,0,1,0-12.84608,12.83287A12.8625,12.8625,0,0,0,58.45084,102.91584ZM42.852,69.26617c2.57326,2.233,5.06916,4.40416,7.575,6.56381a1.38846,1.38846,0,0,0,.73834.411c2.60273.03,5.206.01849,7.962.01849l-2.4072-14.12508C50.20106,63.10382,45.36364,65.58232,42.852,69.26617Zm80.32384,5.515c-.009,3.167.07418,3.24861,3.30393,3.24825.34159,0,.68356-.0105,1.02473.00134,1.0377.036,2.0548-.29955,2.02948-1.40117-.03792-1.64956.89437-3.54348-.86266-4.89318a1.27383,1.27383,0,0,0-.70879-.12831c-1.07338-.01195-2.14757-.02551-3.22034.00334a1.46175,1.46175,0,0,0-1.562,1.56293C123.15564,73.70889,123.1758,74.24547,123.1758,74.78114Zm33.42125,29.86107c2.42643,0,4.79258.00006,7.15873,0,2.70558-.00009,2.70771-.0003,2.493-2.71462a1.40111,1.40111,0,0,0-.19445-.40874h-9.45727Zm6.3974-16.42282a8.46352,8.46352,0,0,0-5.28671-6.55657,43.37513,43.37513,0,0,0,.071,5.06362,2.21222,2.21222,0,0,0,1.48752,1.42613A20.77142,20.77142,0,0,0,162.99445,88.21939Zm-136.9212-2.514a7.51173,7.51173,0,0,0,2.10615-.04012c.60962-.20735,1.4284-.62671,1.59031-1.13362a5.732,5.732,0,0,0,.03746-2.7089c-.22067-1.15989-1.24264-1.121-2.19922-1.18131-.97028-.06113-1.14624.5037-1.21308,1.23109C26.28481,83.07033,26.19266,84.26973,26.07325,85.70544Zm-.94882,15.81694c-.27063,3.38323-.0294,3.587,3.27419,2.92308v-2.92308Z"/><path d="M68.67543,88.91727c-.485.00006-.97281.03416-1.45429-.00661a2.02025,2.02025,0,0,1-2.06137-2.01843,1.97094,1.97094,0,0,1,1.78636-2.26378,13.9949,13.9949,0,0,1,3.33438-.03244,2.16413,2.16413,0,0,1-.15074,4.31492C69.64789,88.94929,69.16038,88.9172,68.67543,88.91727Z"/><path d="M96.19074,88.91534c-.48492,0-.97351.03833-1.45405-.00749a2.01637,2.01637,0,0,1-2.0334-2.04473A1.98281,1.98281,0,0,1,94.519,84.61966a14.30854,14.30854,0,0,1,3.19144-.04176,2.13,2.13,0,0,1,2.05921,2.20619A2.161,2.161,0,0,1,97.5,88.91892c-.4354.02155-.87277.00337-1.30925.00337Z"/><path d="M139.3044,93.25957a9.67029,9.67029,0,1,1-9.67261,9.64219A9.64123,9.64123,0,0,1,139.3044,93.25957Zm5.30972,9.67827a5.29323,5.29323,0,1,0-5.30758,5.27532A5.24672,5.24672,0,0,0,144.61412,102.93784Z"/><path d="M45.59025,93.259a9.67075,9.67075,0,1,1,.00986,19.34121A9.67062,9.67062,0,1,1,45.59025,93.259Zm.04253,14.95428a5.28413,5.28413,0,1,0-5.32735-5.28485A5.334,5.334,0,0,0,45.63278,108.21328Z"/></g></svg>