<svg id="Calque_1" data-name="Calque 1" xmlns="http://www.w3.org/2000/svg" xmlns:xlink="http://www.w3.org/1999/xlink" viewBox="0 0 217.75 61.27"><defs><style>.cls-1{fill:none;}.cls-2{fill:#2490c5;}.cls-3{clip-path:url(#clip-path);}.cls-4{fill:#163e6f;}.cls-5{fill:#153f70;}.cls-6{fill:#164071;}.cls-7{fill:#154071;}.cls-8{fill:#144172;}.cls-9{fill:#154172;}.cls-10{fill:#154173;}.cls-11{fill:#144273;}.cls-12{fill:#164273;}.cls-13{fill:#154374;}.cls-14{fill:#144374;}.cls-15{fill:#154475;}.cls-16{fill:#144576;}.cls-17{fill:#134576;}.cls-18{fill:#164576;}.cls-19{fill:#154677;}.cls-20{fill:#144677;}.cls-21{fill:#154777;}.cls-22{fill:#154778;}.cls-23{fill:#144778;}.cls-24{fill:#134879;}.cls-25{fill:#154879;}.cls-26{fill:#144879;}.cls-27{fill:#13497a;}.cls-28{fill:#15497a;}.cls-29{fill:#144a7a;}.cls-30{fill:#134a7b;}.cls-31{fill:#124a7b;}.cls-32{fill:#154b7c;}.cls-33{fill:#144b7c;}.cls-34{fill:#134b7c;}.cls-35{fill:#144c7d;}.cls-36{fill:#134d7d;}.cls-37{fill:#134c7e;}.cls-38{fill:#124d7e;}.cls-39{fill:#134e7f;}.cls-40{fill:#124e7f;}.cls-41{fill:#134f80;}.cls-42{fill:#124f80;}.cls-43{fill:#115080;}.cls-44{fill:#125180;}.cls-45{fill:#115181;}.cls-46{fill:#125281;}.cls-47{fill:#115282;}.cls-48{fill:#105382;}.cls-49{fill:#135383;}.cls-50{fill:#115383;}.cls-51{fill:#115483;}.cls-52{fill:#105484;}.cls-53{fill:#115584;}.cls-54{fill:#105585;}.cls-55{fill:#0e5685;}.cls-56{fill:#125685;}.cls-57{fill:#105686;}.cls-58{fill:#0f5786;}.cls-59{fill:#105887;}.cls-60{fill:#0f5888;}.cls-61{fill:#0d5888;}.cls-62{fill:#115988;}.cls-63{fill:#0f5989;}.cls-64{fill:#0e5a89;}.cls-65{fill:#0f5a8a;}.cls-66{fill:#0e5b8b;}.cls-67{fill:#0c5b8b;}.cls-68{fill:#0e5c8c;}.cls-69{fill:#0d5c8c;}.cls-70{fill:#0e5d8d;}.cls-71{fill:#0d5e8e;}.cls-72{fill:#0b5e8e;}.cls-73{fill:#0d5f8e;}.cls-74{fill:#0d5f8f;}.cls-75{fill:#0b5f8f;}.cls-76{fill:#09608f;}.cls-77{fill:#0e6090;}.cls-78{fill:#0b6191;}.cls-79{fill:#096191;}.cls-80{fill:#0c6292;}.cls-81{fill:#0b6292;}.cls-82{fill:#096292;}.cls-83{fill:#0c6393;}.cls-84{fill:#096494;}.cls-85{fill:#076494;}.cls-86{fill:#0c6594;}.cls-87{fill:#0a6595;}.cls-88{fill:#076695;}.cls-89{fill:#0a6696;}.cls-90{fill:#076797;}.cls-91{fill:#056798;}.cls-92{fill:#0a6898;}.cls-93{fill:#086898;}.cls-94{fill:#056999;}.cls-95{fill:#086999;}.cls-96{fill:#066a99;}.cls-97{fill:#056a9a;}.cls-98{fill:#036b9b;}.cls-99{fill:#066b9b;}.cls-100{fill:#046c9c;}.cls-101{fill:#036c9c;}.cls-102{fill:#066c9c;}.cls-103{fill:#046d9d;}.cls-104{fill:#016d9e;}.cls-105{fill:#046e9e;}.cls-106{fill:#026f9f;}.cls-107{fill:#006fa0;}.cls-108{fill:#0570a0;}.cls-109{fill:#0370a0;}.cls-110{fill:#0070a0;}.cls-111{fill:#0071a1;}.cls-112{fill:#0372a2;}.cls-113{fill:#0172a2;}.cls-114{fill:#0072a3;}.cls-115{fill:#0473a3;}.cls-116{fill:#0173a3;}.cls-117{fill:#0074a4;}.cls-118{fill:#0474a4;}.cls-119{fill:#0274a5;}.cls-120{fill:#0075a5;}.cls-121{fill:#0276a6;}.cls-122{fill:#0077a7;}.cls-123{fill:#0377a8;}.cls-124{fill:#0078a8;}.cls-125{fill:#0079a9;}.cls-126{fill:#0079aa;}.cls-127{fill:#007aaa;}.cls-128{fill:#007aab;}.cls-129{fill:#007bab;}.cls-130{fill:#007cac;}.cls-131{fill:#007dad;}.cls-132{fill:#007dae;}.cls-133{fill:#007eae;}.cls-134{fill:#007eaf;}.cls-135{fill:#007faf;}.cls-136{fill:#007fb0;}.cls-137{fill:#0080b0;}.cls-138{fill:#0080b1;}.cls-139{fill:#0081b2;}.cls-140{fill:#0081b3;}.cls-141{fill:#0082b3;}.cls-142{fill:#0082b4;}.cls-143{fill:#0083b5;}.cls-144{fill:#0084b5;}.cls-145{fill:#0084b6;}.cls-146{fill:#0085b7;}.cls-147{fill:#0086b7;}.cls-148{fill:#0086b8;}.cls-149{fill:#0087b9;}.cls-150{fill:#0088b9;}.cls-151{fill:#0088ba;}.cls-152{fill:#0089ba;}.cls-153{fill:#0089bb;}.cls-154{fill:#008abc;}.cls-155{fill:#008bbd;}.cls-156{fill:#008cbe;}.cls-157{fill:#008dc0;}.cls-158{fill:#008ec0;}.cls-159{fill:#008fc1;}.cls-160{fill:#008fc2;}.cls-161{fill:#0090c2;}.cls-162{fill:#0090c3;}.cls-163{fill:#0092c4;}.cls-164{fill:#0093c5;}.cls-165{fill:#0093c6;}.cls-166{fill:#0094c6;}.cls-167{fill:#0094c7;}.cls-168{fill:#0095c8;}.cls-169{fill:#0196c9;}.cls-170{fill:#0097c9;}.cls-171{fill:#0097ca;}.cls-172{fill:#0298ca;}.cls-173{fill:#0198cb;}.cls-174{fill:#09c;}.cls-175{fill:#049acc;}.cls-176{fill:#009acd;}.cls-177{fill:#009bcd;}.cls-178{fill:#049bce;}.cls-179{fill:#039bce;}.cls-180{fill:#009ccf;}.cls-181{fill:#009dd0;}.cls-182{fill:#079dd0;}.cls-183{fill:#039ed1;}.cls-184{fill:#009ed1;}.cls-185{fill:#079fd2;}.cls-186{fill:#069fd2;}.cls-187{fill:#039fd2;}.cls-188{fill:#00a0d3;}.cls-189{fill:#0aa1d4;}.cls-190{fill:#06a1d4;}.cls-191{fill:#03a2d5;}.cls-192{fill:#0aa2d5;}.cls-193{fill:#06a3d6;}.cls-194{fill:#04a3d7;}.cls-195{fill:#0da4d7;}.cls-196{fill:#09a5d8;}.cls-197{fill:#07a5d9;}.cls-198{fill:#0da6d9;}.cls-199{fill:#0aa6da;}.cls-200{fill:#10a7da;}.cls-201{fill:#0ea8db;}.cls-202{fill:#0ba8dc;}.cls-203{fill:#11a9dd;}.cls-204{fill:#0faadd;}.cls-205{fill:#0eaade;}.cls-206{fill:#13abde;}.cls-207{fill:#11abdf;}.cls-208{fill:#0eace0;}.cls-209{fill:#13ade1;}.cls-210{fill:#12ade1;}.cls-211{fill:#0eaee2;}.cls-212{fill:#16aee2;}.cls-213{fill:#14afe2;}.cls-214{fill:#12afe3;}.cls-215{fill:#11b0e4;}.cls-216{fill:#16b0e4;}.cls-217{fill:#14b1e5;}.cls-218{fill:#12b1e6;}.cls-219{fill:#18b2e6;}.cls-220{fill:#16b2e6;}.cls-221{fill:#15b3e7;}.cls-222{fill:#14b3e8;}.cls-223{fill:#19b4e8;}.cls-224{fill:#17b4e9;}.cls-225{fill:#14b5e9;}.cls-226{fill:#19b6ea;}.cls-227{fill:#18b6ea;}.cls-228{fill:#218fc5;}.cls-229{fill:#1e4c80;}.cls-230{clip-path:url(#clip-path-2);}</style><clipPath id="clip-path"><polygon class="cls-1" points="175.87 4.88 175.89 41.08 163.84 29.03 163.84 52.88 187.69 52.88 176.11 41.3 211.84 41.32 211.84 56.34 160.38 56.34 160.38 4.88 175.87 4.88"/></clipPath><clipPath id="clip-path-2"><path class="cls-1" d="M202.17,4.88H176.64l.08,33.32,2.49,2.34h32.63v-26A9.67,9.67,0,0,0,202.17,4.88Zm-7.88,14.17h-1.88l-2-4.14v5.58h-2.83V9.58h2.74l3,6.44,2.9-6.44H199V20.49h-2.86V15Zm13.27,13H204.7V26.57l-1.85,4H201l-2-4.13V32h-2.83V21.11h2.74l3,6.44,2.9-6.44h2.78Z"/></clipPath></defs><path class="cls-2" d="M9.79,60.71a3.07,3.07,0,0,1-.53-.05,3.94,3.94,0,0,1-.49-.14,4.09,4.09,0,0,1-.42-.2A2.09,2.09,0,0,1,8,60.07.08.08,0,0,1,8,60l.51-.6a.06.06,0,0,1,.1,0,3.41,3.41,0,0,0,.53.33,1.53,1.53,0,0,0,.67.15.8.8,0,0,0,.55-.16.48.48,0,0,0,.2-.4.43.43,0,0,0-.15-.34,1.14,1.14,0,0,0-.56-.18l-.24,0a1.92,1.92,0,0,1-1.07-.43,1.25,1.25,0,0,1-.38-1,1.45,1.45,0,0,1,.12-.59,1.28,1.28,0,0,1,.32-.45A1.58,1.58,0,0,1,9.13,56a2,2,0,0,1,.67-.1,2.67,2.67,0,0,1,.86.13,2.43,2.43,0,0,1,.7.36s0,.06,0,.1L11,57.1s-.06,0-.09,0a2.21,2.21,0,0,0-.53-.27,1.61,1.61,0,0,0-.54-.09.61.61,0,0,0-.45.15.44.44,0,0,0-.16.36.41.41,0,0,0,.16.33,1.12,1.12,0,0,0,.55.19l.25,0a1.85,1.85,0,0,1,1.07.44,1.27,1.27,0,0,1,.37,1,1.4,1.4,0,0,1-.12.58,1.24,1.24,0,0,1-.34.47,1.77,1.77,0,0,1-.56.31A2.57,2.57,0,0,1,9.79,60.71Z"/><path class="cls-2" d="M12.32,60.63c-.05,0-.07,0-.07-.07V56s0-.06.07-.06h1.77a1.78,1.78,0,0,1,.67.11,1.28,1.28,0,0,1,.5.31,1.27,1.27,0,0,1,.32.47,1.7,1.7,0,0,1,.11.61,1.74,1.74,0,0,1-.11.61,1.39,1.39,0,0,1-.82.78,2,2,0,0,1-.67.11h-.81a0,0,0,0,0,0,0v1.56s0,.07-.07.07ZM14,58.09a.68.68,0,0,0,.49-.17.6.6,0,0,0,.18-.46.62.62,0,0,0-.18-.46.68.68,0,0,0-.49-.17h-.75s0,0,0,0v1.18a0,0,0,0,0,0,0Z"/><path class="cls-2" d="M16.32,56s0-.06.07-.06h2.93s.07,0,.07.06v.74a.06.06,0,0,1-.07.07h-2s0,0,0,0v.93s0,0,0,0H19a.06.06,0,0,1,.07.07v.73a.07.07,0,0,1-.07.07H17.35s0,0,0,0v1s0,0,0,0h2a.06.06,0,0,1,.07.07v.73a.06.06,0,0,1-.07.07H16.39c-.05,0-.07,0-.07-.07Zm1-.57a.05.05,0,0,1,0,0,.09.09,0,0,1,0,0l.64-.79a.16.16,0,0,1,.13-.07h.81l.05,0a.06.06,0,0,1,0,.05l-.83.8a.17.17,0,0,1-.12.06Z"/><path class="cls-2" d="M20.13,59.56a1.87,1.87,0,0,1-.07-.22c0-.08,0-.16,0-.26s0-.2,0-.33v-.91c0-.13,0-.24,0-.33s0-.18,0-.25a2,2,0,0,1,.07-.23,1.53,1.53,0,0,1,.6-.86,1.78,1.78,0,0,1,1-.29,1.8,1.8,0,0,1,1,.27,1.6,1.6,0,0,1,.6.77s0,.07,0,.08l-.73.34s-.07,0-.09,0a1,1,0,0,0-.27-.37.63.63,0,0,0-.46-.16.68.68,0,0,0-.44.14.79.79,0,0,0-.25.38l0,.13a.92.92,0,0,0,0,.19c0,.07,0,.16,0,.27v.83c0,.11,0,.2,0,.27a.74.74,0,0,0,0,.18l0,.14a.79.79,0,0,0,.25.38.68.68,0,0,0,.44.13.67.67,0,0,0,.46-.15,1,1,0,0,0,.27-.38.06.06,0,0,1,.09,0l.73.34c.05,0,.06,0,0,.08a1.6,1.6,0,0,1-.6.77,1.8,1.8,0,0,1-1,.27,1.78,1.78,0,0,1-1-.29A1.57,1.57,0,0,1,20.13,59.56Z"/><path class="cls-2" d="M24,56a.05.05,0,0,1,.06-.06h.86A.05.05,0,0,1,25,56v4.54s0,.07-.06.07h-.86s-.06,0-.06-.07Z"/><path class="cls-2" d="M27.08,56a.08.08,0,0,1,.09-.06H28a.08.08,0,0,1,.09.06l1.55,4.54s0,.07,0,.07h-.87a.08.08,0,0,1-.09-.07l-.26-.81h-1.6l-.26.81a.08.08,0,0,1-.09.07h-.88s-.06,0,0-.07Zm1,2.87-.52-1.64h0l-.52,1.64Z"/><path class="cls-2" d="M30.18,56s0-.06.07-.06h.85s.07,0,.07.06V59.7a0,0,0,0,0,0,0h2s.06,0,.06.07v.75s0,.07-.06.07h-3c-.05,0-.07,0-.07-.07Z"/><path class="cls-2" d="M33.88,56s0-.06.07-.06h.85s.07,0,.07.06v4.54a.06.06,0,0,1-.07.07H34c-.05,0-.07,0-.07-.07Z"/><path class="cls-2" d="M37.28,60.71a3.17,3.17,0,0,1-.53-.05,3.36,3.36,0,0,1-.48-.14,2.75,2.75,0,0,1-.42-.2,1.78,1.78,0,0,1-.33-.25.08.08,0,0,1,0-.12l.51-.6a.06.06,0,0,1,.1,0,3.1,3.1,0,0,0,.54.33,1.45,1.45,0,0,0,.66.15.85.85,0,0,0,.56-.16.5.5,0,0,0,.19-.4.43.43,0,0,0-.15-.34,1.1,1.1,0,0,0-.56-.18l-.24,0a2,2,0,0,1-1.07-.43,1.25,1.25,0,0,1-.38-1,1.45,1.45,0,0,1,.12-.59,1.28,1.28,0,0,1,.32-.45,1.75,1.75,0,0,1,.52-.29,2,2,0,0,1,.66-.1,2.73,2.73,0,0,1,.87.13,2.51,2.51,0,0,1,.69.36s0,.06,0,.1l-.41.63s-.06,0-.09,0a2.36,2.36,0,0,0-.52-.27,1.71,1.71,0,0,0-.55-.09.61.61,0,0,0-.45.15.45.45,0,0,0,0,.69,1.17,1.17,0,0,0,.56.19l.24,0a1.85,1.85,0,0,1,1.07.44,1.24,1.24,0,0,1,.37,1,1.4,1.4,0,0,1-.12.58,1.14,1.14,0,0,1-.34.47,1.67,1.67,0,0,1-.56.31A2.57,2.57,0,0,1,37.28,60.71Z"/><path class="cls-2" d="M40.75,60.63a.06.06,0,0,1-.07-.07V56.9s0,0,0,0H39.49a.06.06,0,0,1-.07-.07V56a.06.06,0,0,1,.07-.07h3.38a.07.07,0,0,1,.07.07v.76a.07.07,0,0,1-.07.07H41.71a0,0,0,0,0,0,0v3.66s0,.07-.07.07Z"/><path class="cls-2" d="M43.49,56s0-.06.07-.06h2.93a.05.05,0,0,1,.06.06v.74c0,.05,0,.07-.06.07h-2s0,0,0,0v.93s0,0,0,0h1.64s.06,0,.06.07v.73s0,.07-.06.07H44.52s0,0,0,0v1s0,0,0,0h2s.06,0,.06.07v.73s0,.07-.06.07H43.56c-.05,0-.07,0-.07-.07Z"/><path class="cls-2" d="M48.87,56a.07.07,0,0,1,.07-.07h1.7a1.85,1.85,0,0,1,1,.26,1.42,1.42,0,0,1,.57.79,1.6,1.6,0,0,1,.05.21,1.45,1.45,0,0,1,0,.25,2.86,2.86,0,0,1,0,.34v1a3.07,3.07,0,0,1,0,.34,1.64,1.64,0,0,1,0,.25,1.17,1.17,0,0,1-.05.2,1.39,1.39,0,0,1-.57.79,1.77,1.77,0,0,1-1,.26h-1.7a.06.06,0,0,1-.07-.07Zm1,3.67a0,0,0,0,0,0,0h.52a1.09,1.09,0,0,0,.55-.12.64.64,0,0,0,.3-.4l0-.11s0-.1,0-.17,0-.16,0-.26v-.76c0-.1,0-.19,0-.26s0-.12,0-.17l0-.12A.66.66,0,0,0,51,57a1.1,1.1,0,0,0-.55-.11H49.9a0,0,0,0,0,0,0Z"/><path class="cls-2" d="M53.11,56s0-.06.07-.06h2.93s.07,0,.07.06v.74c0,.05,0,.07-.07.07h-2s0,0,0,0v.93s0,0,0,0h1.64s.07,0,.07.07v.73a.06.06,0,0,1-.07.07H54.14s0,0,0,0v1s0,0,0,0h2s.07,0,.07.07v.73s0,.07-.07.07H53.18s-.07,0-.07-.07Z"/><path class="cls-2" d="M58.5,56a.05.05,0,0,1,.06-.06h.86s.07,0,.07.06V59.7a0,0,0,0,0,0,0h2c.05,0,.07,0,.07.07v.75s0,.07-.07.07h-3s-.06,0-.06-.07Z"/><path class="cls-2" d="M63.43,56a.08.08,0,0,1,.08-.06h.85a.08.08,0,0,1,.09.06L66,60.56s0,.07,0,.07h-.88a.08.08,0,0,1-.08-.07l-.27-.81h-1.6l-.25.81a.08.08,0,0,1-.09.07H61.9s-.06,0,0-.07Zm1,2.87-.52-1.64h0l-.52,1.64Z"/><path class="cls-2" d="M68.11,56s0-.06.07-.06H69a.11.11,0,0,1,.11.06l1.16,2.67h0L71.41,56a.11.11,0,0,1,.11-.06h.78s.07,0,.07.06v4.54s0,.07-.07.07h-.76s-.06,0-.06-.07V57.93h0l-.85,2a.13.13,0,0,1-.13.09H70a.14.14,0,0,1-.13-.09l-.84-2h0v2.63s0,.07-.07.07h-.76a.06.06,0,0,1-.07-.07Z"/><path class="cls-2" d="M73.25,56a.05.05,0,0,1,.06-.06h2.93c.05,0,.07,0,.07.06v.74c0,.05,0,.07-.07.07h-2a0,0,0,0,0,0,0v.93a0,0,0,0,0,0,0h1.64s.07,0,.07.07v.73a.06.06,0,0,1-.07.07H74.27a0,0,0,0,0,0,0v1a0,0,0,0,0,0,0h2c.05,0,.07,0,.07.07v.73s0,.07-.07.07H73.31s-.06,0-.06-.07Zm1-.57s0,0,0,0,0,0,0,0l.64-.79a.15.15,0,0,1,.13-.07h.8a.06.06,0,0,1,0,0s0,0,0,.05l-.83.8a.18.18,0,0,1-.13.06Z"/><path class="cls-2" d="M77.05,59.56a.9.9,0,0,1-.06-.22,1.78,1.78,0,0,1,0-.26,2.92,2.92,0,0,1,0-.33c0-.12,0-.28,0-.46s0-.33,0-.45a2.92,2.92,0,0,1,0-.33,1.45,1.45,0,0,1,0-.25,1,1,0,0,1,.06-.23,1.53,1.53,0,0,1,.6-.86,1.81,1.81,0,0,1,1-.29,1.74,1.74,0,0,1,1,.27,1.6,1.6,0,0,1,.6.77s0,.07,0,.08l-.73.34a.07.07,0,0,1-.1,0,1,1,0,0,0-.26-.37.65.65,0,0,0-.46-.16.68.68,0,0,0-.44.14.73.73,0,0,0-.25.38.61.61,0,0,0,0,.13s0,.11,0,.19,0,.16,0,.27v.83c0,.11,0,.2,0,.27a1.64,1.64,0,0,0,0,.18.58.58,0,0,0,0,.14.73.73,0,0,0,.25.38.68.68,0,0,0,.44.13.69.69,0,0,0,.46-.15,1,1,0,0,0,.26-.38.07.07,0,0,1,.1,0l.73.34s.06,0,0,.08a1.6,1.6,0,0,1-.6.77,1.74,1.74,0,0,1-1,.27,1.81,1.81,0,0,1-1-.29A1.57,1.57,0,0,1,77.05,59.56Z"/><path class="cls-2" d="M82.14,56a.09.09,0,0,1,.09-.06h.85a.08.08,0,0,1,.08.06l1.55,4.54s0,.07,0,.07h-.87c-.05,0-.07,0-.09-.07l-.26-.81h-1.6l-.26.81a.08.08,0,0,1-.08.07h-.88c-.05,0-.06,0-.05-.07Zm1,2.87-.52-1.64h0l-.51,1.64Z"/><path class="cls-2" d="M85.24,56s0-.06.07-.06h.81a.13.13,0,0,1,.11.06L87.84,59h0V56s0-.06.07-.06h.76a.05.05,0,0,1,.06.06v4.54s0,.07-.06.07h-.8a.13.13,0,0,1-.12-.07l-1.62-2.93h0v2.93a.06.06,0,0,1-.07.07h-.76s-.07,0-.07-.07Z"/><path class="cls-2" d="M89.65,56a.05.05,0,0,1,.06-.06h.86s.07,0,.07.06v4.54a.06.06,0,0,1-.07.07h-.86s-.06,0-.06-.07Z"/><path class="cls-2" d="M94.68,61l-.05,0a0,0,0,0,1,0,0l-.47-.48a1.91,1.91,0,0,1-.93.22,2,2,0,0,1-1-.28,1.46,1.46,0,0,1-.62-.86,2.17,2.17,0,0,1-.07-.24,1.86,1.86,0,0,1,0-.26,3.25,3.25,0,0,1,0-.33c0-.13,0-.27,0-.45s0-.32,0-.45a3.25,3.25,0,0,1,0-.33,2.06,2.06,0,0,1,0-.26,2.17,2.17,0,0,1,.07-.24,1.44,1.44,0,0,1,.62-.85,1.91,1.91,0,0,1,1-.29,1.88,1.88,0,0,1,1,.29,1.49,1.49,0,0,1,.62.85,2.17,2.17,0,0,1,.07.24l0,.26a3.25,3.25,0,0,1,0,.33c0,.13,0,.28,0,.45s0,.32,0,.45a3.25,3.25,0,0,1,0,.33c0,.1,0,.18,0,.26a2.17,2.17,0,0,1-.07.24l0,.15-.06.13.48.49a.06.06,0,0,1,0,.09Zm-1.5-1.16a.94.94,0,0,0,.25,0l-.29-.3a.06.06,0,0,1,0-.09l.54-.53s.06,0,.1,0l.18.19c0-.08,0-.18,0-.3V57.9c0-.11,0-.2,0-.28s0-.14,0-.2a.58.58,0,0,0,0-.14.73.73,0,0,0-.26-.38.77.77,0,0,0-.47-.13.76.76,0,0,0-.46.13.73.73,0,0,0-.26.38.57.57,0,0,0,0,.14,1.68,1.68,0,0,1,0,.2,2.35,2.35,0,0,0,0,.28c0,.11,0,.24,0,.39s0,.28,0,.39a2.27,2.27,0,0,0,0,.28,1.91,1.91,0,0,1,0,.2.57.57,0,0,0,0,.14.69.69,0,0,0,.26.38A.76.76,0,0,0,93.18,59.81Z"/><path class="cls-2" d="M97.47,60.71a2,2,0,0,1-.71-.12,1.55,1.55,0,0,1-.55-.34,1.52,1.52,0,0,1-.37-.57,2.26,2.26,0,0,1-.13-.77V56s0-.06.07-.06h.85c.05,0,.07,0,.07.06v2.92a.92.92,0,0,0,.21.65.73.73,0,0,0,.56.22.71.71,0,0,0,.55-.22.92.92,0,0,0,.21-.65V56s0-.06.07-.06h.85s.07,0,.07.06v2.89a2.26,2.26,0,0,1-.13.77,1.52,1.52,0,0,1-.37.57,1.55,1.55,0,0,1-.55.34A2,2,0,0,1,97.47,60.71Z"/><path class="cls-2" d="M100.07,56s0-.06.07-.06h2.93s.07,0,.07.06v.74a.06.06,0,0,1-.07.07h-2s0,0,0,0v.93s0,0,0,0h1.64c.05,0,.07,0,.07.07v.73a.06.06,0,0,1-.07.07H101.1s0,0,0,0v1s0,0,0,0h2a.06.06,0,0,1,.07.07v.73a.06.06,0,0,1-.07.07h-2.93s-.07,0-.07-.07Z"/><path class="cls-2" d="M105.46,56s0-.07.06-.07h1.71a1.81,1.81,0,0,1,1,.26,1.48,1.48,0,0,1,.58.79,1.6,1.6,0,0,0,0,.21c0,.07,0,.15,0,.25a3.11,3.11,0,0,1,0,.34c0,.13,0,.3,0,.49s0,.35,0,.49a3.28,3.28,0,0,1,0,.34c0,.09,0,.18,0,.25a1.94,1.94,0,0,0,0,.2,1.45,1.45,0,0,1-.58.79,1.73,1.73,0,0,1-1,.26h-1.71s-.06,0-.06-.07Zm1,3.67a0,0,0,0,0,0,0H107a1.13,1.13,0,0,0,.56-.12.66.66,0,0,0,.29-.4.35.35,0,0,0,0-.11s0-.1,0-.17a2,2,0,0,0,0-.26c0-.1,0-.23,0-.38s0-.28,0-.38a2,2,0,0,0,0-.26c0-.07,0-.12,0-.17a.53.53,0,0,0,0-.12.69.69,0,0,0-.29-.4,1.14,1.14,0,0,0-.56-.11h-.51s0,0,0,0Z"/><path class="cls-2" d="M109.69,56s0-.06.07-.06h2.93s.07,0,.07.06v.74c0,.05,0,.07-.07.07h-2a0,0,0,0,0,0,0v.93a0,0,0,0,0,0,0h1.64s.07,0,.07.07v.73a.06.06,0,0,1-.07.07h-1.64a0,0,0,0,0,0,0v1a0,0,0,0,0,0,0h2s.07,0,.07.07v.73s0,.07-.07.07h-2.93a.06.06,0,0,1-.07-.07Z"/><path class="cls-2" d="M115.15,60.63c-.05,0-.07,0-.07-.07V56s0-.06.07-.06h1.77a1.78,1.78,0,0,1,.67.11,1.28,1.28,0,0,1,.5.31,1.27,1.27,0,0,1,.32.47,1.7,1.7,0,0,1,.11.61,1.74,1.74,0,0,1-.11.61,1.39,1.39,0,0,1-.82.78,2,2,0,0,1-.67.11h-.81a0,0,0,0,0,0,0v1.56s0,.07-.07.07Zm1.71-2.54a.68.68,0,0,0,.49-.17.6.6,0,0,0,.18-.46.62.62,0,0,0-.18-.46.68.68,0,0,0-.49-.17h-.75s0,0,0,0v1.18a0,0,0,0,0,0,0Z"/><path class="cls-2" d="M121.68,60.63a.09.09,0,0,1-.1-.07l-.79-1.71h-.61a0,0,0,0,0,0,0v1.67s0,.07-.07.07h-.85s-.07,0-.07-.07V56s0-.06.07-.06H121a1.81,1.81,0,0,1,.63.1,1.48,1.48,0,0,1,.5.3,1.33,1.33,0,0,1,.31.46,1.44,1.44,0,0,1,.11.59,1.34,1.34,0,0,1-.81,1.3l.9,1.84a.06.06,0,0,1,0,.06.06.06,0,0,1-.05,0ZM121,58a.64.64,0,0,0,.45-.16.63.63,0,0,0,0-.84.64.64,0,0,0-.45-.16h-.81s0,0,0,0V58s0,0,0,0Z"/><path class="cls-2" d="M123.35,56a.05.05,0,0,1,.06-.06h2.93s.07,0,.07.06v.74c0,.05,0,.07-.07.07h-2a0,0,0,0,0,0,0v.93a0,0,0,0,0,0,0H126s.06,0,.06.07v.73s0,.07-.06.07h-1.65a0,0,0,0,0,0,0v1a0,0,0,0,0,0,0h2s.07,0,.07.07v.73s0,.07-.07.07h-2.93s-.06,0-.06-.07Zm1-.57s0,0,0,0,0,0,0,0l.64-.79a.16.16,0,0,1,.13-.07h.8a.06.06,0,0,1,0,0s0,0,0,.05l-.83.8a.18.18,0,0,1-.13.06Z"/><path class="cls-2" d="M127.15,59.56a.9.9,0,0,1-.06-.22,1.78,1.78,0,0,1,0-.26c0-.09,0-.2,0-.33s0-.28,0-.46,0-.33,0-.45,0-.24,0-.33a1.45,1.45,0,0,1,0-.25,1,1,0,0,1,.06-.23,1.53,1.53,0,0,1,.6-.86,1.81,1.81,0,0,1,1-.29,1.74,1.74,0,0,1,1,.27,1.6,1.6,0,0,1,.6.77s0,.07,0,.08l-.73.34a.07.07,0,0,1-.1,0,1,1,0,0,0-.26-.37.65.65,0,0,0-.46-.16.68.68,0,0,0-.44.14.73.73,0,0,0-.25.38l0,.13s0,.11,0,.19,0,.16,0,.27v.83c0,.11,0,.2,0,.27a1.64,1.64,0,0,0,0,.18l0,.14a.73.73,0,0,0,.25.38.68.68,0,0,0,.44.13.69.69,0,0,0,.46-.15,1,1,0,0,0,.26-.38.07.07,0,0,1,.1,0l.73.34s.06,0,0,.08a1.6,1.6,0,0,1-.6.77,1.74,1.74,0,0,1-1,.27,1.81,1.81,0,0,1-1-.29A1.57,1.57,0,0,1,127.15,59.56Z"/><path class="cls-2" d="M131,56s0-.06.07-.06h.85s.07,0,.07.06v4.54s0,.07-.07.07h-.85c-.05,0-.07,0-.07-.07Z"/><path class="cls-2" d="M134.41,60.71a3.05,3.05,0,0,1-.52-.05,3.15,3.15,0,0,1-.49-.14,4.09,4.09,0,0,1-.42-.2,1.78,1.78,0,0,1-.33-.25.08.08,0,0,1,0-.12l.51-.6s.06,0,.1,0a3,3,0,0,0,.53.33,1.45,1.45,0,0,0,.66.15.83.83,0,0,0,.56-.16.47.47,0,0,0,.19-.4.43.43,0,0,0-.15-.34,1.09,1.09,0,0,0-.55-.18l-.25,0a2,2,0,0,1-1.07-.43,1.24,1.24,0,0,1-.37-1,1.63,1.63,0,0,1,.11-.59,1.45,1.45,0,0,1,.33-.45,1.58,1.58,0,0,1,.51-.29,2,2,0,0,1,.67-.1,2.71,2.71,0,0,1,.86.13,2.25,2.25,0,0,1,.69.36s.05.06,0,.1l-.41.63a.06.06,0,0,1-.09,0,2.16,2.16,0,0,0-.52-.27,1.61,1.61,0,0,0-.54-.09.64.64,0,0,0-.46.15.46.46,0,0,0-.15.36.43.43,0,0,0,.15.33,1.17,1.17,0,0,0,.56.19l.24,0a1.89,1.89,0,0,1,1.08.44,1.27,1.27,0,0,1,.36,1,1.58,1.58,0,0,1-.11.58,1.24,1.24,0,0,1-.34.47,1.72,1.72,0,0,1-.57.31A2.57,2.57,0,0,1,134.41,60.71Z"/><path class="cls-2" d="M136.88,56a.05.05,0,0,1,.06-.06h.86a.05.05,0,0,1,.06.06v4.54s0,.07-.06.07h-.86s-.06,0-.06-.07Z"/><path class="cls-2" d="M140.41,60.71a2,2,0,0,1-1-.28,1.46,1.46,0,0,1-.62-.86,2.17,2.17,0,0,1-.07-.24c0-.08,0-.16,0-.26s0-.2,0-.33v-.89c0-.13,0-.24,0-.33s0-.19,0-.26a2.17,2.17,0,0,1,.07-.24,1.44,1.44,0,0,1,.62-.85,1.89,1.89,0,0,1,1-.29,1.92,1.92,0,0,1,1.05.29,1.48,1.48,0,0,1,.62.85,1.05,1.05,0,0,1,.06.24,1.59,1.59,0,0,1,0,.26,2.92,2.92,0,0,1,0,.33c0,.12,0,.27,0,.44s0,.33,0,.45a2.92,2.92,0,0,1,0,.33,1.78,1.78,0,0,1,0,.26,1.05,1.05,0,0,1-.06.24,1.5,1.5,0,0,1-.62.86A2,2,0,0,1,140.41,60.71Zm0-.9a.77.77,0,0,0,.47-.13.73.73,0,0,0,.25-.38.57.57,0,0,0,0-.14c0-.06,0-.12,0-.2a2.1,2.1,0,0,0,0-.27c0-.11,0-.24,0-.4s0-.28,0-.39a2.35,2.35,0,0,0,0-.28c0-.07,0-.14,0-.19a.57.57,0,0,0,0-.14.73.73,0,0,0-.25-.38.77.77,0,0,0-.47-.14.76.76,0,0,0-.46.14.74.74,0,0,0-.26.38l0,.14a1,1,0,0,0,0,.19c0,.08,0,.17,0,.28v.79c0,.11,0,.2,0,.27a1.12,1.12,0,0,0,0,.2l0,.14a.74.74,0,0,0,.26.38A.76.76,0,0,0,140.41,59.81Z"/><path class="cls-2" d="M143,56s0-.06.07-.06h.81A.13.13,0,0,1,144,56L145.56,59h0V56s0-.06.07-.06h.76a.05.05,0,0,1,.06.06v4.54s0,.07-.06.07h-.81a.13.13,0,0,1-.11-.07l-1.62-2.93h0v2.93a.06.06,0,0,1-.07.07H143c-.05,0-.07,0-.07-.07Z"/><rect class="cls-2" y="55.42" width="3.66" height="5.24"/><g class="cls-3"><rect class="cls-4" x="160.38" y="4.88" width="0.17" height="51.46"/><rect class="cls-5" x="160.55" y="4.88" width="0.17" height="51.46"/><rect class="cls-5" x="160.72" y="4.88" width="0.17" height="51.46"/><rect class="cls-5" x="160.89" y="4.88" width="0.17" height="51.46"/><rect class="cls-6" x="161.06" y="4.88" width="0.17" height="51.46"/><rect class="cls-7" x="161.23" y="4.88" width="0.17" height="51.46"/><rect class="cls-7" x="161.4" y="4.88" width="0.17" height="51.46"/><rect class="cls-8" x="161.57" y="4.88" width="0.17" height="51.46"/><rect class="cls-9" x="161.75" y="4.88" width="0.17" height="51.46"/><rect class="cls-10" x="161.92" y="4.88" width="0.17" height="51.46"/><rect class="cls-11" x="162.09" y="4.88" width="0.17" height="51.46"/><rect class="cls-11" x="162.26" y="4.88" width="0.17" height="51.46"/><rect class="cls-12" x="162.43" y="4.88" width="0.17" height="51.46"/><rect class="cls-13" x="162.6" y="4.88" width="0.17" height="51.46"/><rect class="cls-13" x="162.77" y="4.88" width="0.17" height="51.46"/><rect class="cls-14" x="162.94" y="4.88" width="0.17" height="51.46"/><rect class="cls-15" x="163.11" y="4.88" width="0.17" height="51.46"/><rect class="cls-15" x="163.28" y="4.88" width="0.17" height="51.46"/><rect class="cls-16" x="163.45" y="4.88" width="0.17" height="51.46"/><rect class="cls-17" x="163.62" y="4.88" width="0.17" height="51.46"/><rect class="cls-18" x="163.79" y="4.88" width="0.17" height="51.46"/><rect class="cls-19" x="163.96" y="4.88" width="0.17" height="51.46"/><rect class="cls-20" x="164.13" y="4.88" width="0.17" height="51.46"/><rect class="cls-20" x="164.3" y="4.88" width="0.17" height="51.46"/><rect class="cls-21" x="164.47" y="4.88" width="0.17" height="51.46"/><rect class="cls-22" x="164.64" y="4.88" width="0.17" height="51.46"/><rect class="cls-23" x="164.81" y="4.88" width="0.17" height="51.46"/><rect class="cls-24" x="164.98" y="4.88" width="0.17" height="51.46"/><rect class="cls-25" x="165.15" y="4.88" width="0.17" height="51.46"/><rect class="cls-26" x="165.32" y="4.88" width="0.17" height="51.46"/><rect class="cls-27" x="165.49" y="4.88" width="0.17" height="51.46"/><rect class="cls-27" x="165.66" y="4.88" width="0.17" height="51.46"/><rect class="cls-28" x="165.83" y="4.88" width="0.17" height="51.46"/><rect class="cls-29" x="166" y="4.88" width="0.17" height="51.46"/><rect class="cls-30" x="166.18" y="4.88" width="0.17" height="51.46"/><rect class="cls-31" x="166.35" y="4.88" width="0.17" height="51.46"/><rect class="cls-32" x="166.52" y="4.88" width="0.17" height="51.46"/><rect class="cls-33" x="166.69" y="4.88" width="0.17" height="51.46"/><rect class="cls-34" x="166.86" y="4.88" width="0.17" height="51.46"/><rect class="cls-34" x="167.03" y="4.88" width="0.17" height="51.46"/><rect class="cls-35" x="167.2" y="4.88" width="0.17" height="51.46"/><rect class="cls-36" x="167.37" y="4.88" width="0.17" height="51.46"/><rect class="cls-37" x="167.54" y="4.88" width="0.17" height="51.46"/><rect class="cls-38" x="167.71" y="4.88" width="0.17" height="51.46"/><rect class="cls-39" x="167.88" y="4.88" width="0.17" height="51.46"/><rect class="cls-39" x="168.05" y="4.88" width="0.17" height="51.46"/><rect class="cls-40" x="168.22" y="4.88" width="0.17" height="51.46"/><rect class="cls-40" x="168.39" y="4.88" width="0.17" height="51.46"/><rect class="cls-41" x="168.56" y="4.88" width="0.17" height="51.46"/><rect class="cls-42" x="168.73" y="4.88" width="0.17" height="51.46"/><rect class="cls-42" x="168.9" y="4.88" width="0.17" height="51.46"/><rect class="cls-43" x="169.07" y="4.88" width="0.17" height="51.46"/><rect class="cls-44" x="169.24" y="4.88" width="0.17" height="51.46"/><rect class="cls-44" x="169.41" y="4.88" width="0.17" height="51.46"/><rect class="cls-45" x="169.58" y="4.88" width="0.17" height="51.46"/><rect class="cls-46" x="169.75" y="4.88" width="0.17" height="51.46"/><rect class="cls-46" x="169.92" y="4.88" width="0.17" height="51.46"/><rect class="cls-47" x="170.09" y="4.88" width="0.17" height="51.46"/><rect class="cls-48" x="170.26" y="4.88" width="0.17" height="51.46"/><rect class="cls-49" x="170.44" y="4.88" width="0.17" height="51.46"/><rect class="cls-50" x="170.61" y="4.88" width="0.17" height="51.46"/><rect class="cls-51" x="170.78" y="4.88" width="0.17" height="51.46"/><rect class="cls-52" x="170.95" y="4.88" width="0.17" height="51.46"/><rect class="cls-53" x="171.12" y="4.88" width="0.17" height="51.46"/><rect class="cls-53" x="171.29" y="4.88" width="0.17" height="51.46"/><rect class="cls-54" x="171.46" y="4.88" width="0.17" height="51.46"/><rect class="cls-55" x="171.63" y="4.88" width="0.17" height="51.46"/><rect class="cls-56" x="171.8" y="4.88" width="0.17" height="51.46"/><rect class="cls-57" x="171.97" y="4.88" width="0.17" height="51.46"/><rect class="cls-58" x="172.14" y="4.88" width="0.17" height="51.46"/><rect class="cls-58" x="172.31" y="4.88" width="0.17" height="51.46"/><rect class="cls-59" x="172.48" y="4.88" width="0.17" height="51.46"/><rect class="cls-59" x="172.65" y="4.88" width="0.17" height="51.46"/><rect class="cls-60" x="172.82" y="4.88" width="0.17" height="51.46"/><rect class="cls-61" x="172.99" y="4.88" width="0.17" height="51.46"/><rect class="cls-62" x="173.16" y="4.88" width="0.17" height="51.46"/><rect class="cls-63" x="173.33" y="4.88" width="0.17" height="51.46"/><rect class="cls-64" x="173.5" y="4.88" width="0.17" height="51.46"/><rect class="cls-64" x="173.67" y="4.88" width="0.17" height="51.46"/><rect class="cls-65" x="173.84" y="4.88" width="0.17" height="51.46"/><rect class="cls-66" x="174.01" y="4.88" width="0.17" height="51.46"/><rect class="cls-66" x="174.18" y="4.88" width="0.17" height="51.46"/><rect class="cls-67" x="174.35" y="4.88" width="0.17" height="51.46"/><rect class="cls-68" x="174.52" y="4.88" width="0.17" height="51.46"/><rect class="cls-68" x="174.69" y="4.88" width="0.17" height="51.46"/><rect class="cls-69" x="174.87" y="4.88" width="0.17" height="51.46"/><rect class="cls-69" x="175.04" y="4.88" width="0.17" height="51.46"/><rect class="cls-70" x="175.21" y="4.88" width="0.17" height="51.46"/><rect class="cls-71" x="175.38" y="4.88" width="0.17" height="51.46"/><rect class="cls-71" x="175.55" y="4.88" width="0.17" height="51.46"/><rect class="cls-72" x="175.72" y="4.88" width="0.17" height="51.46"/><rect class="cls-73" x="175.89" y="4.88" width="0.17" height="51.46"/><rect class="cls-74" x="176.06" y="4.88" width="0.17" height="51.46"/><rect class="cls-75" x="176.23" y="4.88" width="0.17" height="51.46"/><rect class="cls-76" x="176.4" y="4.88" width="0.17" height="51.46"/><rect class="cls-77" x="176.57" y="4.88" width="0.17" height="51.46"/><rect class="cls-78" x="176.74" y="4.88" width="0.17" height="51.46"/><rect class="cls-78" x="176.91" y="4.88" width="0.17" height="51.46"/><rect class="cls-79" x="177.08" y="4.88" width="0.17" height="51.46"/><rect class="cls-80" x="177.25" y="4.88" width="0.17" height="51.46"/><rect class="cls-81" x="177.42" y="4.88" width="0.17" height="51.46"/><rect class="cls-82" x="177.59" y="4.88" width="0.17" height="51.46"/><rect class="cls-83" x="177.76" y="4.88" width="0.17" height="51.46"/><rect class="cls-83" x="177.93" y="4.88" width="0.17" height="51.46"/><rect class="cls-84" x="178.1" y="4.88" width="0.17" height="51.46"/><rect class="cls-85" x="178.27" y="4.88" width="0.17" height="51.46"/><rect class="cls-86" x="178.44" y="4.88" width="0.17" height="51.46"/><rect class="cls-87" x="178.61" y="4.88" width="0.17" height="51.46"/><rect class="cls-88" x="178.78" y="4.88" width="0.17" height="51.46"/><rect class="cls-88" x="178.95" y="4.88" width="0.17" height="51.46"/><rect class="cls-89" x="179.13" y="4.88" width="0.17" height="51.46"/><rect class="cls-89" x="179.3" y="4.88" width="0.17" height="51.46"/><rect class="cls-90" x="179.47" y="4.88" width="0.17" height="51.46"/><rect class="cls-91" x="179.64" y="4.88" width="0.17" height="51.46"/><rect class="cls-92" x="179.81" y="4.88" width="0.17" height="51.46"/><rect class="cls-93" x="179.98" y="4.88" width="0.17" height="51.46"/><rect class="cls-94" x="180.15" y="4.88" width="0.17" height="51.46"/><rect class="cls-94" x="180.32" y="4.88" width="0.17" height="51.46"/><rect class="cls-95" x="180.49" y="4.88" width="0.17" height="51.46"/><rect class="cls-96" x="180.66" y="4.88" width="0.17" height="51.46"/><rect class="cls-97" x="180.83" y="4.88" width="0.17" height="51.46"/><rect class="cls-98" x="181" y="4.88" width="0.17" height="51.46"/><rect class="cls-99" x="181.17" y="4.88" width="0.17" height="51.46"/><rect class="cls-99" x="181.34" y="4.88" width="0.17" height="51.46"/><rect class="cls-100" x="181.51" y="4.88" width="0.17" height="51.46"/><rect class="cls-101" x="181.68" y="4.88" width="0.17" height="51.46"/><rect class="cls-102" x="181.85" y="4.88" width="0.17" height="51.46"/><rect class="cls-103" x="182.02" y="4.88" width="0.17" height="51.46"/><rect class="cls-103" x="182.19" y="4.88" width="0.17" height="51.46"/><rect class="cls-104" x="182.36" y="4.88" width="0.17" height="51.46"/><rect class="cls-105" x="182.53" y="4.88" width="0.17" height="51.46"/><rect class="cls-105" x="182.7" y="4.88" width="0.17" height="51.46"/><rect class="cls-106" x="182.87" y="4.88" width="0.17" height="51.46"/><rect class="cls-107" x="183.04" y="4.88" width="0.17" height="51.46"/><rect class="cls-108" x="183.21" y="4.88" width="0.17" height="51.46"/><rect class="cls-109" x="183.38" y="4.88" width="0.17" height="51.46"/><rect class="cls-110" x="183.56" y="4.88" width="0.17" height="51.46"/><rect class="cls-111" x="183.73" y="4.88" width="0.17" height="51.46"/><rect class="cls-112" x="183.9" y="4.88" width="0.17" height="51.46"/><rect class="cls-112" x="184.07" y="4.88" width="0.17" height="51.46"/><rect class="cls-113" x="184.24" y="4.88" width="0.17" height="51.46"/><rect class="cls-114" x="184.41" y="4.88" width="0.17" height="51.46"/><rect class="cls-115" x="184.58" y="4.88" width="0.17" height="51.46"/><rect class="cls-116" x="184.75" y="4.88" width="0.17" height="51.46"/><rect class="cls-117" x="184.92" y="4.88" width="0.17" height="51.46"/><rect class="cls-118" x="185.09" y="4.88" width="0.17" height="51.46"/><rect class="cls-119" x="185.26" y="4.88" width="0.17" height="51.46"/><rect class="cls-120" x="185.43" y="4.88" width="0.17" height="51.46"/><rect class="cls-120" x="185.6" y="4.88" width="0.17" height="51.46"/><rect class="cls-121" x="185.77" y="4.88" width="0.17" height="51.46"/><rect class="cls-121" x="185.94" y="4.88" width="0.17" height="51.46"/><rect class="cls-122" x="186.11" y="4.88" width="0.17" height="51.46"/><rect class="cls-122" x="186.28" y="4.88" width="0.17" height="51.46"/><rect class="cls-123" x="186.45" y="4.88" width="0.17" height="51.46"/><rect class="cls-124" x="186.62" y="4.88" width="0.17" height="51.46"/><rect class="cls-124" x="186.79" y="4.88" width="0.17" height="51.46"/><rect class="cls-125" x="186.96" y="4.88" width="0.17" height="51.46"/><rect class="cls-126" x="187.13" y="4.88" width="0.17" height="51.46"/><rect class="cls-127" x="187.3" y="4.88" width="0.17" height="51.46"/><rect class="cls-127" x="187.47" y="4.88" width="0.17" height="51.46"/><rect class="cls-128" x="187.64" y="4.88" width="0.17" height="51.46"/><rect class="cls-129" x="187.82" y="4.88" width="0.17" height="51.46"/><rect class="cls-129" x="187.99" y="4.88" width="0.17" height="51.46"/><rect class="cls-130" x="188.16" y="4.88" width="0.17" height="51.46"/><rect class="cls-130" x="188.33" y="4.88" width="0.17" height="51.46"/><rect class="cls-131" x="188.5" y="4.88" width="0.17" height="51.46"/><rect class="cls-132" x="188.67" y="4.88" width="0.17" height="51.46"/><rect class="cls-132" x="188.84" y="4.88" width="0.17" height="51.46"/><rect class="cls-133" x="189.01" y="4.88" width="0.17" height="51.46"/><rect class="cls-133" x="189.18" y="4.88" width="0.17" height="51.46"/><rect class="cls-134" x="189.35" y="4.88" width="0.17" height="51.46"/><rect class="cls-135" x="189.52" y="4.88" width="0.17" height="51.46"/><rect class="cls-136" x="189.69" y="4.88" width="0.17" height="51.46"/><rect class="cls-137" x="189.86" y="4.88" width="0.17" height="51.46"/><rect class="cls-138" x="190.03" y="4.88" width="0.17" height="51.46"/><rect class="cls-138" x="190.2" y="4.88" width="0.17" height="51.46"/><rect class="cls-138" x="190.37" y="4.88" width="0.17" height="51.46"/><rect class="cls-139" x="190.54" y="4.88" width="0.17" height="51.46"/><rect class="cls-139" x="190.71" y="4.88" width="0.17" height="51.46"/><rect class="cls-140" x="190.88" y="4.88" width="0.17" height="51.46"/><rect class="cls-141" x="191.05" y="4.88" width="0.17" height="51.46"/><rect class="cls-142" x="191.22" y="4.88" width="0.17" height="51.46"/><rect class="cls-143" x="191.39" y="4.88" width="0.17" height="51.46"/><rect class="cls-143" x="191.56" y="4.88" width="0.17" height="51.46"/><rect class="cls-144" x="191.73" y="4.88" width="0.17" height="51.46"/><rect class="cls-144" x="191.9" y="4.88" width="0.17" height="51.46"/><rect class="cls-145" x="192.07" y="4.88" width="0.17" height="51.46"/><rect class="cls-145" x="192.25" y="4.88" width="0.17" height="51.46"/><rect class="cls-146" x="192.42" y="4.88" width="0.17" height="51.46"/><rect class="cls-147" x="192.59" y="4.88" width="0.17" height="51.46"/><rect class="cls-148" x="192.76" y="4.88" width="0.17" height="51.46"/><rect class="cls-149" x="192.93" y="4.88" width="0.17" height="51.46"/><rect class="cls-149" x="193.1" y="4.88" width="0.17" height="51.46"/><rect class="cls-149" x="193.27" y="4.88" width="0.17" height="51.46"/><rect class="cls-150" x="193.44" y="4.88" width="0.17" height="51.46"/><rect class="cls-151" x="193.61" y="4.88" width="0.17" height="51.46"/><rect class="cls-152" x="193.78" y="4.88" width="0.17" height="51.46"/><rect class="cls-153" x="193.95" y="4.88" width="0.17" height="51.46"/><rect class="cls-153" x="194.12" y="4.88" width="0.17" height="51.46"/><rect class="cls-154" x="194.29" y="4.88" width="0.17" height="51.46"/><rect class="cls-155" x="194.46" y="4.88" width="0.17" height="51.46"/><rect class="cls-155" x="194.63" y="4.88" width="0.17" height="51.46"/><rect class="cls-155" x="194.8" y="4.88" width="0.17" height="51.46"/><rect class="cls-156" x="194.97" y="4.88" width="0.17" height="51.46"/><rect class="cls-156" x="195.14" y="4.88" width="0.17" height="51.46"/><rect class="cls-156" x="195.31" y="4.88" width="0.17" height="51.46"/><rect class="cls-156" x="195.48" y="4.88" width="0.17" height="51.46"/><rect class="cls-157" x="195.65" y="4.88" width="0.17" height="51.46"/><rect class="cls-158" x="195.82" y="4.88" width="0.17" height="51.46"/><rect class="cls-158" x="195.99" y="4.88" width="0.17" height="51.46"/><rect class="cls-159" x="196.16" y="4.88" width="0.17" height="51.46"/><rect class="cls-160" x="196.33" y="4.88" width="0.17" height="51.46"/><rect class="cls-160" x="196.51" y="4.88" width="0.17" height="51.46"/><rect class="cls-161" x="196.68" y="4.88" width="0.17" height="51.46"/><rect class="cls-161" x="196.85" y="4.88" width="0.17" height="51.46"/><rect class="cls-162" x="197.02" y="4.88" width="0.17" height="51.46"/><rect class="cls-163" x="197.19" y="4.88" width="0.17" height="51.46"/><rect class="cls-163" x="197.36" y="4.88" width="0.17" height="51.46"/><rect class="cls-163" x="197.53" y="4.88" width="0.17" height="51.46"/><rect class="cls-164" x="197.7" y="4.88" width="0.17" height="51.46"/><rect class="cls-164" x="197.87" y="4.88" width="0.17" height="51.46"/><rect class="cls-165" x="198.04" y="4.88" width="0.17" height="51.46"/><rect class="cls-166" x="198.21" y="4.88" width="0.17" height="51.46"/><rect class="cls-167" x="198.38" y="4.88" width="0.17" height="51.46"/><rect class="cls-168" x="198.55" y="4.88" width="0.17" height="51.46"/><rect class="cls-168" x="198.72" y="4.88" width="0.17" height="51.46"/><rect class="cls-168" x="198.89" y="4.88" width="0.17" height="51.46"/><rect class="cls-169" x="199.06" y="4.88" width="0.17" height="51.46"/><rect class="cls-170" x="199.23" y="4.88" width="0.17" height="51.46"/><rect class="cls-170" x="199.4" y="4.88" width="0.17" height="51.46"/><rect class="cls-171" x="199.57" y="4.88" width="0.17" height="51.46"/><rect class="cls-172" x="199.74" y="4.88" width="0.17" height="51.46"/><rect class="cls-173" x="199.91" y="4.88" width="0.17" height="51.46"/><rect class="cls-174" x="200.08" y="4.88" width="0.17" height="51.46"/><rect class="cls-174" x="200.25" y="4.88" width="0.17" height="51.46"/><rect class="cls-175" x="200.42" y="4.88" width="0.17" height="51.46"/><rect class="cls-176" x="200.59" y="4.88" width="0.17" height="51.46"/><rect class="cls-176" x="200.76" y="4.88" width="0.17" height="51.46"/><rect class="cls-177" x="200.94" y="4.88" width="0.17" height="51.46"/><rect class="cls-178" x="201.11" y="4.88" width="0.17" height="51.46"/><rect class="cls-179" x="201.28" y="4.88" width="0.17" height="51.46"/><rect class="cls-180" x="201.45" y="4.88" width="0.17" height="51.46"/><rect class="cls-181" x="201.62" y="4.88" width="0.17" height="51.46"/><rect class="cls-182" x="201.79" y="4.88" width="0.17" height="51.46"/><rect class="cls-183" x="201.96" y="4.88" width="0.17" height="51.46"/><rect class="cls-184" x="202.13" y="4.88" width="0.17" height="51.46"/><rect class="cls-184" x="202.3" y="4.88" width="0.17" height="51.46"/><rect class="cls-185" x="202.47" y="4.88" width="0.17" height="51.46"/><rect class="cls-186" x="202.64" y="4.88" width="0.17" height="51.46"/><rect class="cls-187" x="202.81" y="4.88" width="0.17" height="51.46"/><rect class="cls-188" x="202.98" y="4.88" width="0.17" height="51.46"/><rect class="cls-189" x="203.15" y="4.88" width="0.17" height="51.46"/><rect class="cls-190" x="203.32" y="4.88" width="0.17" height="51.46"/><rect class="cls-191" x="203.49" y="4.88" width="0.17" height="51.46"/><rect class="cls-191" x="203.66" y="4.88" width="0.17" height="51.46"/><rect class="cls-192" x="203.83" y="4.88" width="0.17" height="51.46"/><rect class="cls-193" x="204" y="4.88" width="0.17" height="51.46"/><rect class="cls-193" x="204.17" y="4.88" width="0.17" height="51.46"/><rect class="cls-194" x="204.34" y="4.88" width="0.17" height="51.46"/><rect class="cls-195" x="204.51" y="4.88" width="0.17" height="51.46"/><rect class="cls-196" x="204.68" y="4.88" width="0.17" height="51.46"/><rect class="cls-197" x="204.85" y="4.88" width="0.17" height="51.46"/><rect class="cls-197" x="205.02" y="4.88" width="0.17" height="51.46"/><rect class="cls-198" x="205.2" y="4.88" width="0.17" height="51.46"/><rect class="cls-199" x="205.37" y="4.88" width="0.17" height="51.46"/><rect class="cls-199" x="205.54" y="4.88" width="0.17" height="51.46"/><rect class="cls-200" x="205.71" y="4.88" width="0.17" height="51.46"/><rect class="cls-201" x="205.88" y="4.88" width="0.17" height="51.46"/><rect class="cls-201" x="206.05" y="4.88" width="0.17" height="51.46"/><rect class="cls-202" x="206.22" y="4.88" width="0.17" height="51.46"/><rect class="cls-203" x="206.39" y="4.88" width="0.17" height="51.46"/><rect class="cls-203" x="206.56" y="4.88" width="0.17" height="51.46"/><rect class="cls-204" x="206.73" y="4.88" width="0.17" height="51.46"/><rect class="cls-205" x="206.9" y="4.88" width="0.17" height="51.46"/><rect class="cls-206" x="207.07" y="4.88" width="0.17" height="51.46"/><rect class="cls-207" x="207.24" y="4.88" width="0.17" height="51.46"/><rect class="cls-207" x="207.41" y="4.88" width="0.17" height="51.46"/><rect class="cls-208" x="207.58" y="4.88" width="0.17" height="51.46"/><rect class="cls-209" x="207.75" y="4.88" width="0.17" height="51.46"/><rect class="cls-209" x="207.92" y="4.88" width="0.17" height="51.46"/><rect class="cls-210" x="208.09" y="4.88" width="0.17" height="51.46"/><rect class="cls-211" x="208.26" y="4.88" width="0.17" height="51.46"/><rect class="cls-212" x="208.43" y="4.88" width="0.17" height="51.46"/><rect class="cls-213" x="208.6" y="4.88" width="0.17" height="51.46"/><rect class="cls-214" x="208.77" y="4.88" width="0.17" height="51.46"/><rect class="cls-215" x="208.94" y="4.88" width="0.17" height="51.46"/><rect class="cls-216" x="209.11" y="4.88" width="0.17" height="51.46"/><rect class="cls-216" x="209.28" y="4.88" width="0.17" height="51.46"/><rect class="cls-217" x="209.45" y="4.88" width="0.17" height="51.46"/><rect class="cls-218" x="209.63" y="4.88" width="0.17" height="51.46"/><rect class="cls-219" x="209.8" y="4.88" width="0.17" height="51.46"/><rect class="cls-220" x="209.97" y="4.88" width="0.17" height="51.46"/><rect class="cls-221" x="210.14" y="4.88" width="0.17" height="51.46"/><rect class="cls-222" x="210.31" y="4.88" width="0.17" height="51.46"/><rect class="cls-223" x="210.48" y="4.88" width="0.17" height="51.46"/><rect class="cls-224" x="210.65" y="4.88" width="0.17" height="51.46"/><rect class="cls-224" x="210.82" y="4.88" width="0.17" height="51.46"/><rect class="cls-225" x="210.99" y="4.88" width="0.17" height="51.46"/><rect class="cls-226" x="211.16" y="4.88" width="0.17" height="51.46"/><rect class="cls-226" x="211.33" y="4.88" width="0.17" height="51.46"/><rect class="cls-227" x="211.5" y="4.88" width="0.17" height="51.46"/><rect class="cls-227" x="211.67" y="4.88" width="0.17" height="51.46"/></g><path class="cls-228" d="M217.75,61.27H154.3V0h50.57a12.9,12.9,0,0,1,12.88,12.88Zm-62.11-1.34H216.4v-47A11.54,11.54,0,0,0,204.87,1.35H155.64Z"/><path class="cls-2" d="M16.91,6.92c.51,1.35,1.06,2.69,1.56,4s1,2.69,1.56,4c1.7-2.13,3.38-4.27,5.07-6.4s3.41-4.26,5.09-6.39h9q-1.07,5.21-2.12,10.4C36.38,16.07,35.66,19.53,35,23H26c.34-1.67.66-3.35,1-5s.69-3.34,1-5l-4,5c-1.33,1.67-2.65,3.35-4,5H16.79c-.66-1.67-1.32-3.34-2-5s-1.28-3.34-1.91-5c-.36,1.67-.69,3.34-1,5s-.69,3.35-1,5h-9c.46-2.32.94-4.64,1.41-7s1-4.64,1.43-7Zm-.21-.55C16.18,5,15.63,3.6,15.1,2.21H4.1C3.81,3.6,3.53,5,3.24,6.37Z"/><path class="cls-2" d="M40.88,23c.46-2.32.95-4.64,1.43-7s.94-4.64,1.43-7l9.32-1.65c-.55,2.59-1.07,5.19-1.6,7.78s-1.07,5.2-1.6,7.79Zm11.29-6.24H66.73a7.07,7.07,0,0,0,4.57-1.83A8.11,8.11,0,0,0,74,10.53l.42-2.08A5.44,5.44,0,0,0,73.55,4a4.65,4.65,0,0,0-3.83-1.83H43.13c-.28,1.39-.57,2.77-.84,4.16H63.87a1.62,1.62,0,0,1,1.58,2.08c-.14.69-.3,1.38-.44,2.08a2.65,2.65,0,0,1-2.4,2.08h-8.9C53.18,14,52.68,15.38,52.17,16.76Z"/><path class="cls-2" d="M76.47,6.37l.84-4.16h32.6c-1,1.39-2.11,2.77-3.14,4.16Zm9.31,8.31c.22-1.21.47-2.42.72-3.62s.49-2.42.73-3.63L77.91,9.08c-.32,1.52-.62,3-.93,4.56a8.1,8.1,0,0,0,1.28,6.61A7.07,7.07,0,0,0,84.05,23h19.31c1-1.39,2.09-2.77,3.14-4.16H89.27A3.49,3.49,0,0,1,85.78,14.68Zm2.56-4.15H106.2l-3.14,4.15H86.78C87.29,13.3,87.81,11.91,88.34,10.53Z"/><path class="cls-2" d="M123.74,7.42c-.51,2.6-1,5.2-1.58,7.79s-1.07,5.19-1.58,7.79h-9c.46-2.32,1-4.64,1.42-7s.94-4.65,1.42-7Zm.68,5.18c-.53,1.39-1,2.77-1.57,4.16h6.09c.61,1,1.23,2.08,1.85,3.12S132.06,22,132.7,23h10.44c-.67-1.08-1.32-2.17-2-3.25l-2-3.26a8.15,8.15,0,0,0,5.48-6c.14-.69.29-1.38.43-2.08a5.46,5.46,0,0,0-.87-4.4,4.69,4.69,0,0,0-3.86-1.84H113.83c-.29,1.39-.55,2.78-.84,4.16h21.59a1.63,1.63,0,0,1,1.57,2.08c-.14.7-.29,1.39-.43,2.08a2.64,2.64,0,0,1-2.42,2.08Z"/><path class="cls-229" d="M13,34c.41,1.28.86,2.55,1.27,3.82s.84,2.55,1.27,3.82c1.39-2,2.76-4,4.14-6s2.79-4,4.16-6.05h7.38c-.59,3.28-1.16,6.56-1.74,9.83s-1.17,6.55-1.74,9.83H20.38c.27-1.58.54-3.16.82-4.74s.57-3.16.85-4.75l-3.27,4.75c-1.09,1.57-2.16,3.16-3.25,4.74H12.89c-.54-1.58-1.08-3.16-1.6-4.74s-1-3.16-1.57-4.75c-.29,1.59-.56,3.17-.84,4.75S8.31,47.63,8,49.21H.7c.38-2.19.77-4.39,1.15-6.58L3,36Zm-.17-.52c-.43-1.31-.88-2.62-1.31-3.93h-9c-.24,1.31-.46,2.62-.7,3.93Z"/><path class="cls-229" d="M42.52,34.48c-.43,2.46-.88,4.91-1.31,7.37l-1.29,7.36H32.56c.39-2.19.78-4.39,1.16-6.58L34.89,36Zm10.83,4.7H43.08c-.42,1.31-.85,2.62-1.26,3.93H52.67c-.19,1-.37,2-.55,3s-.36,2-.53,3.05H59c.32-1.8.63-3.6.95-5.41s.63-3.6,1-5.4a8.6,8.6,0,0,0-1.08-6.25,5.53,5.53,0,0,0-4.72-2.6H34.4l-.69,3.93H50.8c2,0,3.23,1.94,2.81,4.3C53.53,38.24,53.44,38.71,53.35,39.18Z"/><path class="cls-229" d="M72.58,34.48c-.42,2.45-.85,4.91-1.29,7.36s-.87,4.92-1.29,7.37H62.65c.38-2.19.78-4.39,1.17-6.58S64.59,38.23,65,36Zm.56,4.9c-.44,1.31-.86,2.62-1.28,3.93h5c.49,1,1,2,1.51,2.95s1,2,1.56,3h8.53c-.55-1-1.08-2.06-1.61-3.08l-1.6-3.08A6.39,6.39,0,0,0,88.08,41a8,8,0,0,0,1.62-3.54c.11-.66.23-1.31.35-2a5.77,5.77,0,0,0-.72-4.16,3.67,3.67,0,0,0-3.15-1.74H64.49c-.24,1.32-.45,2.63-.69,3.94H81.44c.89,0,1.47.88,1.28,2-.12.66-.24,1.31-.35,2a2.29,2.29,0,0,1-2,2Z"/><path class="cls-229" d="M92.89,36l7.61-1.56c-.21,1.09-.4,2.17-.58,3.25L99.35,41c-.43,2.36.84,4.29,2.78,4.29h5.23c2,0,3.9-1.93,4.31-4.29l.57-3.21c.41-2.37-.83-4.3-2.8-4.3H91.68c.23-1.31.47-2.62.69-3.93H113.7a5.55,5.55,0,0,1,4.74,2.6,8.73,8.73,0,0,1,1,6.25c-.11.65-.23,1.31-.34,2a12,12,0,0,1-3.27,6.25,8.21,8.21,0,0,1-5.65,2.6H97.89a5.52,5.52,0,0,1-4.73-2.6,8.7,8.7,0,0,1-1-6.25Z"/><path class="cls-229" d="M122,29.55h25q-1.28,2-2.57,3.93H121.31Zm22.2,15.73-2.58,3.93H127.51a5.53,5.53,0,0,1-4.73-2.6,8.6,8.6,0,0,1-1.06-6.25c.25-1.44.51-2.88.77-4.32l7.62-1.56-.6,3.44c-.21,1.14-.42,2.28-.61,3.43-.23,2.19,1,3.93,2.87,3.93Z"/><g class="cls-230"><rect class="cls-132" x="196.18" y="21.11" width="0.05" height="10.91"/><rect class="cls-133" x="196.22" y="21.11" width="0.12" height="10.91"/><rect class="cls-133" x="196.34" y="21.11" width="0.12" height="10.91"/><rect class="cls-134" x="196.46" y="21.11" width="0.12" height="10.91"/><rect class="cls-135" x="196.57" y="21.11" width="0.12" height="10.91"/><rect class="cls-136" x="196.69" y="21.11" width="0.12" height="10.91"/><rect class="cls-137" x="196.81" y="21.11" width="0.12" height="10.91"/><rect class="cls-138" x="196.92" y="21.11" width="0.12" height="10.91"/><rect class="cls-138" x="197.04" y="21.11" width="0.12" height="10.91"/><rect class="cls-138" x="197.16" y="21.11" width="0.12" height="10.91"/><rect class="cls-139" x="197.27" y="21.11" width="0.12" height="10.91"/><rect class="cls-139" x="197.39" y="21.11" width="0.12" height="10.91"/><rect class="cls-140" x="197.51" y="21.11" width="0.12" height="10.91"/><rect class="cls-141" x="197.62" y="21.11" width="0.12" height="10.91"/><rect class="cls-142" x="197.74" y="21.11" width="0.12" height="10.91"/><rect class="cls-143" x="197.86" y="21.11" width="0.12" height="10.91"/><rect class="cls-143" x="197.97" y="21.11" width="0.12" height="10.91"/><rect class="cls-144" x="198.09" y="21.11" width="0.12" height="10.91"/><rect class="cls-144" x="198.2" y="21.11" width="0.12" height="10.91"/><rect class="cls-145" x="198.32" y="21.11" width="0.12" height="10.91"/><rect class="cls-145" x="198.44" y="21.11" width="0.12" height="10.91"/><rect class="cls-146" x="198.55" y="21.11" width="0.12" height="10.91"/><rect class="cls-147" x="198.67" y="21.11" width="0.12" height="10.91"/><rect class="cls-148" x="198.79" y="21.11" width="0.12" height="10.91"/><rect class="cls-149" x="198.9" y="21.11" width="0.12" height="10.91"/><rect class="cls-149" x="199.02" y="21.11" width="0.12" height="10.91"/><rect class="cls-149" x="199.14" y="21.11" width="0.12" height="10.91"/><rect class="cls-150" x="199.25" y="21.11" width="0.12" height="10.91"/><rect class="cls-151" x="199.37" y="21.11" width="0.12" height="10.91"/><rect class="cls-152" x="199.49" y="21.11" width="0.12" height="10.91"/><rect class="cls-153" x="199.6" y="21.11" width="0.12" height="10.91"/><rect class="cls-153" x="199.72" y="21.11" width="0.12" height="10.91"/><rect class="cls-154" x="199.84" y="21.11" width="0.12" height="10.91"/><rect class="cls-155" x="199.95" y="21.11" width="0.12" height="10.91"/><rect class="cls-155" x="200.07" y="21.11" width="0.12" height="10.91"/><rect class="cls-155" x="200.19" y="21.11" width="0.12" height="10.91"/><rect class="cls-156" x="200.3" y="21.11" width="0.12" height="10.91"/><rect class="cls-156" x="200.42" y="21.11" width="0.12" height="10.91"/><rect class="cls-156" x="200.54" y="21.11" width="0.12" height="10.91"/><rect class="cls-156" x="200.65" y="21.11" width="0.12" height="10.91"/><rect class="cls-157" x="200.77" y="21.11" width="0.12" height="10.91"/><rect class="cls-158" x="200.89" y="21.11" width="0.12" height="10.91"/><rect class="cls-158" x="201" y="21.11" width="0.12" height="10.91"/><rect class="cls-159" x="201.12" y="21.11" width="0.12" height="10.91"/><rect class="cls-160" x="201.24" y="21.11" width="0.12" height="10.91"/><rect class="cls-160" x="201.35" y="21.11" width="0.12" height="10.91"/><rect class="cls-161" x="201.47" y="21.11" width="0.12" height="10.91"/><rect class="cls-161" x="201.58" y="21.11" width="0.12" height="10.91"/><rect class="cls-162" x="201.7" y="21.11" width="0.12" height="10.91"/><rect class="cls-163" x="201.82" y="21.11" width="0.12" height="10.91"/><rect class="cls-163" x="201.93" y="21.11" width="0.12" height="10.91"/><rect class="cls-163" x="202.05" y="21.11" width="0.12" height="10.91"/><rect class="cls-164" x="202.17" y="21.11" width="0.12" height="10.91"/><rect class="cls-164" x="202.28" y="21.11" width="0.12" height="10.91"/><rect class="cls-165" x="202.4" y="21.11" width="0.12" height="10.91"/><rect class="cls-166" x="202.52" y="21.11" width="0.12" height="10.91"/><rect class="cls-167" x="202.63" y="21.11" width="0.12" height="10.91"/><rect class="cls-168" x="202.75" y="21.11" width="0.12" height="10.91"/><rect class="cls-168" x="202.87" y="21.11" width="0.12" height="10.91"/><rect class="cls-168" x="202.98" y="21.11" width="0.12" height="10.91"/><rect class="cls-169" x="203.1" y="21.11" width="0.12" height="10.91"/><rect class="cls-170" x="203.22" y="21.11" width="0.12" height="10.91"/><rect class="cls-170" x="203.33" y="21.11" width="0.12" height="10.91"/><rect class="cls-171" x="203.45" y="21.11" width="0.12" height="10.91"/><rect class="cls-172" x="203.57" y="21.11" width="0.12" height="10.91"/><rect class="cls-173" x="203.68" y="21.11" width="0.12" height="10.91"/><rect class="cls-174" x="203.8" y="21.11" width="0.12" height="10.91"/><rect class="cls-174" x="203.92" y="21.11" width="0.12" height="10.91"/><rect class="cls-175" x="204.03" y="21.11" width="0.12" height="10.91"/><rect class="cls-176" x="204.15" y="21.11" width="0.12" height="10.91"/><rect class="cls-176" x="204.27" y="21.11" width="0.12" height="10.91"/><rect class="cls-177" x="204.38" y="21.11" width="0.12" height="10.91"/><rect class="cls-178" x="204.5" y="21.11" width="0.12" height="10.91"/><rect class="cls-179" x="204.61" y="21.11" width="0.12" height="10.91"/><rect class="cls-180" x="204.73" y="21.11" width="0.12" height="10.91"/><rect class="cls-181" x="204.85" y="21.11" width="0.12" height="10.91"/><rect class="cls-182" x="204.96" y="21.11" width="0.12" height="10.91"/><rect class="cls-183" x="205.08" y="21.11" width="0.12" height="10.91"/><rect class="cls-184" x="205.2" y="21.11" width="0.12" height="10.91"/><rect class="cls-184" x="205.31" y="21.11" width="0.12" height="10.91"/><rect class="cls-185" x="205.43" y="21.11" width="0.12" height="10.91"/><rect class="cls-186" x="205.55" y="21.11" width="0.12" height="10.91"/><rect class="cls-187" x="205.66" y="21.11" width="0.12" height="10.91"/><rect class="cls-188" x="205.78" y="21.11" width="0.12" height="10.91"/><rect class="cls-189" x="205.9" y="21.11" width="0.12" height="10.91"/><rect class="cls-190" x="206.01" y="21.11" width="0.12" height="10.91"/><rect class="cls-191" x="206.13" y="21.11" width="0.12" height="10.91"/><rect class="cls-191" x="206.25" y="21.11" width="0.12" height="10.91"/><rect class="cls-192" x="206.36" y="21.11" width="0.12" height="10.91"/><rect class="cls-193" x="206.48" y="21.11" width="0.12" height="10.91"/><rect class="cls-193" x="206.6" y="21.11" width="0.12" height="10.91"/><rect class="cls-194" x="206.71" y="21.11" width="0.12" height="10.91"/><rect class="cls-195" x="206.83" y="21.11" width="0.12" height="10.91"/><rect class="cls-196" x="206.95" y="21.11" width="0.12" height="10.91"/><rect class="cls-197" x="207.06" y="21.11" width="0.12" height="10.91"/><rect class="cls-197" x="207.18" y="21.11" width="0.12" height="10.91"/><rect class="cls-198" x="207.3" y="21.11" width="0.12" height="10.91"/><rect class="cls-199" x="207.41" y="21.11" width="0.12" height="10.91"/><rect class="cls-199" x="207.53" y="21.11" width="0.03" height="10.91"/><rect class="cls-76" x="187.62" y="9.58" width="0.1" height="10.91"/><rect class="cls-77" x="187.72" y="9.58" width="0.12" height="10.91"/><rect class="cls-78" x="187.83" y="9.58" width="0.12" height="10.91"/><rect class="cls-78" x="187.95" y="9.58" width="0.12" height="10.91"/><rect class="cls-79" x="188.07" y="9.58" width="0.12" height="10.91"/><rect class="cls-80" x="188.18" y="9.58" width="0.12" height="10.91"/><rect class="cls-81" x="188.3" y="9.58" width="0.12" height="10.91"/><rect class="cls-82" x="188.42" y="9.58" width="0.12" height="10.91"/><rect class="cls-83" x="188.53" y="9.58" width="0.12" height="10.91"/><rect class="cls-83" x="188.65" y="9.58" width="0.12" height="10.91"/><rect class="cls-84" x="188.77" y="9.58" width="0.12" height="10.91"/><rect class="cls-85" x="188.88" y="9.58" width="0.12" height="10.91"/><rect class="cls-86" x="189" y="9.58" width="0.12" height="10.91"/><rect class="cls-87" x="189.11" y="9.58" width="0.12" height="10.91"/><rect class="cls-88" x="189.23" y="9.58" width="0.12" height="10.91"/><rect class="cls-88" x="189.35" y="9.58" width="0.12" height="10.91"/><rect class="cls-89" x="189.46" y="9.58" width="0.12" height="10.91"/><rect class="cls-89" x="189.58" y="9.58" width="0.12" height="10.91"/><rect class="cls-90" x="189.7" y="9.58" width="0.12" height="10.91"/><rect class="cls-91" x="189.81" y="9.58" width="0.12" height="10.91"/><rect class="cls-92" x="189.93" y="9.58" width="0.12" height="10.91"/><rect class="cls-93" x="190.05" y="9.58" width="0.12" height="10.91"/><rect class="cls-94" x="190.16" y="9.58" width="0.12" height="10.91"/><rect class="cls-94" x="190.28" y="9.58" width="0.12" height="10.91"/><rect class="cls-95" x="190.4" y="9.58" width="0.12" height="10.91"/><rect class="cls-96" x="190.51" y="9.58" width="0.12" height="10.91"/><rect class="cls-97" x="190.63" y="9.58" width="0.12" height="10.91"/><rect class="cls-98" x="190.75" y="9.58" width="0.12" height="10.91"/><rect class="cls-99" x="190.86" y="9.58" width="0.12" height="10.91"/><rect class="cls-99" x="190.98" y="9.58" width="0.12" height="10.91"/><rect class="cls-100" x="191.1" y="9.58" width="0.12" height="10.91"/><rect class="cls-101" x="191.21" y="9.58" width="0.12" height="10.91"/><rect class="cls-102" x="191.33" y="9.58" width="0.12" height="10.91"/><rect class="cls-103" x="191.45" y="9.58" width="0.12" height="10.91"/><rect class="cls-103" x="191.56" y="9.58" width="0.12" height="10.91"/><rect class="cls-104" x="191.68" y="9.58" width="0.12" height="10.91"/><rect class="cls-105" x="191.8" y="9.58" width="0.12" height="10.91"/><rect class="cls-105" x="191.91" y="9.58" width="0.12" height="10.91"/><rect class="cls-106" x="192.03" y="9.58" width="0.12" height="10.91"/><rect class="cls-107" x="192.14" y="9.58" width="0.12" height="10.91"/><rect class="cls-108" x="192.26" y="9.58" width="0.12" height="10.91"/><rect class="cls-109" x="192.38" y="9.58" width="0.12" height="10.91"/><rect class="cls-110" x="192.49" y="9.58" width="0.12" height="10.91"/><rect class="cls-111" x="192.61" y="9.58" width="0.12" height="10.91"/><rect class="cls-112" x="192.73" y="9.58" width="0.12" height="10.91"/><rect class="cls-112" x="192.84" y="9.58" width="0.12" height="10.91"/><rect class="cls-113" x="192.96" y="9.58" width="0.12" height="10.91"/><rect class="cls-114" x="193.08" y="9.58" width="0.12" height="10.91"/><rect class="cls-115" x="193.19" y="9.58" width="0.12" height="10.91"/><rect class="cls-116" x="193.31" y="9.58" width="0.12" height="10.91"/><rect class="cls-117" x="193.43" y="9.58" width="0.12" height="10.91"/><rect class="cls-118" x="193.54" y="9.58" width="0.12" height="10.91"/><rect class="cls-119" x="193.66" y="9.58" width="0.12" height="10.91"/><rect class="cls-120" x="193.78" y="9.58" width="0.12" height="10.91"/><rect class="cls-120" x="193.89" y="9.58" width="0.12" height="10.91"/><rect class="cls-121" x="194.01" y="9.58" width="0.12" height="10.91"/><rect class="cls-121" x="194.13" y="9.58" width="0.12" height="10.91"/><rect class="cls-122" x="194.24" y="9.58" width="0.12" height="10.91"/><rect class="cls-122" x="194.36" y="9.58" width="0.12" height="10.91"/><rect class="cls-123" x="194.48" y="9.58" width="0.12" height="10.91"/><rect class="cls-124" x="194.59" y="9.58" width="0.12" height="10.91"/><rect class="cls-124" x="194.71" y="9.58" width="0.12" height="10.91"/><rect class="cls-125" x="194.83" y="9.58" width="0.12" height="10.91"/><rect class="cls-126" x="194.94" y="9.58" width="0.12" height="10.91"/><rect class="cls-127" x="195.06" y="9.58" width="0.12" height="10.91"/><rect class="cls-127" x="195.17" y="9.58" width="0.12" height="10.91"/><rect class="cls-128" x="195.29" y="9.58" width="0.12" height="10.91"/><rect class="cls-129" x="195.41" y="9.58" width="0.12" height="10.91"/><rect class="cls-129" x="195.52" y="9.58" width="0.12" height="10.91"/><rect class="cls-130" x="195.64" y="9.58" width="0.12" height="10.91"/><rect class="cls-130" x="195.76" y="9.58" width="0.12" height="10.91"/><rect class="cls-131" x="195.87" y="9.58" width="0.12" height="10.91"/><rect class="cls-132" x="195.99" y="9.58" width="0.12" height="10.91"/><rect class="cls-132" x="196.11" y="9.58" width="0.12" height="10.91"/><rect class="cls-133" x="196.22" y="9.58" width="0.12" height="10.91"/><rect class="cls-133" x="196.34" y="9.58" width="0.12" height="10.91"/><rect class="cls-134" x="196.46" y="9.58" width="0.12" height="10.91"/><rect class="cls-135" x="196.57" y="9.58" width="0.12" height="10.91"/><rect class="cls-136" x="196.69" y="9.58" width="0.12" height="10.91"/><rect class="cls-137" x="196.81" y="9.58" width="0.12" height="10.91"/><rect class="cls-138" x="196.92" y="9.58" width="0.12" height="10.91"/><rect class="cls-138" x="197.04" y="9.58" width="0.12" height="10.91"/><rect class="cls-138" x="197.16" y="9.58" width="0.12" height="10.91"/><rect class="cls-139" x="197.27" y="9.58" width="0.12" height="10.91"/><rect class="cls-139" x="197.39" y="9.58" width="0.12" height="10.91"/><rect class="cls-140" x="197.51" y="9.58" width="0.12" height="10.91"/><rect class="cls-141" x="197.62" y="9.58" width="0.12" height="10.91"/><rect class="cls-142" x="197.74" y="9.58" width="0.12" height="10.91"/><rect class="cls-143" x="197.86" y="9.58" width="0.12" height="10.91"/><rect class="cls-143" x="197.97" y="9.58" width="0.12" height="10.91"/><rect class="cls-144" x="198.09" y="9.58" width="0.12" height="10.91"/><rect class="cls-144" x="198.2" y="9.58" width="0.12" height="10.91"/><rect class="cls-145" x="198.32" y="9.58" width="0.12" height="10.91"/><rect class="cls-145" x="198.44" y="9.58" width="0.12" height="10.91"/><rect class="cls-146" x="198.55" y="9.58" width="0.12" height="10.91"/><rect class="cls-147" x="198.67" y="9.58" width="0.12" height="10.91"/><rect class="cls-148" x="198.79" y="9.58" width="0.12" height="10.91"/><rect class="cls-149" x="198.9" y="9.58" width="0.1" height="10.91"/><rect class="cls-4" x="176.64" y="4.88" width="0.12" height="35.66"/><rect class="cls-5" x="176.76" y="4.88" width="0.12" height="35.66"/><rect class="cls-5" x="176.88" y="4.88" width="0.12" height="35.66"/><rect class="cls-5" x="176.99" y="4.88" width="0.12" height="35.66"/><rect class="cls-6" x="177.11" y="4.88" width="0.12" height="35.66"/><rect class="cls-7" x="177.23" y="4.88" width="0.12" height="35.66"/><rect class="cls-7" x="177.34" y="4.88" width="0.12" height="35.66"/><rect class="cls-8" x="177.46" y="4.88" width="0.12" height="35.66"/><rect class="cls-9" x="177.58" y="4.88" width="0.12" height="35.66"/><rect class="cls-10" x="177.69" y="4.88" width="0.12" height="35.66"/><rect class="cls-11" x="177.81" y="4.88" width="0.12" height="35.66"/><rect class="cls-11" x="177.93" y="4.88" width="0.12" height="35.66"/><rect class="cls-12" x="178.04" y="4.88" width="0.12" height="35.66"/><rect class="cls-13" x="178.16" y="4.88" width="0.12" height="35.66"/><rect class="cls-13" x="178.28" y="4.88" width="0.12" height="35.66"/><rect class="cls-14" x="178.39" y="4.88" width="0.12" height="35.66"/><rect class="cls-15" x="178.51" y="4.88" width="0.12" height="35.66"/><rect class="cls-15" x="178.63" y="4.88" width="0.12" height="35.66"/><rect class="cls-16" x="178.74" y="4.88" width="0.12" height="35.66"/><rect class="cls-17" x="178.86" y="4.88" width="0.12" height="35.66"/><rect class="cls-18" x="178.98" y="4.88" width="0.12" height="35.66"/><rect class="cls-19" x="179.09" y="4.88" width="0.12" height="35.66"/><rect class="cls-20" x="179.21" y="4.88" width="0.12" height="35.66"/><rect class="cls-20" x="179.33" y="4.88" width="0.12" height="35.66"/><rect class="cls-21" x="179.44" y="4.88" width="0.12" height="35.66"/><rect class="cls-22" x="179.56" y="4.88" width="0.12" height="35.66"/><rect class="cls-23" x="179.67" y="4.88" width="0.12" height="35.66"/><rect class="cls-24" x="179.79" y="4.88" width="0.12" height="35.66"/><rect class="cls-25" x="179.91" y="4.88" width="0.12" height="35.66"/><rect class="cls-26" x="180.02" y="4.88" width="0.12" height="35.66"/><rect class="cls-27" x="180.14" y="4.88" width="0.12" height="35.66"/><rect class="cls-27" x="180.26" y="4.88" width="0.12" height="35.66"/><rect class="cls-28" x="180.37" y="4.88" width="0.12" height="35.66"/><rect class="cls-29" x="180.49" y="4.88" width="0.12" height="35.66"/><rect class="cls-30" x="180.61" y="4.88" width="0.12" height="35.66"/><rect class="cls-31" x="180.72" y="4.88" width="0.12" height="35.66"/><rect class="cls-32" x="180.84" y="4.88" width="0.12" height="35.66"/><rect class="cls-33" x="180.96" y="4.88" width="0.12" height="35.66"/><rect class="cls-34" x="181.07" y="4.88" width="0.12" height="35.66"/><rect class="cls-34" x="181.19" y="4.88" width="0.12" height="35.66"/><rect class="cls-35" x="181.31" y="4.88" width="0.12" height="35.66"/><rect class="cls-36" x="181.42" y="4.88" width="0.12" height="35.66"/><rect class="cls-37" x="181.54" y="4.88" width="0.12" height="35.66"/><rect class="cls-38" x="181.66" y="4.88" width="0.12" height="35.66"/><rect class="cls-39" x="181.77" y="4.88" width="0.12" height="35.66"/><rect class="cls-39" x="181.89" y="4.88" width="0.12" height="35.66"/><rect class="cls-40" x="182.01" y="4.88" width="0.12" height="35.66"/><rect class="cls-40" x="182.12" y="4.88" width="0.12" height="35.66"/><rect class="cls-41" x="182.24" y="4.88" width="0.12" height="35.66"/><rect class="cls-42" x="182.36" y="4.88" width="0.12" height="35.66"/><rect class="cls-42" x="182.47" y="4.88" width="0.12" height="35.66"/><rect class="cls-43" x="182.59" y="4.88" width="0.12" height="35.66"/><rect class="cls-44" x="182.7" y="4.88" width="0.12" height="35.66"/><rect class="cls-44" x="182.82" y="4.88" width="0.12" height="35.66"/><rect class="cls-45" x="182.94" y="4.88" width="0.12" height="35.66"/><rect class="cls-46" x="183.05" y="4.88" width="0.12" height="35.66"/><rect class="cls-46" x="183.17" y="4.88" width="0.12" height="35.66"/><rect class="cls-47" x="183.29" y="4.88" width="0.12" height="35.66"/><rect class="cls-48" x="183.4" y="4.88" width="0.12" height="35.66"/><rect class="cls-49" x="183.52" y="4.88" width="0.12" height="35.66"/><rect class="cls-50" x="183.64" y="4.88" width="0.12" height="35.66"/><rect class="cls-51" x="183.75" y="4.88" width="0.12" height="35.66"/><rect class="cls-52" x="183.87" y="4.88" width="0.12" height="35.66"/><rect class="cls-53" x="183.99" y="4.88" width="0.12" height="35.66"/><rect class="cls-53" x="184.1" y="4.88" width="0.12" height="35.66"/><rect class="cls-54" x="184.22" y="4.88" width="0.12" height="35.66"/><rect class="cls-55" x="184.34" y="4.88" width="0.12" height="35.66"/><rect class="cls-56" x="184.45" y="4.88" width="0.12" height="35.66"/><rect class="cls-57" x="184.57" y="4.88" width="0.12" height="35.66"/><rect class="cls-58" x="184.69" y="4.88" width="0.12" height="35.66"/><rect class="cls-58" x="184.8" y="4.88" width="0.12" height="35.66"/><rect class="cls-59" x="184.92" y="4.88" width="0.12" height="35.66"/><rect class="cls-59" x="185.04" y="4.88" width="0.12" height="35.66"/><rect class="cls-60" x="185.15" y="4.88" width="0.12" height="35.66"/><rect class="cls-61" x="185.27" y="4.88" width="0.12" height="35.66"/><rect class="cls-62" x="185.39" y="4.88" width="0.12" height="35.66"/><rect class="cls-63" x="185.5" y="4.88" width="0.12" height="35.66"/><rect class="cls-64" x="185.62" y="4.88" width="0.12" height="35.66"/><rect class="cls-64" x="185.73" y="4.88" width="0.12" height="35.66"/><rect class="cls-65" x="185.85" y="4.88" width="0.12" height="35.66"/><rect class="cls-66" x="185.97" y="4.88" width="0.12" height="35.66"/><rect class="cls-66" x="186.08" y="4.88" width="0.12" height="35.66"/><rect class="cls-67" x="186.2" y="4.88" width="0.12" height="35.66"/><rect class="cls-68" x="186.32" y="4.88" width="0.12" height="35.66"/><rect class="cls-68" x="186.43" y="4.88" width="0.12" height="35.66"/><rect class="cls-69" x="186.55" y="4.88" width="0.12" height="35.66"/><rect class="cls-69" x="186.67" y="4.88" width="0.12" height="35.66"/><rect class="cls-70" x="186.78" y="4.88" width="0.12" height="35.66"/><rect class="cls-71" x="186.9" y="4.88" width="0.12" height="35.66"/><rect class="cls-71" x="187.02" y="4.88" width="0.12" height="35.66"/><rect class="cls-72" x="187.13" y="4.88" width="0.12" height="35.66"/><rect class="cls-73" x="187.25" y="4.88" width="0.12" height="35.66"/><rect class="cls-74" x="187.37" y="4.88" width="0.12" height="35.66"/><rect class="cls-75" x="187.48" y="4.88" width="0.12" height="35.66"/><rect class="cls-76" x="187.6" y="4.88" width="0.12" height="35.66"/><rect class="cls-77" x="187.72" y="4.88" width="0.12" height="35.66"/><rect class="cls-78" x="187.83" y="4.88" width="0.12" height="35.66"/><rect class="cls-78" x="187.95" y="4.88" width="0.12" height="35.66"/><rect class="cls-79" x="188.07" y="4.88" width="0.12" height="35.66"/><rect class="cls-80" x="188.18" y="4.88" width="0.12" height="35.66"/><rect class="cls-81" x="188.3" y="4.88" width="0.12" height="35.66"/><rect class="cls-82" x="188.42" y="4.88" width="0.12" height="35.66"/><rect class="cls-83" x="188.53" y="4.88" width="0.12" height="35.66"/><rect class="cls-83" x="188.65" y="4.88" width="0.12" height="35.66"/><rect class="cls-84" x="188.77" y="4.88" width="0.12" height="35.66"/><rect class="cls-85" x="188.88" y="4.88" width="0.12" height="35.66"/><rect class="cls-86" x="189" y="4.88" width="0.12" height="35.66"/><rect class="cls-87" x="189.11" y="4.88" width="0.12" height="35.66"/><rect class="cls-88" x="189.23" y="4.88" width="0.12" height="35.66"/><rect class="cls-88" x="189.35" y="4.88" width="0.12" height="35.66"/><rect class="cls-89" x="189.46" y="4.88" width="0.12" height="35.66"/><rect class="cls-89" x="189.58" y="4.88" width="0.12" height="35.66"/><rect class="cls-90" x="189.7" y="4.88" width="0.12" height="35.66"/><rect class="cls-91" x="189.81" y="4.88" width="0.12" height="35.66"/><rect class="cls-92" x="189.93" y="4.88" width="0.12" height="35.66"/><rect class="cls-93" x="190.05" y="4.88" width="0.12" height="35.66"/><rect class="cls-94" x="190.16" y="4.88" width="0.12" height="35.66"/><rect class="cls-94" x="190.28" y="4.88" width="0.12" height="35.66"/><rect class="cls-95" x="190.4" y="4.88" width="0.12" height="35.66"/><rect class="cls-96" x="190.51" y="4.88" width="0.12" height="35.66"/><rect class="cls-97" x="190.63" y="4.88" width="0.12" height="35.66"/><rect class="cls-98" x="190.75" y="4.88" width="0.12" height="35.66"/><rect class="cls-99" x="190.86" y="4.88" width="0.12" height="35.66"/><rect class="cls-99" x="190.98" y="4.88" width="0.12" height="35.66"/><rect class="cls-100" x="191.1" y="4.88" width="0.12" height="35.66"/><rect class="cls-101" x="191.21" y="4.88" width="0.12" height="35.66"/><rect class="cls-102" x="191.33" y="4.88" width="0.12" height="35.66"/><rect class="cls-103" x="191.45" y="4.88" width="0.12" height="35.66"/><rect class="cls-103" x="191.56" y="4.88" width="0.12" height="35.66"/><rect class="cls-104" x="191.68" y="4.88" width="0.12" height="35.66"/><rect class="cls-105" x="191.8" y="4.88" width="0.12" height="35.66"/><rect class="cls-105" x="191.91" y="4.88" width="0.12" height="35.66"/><rect class="cls-106" x="192.03" y="4.88" width="0.12" height="35.66"/><rect class="cls-107" x="192.14" y="4.88" width="0.12" height="35.66"/><rect class="cls-108" x="192.26" y="4.88" width="0.12" height="35.66"/><rect class="cls-109" x="192.38" y="4.88" width="0.12" height="35.66"/><rect class="cls-110" x="192.49" y="4.88" width="0.12" height="35.66"/><rect class="cls-111" x="192.61" y="4.88" width="0.12" height="35.66"/><rect class="cls-112" x="192.73" y="4.88" width="0.12" height="35.66"/><rect class="cls-112" x="192.84" y="4.88" width="0.12" height="35.66"/><rect class="cls-113" x="192.96" y="4.88" width="0.12" height="35.66"/><rect class="cls-114" x="193.08" y="4.88" width="0.12" height="35.66"/><rect class="cls-115" x="193.19" y="4.88" width="0.12" height="35.66"/><rect class="cls-116" x="193.31" y="4.88" width="0.12" height="35.66"/><rect class="cls-117" x="193.43" y="4.88" width="0.12" height="35.66"/><rect class="cls-118" x="193.54" y="4.88" width="0.12" height="35.66"/><rect class="cls-119" x="193.66" y="4.88" width="0.12" height="35.66"/><rect class="cls-120" x="193.78" y="4.88" width="0.12" height="35.66"/><rect class="cls-120" x="193.89" y="4.88" width="0.12" height="35.66"/><rect class="cls-121" x="194.01" y="4.88" width="0.12" height="35.66"/><rect class="cls-121" x="194.13" y="4.88" width="0.12" height="35.66"/><rect class="cls-122" x="194.24" y="4.88" width="0.12" height="35.66"/><rect class="cls-122" x="194.36" y="4.88" width="0.12" height="35.66"/><rect class="cls-123" x="194.48" y="4.88" width="0.12" height="35.66"/><rect class="cls-124" x="194.59" y="4.88" width="0.12" height="35.66"/><rect class="cls-124" x="194.71" y="4.88" width="0.12" height="35.66"/><rect class="cls-125" x="194.83" y="4.88" width="0.12" height="35.66"/><rect class="cls-126" x="194.94" y="4.88" width="0.12" height="35.66"/><rect class="cls-127" x="195.06" y="4.88" width="0.12" height="35.66"/><rect class="cls-127" x="195.17" y="4.88" width="0.12" height="35.66"/><rect class="cls-128" x="195.29" y="4.88" width="0.12" height="35.66"/><rect class="cls-129" x="195.41" y="4.88" width="0.12" height="35.66"/><rect class="cls-129" x="195.52" y="4.88" width="0.12" height="35.66"/><rect class="cls-130" x="195.64" y="4.88" width="0.12" height="35.66"/><rect class="cls-130" x="195.76" y="4.88" width="0.12" height="35.66"/><rect class="cls-131" x="195.87" y="4.88" width="0.12" height="35.66"/><rect class="cls-132" x="195.99" y="4.88" width="0.12" height="35.66"/><rect class="cls-132" x="196.11" y="4.88" width="0.12" height="35.66"/><rect class="cls-133" x="196.22" y="4.88" width="0.12" height="35.66"/><rect class="cls-133" x="196.34" y="4.88" width="0.12" height="35.66"/><rect class="cls-134" x="196.46" y="4.88" width="0.12" height="35.66"/><rect class="cls-135" x="196.57" y="4.88" width="0.12" height="35.66"/><rect class="cls-136" x="196.69" y="4.88" width="0.12" height="35.66"/><rect class="cls-137" x="196.81" y="4.88" width="0.12" height="35.66"/><rect class="cls-138" x="196.92" y="4.88" width="0.12" height="35.66"/><rect class="cls-138" x="197.04" y="4.88" width="0.12" height="35.66"/><rect class="cls-138" x="197.16" y="4.88" width="0.12" height="35.66"/><rect class="cls-139" x="197.27" y="4.88" width="0.12" height="35.66"/><rect class="cls-139" x="197.39" y="4.88" width="0.12" height="35.66"/><rect class="cls-140" x="197.51" y="4.88" width="0.12" height="35.66"/><rect class="cls-141" x="197.62" y="4.88" width="0.12" height="35.66"/><rect class="cls-142" x="197.74" y="4.88" width="0.12" height="35.66"/><rect class="cls-143" x="197.86" y="4.88" width="0.12" height="35.66"/><rect class="cls-143" x="197.97" y="4.88" width="0.12" height="35.66"/><rect class="cls-144" x="198.09" y="4.88" width="0.12" height="35.66"/><rect class="cls-144" x="198.2" y="4.88" width="0.12" height="35.66"/><rect class="cls-145" x="198.32" y="4.88" width="0.12" height="35.66"/><rect class="cls-145" x="198.44" y="4.88" width="0.12" height="35.66"/><rect class="cls-146" x="198.55" y="4.88" width="0.12" height="35.66"/><rect class="cls-147" x="198.67" y="4.88" width="0.12" height="35.66"/><rect class="cls-148" x="198.79" y="4.88" width="0.12" height="35.66"/><rect class="cls-149" x="198.9" y="4.88" width="0.12" height="35.66"/><rect class="cls-149" x="199.02" y="4.88" width="0.12" height="35.66"/><rect class="cls-149" x="199.14" y="4.88" width="0.12" height="35.66"/><rect class="cls-150" x="199.25" y="4.88" width="0.12" height="35.66"/><rect class="cls-151" x="199.37" y="4.88" width="0.12" height="35.66"/><rect class="cls-152" x="199.49" y="4.88" width="0.12" height="35.66"/><rect class="cls-153" x="199.6" y="4.88" width="0.12" height="35.66"/><rect class="cls-153" x="199.72" y="4.88" width="0.12" height="35.66"/><rect class="cls-154" x="199.84" y="4.88" width="0.12" height="35.66"/><rect class="cls-155" x="199.95" y="4.88" width="0.12" height="35.66"/><rect class="cls-155" x="200.07" y="4.88" width="0.12" height="35.66"/><rect class="cls-155" x="200.19" y="4.88" width="0.12" height="35.66"/><rect class="cls-156" x="200.3" y="4.88" width="0.12" height="35.66"/><rect class="cls-156" x="200.42" y="4.88" width="0.12" height="35.66"/><rect class="cls-156" x="200.54" y="4.88" width="0.12" height="35.66"/><rect class="cls-156" x="200.65" y="4.88" width="0.12" height="35.66"/><rect class="cls-157" x="200.77" y="4.88" width="0.12" height="35.66"/><rect class="cls-158" x="200.89" y="4.88" width="0.12" height="35.66"/><rect class="cls-158" x="201" y="4.88" width="0.12" height="35.66"/><rect class="cls-159" x="201.12" y="4.88" width="0.12" height="35.66"/><rect class="cls-160" x="201.24" y="4.88" width="0.12" height="35.66"/><rect class="cls-160" x="201.35" y="4.88" width="0.12" height="35.66"/><rect class="cls-161" x="201.47" y="4.88" width="0.12" height="35.66"/><rect class="cls-161" x="201.58" y="4.88" width="0.12" height="35.66"/><rect class="cls-162" x="201.7" y="4.88" width="0.12" height="35.66"/><rect class="cls-163" x="201.82" y="4.88" width="0.12" height="35.66"/><rect class="cls-163" x="201.93" y="4.88" width="0.12" height="35.66"/><rect class="cls-163" x="202.05" y="4.88" width="0.12" height="35.66"/><rect class="cls-164" x="202.17" y="4.88" width="0.12" height="35.66"/><rect class="cls-164" x="202.28" y="4.88" width="0.12" height="35.66"/><rect class="cls-165" x="202.4" y="4.88" width="0.12" height="35.66"/><rect class="cls-166" x="202.52" y="4.88" width="0.12" height="35.66"/><rect class="cls-167" x="202.63" y="4.88" width="0.12" height="35.66"/><rect class="cls-168" x="202.75" y="4.88" width="0.12" height="35.66"/><rect class="cls-168" x="202.87" y="4.88" width="0.12" height="35.66"/><rect class="cls-168" x="202.98" y="4.88" width="0.12" height="35.66"/><rect class="cls-169" x="203.1" y="4.88" width="0.12" height="35.66"/><rect class="cls-170" x="203.22" y="4.88" width="0.12" height="35.66"/><rect class="cls-170" x="203.33" y="4.88" width="0.12" height="35.66"/><rect class="cls-171" x="203.45" y="4.88" width="0.12" height="35.66"/><rect class="cls-172" x="203.57" y="4.88" width="0.12" height="35.66"/><rect class="cls-173" x="203.68" y="4.88" width="0.12" height="35.66"/><rect class="cls-174" x="203.8" y="4.88" width="0.12" height="35.66"/><rect class="cls-174" x="203.92" y="4.88" width="0.12" height="35.66"/><rect class="cls-175" x="204.03" y="4.88" width="0.12" height="35.66"/><rect class="cls-176" x="204.15" y="4.88" width="0.12" height="35.66"/><rect class="cls-176" x="204.27" y="4.88" width="0.12" height="35.66"/><rect class="cls-177" x="204.38" y="4.88" width="0.12" height="35.66"/><rect class="cls-178" x="204.5" y="4.88" width="0.12" height="35.66"/><rect class="cls-179" x="204.61" y="4.88" width="0.12" height="35.66"/><rect class="cls-180" x="204.73" y="4.88" width="0.12" height="35.66"/><rect class="cls-181" x="204.85" y="4.88" width="0.12" height="35.66"/><rect class="cls-182" x="204.96" y="4.88" width="0.12" height="35.66"/><rect class="cls-183" x="205.08" y="4.88" width="0.12" height="35.66"/><rect class="cls-184" x="205.2" y="4.88" width="0.12" height="35.66"/><rect class="cls-184" x="205.31" y="4.88" width="0.12" height="35.66"/><rect class="cls-185" x="205.43" y="4.88" width="0.12" height="35.66"/><rect class="cls-186" x="205.55" y="4.88" width="0.12" height="35.66"/><rect class="cls-187" x="205.66" y="4.88" width="0.12" height="35.66"/><rect class="cls-188" x="205.78" y="4.88" width="0.12" height="35.66"/><rect class="cls-189" x="205.9" y="4.88" width="0.12" height="35.66"/><rect class="cls-190" x="206.01" y="4.88" width="0.12" height="35.66"/><rect class="cls-191" x="206.13" y="4.88" width="0.12" height="35.66"/><rect class="cls-191" x="206.25" y="4.88" width="0.12" height="35.66"/><rect class="cls-192" x="206.36" y="4.88" width="0.12" height="35.66"/><rect class="cls-193" x="206.48" y="4.88" width="0.12" height="35.66"/><rect class="cls-193" x="206.6" y="4.88" width="0.12" height="35.66"/><rect class="cls-194" x="206.71" y="4.88" width="0.12" height="35.66"/><rect class="cls-195" x="206.83" y="4.88" width="0.12" height="35.66"/><rect class="cls-196" x="206.95" y="4.88" width="0.12" height="35.66"/><rect class="cls-197" x="207.06" y="4.88" width="0.12" height="35.66"/><rect class="cls-197" x="207.18" y="4.88" width="0.12" height="35.66"/><rect class="cls-198" x="207.3" y="4.88" width="0.12" height="35.66"/><rect class="cls-199" x="207.41" y="4.88" width="0.12" height="35.66"/><rect class="cls-199" x="207.53" y="4.88" width="0.12" height="35.66"/><rect class="cls-200" x="207.64" y="4.88" width="0.12" height="35.66"/><rect class="cls-201" x="207.76" y="4.88" width="0.12" height="35.66"/><rect class="cls-201" x="207.88" y="4.88" width="0.12" height="35.66"/><rect class="cls-202" x="207.99" y="4.88" width="0.12" height="35.66"/><rect class="cls-203" x="208.11" y="4.88" width="0.12" height="35.66"/><rect class="cls-203" x="208.23" y="4.88" width="0.12" height="35.66"/><rect class="cls-204" x="208.34" y="4.88" width="0.12" height="35.66"/><rect class="cls-205" x="208.46" y="4.88" width="0.12" height="35.66"/><rect class="cls-206" x="208.58" y="4.88" width="0.12" height="35.66"/><rect class="cls-207" x="208.69" y="4.88" width="0.12" height="35.66"/><rect class="cls-207" x="208.81" y="4.88" width="0.12" height="35.66"/><rect class="cls-208" x="208.93" y="4.88" width="0.12" height="35.66"/><rect class="cls-209" x="209.04" y="4.88" width="0.12" height="35.66"/><rect class="cls-209" x="209.16" y="4.88" width="0.12" height="35.66"/><rect class="cls-210" x="209.28" y="4.88" width="0.12" height="35.66"/><rect class="cls-211" x="209.39" y="4.88" width="0.12" height="35.66"/><rect class="cls-212" x="209.51" y="4.88" width="0.12" height="35.66"/><rect class="cls-213" x="209.63" y="4.88" width="0.12" height="35.66"/><rect class="cls-214" x="209.74" y="4.88" width="0.12" height="35.66"/><rect class="cls-215" x="209.86" y="4.88" width="0.12" height="35.66"/><rect class="cls-216" x="209.98" y="4.88" width="0.12" height="35.66"/><rect class="cls-216" x="210.09" y="4.88" width="0.12" height="35.66"/><rect class="cls-217" x="210.21" y="4.88" width="0.12" height="35.66"/><rect class="cls-218" x="210.33" y="4.88" width="0.12" height="35.66"/><rect class="cls-219" x="210.44" y="4.88" width="0.12" height="35.66"/><rect class="cls-220" x="210.56" y="4.88" width="0.12" height="35.66"/><rect class="cls-221" x="210.67" y="4.88" width="0.12" height="35.66"/><rect class="cls-222" x="210.79" y="4.88" width="0.12" height="35.66"/><rect class="cls-223" x="210.91" y="4.88" width="0.12" height="35.66"/><rect class="cls-224" x="211.02" y="4.88" width="0.12" height="35.66"/><rect class="cls-224" x="211.14" y="4.88" width="0.12" height="35.66"/><rect class="cls-225" x="211.26" y="4.88" width="0.12" height="35.66"/><rect class="cls-226" x="211.37" y="4.88" width="0.12" height="35.66"/><rect class="cls-226" x="211.49" y="4.88" width="0.12" height="35.66"/><rect class="cls-227" x="211.61" y="4.88" width="0.12" height="35.66"/><rect class="cls-227" x="211.72" y="4.88" width="0.12" height="35.66"/></g></svg>