<svg id="Calque_1" data-name="Calque 1" xmlns="http://www.w3.org/2000/svg" xmlns:xlink="http://www.w3.org/1999/xlink" viewBox="0 0 217.75 61.27"><defs><style>.cls-1{fill:#1e4c80;}.cls-2{fill:#2490c5;}.cls-3{clip-path:url(#clip-path);}.cls-4{clip-path:url(#clip-path-2);}</style><clipPath id="clip-path"><polygon class="cls-1" points="175.87 4.88 175.89 41.08 163.84 29.03 163.84 52.88 187.69 52.88 176.11 41.3 211.84 41.32 211.84 56.34 160.38 56.34 160.38 4.88 175.87 4.88"/></clipPath><clipPath id="clip-path-2"><path class="cls-1" d="M202.17,4.88H176.64l.08,33.32,2.49,2.34h32.63v-26A9.67,9.67,0,0,0,202.17,4.88Zm-7.88,14.17h-1.88l-2-4.14v5.58h-2.83V9.58h2.74l3,6.44,2.9-6.44H199V20.49h-2.86V15Zm13.27,13H204.7V26.57l-1.85,4H201l-2-4.13V32h-2.83V21.11h2.74l3,6.44,2.9-6.44h2.78Z"/></clipPath></defs><path class="cls-2" d="M9.79,60.71a3.07032,3.07032,0,0,1-.53-.05,3.94149,3.94149,0,0,1-.49-.14,4.08908,4.08908,0,0,1-.42-.2A2.09043,2.09043,0,0,1,8,60.07.08.08,0,0,1,8,60l.51-.6a.06.06,0,0,1,.1,0,3.4092,3.4092,0,0,0,.53.33,1.52981,1.52981,0,0,0,.67.15.8.8,0,0,0,.55-.16.48.48,0,0,0,.2-.4.43.43,0,0,0-.15-.34,1.14005,1.14005,0,0,0-.56-.18H9.61a1.91992,1.91992,0,0,1-1.07-.43,1.25,1.25,0,0,1-.38-1,1.45005,1.45005,0,0,1,.12-.59,1.28,1.28,0,0,1,.32-.45A1.57992,1.57992,0,0,1,9.13,56a1.9999,1.9999,0,0,1,.67-.1,2.67,2.67,0,0,1,.86.13,2.43014,2.43014,0,0,1,.7.36v.1L11,57.1h-.09a2.20975,2.20975,0,0,0-.53-.27,1.60984,1.60984,0,0,0-.54-.09.61.61,0,0,0-.45.15.44.44,0,0,0-.16.36.41.41,0,0,0,.16.33,1.11994,1.11994,0,0,0,.55.19h.25a1.85,1.85,0,0,1,1.07.44,1.27,1.27,0,0,1,.37,1,1.4,1.4,0,0,1-.12.58,1.24,1.24,0,0,1-.34.47,1.77,1.77,0,0,1-.56.31A2.57,2.57,0,0,1,9.79,60.71Z"/><path class="cls-2" d="M12.32,60.63c-.05,0-.07,0-.07-.07V56a.06238.06238,0,0,1,.07-.06h1.77a1.78,1.78,0,0,1,.67.11,1.39385,1.39385,0,0,1,.82.78,1.70013,1.70013,0,0,1,.11.61,1.73992,1.73992,0,0,1-.11.61,1.39,1.39,0,0,1-.82.78,1.9998,1.9998,0,0,1-.67.11h-.81V60.5a.06856.06856,0,0,1-.07.07ZM14,58.09a.68.68,0,0,0,.49-.17.6.6,0,0,0,.18-.46.62.62,0,0,0-.18-.46.68.68,0,0,0-.49-.17h-.75v1.18h0Z"/><path class="cls-2" d="M16.32,56a.06238.06238,0,0,1,.07-.06h2.93s.07,0,.07.06v.74a.06.06,0,0,1-.07.07h-2v.93H19a.06.06,0,0,1,.07.07v.73a.07.07,0,0,1-.07.07H17.35v1h2a.06.06,0,0,1,.07.07v.73a.06.06,0,0,1-.07.07H16.39c-.05,0-.07,0-.07-.07Zm1-.57h0l.64-.79a.16.16,0,0,1,.13-.07h.86a.06.06,0,0,1,0,.05l-.83.8a.17007.17007,0,0,1-.12.06Z"/><path class="cls-2" d="M20.13,59.56a1.87,1.87,0,0,1-.07-.22V57.26a2.00069,2.00069,0,0,1,.07-.23,1.53,1.53,0,0,1,.6-.86,1.77992,1.77992,0,0,1,1-.29,1.8,1.8,0,0,1,1,.27,1.6,1.6,0,0,1,.6.77V57l-.73.34h-.09a1.0001,1.0001,0,0,0-.27-.37.63.63,0,0,0-.46-.16.68.68,0,0,0-.44.14.79.79,0,0,0-.25.38v.13a.91963.91963,0,0,0,0,.19v1.37a.74045.74045,0,0,0,0,.18v.14a.79.79,0,0,0,.25.38.68.68,0,0,0,.44.13.67.67,0,0,0,.46-.15,1,1,0,0,0,.27-.38.06.06,0,0,1,.08469-.00531L22.6,59.32l.73.34c.05,0,.06,0,0,.08a1.6,1.6,0,0,1-.6.77,1.80008,1.80008,0,0,1-1,.27,1.78007,1.78007,0,0,1-1-.29A1.57,1.57,0,0,1,20.13,59.56Z"/><path class="cls-2" d="M24,56a.05.05,0,0,1,.06-.06h.86A.05.05,0,1,1,25,56v4.54s0,.07-.06.07h-.86a.06238.06238,0,0,1-.06-.07Z"/><path class="cls-2" d="M27.08,56a.08.08,0,0,1,.09-.06H28a.08.08,0,0,1,.09.06l1.55,4.54v.07h-.87a.08.08,0,0,1-.08985-.06876L28.68,60.54l-.26-.81h-1.6l-.26.81a.08.08,0,0,1-.08876.07016L26.47,60.61h-.88s-.06,0,0-.07Zm1,2.87-.52-1.64h0l-.52,1.64Z"/><path class="cls-2" d="M30.18,56a.06238.06238,0,0,1,.07-.06h.85s.07,0,.07.06v3.7h2a.06238.06238,0,0,1,.06.07v.75s0,.07-.06.07h-3c-.05,0-.07,0-.07-.07Z"/><path class="cls-2" d="M33.88,56a.06238.06238,0,0,1,.07-.06h.85s.07,0,.07.06v4.54a.06.06,0,0,1-.07.07H34c-.05,0-.07,0-.07-.07Z"/><path class="cls-2" d="M37.28,60.71a3.17,3.17,0,0,1-.53-.05,3.36049,3.36049,0,0,1-.48-.14,2.7494,2.7494,0,0,1-.42-.2,1.77958,1.77958,0,0,1-.33-.25.08.08,0,0,1-.00708-.11292L35.52,59.95l.51-.6a.06.06,0,0,1,.1,0,3.09934,3.09934,0,0,0,.54.33,1.45,1.45,0,0,0,.66.15.85007.85007,0,0,0,.56-.16.5.5,0,0,0,.19-.4.43.43,0,0,0-.15-.34,1.10012,1.10012,0,0,0-.56-.18h-.24a2,2,0,0,1-1.07-.43,1.25,1.25,0,0,1-.38-1,1.45005,1.45005,0,0,1,.12-.59,1.28014,1.28014,0,0,1,.32-.45,1.75025,1.75025,0,0,1,.52-.29,2.0002,2.0002,0,0,1,.66-.1,2.73024,2.73024,0,0,1,.87.13,2.51031,2.51031,0,0,1,.69.36v.1l-.41.63h-.09a2.36027,2.36027,0,0,0-.52-.27,1.71037,1.71037,0,0,0-.55-.09.61.61,0,0,0-.45.15.45.45,0,0,0,0,.69,1.16993,1.16993,0,0,0,.56.19h.24a1.85007,1.85007,0,0,1,1.07.44,1.24,1.24,0,0,1,.37,1,1.4,1.4,0,0,1-.12.58,1.13992,1.13992,0,0,1-.34.47,1.67007,1.67007,0,0,1-.56.31A2.57049,2.57049,0,0,1,37.28,60.71Z"/><path class="cls-2" d="M40.75,60.63a.06.06,0,0,1-.07-.07V56.9H39.49a.06.06,0,0,1-.07-.07V56a.06.06,0,0,1,.07-.07h3.38a.07.07,0,0,1,.07.07v.76a.07.07,0,0,1-.07.07H41.71v3.66a.06856.06856,0,0,1-.07.07Z"/><path class="cls-2" d="M43.49,56a.06238.06238,0,0,1,.07-.06h2.93a.05.05,0,0,1,.06.06v.74c0,.05,0,.07-.06.07h-2v.93h1.64a.06238.06238,0,0,1,.06.07v.73s0,.07-.06.07H44.52v1h2a.06238.06238,0,0,1,.06.07v.73s0,.07-.06.07H43.56c-.05,0-.07,0-.07-.07Z"/><path class="cls-2" d="M48.87,56a.07.07,0,0,1,.07-.07h1.7a1.85,1.85,0,0,1,1,.26,1.42,1.42,0,0,1,.57.79,1.60048,1.60048,0,0,1,.05.21,1.44946,1.44946,0,0,1,0,.25,2.86108,2.86108,0,0,1,0,.34v1a3.0703,3.0703,0,0,1,0,.34,1.64023,1.64023,0,0,1,0,.25,1.17,1.17,0,0,1-.05.2,1.39,1.39,0,0,1-.57.79,1.77,1.77,0,0,1-1,.26h-1.7a.06.06,0,0,1-.07-.07Zm1,3.67h.52a1.09,1.09,0,0,0,.55-.12.64.64,0,0,0,.3-.4V57.3A.66.66,0,0,0,51,57a1.09992,1.09992,0,0,0-.55-.11H49.9Z"/><path class="cls-2" d="M53.11,56a.06238.06238,0,0,1,.07-.06h2.93s.07,0,.07.06v.74c0,.05,0,.07-.07.07h-2v.93h1.64a.06856.06856,0,0,1,.07.07v.73a.06.06,0,0,1-.07.07H54.14v1h2a.06856.06856,0,0,1,.07.07v.73a.06856.06856,0,0,1-.07.07H53.18a.06856.06856,0,0,1-.07-.07Z"/><path class="cls-2" d="M58.5,56a.05.05,0,0,1,.06-.06h.86s.07,0,.07.06v3.7h2c.05,0,.07,0,.07.07v.75a.06856.06856,0,0,1-.07.07h-3a.06238.06238,0,0,1-.06-.07Z"/><path class="cls-2" d="M63.43,56a.08.08,0,0,1,.08-.06h.85a.08.08,0,0,1,.09.06L66,60.56v.07h-.88a.08.08,0,0,1-.08-.07l-.27-.81h-1.6l-.25.81a.08.08,0,0,1-.08876.07016L62.83,60.63H61.9s-.06,0,0-.07Zm1,2.87-.52-1.64h0l-.52,1.64Z"/><path class="cls-2" d="M68.11,56a.06238.06238,0,0,1,.07-.06H69a.11.11,0,0,1,.11.06l1.16,2.67h0L71.41,56a.11.11,0,0,1,.11-.06h.78s.07,0,.07.06v4.54a.06856.06856,0,0,1-.07.07h-.76a.06238.06238,0,0,1-.06-.07V57.93h0l-.85,2a.13.13,0,0,1-.13.09H70a.14.14,0,0,1-.13-.09l-.84-2h0v2.63a.06856.06856,0,0,1-.07.07H68.2a.06.06,0,0,1-.07-.07Z"/><path class="cls-2" d="M73.25,56a.05.05,0,0,1,.06-.06h2.93c.05,0,.07,0,.07.06v.74c0,.05,0,.07-.07.07h-2v.93h1.64a.06856.06856,0,0,1,.07.07v.73a.06.06,0,0,1-.07.07H74.27v1h2c.05,0,.07,0,.07.07v.73a.06856.06856,0,0,1-.07.07H73.31a.06238.06238,0,0,1-.06-.07Zm1-.57h0l.64-.79a.15.15,0,0,1,.13-.07h.8v.05l-.83.8a.18.18,0,0,1-.13.06Z"/><path class="cls-2" d="M77.05,59.56a.90021.90021,0,0,1-.06-.22,1.77945,1.77945,0,0,1,0-.26,2.92034,2.92034,0,0,1,0-.33v-.91a2.92034,2.92034,0,0,1,0-.33,1.44946,1.44946,0,0,1,0-.25.9999.9999,0,0,1,.06-.23,1.53,1.53,0,0,1,.6-.86,1.80992,1.80992,0,0,1,1-.29,1.73994,1.73994,0,0,1,1,.27,1.6,1.6,0,0,1,.6.77V57l-.73.34a.07.07,0,0,1-.099.001l-.001-.001a1,1,0,0,0-.26-.37.65.65,0,0,0-.46-.16.68.68,0,0,0-.44.14.73006.73006,0,0,0-.25.38.61009.61009,0,0,0,0,.13v1.56a1.64257,1.64257,0,0,0,0,.18.58029.58029,0,0,0,0,.14.73009.73009,0,0,0,.25.38.68008.68008,0,0,0,.44.13.69.69,0,0,0,.46-.15,1,1,0,0,0,.26-.38.07.07,0,0,1,.099-.001l.001.001.73.34s.06,0,0,.08a1.6,1.6,0,0,1-.6.77,1.74,1.74,0,0,1-1,.27,1.81009,1.81009,0,0,1-1-.29A1.57005,1.57005,0,0,1,77.05,59.56Z"/><path class="cls-2" d="M82.14,56a.09.09,0,0,1,.09-.06h.85a.08.08,0,0,1,.08.06l1.55,4.54v.07h-.87c-.05,0-.07,0-.09-.07l-.26-.81h-1.6l-.26.81a.08.08,0,0,1-.08.07h-.88c-.05,0-.06,0-.05-.07Zm1,2.87-.52-1.64h0l-.51,1.64Z"/><path class="cls-2" d="M85.24,56a.06238.06238,0,0,1,.07-.06h.81a.13.13,0,0,1,.11.06l1.61,3h0V56a.06238.06238,0,0,1,.07-.06h.76a.05.05,0,0,1,.06.06v4.54s0,.07-.06.07h-.8a.13.13,0,0,1-.12-.07l-1.62-2.93h0v2.93a.06.06,0,0,1-.07.07H85.3a.06856.06856,0,0,1-.07-.07Z"/><path class="cls-2" d="M89.65,56a.05.05,0,0,1,.06-.06h.86s.07,0,.07.06v4.54a.06.06,0,0,1-.07.07h-.86a.06238.06238,0,0,1-.06-.07Z"/><path class="cls-2" d="M94.68,61h-.05l-.47-.48a1.91,1.91,0,0,1-.93.22,1.99992,1.99992,0,0,1-1-.28,1.46,1.46,0,0,1-.62-.86,2.171,2.171,0,0,1-.07-.24,1.86146,1.86146,0,0,1,0-.26,3.25478,3.25478,0,0,1,0-.33v-.9a3.25478,3.25478,0,0,1,0-.33,2.06177,2.06177,0,0,1,0-.26,2.171,2.171,0,0,1,.07-.24,1.44,1.44,0,0,1,.62-.85,1.91,1.91,0,0,1,1-.29,1.88,1.88,0,0,1,1,.29,1.49,1.49,0,0,1,.62.85,2.171,2.171,0,0,1,.07.24v.26a3.25478,3.25478,0,0,1,0,.33v.9a3.25478,3.25478,0,0,1,0,.33v.26a2.171,2.171,0,0,1-.07.24v.15l-.06.13.48.49a.06.06,0,0,1,.00532.08468L95.27,60.46Zm-1.5-1.16a.94008.94008,0,0,0,.25,0l-.29-.3a.06.06,0,0,1-.00532-.08469L93.14,59.45l.54-.53h.1l.18.19V57.42a.58029.58029,0,0,0,0-.14.73.73,0,0,0-.26-.38.77.77,0,0,0-.47-.13.76.76,0,0,0-.46.13.73.73,0,0,0-.26.38.57027.57027,0,0,0,0,.14,1.67653,1.67653,0,0,1,0,.2,2.3522,2.3522,0,0,0,0,.28v.78a2.27068,2.27068,0,0,0,0,.28,1.90607,1.90607,0,0,1,0,.2.57027.57027,0,0,0,0,.14.69.69,0,0,0,.26.38.76.76,0,0,0,.41.13Z"/><path class="cls-2" d="M97.47,60.71a2,2,0,0,1-.71-.12,1.55,1.55,0,0,1-.55-.34,1.51989,1.51989,0,0,1-.37-.57,2.25973,2.25973,0,0,1-.13-.77V56a.06238.06238,0,0,1,.07-.06h.85c.05,0,.07,0,.07.06v2.92a.91991.91991,0,0,0,.21.65.73.73,0,0,0,.56.22.71.71,0,0,0,.55-.22.92.92,0,0,0,.21-.65V56a.06238.06238,0,0,1,.07-.06h.85s.07,0,.07.06v2.89a2.26,2.26,0,0,1-.13.77,1.51991,1.51991,0,0,1-.37.57,1.55,1.55,0,0,1-.55.34A1.99986,1.99986,0,0,1,97.47,60.71Z"/><path class="cls-2" d="M100.07,56a.06238.06238,0,0,1,.07-.06h2.93s.07,0,.07.06v.74a.06.06,0,0,1-.07.07h-2v.93h1.64c.05,0,.07,0,.07.07v.73a.06.06,0,0,1-.07.07H101.1v1h2a.06.06,0,0,1,.07.07v.73a.06.06,0,0,1-.07.07h-2.93a.06856.06856,0,0,1-.07-.07Z"/><path class="cls-2" d="M105.46,56s0-.07.06-.07h1.71a1.81,1.81,0,0,1,1,.26,1.48,1.48,0,0,1,.58.79,1.59955,1.59955,0,0,0,0,.21v.25a3.10985,3.10985,0,0,1,0,.34v.98a3.28443,3.28443,0,0,1,0,.34v.25a1.93927,1.93927,0,0,0,0,.2,1.45,1.45,0,0,1-.58.79,1.73,1.73,0,0,1-1,.26h-1.71a.06238.06238,0,0,1-.06-.07Zm1,3.67H107a1.1301,1.1301,0,0,0,.56-.12.66.66,0,0,0,.29-.4.34988.34988,0,0,0,0-.11v-.17a1.99975,1.99975,0,0,0,0-.26v-.76a1.99975,1.99975,0,0,0,0-.26v-.17a.53034.53034,0,0,0,0-.12.69.69,0,0,0-.29-.4,1.14,1.14,0,0,0-.56-.11h-.51Z"/><path class="cls-2" d="M109.69,56a.06238.06238,0,0,1,.07-.06h2.93s.07,0,.07.06v.74c0,.05,0,.07-.07.07h-2v.93h1.64a.06856.06856,0,0,1,.07.07v.73a.06.06,0,0,1-.07.07h-1.64v1h2a.06856.06856,0,0,1,.07.07v.73a.06856.06856,0,0,1-.07.07h-2.93a.06.06,0,0,1-.07-.07Z"/><path class="cls-2" d="M115.15,60.63c-.05,0-.07,0-.07-.07V56a.06238.06238,0,0,1,.07-.06h1.77a1.78,1.78,0,0,1,.67.11,1.39385,1.39385,0,0,1,.82.78,1.70035,1.70035,0,0,1,.11.61,1.74015,1.74015,0,0,1-.11.61,1.39,1.39,0,0,1-.82.78,1.99985,1.99985,0,0,1-.67.11h-.81V60.5a.06856.06856,0,0,1-.07.07Zm1.71-2.54a.68.68,0,0,0,.49-.17.6.6,0,0,0,.18-.46.62.62,0,0,0-.18-.46.68.68,0,0,0-.49-.17h-.75v1.18h0Z"/><path class="cls-2" d="M121.68,60.63a.09.09,0,0,1-.1-.07l-.79-1.71h-.61v1.67a.06856.06856,0,0,1-.07.07h-.85a.06856.06856,0,0,1-.07-.07V56a.06238.06238,0,0,1,.07-.06H121a1.80987,1.80987,0,0,1,.63.1,1.48,1.48,0,0,1,.5.3,1.33,1.33,0,0,1,.31.46,1.44,1.44,0,0,1,.11.59,1.34,1.34,0,0,1-.81,1.3l.9,1.84a.03906.03906,0,1,1-.05.06ZM121,58a.64.64,0,0,0,.45-.16.63.63,0,0,0,0-.84.64.64,0,0,0-.45-.16h-.81V58H121Z"/><path class="cls-2" d="M123.35,56a.05.05,0,0,1,.06-.06h2.93s.07,0,.07.06v.74c0,.05,0,.07-.07.07h-2v.93H126a.06238.06238,0,0,1,.06.07v.73s0,.07-.06.07h-1.65v1h2a.06856.06856,0,0,1,.07.07v.73a.06856.06856,0,0,1-.07.07h-2.93a.06238.06238,0,0,1-.06-.07Zm1-.57h0l.64-.79a.16.16,0,0,1,.13-.07h.8v.05l-.83.8a.18.18,0,0,1-.13.06Z"/><path class="cls-2" d="M127.15,59.56a.90023.90023,0,0,1-.06-.22,1.77945,1.77945,0,0,1,0-.26V57.51a1.45147,1.45147,0,0,1,0-.25.99992.99992,0,0,1,.06-.23,1.53,1.53,0,0,1,.6-.86,1.8099,1.8099,0,0,1,1-.29,1.73994,1.73994,0,0,1,1,.27,1.60006,1.60006,0,0,1,.6.77V57l-.73.34a.07.07,0,0,1-.099.001l-.001-.001a1.00008,1.00008,0,0,0-.26-.37.65.65,0,0,0-.46-.16.68.68,0,0,0-.44.14.73006.73006,0,0,0-.25.38v1.69a1.6376,1.6376,0,0,0,0,.18v.14a.73009.73009,0,0,0,.25.38.68.68,0,0,0,.44.13.69.69,0,0,0,.46-.15.99991.99991,0,0,0,.26-.38.07.07,0,0,1,.099-.001l.001.001.73.34s.06,0,0,.08a1.60006,1.60006,0,0,1-.6.77,1.74,1.74,0,0,1-1,.27,1.81006,1.81006,0,0,1-1-.29A1.57,1.57,0,0,1,127.15,59.56Z"/><path class="cls-2" d="M131,56a.06238.06238,0,0,1,.07-.06h.85s.07,0,.07.06v4.54a.06856.06856,0,0,1-.07.07h-.85c-.05,0-.07,0-.07-.07Z"/><path class="cls-2" d="M134.41,60.71a3.04937,3.04937,0,0,1-.52-.05,3.15069,3.15069,0,0,1-.49-.14,4.08991,4.08991,0,0,1-.42-.2,1.77931,1.77931,0,0,1-.33-.25.08.08,0,0,1-.00708-.11292L132.65,59.95l.51-.6h.1a2.9994,2.9994,0,0,0,.53.33,1.45006,1.45006,0,0,0,.66.15.83.83,0,0,0,.56-.16.47.47,0,0,0,.19-.4.43.43,0,0,0-.15-.34,1.09006,1.09006,0,0,0-.55-.18h-.25a1.99993,1.99993,0,0,1-1.07-.43,1.24,1.24,0,0,1-.37-1,1.62979,1.62979,0,0,1,.11-.59,1.45022,1.45022,0,0,1,.33-.45,1.58,1.58,0,0,1,.51-.29,1.99986,1.99986,0,0,1,.67-.1,2.71014,2.71014,0,0,1,.86.13,2.2503,2.2503,0,0,1,.69.36s.05.06,0,.1l-.41.63a.06.06,0,0,1-.08468.00531L135.48,57.11a2.16023,2.16023,0,0,0-.52-.27,1.61028,1.61028,0,0,0-.54-.09.64.64,0,0,0-.46.15.46.46,0,0,0-.15.36.43.43,0,0,0,.15.33,1.17,1.17,0,0,0,.56.19h.24a1.88993,1.88993,0,0,1,1.08.44,1.27,1.27,0,0,1,.36,1,1.58019,1.58019,0,0,1-.11.58,1.24015,1.24015,0,0,1-.34.47,1.72006,1.72006,0,0,1-.57.31A2.57011,2.57011,0,0,1,134.41,60.71Z"/><path class="cls-2" d="M136.88,56a.05.05,0,0,1,.06-.06h.86a.05.05,0,0,1,.06.06v4.54s0,.07-.06.07h-.86a.06238.06238,0,0,1-.06-.07Z"/><path class="cls-2" d="M140.41,60.71a2.00011,2.00011,0,0,1-1-.28,1.46,1.46,0,0,1-.62-.86,2.171,2.171,0,0,1-.07-.24V57.26a2.171,2.171,0,0,1,.07-.24,1.44,1.44,0,0,1,.62-.85,1.89,1.89,0,0,1,1-.29,1.92,1.92,0,0,1,1.05.29,1.47993,1.47993,0,0,1,.62.85,1.04956,1.04956,0,0,1,.06.24,1.59175,1.59175,0,0,1,0,.26,2.92034,2.92034,0,0,1,0,.33v.89a2.92034,2.92034,0,0,1,0,.33,1.78226,1.78226,0,0,1,0,.26,1.04982,1.04982,0,0,1-.06.24,1.5,1.5,0,0,1-.62.86A2.00008,2.00008,0,0,1,140.41,60.71Zm0-.9a.77.77,0,0,0,.47-.13.73.73,0,0,0,.25-.38.56929.56929,0,0,0,0-.14v-.2a2.09716,2.09716,0,0,0,0-.27V57.9a2.34782,2.34782,0,0,0,0-.28v-.19a.56929.56929,0,0,0,0-.14.73.73,0,0,0-.25-.38.7699.7699,0,0,0-.47-.14.75992.75992,0,0,0-.46.14.73994.73994,0,0,0-.26.38v.14a1.0017,1.0017,0,0,0,0,.19v1.34a1.1208,1.1208,0,0,0,0,.2v.14a.74.74,0,0,0,.26.38A.76.76,0,0,0,140.41,59.81Z"/><path class="cls-2" d="M143,56a.06238.06238,0,0,1,.07-.06h.81A.13.13,0,0,1,144,56l1.56,3h0V56a.06238.06238,0,0,1,.07-.06h.76a.05.05,0,0,1,.06.06v4.54s0,.07-.06.07h-.81a.13.13,0,0,1-.11-.07l-1.62-2.93h0v2.93a.06.06,0,0,1-.07.07H143c-.05,0-.07,0-.07-.07Z"/><rect class="cls-2" y="55.42" width="3.66" height="5.24"/><polygon class="cls-1" points="175.87 4.88 175.89 41.08 163.84 29.03 163.84 52.88 187.69 52.88 176.11 41.3 211.84 41.32 211.84 56.34 160.38 56.34 160.38 4.88 175.87 4.88"/><g class="cls-3"><rect class="cls-1" x="160.38" y="4.88" width="0.17" height="51.46"/><rect class="cls-1" x="160.55" y="4.88" width="0.17" height="51.46"/><rect class="cls-1" x="160.72" y="4.88" width="0.17" height="51.46"/><rect class="cls-1" x="160.89" y="4.88" width="0.17" height="51.46"/><rect class="cls-1" x="161.06" y="4.88" width="0.17" height="51.46"/><rect class="cls-1" x="161.23" y="4.88" width="0.17" height="51.46"/><rect class="cls-1" x="161.39999" y="4.88" width="0.17" height="51.46"/><rect class="cls-1" x="161.57001" y="4.88" width="0.17" height="51.46"/><rect class="cls-1" x="161.75" y="4.88" width="0.17" height="51.46"/><rect class="cls-1" x="161.92" y="4.88" width="0.17" height="51.46"/><rect class="cls-1" x="162.09" y="4.88" width="0.17" height="51.46"/><rect class="cls-1" x="162.25999" y="4.88" width="0.17" height="51.46"/><rect class="cls-1" x="162.42999" y="4.88" width="0.17" height="51.46"/><rect class="cls-1" x="162.60001" y="4.88" width="0.17" height="51.46"/><rect class="cls-1" x="162.77" y="4.88" width="0.17" height="51.46"/><rect class="cls-1" x="162.94" y="4.88" width="0.17" height="51.46"/><rect class="cls-1" x="163.11" y="4.88" width="0.17" height="51.46"/><rect class="cls-1" x="163.28" y="4.88" width="0.17" height="51.46"/><rect class="cls-1" x="163.45" y="4.88" width="0.17" height="51.46"/><rect class="cls-1" x="163.62" y="4.88" width="0.17" height="51.46"/><rect class="cls-1" x="163.78999" y="4.88" width="0.17" height="51.46"/><rect class="cls-1" x="163.96001" y="4.88" width="0.17" height="51.46"/><rect class="cls-1" x="164.13" y="4.88" width="0.17" height="51.46"/><rect class="cls-1" x="164.3" y="4.88" width="0.17" height="51.46"/><rect class="cls-1" x="164.47" y="4.88" width="0.17" height="51.46"/><rect class="cls-1" x="164.64" y="4.88" width="0.17" height="51.46"/><rect class="cls-1" x="164.81" y="4.88" width="0.17" height="51.46"/><rect class="cls-1" x="164.98" y="4.88" width="0.17" height="51.46"/><rect class="cls-1" x="165.14999" y="4.88" width="0.17" height="51.46"/><rect class="cls-1" x="165.32001" y="4.88" width="0.17" height="51.46"/><rect class="cls-1" x="165.49001" y="4.88" width="0.17" height="51.46"/><rect class="cls-1" x="165.66" y="4.88" width="0.17" height="51.46"/><rect class="cls-1" x="165.83" y="4.88" width="0.17" height="51.46"/><rect class="cls-1" x="166" y="4.88" width="0.17" height="51.46"/><rect class="cls-1" x="166.17999" y="4.88" width="0.17" height="51.46"/><rect class="cls-1" x="166.35001" y="4.88" width="0.17" height="51.46"/><rect class="cls-1" x="166.52" y="4.88" width="0.17" height="51.46"/><rect class="cls-1" x="166.69" y="4.88" width="0.17" height="51.46"/><rect class="cls-1" x="166.86" y="4.88" width="0.17" height="51.46"/><rect class="cls-1" x="167.03" y="4.88" width="0.17" height="51.46"/><rect class="cls-1" x="167.2" y="4.88" width="0.17" height="51.46"/><rect class="cls-1" x="167.37" y="4.88" width="0.17" height="51.46"/><rect class="cls-1" x="167.53999" y="4.88" width="0.17" height="51.46"/><rect class="cls-1" x="167.71001" y="4.88" width="0.17" height="51.46"/><rect class="cls-1" x="167.88" y="4.88" width="0.17" height="51.46"/><rect class="cls-1" x="168.05" y="4.88" width="0.17" height="51.46"/><rect class="cls-1" x="168.22" y="4.88" width="0.17" height="51.46"/><rect class="cls-1" x="168.39" y="4.88" width="0.17" height="51.46"/><rect class="cls-1" x="168.56" y="4.88" width="0.17" height="51.46"/><rect class="cls-1" x="168.73" y="4.88" width="0.17" height="51.46"/><rect class="cls-1" x="168.89999" y="4.88" width="0.17" height="51.46"/><rect class="cls-1" x="169.07001" y="4.88" width="0.17" height="51.46"/><rect class="cls-1" x="169.24001" y="4.88" width="0.17" height="51.46"/><rect class="cls-1" x="169.41" y="4.88" width="0.17" height="51.46"/><rect class="cls-1" x="169.58" y="4.88" width="0.17" height="51.46"/><rect class="cls-1" x="169.75" y="4.88" width="0.17" height="51.46"/><rect class="cls-1" x="169.92" y="4.88" width="0.17" height="51.46"/><rect class="cls-1" x="170.09" y="4.88" width="0.17" height="51.46"/><rect class="cls-1" x="170.25999" y="4.88" width="0.17" height="51.46"/><rect class="cls-1" x="170.44" y="4.88" width="0.17" height="51.46"/><rect class="cls-1" x="170.61" y="4.88" width="0.17" height="51.46"/><rect class="cls-1" x="170.78" y="4.88" width="0.17" height="51.46"/><rect class="cls-1" x="170.95" y="4.88" width="0.17" height="51.46"/><rect class="cls-1" x="171.12" y="4.88" width="0.17" height="51.46"/><rect class="cls-1" x="171.28999" y="4.88" width="0.17" height="51.46"/><rect class="cls-1" x="171.46001" y="4.88" width="0.17" height="51.46"/><rect class="cls-1" x="171.63" y="4.88" width="0.17" height="51.46"/><rect class="cls-1" x="171.8" y="4.88" width="0.17" height="51.46"/><rect class="cls-1" x="171.97" y="4.88" width="0.17" height="51.46"/><rect class="cls-1" x="172.14" y="4.88" width="0.17" height="51.46"/><rect class="cls-1" x="172.31" y="4.88" width="0.17" height="51.46"/><rect class="cls-1" x="172.48" y="4.88" width="0.17" height="51.46"/><rect class="cls-1" x="172.64999" y="4.88" width="0.17" height="51.46"/><rect class="cls-1" x="172.82001" y="4.88" width="0.17" height="51.46"/><rect class="cls-1" x="172.99001" y="4.88" width="0.17" height="51.46"/><rect class="cls-1" x="173.16" y="4.88" width="0.17" height="51.46"/><rect class="cls-1" x="173.33" y="4.88" width="0.17" height="51.46"/><rect class="cls-1" x="173.5" y="4.88" width="0.17" height="51.46"/><rect class="cls-1" x="173.67" y="4.88" width="0.17" height="51.46"/><rect class="cls-1" x="173.84" y="4.88" width="0.17" height="51.46"/><rect class="cls-1" x="174.00999" y="4.88" width="0.17" height="51.46"/><rect class="cls-1" x="174.17999" y="4.88" width="0.17" height="51.46"/><rect class="cls-1" x="174.35001" y="4.88" width="0.17" height="51.46"/><rect class="cls-1" x="174.52" y="4.88" width="0.17" height="51.46"/><rect class="cls-1" x="174.69" y="4.88" width="0.17" height="51.46"/><rect class="cls-1" x="174.87" y="4.88" width="0.17" height="51.46"/><rect class="cls-1" x="175.03999" y="4.88" width="0.17" height="51.46"/><rect class="cls-1" x="175.21001" y="4.88" width="0.17" height="51.46"/><rect class="cls-1" x="175.38" y="4.88" width="0.17" height="51.46"/><rect class="cls-1" x="175.55" y="4.88" width="0.17" height="51.46"/><rect class="cls-1" x="175.72" y="4.88" width="0.17" height="51.46"/><rect class="cls-1" x="175.89" y="4.88" width="0.17" height="51.46"/><rect class="cls-1" x="176.06" y="4.88" width="0.17" height="51.46"/><rect class="cls-1" x="176.23" y="4.88" width="0.17" height="51.46"/><rect class="cls-1" x="176.39999" y="4.88" width="0.17" height="51.46"/><rect class="cls-1" x="176.57001" y="4.88" width="0.17" height="51.46"/><rect class="cls-1" x="176.74001" y="4.88" width="0.17" height="51.46"/><rect class="cls-1" x="176.91" y="4.88" width="0.17" height="51.46"/><rect class="cls-1" x="177.08" y="4.88" width="0.17" height="51.46"/><rect class="cls-1" x="177.25" y="4.88" width="0.17" height="51.46"/><rect class="cls-1" x="177.42" y="4.88" width="0.17" height="51.46"/><rect class="cls-1" x="177.59" y="4.88" width="0.17" height="51.46"/><rect class="cls-1" x="177.75999" y="4.88" width="0.17" height="51.46"/><rect class="cls-1" x="177.92999" y="4.88" width="0.17" height="51.46"/><rect class="cls-1" x="178.10001" y="4.88" width="0.17" height="51.46"/><rect class="cls-1" x="178.27" y="4.88" width="0.17" height="51.46"/><rect class="cls-1" x="178.44" y="4.88" width="0.17" height="51.46"/><rect class="cls-1" x="178.61" y="4.88" width="0.17" height="51.46"/><rect class="cls-1" x="178.78" y="4.88" width="0.17" height="51.46"/><rect class="cls-1" x="178.95" y="4.88" width="0.17" height="51.46"/><rect class="cls-1" x="179.13" y="4.88" width="0.17" height="51.46"/><rect class="cls-1" x="179.3" y="4.88" width="0.17" height="51.46"/><rect class="cls-1" x="179.47" y="4.88" width="0.17" height="51.46"/><rect class="cls-1" x="179.64" y="4.88" width="0.17" height="51.46"/><rect class="cls-1" x="179.81" y="4.88" width="0.17" height="51.46"/><rect class="cls-1" x="179.98" y="4.88" width="0.17" height="51.46"/><rect class="cls-1" x="180.14999" y="4.88" width="0.17" height="51.46"/><rect class="cls-1" x="180.32001" y="4.88" width="0.17" height="51.46"/><rect class="cls-1" x="180.49001" y="4.88" width="0.17" height="51.46"/><rect class="cls-1" x="180.66" y="4.88" width="0.17" height="51.46"/><rect class="cls-1" x="180.83" y="4.88" width="0.17" height="51.46"/><rect class="cls-1" x="181" y="4.88" width="0.17" height="51.46"/><rect class="cls-1" x="181.17" y="4.88" width="0.17" height="51.46"/><rect class="cls-1" x="181.34" y="4.88" width="0.17" height="51.46"/><rect class="cls-1" x="181.50999" y="4.88" width="0.17" height="51.46"/><rect class="cls-1" x="181.67999" y="4.88" width="0.17" height="51.46"/><rect class="cls-1" x="181.85001" y="4.88" width="0.17" height="51.46"/><rect class="cls-1" x="182.02" y="4.88" width="0.17" height="51.46"/><rect class="cls-1" x="182.19" y="4.88" width="0.17" height="51.46"/><rect class="cls-1" x="182.36" y="4.88" width="0.17" height="51.46"/><rect class="cls-1" x="182.53" y="4.88" width="0.17" height="51.46"/><rect class="cls-1" x="182.7" y="4.88" width="0.17" height="51.46"/><rect class="cls-1" x="182.87" y="4.88" width="0.17" height="51.46"/><rect class="cls-1" x="183.03999" y="4.88" width="0.17" height="51.46"/><rect class="cls-1" x="183.21001" y="4.88" width="0.17" height="51.46"/><rect class="cls-1" x="183.38" y="4.88" width="0.17" height="51.46"/><rect class="cls-1" x="183.56" y="4.88" width="0.17" height="51.46"/><rect class="cls-1" x="183.73" y="4.88" width="0.17" height="51.46"/><rect class="cls-1" x="183.89999" y="4.88" width="0.17" height="51.46"/><rect class="cls-1" x="184.07001" y="4.88" width="0.17" height="51.46"/><rect class="cls-1" x="184.24001" y="4.88" width="0.17" height="51.46"/><rect class="cls-1" x="184.41" y="4.88" width="0.17" height="51.46"/><rect class="cls-1" x="184.58" y="4.88" width="0.17" height="51.46"/><rect class="cls-1" x="184.75" y="4.88" width="0.17" height="51.46"/><rect class="cls-1" x="184.92" y="4.88" width="0.17" height="51.46"/><rect class="cls-1" x="185.09" y="4.88" width="0.17" height="51.46"/><rect class="cls-1" x="185.25999" y="4.88" width="0.17" height="51.46"/><rect class="cls-1" x="185.42999" y="4.88" width="0.17" height="51.46"/><rect class="cls-1" x="185.60001" y="4.88" width="0.17" height="51.46"/><rect class="cls-1" x="185.77" y="4.88" width="0.17" height="51.46"/><rect class="cls-1" x="185.94" y="4.88" width="0.17" height="51.46"/><rect class="cls-1" x="186.11" y="4.88" width="0.17" height="51.46"/><rect class="cls-1" x="186.28" y="4.88" width="0.17" height="51.46"/><rect class="cls-1" x="186.45" y="4.88" width="0.17" height="51.46"/><rect class="cls-1" x="186.62" y="4.88" width="0.17" height="51.46"/><rect class="cls-1" x="186.78999" y="4.88" width="0.17" height="51.46"/><rect class="cls-1" x="186.96001" y="4.88" width="0.17" height="51.46"/><rect class="cls-1" x="187.13" y="4.88" width="0.17" height="51.46"/><rect class="cls-1" x="187.3" y="4.88" width="0.17" height="51.46"/><rect class="cls-1" x="187.47" y="4.88" width="0.17" height="51.46"/><rect class="cls-1" x="187.64" y="4.88" width="0.17" height="51.46"/><rect class="cls-1" x="187.82001" y="4.88" width="0.17" height="51.46"/><rect class="cls-1" x="187.99001" y="4.88" width="0.17" height="51.46"/><rect class="cls-1" x="188.16" y="4.88" width="0.17" height="51.46"/><rect class="cls-1" x="188.33" y="4.88" width="0.17" height="51.46"/><rect class="cls-1" x="188.5" y="4.88" width="0.17" height="51.46"/><rect class="cls-1" x="188.67" y="4.88" width="0.17" height="51.46"/><rect class="cls-1" x="188.84" y="4.88" width="0.17" height="51.46"/><rect class="cls-1" x="189.00999" y="4.88" width="0.17" height="51.46"/><rect class="cls-1" x="189.17999" y="4.88" width="0.17" height="51.46"/><rect class="cls-1" x="189.35001" y="4.88" width="0.17" height="51.46"/><rect class="cls-1" x="189.52" y="4.88" width="0.17" height="51.46"/><rect class="cls-1" x="189.69" y="4.88" width="0.17" height="51.46"/><rect class="cls-1" x="189.86" y="4.88" width="0.17" height="51.46"/><rect class="cls-1" x="190.03" y="4.88" width="0.17" height="51.46"/><rect class="cls-1" x="190.2" y="4.88" width="0.17" height="51.46"/><rect class="cls-1" x="190.37" y="4.88" width="0.17" height="51.46"/><rect class="cls-1" x="190.53999" y="4.88" width="0.17" height="51.46"/><rect class="cls-1" x="190.71001" y="4.88" width="0.17" height="51.46"/><rect class="cls-1" x="190.88" y="4.88" width="0.17" height="51.46"/><rect class="cls-1" x="191.05" y="4.88" width="0.17" height="51.46"/><rect class="cls-1" x="191.22" y="4.88" width="0.17" height="51.46"/><rect class="cls-1" x="191.39" y="4.88" width="0.17" height="51.46"/><rect class="cls-1" x="191.56" y="4.88" width="0.17" height="51.46"/><rect class="cls-1" x="191.73" y="4.88" width="0.17" height="51.46"/><rect class="cls-1" x="191.89999" y="4.88" width="0.17" height="51.46"/><rect class="cls-1" x="192.07001" y="4.88" width="0.17" height="51.46"/><rect class="cls-1" x="192.25" y="4.88" width="0.17" height="51.46"/><rect class="cls-1" x="192.42" y="4.88" width="0.17" height="51.46"/><rect class="cls-1" x="192.59" y="4.88" width="0.17" height="51.46"/><rect class="cls-1" x="192.75999" y="4.88" width="0.17" height="51.46"/><rect class="cls-1" x="192.92999" y="4.88" width="0.17" height="51.46"/><rect class="cls-1" x="193.10001" y="4.88" width="0.17" height="51.46"/><rect class="cls-1" x="193.27" y="4.88" width="0.17" height="51.46"/><rect class="cls-1" x="193.44" y="4.88" width="0.17" height="51.46"/><rect class="cls-1" x="193.61" y="4.88" width="0.17" height="51.46"/><rect class="cls-1" x="193.78" y="4.88" width="0.17" height="51.46"/><rect class="cls-1" x="193.95" y="4.88" width="0.17" height="51.46"/><rect class="cls-1" x="194.12" y="4.88" width="0.17" height="51.46"/><rect class="cls-1" x="194.28999" y="4.88" width="0.17" height="51.46"/><rect class="cls-1" x="194.46001" y="4.88" width="0.17" height="51.46"/><rect class="cls-1" x="194.63" y="4.88" width="0.17" height="51.46"/><rect class="cls-1" x="194.8" y="4.88" width="0.17" height="51.46"/><rect class="cls-1" x="194.97" y="4.88" width="0.17" height="51.46"/><rect class="cls-1" x="195.14" y="4.88" width="0.17" height="51.46"/><rect class="cls-1" x="195.31" y="4.88" width="0.17" height="51.46"/><rect class="cls-1" x="195.48" y="4.88" width="0.17" height="51.46"/><rect class="cls-1" x="195.64999" y="4.88" width="0.17" height="51.46"/><rect class="cls-1" x="195.82001" y="4.88" width="0.17" height="51.46"/><rect class="cls-1" x="195.99001" y="4.88" width="0.17" height="51.46"/><rect class="cls-1" x="196.16" y="4.88" width="0.17" height="51.46"/><rect class="cls-1" x="196.33" y="4.88" width="0.17" height="51.46"/><rect class="cls-1" x="196.50999" y="4.88" width="0.17" height="51.46"/><rect class="cls-1" x="196.67999" y="4.88" width="0.17" height="51.46"/><rect class="cls-1" x="196.85001" y="4.88" width="0.17" height="51.46"/><rect class="cls-1" x="197.02" y="4.88" width="0.17" height="51.46"/><rect class="cls-1" x="197.19" y="4.88" width="0.17" height="51.46"/><rect class="cls-1" x="197.36" y="4.88" width="0.17" height="51.46"/><rect class="cls-1" x="197.53" y="4.88" width="0.17" height="51.46"/><rect class="cls-1" x="197.7" y="4.88" width="0.17" height="51.46"/><rect class="cls-1" x="197.87" y="4.88" width="0.17" height="51.46"/><rect class="cls-1" x="198.03999" y="4.88" width="0.17" height="51.46"/><rect class="cls-1" x="198.21001" y="4.88" width="0.17" height="51.46"/><rect class="cls-1" x="198.38" y="4.88" width="0.17" height="51.46"/><rect class="cls-1" x="198.55" y="4.88" width="0.17" height="51.46"/><rect class="cls-1" x="198.72" y="4.88" width="0.17" height="51.46"/><rect class="cls-1" x="198.89" y="4.88" width="0.17" height="51.46"/><rect class="cls-1" x="199.06" y="4.88" width="0.17" height="51.46"/><rect class="cls-1" x="199.23" y="4.88" width="0.17" height="51.46"/><rect class="cls-1" x="199.39999" y="4.88" width="0.17" height="51.46"/><rect class="cls-1" x="199.57001" y="4.88" width="0.17" height="51.46"/><rect class="cls-1" x="199.74001" y="4.88" width="0.17" height="51.46"/><rect class="cls-1" x="199.91" y="4.88" width="0.17" height="51.46"/><rect class="cls-1" x="200.08" y="4.88" width="0.17" height="51.46"/><rect class="cls-1" x="200.25" y="4.88" width="0.17" height="51.46"/><rect class="cls-1" x="200.42" y="4.88" width="0.17" height="51.46"/><rect class="cls-1" x="200.59" y="4.88" width="0.17" height="51.46"/><rect class="cls-1" x="200.75999" y="4.88" width="0.17" height="51.46"/><rect class="cls-1" x="200.94" y="4.88" width="0.17" height="51.46"/><rect class="cls-1" x="201.11" y="4.88" width="0.17" height="51.46"/><rect class="cls-1" x="201.28" y="4.88" width="0.17" height="51.46"/><rect class="cls-1" x="201.45" y="4.88" width="0.17" height="51.46"/><rect class="cls-1" x="201.62" y="4.88" width="0.17" height="51.46"/><rect class="cls-1" x="201.78999" y="4.88" width="0.17" height="51.46"/><rect class="cls-1" x="201.96001" y="4.88" width="0.17" height="51.46"/><rect class="cls-1" x="202.13" y="4.88" width="0.17" height="51.46"/><rect class="cls-1" x="202.3" y="4.88" width="0.17" height="51.46"/><rect class="cls-1" x="202.47" y="4.88" width="0.17" height="51.46"/><rect class="cls-1" x="202.64" y="4.88" width="0.17" height="51.46"/><rect class="cls-1" x="202.81" y="4.88" width="0.17" height="51.46"/><rect class="cls-1" x="202.98" y="4.88" width="0.17" height="51.46"/><rect class="cls-1" x="203.14999" y="4.88" width="0.17" height="51.46"/><rect class="cls-1" x="203.32001" y="4.88" width="0.17" height="51.46"/><rect class="cls-1" x="203.49001" y="4.88" width="0.17" height="51.46"/><rect class="cls-1" x="203.66" y="4.88" width="0.17" height="51.46"/><rect class="cls-1" x="203.83" y="4.88" width="0.17" height="51.46"/><rect class="cls-1" x="204" y="4.88" width="0.17" height="51.46"/><rect class="cls-1" x="204.17" y="4.88" width="0.17" height="51.46"/><rect class="cls-1" x="204.34" y="4.88" width="0.17" height="51.46"/><rect class="cls-1" x="204.50999" y="4.88" width="0.17" height="51.46"/><rect class="cls-1" x="204.67999" y="4.88" width="0.17" height="51.46"/><rect class="cls-1" x="204.85001" y="4.88" width="0.17" height="51.46"/><rect class="cls-1" x="205.02" y="4.88" width="0.17" height="51.46"/><rect class="cls-1" x="205.2" y="4.88" width="0.17" height="51.46"/><rect class="cls-1" x="205.37" y="4.88" width="0.17" height="51.46"/><rect class="cls-1" x="205.53999" y="4.88" width="0.17" height="51.46"/><rect class="cls-1" x="205.71001" y="4.88" width="0.17" height="51.46"/><rect class="cls-1" x="205.88" y="4.88" width="0.17" height="51.46"/><rect class="cls-1" x="206.05" y="4.88" width="0.17" height="51.46"/><rect class="cls-1" x="206.22" y="4.88" width="0.17" height="51.46"/><rect class="cls-1" x="206.39" y="4.88" width="0.17" height="51.46"/><rect class="cls-1" x="206.56" y="4.88" width="0.17" height="51.46"/><rect class="cls-1" x="206.73" y="4.88" width="0.17" height="51.46"/><rect class="cls-1" x="206.89999" y="4.88" width="0.17" height="51.46"/><rect class="cls-1" x="207.07001" y="4.88" width="0.17" height="51.46"/><rect class="cls-1" x="207.24001" y="4.88" width="0.17" height="51.46"/><rect class="cls-1" x="207.41" y="4.88" width="0.17" height="51.46"/><rect class="cls-1" x="207.58" y="4.88" width="0.17" height="51.46"/><rect class="cls-1" x="207.75" y="4.88" width="0.17" height="51.46"/><rect class="cls-1" x="207.92" y="4.88" width="0.17" height="51.46"/><rect class="cls-1" x="208.09" y="4.88" width="0.17" height="51.46"/><rect class="cls-1" x="208.25999" y="4.88" width="0.17" height="51.46"/><rect class="cls-1" x="208.42999" y="4.88" width="0.17" height="51.46"/><rect class="cls-1" x="208.60001" y="4.88" width="0.17" height="51.46"/><rect class="cls-1" x="208.77" y="4.88" width="0.17" height="51.46"/><rect class="cls-1" x="208.94" y="4.88" width="0.17" height="51.46"/><rect class="cls-1" x="209.11" y="4.88" width="0.17" height="51.46"/><rect class="cls-1" x="209.28" y="4.88" width="0.17" height="51.46"/><rect class="cls-1" x="209.45" y="4.88" width="0.17" height="51.46"/><rect class="cls-1" x="209.63" y="4.88" width="0.17" height="51.46"/><rect class="cls-1" x="209.8" y="4.88" width="0.17" height="51.46"/><rect class="cls-1" x="209.97" y="4.88" width="0.17" height="51.46"/><rect class="cls-1" x="210.14" y="4.88" width="0.17" height="51.46"/><rect class="cls-1" x="210.31" y="4.88" width="0.17" height="51.46"/><rect class="cls-1" x="210.48" y="4.88" width="0.17" height="51.46"/><rect class="cls-1" x="210.64999" y="4.88" width="0.17" height="51.46"/><rect class="cls-1" x="210.82001" y="4.88" width="0.17" height="51.46"/><rect class="cls-1" x="210.99001" y="4.88" width="0.17" height="51.46"/><rect class="cls-1" x="211.16" y="4.88" width="0.17" height="51.46"/><rect class="cls-1" x="211.33" y="4.88" width="0.17" height="51.46"/><rect class="cls-1" x="211.5" y="4.88" width="0.17" height="51.46"/><rect class="cls-1" x="211.67" y="4.88" width="0.17" height="51.46"/></g><path class="cls-1" d="M217.75,61.27H154.3V0h50.57a12.9,12.9,0,0,1,12.88,12.88Zm-62.11-1.34H216.4v-47A11.54,11.54,0,0,0,204.90007,1.35007L204.87,1.35H155.64Z"/><path class="cls-2" d="M16.91,6.92c.51,1.35,1.06,2.69,1.56,4s1,2.69,1.56,4c1.7-2.13,3.38-4.27,5.07-6.4s3.41-4.26,5.09-6.39h9q-1.07,5.21-2.12,10.4c-.69,3.54-1.41,7-2.07,10.47H26c.34-1.67.66-3.35,1-5s.69-3.34,1-5l-4,5c-1.33,1.67-2.65,3.35-4,5H16.79c-.66-1.67-1.32-3.34-2-5s-1.28-3.34-1.91-5c-.36,1.67-.69,3.34-1,5s-.69,3.35-1,5h-9c.46-2.32.94-4.64,1.41-7s1-4.64,1.43-7Zm-.21-.55C16.18,5,15.63,3.6,15.1,2.21H4.1C3.81,3.6,3.53,5,3.24,6.37Z"/><path class="cls-2" d="M40.88,23c.46-2.32.95-4.64,1.43-7s.94-4.64,1.43-7l9.32-1.65c-.55,2.59-1.07,5.19-1.6,7.78s-1.07,5.2-1.6,7.79Zm11.29-6.24H66.73a7.07,7.07,0,0,0,4.57-1.83,8.1099,8.1099,0,0,0,2.7-4.4l.42-2.08A5.44,5.44,0,0,0,73.55,4a4.65,4.65,0,0,0-3.83-1.83H43.13c-.28,1.39-.57,2.77-.84,4.16H63.87a1.62,1.62,0,0,1,1.58,2.08c-.14.69-.3,1.38-.44,2.08a2.65,2.65,0,0,1-2.4,2.08h-8.9C53.18,14,52.68,15.38,52.17,16.76Z"/><path class="cls-2" d="M76.47,6.37l.84-4.16h32.6c-1,1.39-2.11,2.77-3.14,4.16Zm9.31,8.31c.22-1.21.47-2.42.72-3.62s.49-2.42.73-3.63L77.91,9.08c-.32,1.52-.62,3-.93,4.56a8.1,8.1,0,0,0,1.28,6.61A7.07,7.07,0,0,0,84.05,23h19.31c1-1.39,2.09-2.77,3.14-4.16H89.27a3.49,3.49,0,0,1-3.49-4.16Zm2.56-4.15H106.2l-3.14,4.15H86.78C87.29,13.3,87.81,11.91,88.34,10.53Z"/><path class="cls-2" d="M123.74,7.42c-.51,2.6-1,5.2-1.58,7.79s-1.07,5.19-1.58,7.79h-9c.46-2.32,1-4.64,1.42-7s.94-4.65,1.42-7Zm.68,5.18c-.53,1.39-1,2.77-1.57,4.16h6.09c.61,1,1.23,2.08,1.85,3.12S132.06,22,132.7,23h10.44c-.67-1.08-1.32-2.17-2-3.25l-2-3.26a8.15,8.15,0,0,0,5.48-6c.14-.69.29-1.38.43-2.08a5.46,5.46,0,0,0-.87-4.4,4.69,4.69,0,0,0-3.86-1.84H113.83c-.29,1.39-.55,2.78-.84,4.16h21.59a1.63,1.63,0,0,1,1.57,2.08c-.14.7-.29,1.39-.43,2.08a2.64,2.64,0,0,1-2.42,2.08Z"/><path class="cls-1" d="M13,34c.41,1.28.86,2.55,1.27,3.82s.84,2.55,1.27,3.82c1.39-2,2.76-4,4.14-6s2.79-4,4.16-6.05h7.38c-.59,3.28-1.16,6.56-1.74,9.83s-1.17,6.55-1.74,9.83H20.38c.27-1.58.54-3.16.82-4.74s.57-3.16.85-4.75l-3.27,4.75c-1.09,1.57-2.16,3.16-3.25,4.74H12.89c-.54-1.58-1.08-3.16-1.6-4.74s-1-3.16-1.57-4.75c-.29,1.59-.56,3.17-.84,4.75s-.57,3.12-.88,4.7H.7c.38-2.19.77-4.39,1.15-6.58L3,36Zm-.17-.52c-.43-1.31-.88-2.62-1.31-3.93h-9c-.24,1.31-.46,2.62-.7,3.93Z"/><path class="cls-1" d="M42.52,34.48c-.43,2.46-.88,4.91-1.31,7.37l-1.29,7.36H32.56c.39-2.19.78-4.39,1.16-6.58L34.89,36Zm10.83,4.7H43.08c-.42,1.31-.85,2.62-1.26,3.93H52.67c-.19,1-.37,2-.55,3s-.36,2-.53,3.05H59c.32-1.8.63-3.6.95-5.41s.63-3.6,1-5.4a8.6,8.6,0,0,0-1.08-6.25,5.53,5.53,0,0,0-4.72-2.6H34.4l-.69,3.93H50.8c2,0,3.23,1.94,2.81,4.3C53.53,38.24,53.44,38.71,53.35,39.18Z"/><path class="cls-1" d="M72.58,34.48c-.42,2.45-.85,4.91-1.29,7.36s-.87,4.92-1.29,7.37H62.65c.38-2.19.78-4.39,1.17-6.58S64.59,38.23,65,36Zm.56,4.9c-.44,1.31-.86,2.62-1.28,3.93h5c.49,1,1,2,1.51,2.95s1,2,1.56,3h8.53c-.55-1-1.08-2.06-1.61-3.08l-1.6-3.08A6.39,6.39,0,0,0,88.08,41a7.99988,7.99988,0,0,0,1.62-3.54c.11-.66.23-1.31.35-2a5.77,5.77,0,0,0-.72-4.16,3.67,3.67,0,0,0-3.15-1.74H64.49c-.24,1.32-.45,2.63-.69,3.94H81.44c.89,0,1.47.88,1.28,2-.12.66-.24,1.31-.35,2a2.29,2.29,0,0,1-2,2Z"/><path class="cls-1" d="M92.89,36l7.61-1.56c-.21,1.09-.4,2.17-.58,3.25L99.35,41c-.43,2.36.84,4.29,2.78,4.29h5.23c2,0,3.9-1.93,4.31-4.29l.57-3.21c.41-2.37-.83-4.3-2.8-4.3H91.68c.23-1.31.47-2.62.69-3.93H113.7a5.55,5.55,0,0,1,4.74,2.6,8.73,8.73,0,0,1,1,6.25c-.11.65-.23,1.31-.34,2a12.00011,12.00011,0,0,1-3.27,6.25,8.21,8.21,0,0,1-5.65,2.6H97.89a5.52,5.52,0,0,1-4.73-2.6,8.69992,8.69992,0,0,1-1-6.25Z"/><path class="cls-1" d="M122,29.55h25q-1.28,2-2.57,3.93H121.31Zm22.2,15.73-2.58,3.93H127.51a5.53,5.53,0,0,1-4.73-2.6,8.6,8.6,0,0,1-1.06-6.25c.25-1.44.51-2.88.77-4.32l7.62-1.56-.6,3.44c-.21,1.14-.42,2.28-.61,3.43-.23,2.19,1,3.93,2.87,3.93Z"/><path class="cls-1" d="M202.17,4.88H176.64l.08,33.32,2.49,2.34h32.63v-26A9.67,9.67,0,0,0,202.17,4.88Zm-7.88,14.17h-1.88l-2-4.14v5.58h-2.83V9.58h2.74l3,6.44,2.9-6.44H199V20.49h-2.86V15Zm13.27,13H204.7V26.57l-1.85,4H201l-2-4.13V32h-2.83V21.11h2.74l3,6.44,2.9-6.44h2.78Z"/><g class="cls-4"><rect class="cls-1" x="196.17999" y="21.11" width="0.05" height="10.91"/><rect class="cls-1" x="196.22" y="21.11" width="0.12" height="10.91"/><rect class="cls-1" x="196.34" y="21.11" width="0.12" height="10.91"/><rect class="cls-1" x="196.46001" y="21.11" width="0.12" height="10.91"/><rect class="cls-1" x="196.57001" y="21.11" width="0.12" height="10.91"/><rect class="cls-1" x="196.69" y="21.11" width="0.12" height="10.91"/><rect class="cls-1" x="196.81" y="21.11" width="0.12" height="10.91"/><rect class="cls-1" x="196.92" y="21.11" width="0.12" height="10.91"/><rect class="cls-1" x="197.03999" y="21.11" width="0.12" height="10.91"/><rect class="cls-1" x="197.16" y="21.11" width="0.12" height="10.91"/><rect class="cls-1" x="197.27" y="21.11" width="0.12" height="10.91"/><rect class="cls-1" x="197.39" y="21.11" width="0.12" height="10.91"/><rect class="cls-1" x="197.50999" y="21.11" width="0.12" height="10.91"/><rect class="cls-1" x="197.62" y="21.11" width="0.12" height="10.91"/><rect class="cls-1" x="197.74001" y="21.11" width="0.12" height="10.91"/><rect class="cls-1" x="197.86" y="21.11" width="0.12" height="10.91"/><rect class="cls-1" x="197.97" y="21.11" width="0.12" height="10.91"/><rect class="cls-1" x="198.09" y="21.11" width="0.12" height="10.91"/><rect class="cls-1" x="198.2" y="21.11" width="0.12" height="10.91"/><rect class="cls-1" x="198.32001" y="21.11" width="0.12" height="10.91"/><rect class="cls-1" x="198.44" y="21.11" width="0.12" height="10.91"/><rect class="cls-1" x="198.55" y="21.11" width="0.12" height="10.91"/><rect class="cls-1" x="198.67" y="21.11" width="0.12" height="10.91"/><rect class="cls-1" x="198.78999" y="21.11" width="0.12" height="10.91"/><rect class="cls-1" x="198.89999" y="21.11" width="0.12" height="10.91"/><rect class="cls-1" x="199.02" y="21.11" width="0.12" height="10.91"/><rect class="cls-1" x="199.14" y="21.11" width="0.12" height="10.91"/><rect class="cls-1" x="199.25" y="21.11" width="0.12" height="10.91"/><rect class="cls-1" x="199.37" y="21.11" width="0.12" height="10.91"/><rect class="cls-1" x="199.49001" y="21.11" width="0.12" height="10.91"/><rect class="cls-1" x="199.60001" y="21.11" width="0.12" height="10.91"/><rect class="cls-1" x="199.72" y="21.11" width="0.12" height="10.91"/><rect class="cls-1" x="199.84" y="21.11" width="0.12" height="10.91"/><rect class="cls-1" x="199.95" y="21.11" width="0.12" height="10.91"/><rect class="cls-1" x="200.07001" y="21.11" width="0.12" height="10.91"/><rect class="cls-1" x="200.19" y="21.11" width="0.12" height="10.91"/><rect class="cls-1" x="200.3" y="21.11" width="0.12" height="10.91"/><rect class="cls-1" x="200.42" y="21.11" width="0.12" height="10.91"/><rect class="cls-1" x="200.53999" y="21.11" width="0.12" height="10.91"/><rect class="cls-1" x="200.64999" y="21.11" width="0.12" height="10.91"/><rect class="cls-1" x="200.77" y="21.11" width="0.12" height="10.91"/><rect class="cls-1" x="200.89" y="21.11" width="0.12" height="10.91"/><rect class="cls-1" x="201" y="21.11" width="0.12" height="10.91"/><rect class="cls-1" x="201.12" y="21.11" width="0.12" height="10.91"/><rect class="cls-1" x="201.24001" y="21.11" width="0.12" height="10.91"/><rect class="cls-1" x="201.35001" y="21.11" width="0.12" height="10.91"/><rect class="cls-1" x="201.47" y="21.11" width="0.12" height="10.91"/><rect class="cls-1" x="201.58" y="21.11" width="0.12" height="10.91"/><rect class="cls-1" x="201.7" y="21.11" width="0.12" height="10.91"/><rect class="cls-1" x="201.82001" y="21.11" width="0.12" height="10.91"/><rect class="cls-1" x="201.92999" y="21.11" width="0.12" height="10.91"/><rect class="cls-1" x="202.05" y="21.11" width="0.12" height="10.91"/><rect class="cls-1" x="202.17" y="21.11" width="0.12" height="10.91"/><rect class="cls-1" x="202.28" y="21.11" width="0.12" height="10.91"/><rect class="cls-1" x="202.39999" y="21.11" width="0.12" height="10.91"/><rect class="cls-1" x="202.52" y="21.11" width="0.12" height="10.91"/><rect class="cls-1" x="202.63" y="21.11" width="0.12" height="10.91"/><rect class="cls-1" x="202.75" y="21.11" width="0.12" height="10.91"/><rect class="cls-1" x="202.87" y="21.11" width="0.12" height="10.91"/><rect class="cls-1" x="202.98" y="21.11" width="0.12" height="10.91"/><rect class="cls-1" x="203.10001" y="21.11" width="0.12" height="10.91"/><rect class="cls-1" x="203.22" y="21.11" width="0.12" height="10.91"/><rect class="cls-1" x="203.33" y="21.11" width="0.12" height="10.91"/><rect class="cls-1" x="203.45" y="21.11" width="0.12" height="10.91"/><rect class="cls-1" x="203.57001" y="21.11" width="0.12" height="10.91"/><rect class="cls-1" x="203.67999" y="21.11" width="0.12" height="10.91"/><rect class="cls-1" x="203.8" y="21.11" width="0.12" height="10.91"/><rect class="cls-1" x="203.92" y="21.11" width="0.12" height="10.91"/><rect class="cls-1" x="204.03" y="21.11" width="0.12" height="10.91"/><rect class="cls-1" x="204.14999" y="21.11" width="0.12" height="10.91"/><rect class="cls-1" x="204.27" y="21.11" width="0.12" height="10.91"/><rect class="cls-1" x="204.38" y="21.11" width="0.12" height="10.91"/><rect class="cls-1" x="204.5" y="21.11" width="0.12" height="10.91"/><rect class="cls-1" x="204.61" y="21.11" width="0.12" height="10.91"/><rect class="cls-1" x="204.73" y="21.11" width="0.12" height="10.91"/><rect class="cls-1" x="204.85001" y="21.11" width="0.12" height="10.91"/><rect class="cls-1" x="204.96001" y="21.11" width="0.12" height="10.91"/><rect class="cls-1" x="205.08" y="21.11" width="0.12" height="10.91"/><rect class="cls-1" x="205.2" y="21.11" width="0.12" height="10.91"/><rect class="cls-1" x="205.31" y="21.11" width="0.12" height="10.91"/><rect class="cls-1" x="205.42999" y="21.11" width="0.12" height="10.91"/><rect class="cls-1" x="205.55" y="21.11" width="0.12" height="10.91"/><rect class="cls-1" x="205.66" y="21.11" width="0.12" height="10.91"/><rect class="cls-1" x="205.78" y="21.11" width="0.12" height="10.91"/><rect class="cls-1" x="205.89999" y="21.11" width="0.12" height="10.91"/><rect class="cls-1" x="206.00999" y="21.11" width="0.12" height="10.91"/><rect class="cls-1" x="206.13" y="21.11" width="0.12" height="10.91"/><rect class="cls-1" x="206.25" y="21.11" width="0.12" height="10.91"/><rect class="cls-1" x="206.36" y="21.11" width="0.12" height="10.91"/><rect class="cls-1" x="206.48" y="21.11" width="0.12" height="10.91"/><rect class="cls-1" x="206.60001" y="21.11" width="0.12" height="10.91"/><rect class="cls-1" x="206.71001" y="21.11" width="0.12" height="10.91"/><rect class="cls-1" x="206.83" y="21.11" width="0.12" height="10.91"/><rect class="cls-1" x="206.95" y="21.11" width="0.12" height="10.91"/><rect class="cls-1" x="207.06" y="21.11" width="0.12" height="10.91"/><rect class="cls-1" x="207.17999" y="21.11" width="0.12" height="10.91"/><rect class="cls-1" x="207.3" y="21.11" width="0.12" height="10.91"/><rect class="cls-1" x="207.41" y="21.11" width="0.12" height="10.91"/><rect class="cls-1" x="207.53" y="21.11" width="0.03" height="10.91"/><rect class="cls-1" x="187.62" y="9.58" width="0.10001" height="10.91"/><rect class="cls-1" x="187.72" y="9.58" width="0.12" height="10.91"/><rect class="cls-1" x="187.83" y="9.58" width="0.12" height="10.91"/><rect class="cls-1" x="187.95" y="9.58" width="0.12" height="10.91"/><rect class="cls-1" x="188.07001" y="9.58" width="0.12" height="10.91"/><rect class="cls-1" x="188.17999" y="9.58" width="0.12" height="10.91"/><rect class="cls-1" x="188.3" y="9.58" width="0.12" height="10.91"/><rect class="cls-1" x="188.42" y="9.58" width="0.12" height="10.91"/><rect class="cls-1" x="188.53" y="9.58" width="0.12" height="10.91"/><rect class="cls-1" x="188.64999" y="9.58" width="0.12" height="10.91"/><rect class="cls-1" x="188.77" y="9.58" width="0.12" height="10.91"/><rect class="cls-1" x="188.88" y="9.58" width="0.12" height="10.91"/><rect class="cls-1" x="189" y="9.58" width="0.12" height="10.91"/><rect class="cls-1" x="189.11" y="9.58" width="0.12" height="10.91"/><rect class="cls-1" x="189.23" y="9.58" width="0.12" height="10.91"/><rect class="cls-1" x="189.35001" y="9.58" width="0.12" height="10.91"/><rect class="cls-1" x="189.46001" y="9.58" width="0.12" height="10.91"/><rect class="cls-1" x="189.58" y="9.58" width="0.12" height="10.91"/><rect class="cls-1" x="189.7" y="9.58" width="0.12" height="10.91"/><rect class="cls-1" x="189.81" y="9.58" width="0.12" height="10.91"/><rect class="cls-1" x="189.92999" y="9.58" width="0.12" height="10.91"/><rect class="cls-1" x="190.05" y="9.58" width="0.12" height="10.91"/><rect class="cls-1" x="190.16" y="9.58" width="0.12" height="10.91"/><rect class="cls-1" x="190.28" y="9.58" width="0.12" height="10.91"/><rect class="cls-1" x="190.39999" y="9.58" width="0.12" height="10.91"/><rect class="cls-1" x="190.50999" y="9.58" width="0.12" height="10.91"/><rect class="cls-1" x="190.63" y="9.58" width="0.12" height="10.91"/><rect class="cls-1" x="190.75" y="9.58" width="0.12" height="10.91"/><rect class="cls-1" x="190.86" y="9.58" width="0.12" height="10.91"/><rect class="cls-1" x="190.98" y="9.58" width="0.12" height="10.91"/><rect class="cls-1" x="191.10001" y="9.58" width="0.12" height="10.91"/><rect class="cls-1" x="191.21001" y="9.58" width="0.12" height="10.91"/><rect class="cls-1" x="191.33" y="9.58" width="0.12" height="10.91"/><rect class="cls-1" x="191.45" y="9.58" width="0.12" height="10.91"/><rect class="cls-1" x="191.56" y="9.58" width="0.12" height="10.91"/><rect class="cls-1" x="191.67999" y="9.58" width="0.12" height="10.91"/><rect class="cls-1" x="191.8" y="9.58" width="0.12" height="10.91"/><rect class="cls-1" x="191.91" y="9.58" width="0.12" height="10.91"/><rect class="cls-1" x="192.03" y="9.58" width="0.12" height="10.91"/><rect class="cls-1" x="192.14" y="9.58" width="0.12" height="10.91"/><rect class="cls-1" x="192.25999" y="9.58" width="0.12" height="10.91"/><rect class="cls-1" x="192.38" y="9.58" width="0.12" height="10.91"/><rect class="cls-1" x="192.49001" y="9.58" width="0.12" height="10.91"/><rect class="cls-1" x="192.61" y="9.58" width="0.12" height="10.91"/><rect class="cls-1" x="192.73" y="9.58" width="0.12" height="10.91"/><rect class="cls-1" x="192.84" y="9.58" width="0.12" height="10.91"/><rect class="cls-1" x="192.96001" y="9.58" width="0.12" height="10.91"/><rect class="cls-1" x="193.08" y="9.58" width="0.12" height="10.91"/><rect class="cls-1" x="193.19" y="9.58" width="0.12" height="10.91"/><rect class="cls-1" x="193.31" y="9.58" width="0.12" height="10.91"/><rect class="cls-1" x="193.42999" y="9.58" width="0.12" height="10.91"/><rect class="cls-1" x="193.53999" y="9.58" width="0.12" height="10.91"/><rect class="cls-1" x="193.66" y="9.58" width="0.12" height="10.91"/><rect class="cls-1" x="193.78" y="9.58" width="0.12" height="10.91"/><rect class="cls-1" x="193.89" y="9.58" width="0.12" height="10.91"/><rect class="cls-1" x="194.00999" y="9.58" width="0.12" height="10.91"/><rect class="cls-1" x="194.13" y="9.58" width="0.12" height="10.91"/><rect class="cls-1" x="194.24001" y="9.58" width="0.12" height="10.91"/><rect class="cls-1" x="194.36" y="9.58" width="0.12" height="10.91"/><rect class="cls-1" x="194.48" y="9.58" width="0.12" height="10.91"/><rect class="cls-1" x="194.59" y="9.58" width="0.12" height="10.91"/><rect class="cls-1" x="194.71001" y="9.58" width="0.12" height="10.91"/><rect class="cls-1" x="194.83" y="9.58" width="0.12" height="10.91"/><rect class="cls-1" x="194.94" y="9.58" width="0.12" height="10.91"/><rect class="cls-1" x="195.06" y="9.58" width="0.12" height="10.91"/><rect class="cls-1" x="195.17" y="9.58" width="0.12" height="10.91"/><rect class="cls-1" x="195.28999" y="9.58" width="0.12" height="10.91"/><rect class="cls-1" x="195.41" y="9.58" width="0.12" height="10.91"/><rect class="cls-1" x="195.52" y="9.58" width="0.12" height="10.91"/><rect class="cls-1" x="195.64" y="9.58" width="0.12" height="10.91"/><rect class="cls-1" x="195.75999" y="9.58" width="0.12" height="10.91"/><rect class="cls-1" x="195.87" y="9.58" width="0.12" height="10.91"/><rect class="cls-1" x="195.99001" y="9.58" width="0.12" height="10.91"/><rect class="cls-1" x="196.11" y="9.58" width="0.12" height="10.91"/><rect class="cls-1" x="196.22" y="9.58" width="0.12" height="10.91"/><rect class="cls-1" x="196.34" y="9.58" width="0.12" height="10.91"/><rect class="cls-1" x="196.46001" y="9.58" width="0.12" height="10.91"/><rect class="cls-1" x="196.57001" y="9.58" width="0.12" height="10.91"/><rect class="cls-1" x="196.69" y="9.58" width="0.12" height="10.91"/><rect class="cls-1" x="196.81" y="9.58" width="0.12" height="10.91"/><rect class="cls-1" x="196.92" y="9.58" width="0.12" height="10.91"/><rect class="cls-1" x="197.03999" y="9.58" width="0.12" height="10.91"/><rect class="cls-1" x="197.16" y="9.58" width="0.12" height="10.91"/><rect class="cls-1" x="197.27" y="9.58" width="0.12" height="10.91"/><rect class="cls-1" x="197.39" y="9.58" width="0.12" height="10.91"/><rect class="cls-1" x="197.50999" y="9.58" width="0.12" height="10.91"/><rect class="cls-1" x="197.62" y="9.58" width="0.12" height="10.91"/><rect class="cls-1" x="197.74001" y="9.58" width="0.12" height="10.91"/><rect class="cls-1" x="197.86" y="9.58" width="0.12" height="10.91"/><rect class="cls-1" x="197.97" y="9.58" width="0.12" height="10.91"/><rect class="cls-1" x="198.09" y="9.58" width="0.12" height="10.91"/><rect class="cls-1" x="198.2" y="9.58" width="0.12" height="10.91"/><rect class="cls-1" x="198.32001" y="9.58" width="0.12" height="10.91"/><rect class="cls-1" x="198.44" y="9.58" width="0.12" height="10.91"/><rect class="cls-1" x="198.55" y="9.58" width="0.12" height="10.91"/><rect class="cls-1" x="198.67" y="9.58" width="0.12" height="10.91"/><rect class="cls-1" x="198.78999" y="9.58" width="0.12" height="10.91"/><rect class="cls-1" x="198.89999" y="9.58" width="0.10001" height="10.91"/><rect class="cls-1" x="176.64" y="4.88" width="0.12" height="35.66"/><rect class="cls-1" x="176.75999" y="4.88" width="0.12" height="35.66"/><rect class="cls-1" x="176.88" y="4.88" width="0.12" height="35.66"/><rect class="cls-1" x="176.99001" y="4.88" width="0.12" height="35.66"/><rect class="cls-1" x="177.11" y="4.88" width="0.12" height="35.66"/><rect class="cls-1" x="177.23" y="4.88" width="0.12" height="35.66"/><rect class="cls-1" x="177.34" y="4.88" width="0.12" height="35.66"/><rect class="cls-1" x="177.46001" y="4.88" width="0.12" height="35.66"/><rect class="cls-1" x="177.58" y="4.88" width="0.12" height="35.66"/><rect class="cls-1" x="177.69" y="4.88" width="0.12" height="35.66"/><rect class="cls-1" x="177.81" y="4.88" width="0.12" height="35.66"/><rect class="cls-1" x="177.92999" y="4.88" width="0.12" height="35.66"/><rect class="cls-1" x="178.03999" y="4.88" width="0.12" height="35.66"/><rect class="cls-1" x="178.16" y="4.88" width="0.12" height="35.66"/><rect class="cls-1" x="178.28" y="4.88" width="0.12" height="35.66"/><rect class="cls-1" x="178.39" y="4.88" width="0.12" height="35.66"/><rect class="cls-1" x="178.50999" y="4.88" width="0.12" height="35.66"/><rect class="cls-1" x="178.63" y="4.88" width="0.12" height="35.66"/><rect class="cls-1" x="178.74001" y="4.88" width="0.12" height="35.66"/><rect class="cls-1" x="178.86" y="4.88" width="0.12" height="35.66"/><rect class="cls-1" x="178.98" y="4.88" width="0.12" height="35.66"/><rect class="cls-1" x="179.09" y="4.88" width="0.12" height="35.66"/><rect class="cls-1" x="179.21001" y="4.88" width="0.12" height="35.66"/><rect class="cls-1" x="179.33" y="4.88" width="0.12" height="35.66"/><rect class="cls-1" x="179.44" y="4.88" width="0.12" height="35.66"/><rect class="cls-1" x="179.56" y="4.88" width="0.12" height="35.66"/><rect class="cls-1" x="179.67" y="4.88" width="0.12" height="35.66"/><rect class="cls-1" x="179.78999" y="4.88" width="0.12" height="35.66"/><rect class="cls-1" x="179.91" y="4.88" width="0.12" height="35.66"/><rect class="cls-1" x="180.02" y="4.88" width="0.12" height="35.66"/><rect class="cls-1" x="180.14" y="4.88" width="0.12" height="35.66"/><rect class="cls-1" x="180.25999" y="4.88" width="0.12" height="35.66"/><rect class="cls-1" x="180.37" y="4.88" width="0.12" height="35.66"/><rect class="cls-1" x="180.49001" y="4.88" width="0.12" height="35.66"/><rect class="cls-1" x="180.61" y="4.88" width="0.12" height="35.66"/><rect class="cls-1" x="180.72" y="4.88" width="0.12" height="35.66"/><rect class="cls-1" x="180.84" y="4.88" width="0.12" height="35.66"/><rect class="cls-1" x="180.96001" y="4.88" width="0.12" height="35.66"/><rect class="cls-1" x="181.07001" y="4.88" width="0.12" height="35.66"/><rect class="cls-1" x="181.19" y="4.88" width="0.12" height="35.66"/><rect class="cls-1" x="181.31" y="4.88" width="0.12" height="35.66"/><rect class="cls-1" x="181.42" y="4.88" width="0.12" height="35.66"/><rect class="cls-1" x="181.53999" y="4.88" width="0.12" height="35.66"/><rect class="cls-1" x="181.66" y="4.88" width="0.12" height="35.66"/><rect class="cls-1" x="181.77" y="4.88" width="0.12" height="35.66"/><rect class="cls-1" x="181.89" y="4.88" width="0.12" height="35.66"/><rect class="cls-1" x="182.00999" y="4.88" width="0.12" height="35.66"/><rect class="cls-1" x="182.12" y="4.88" width="0.12" height="35.66"/><rect class="cls-1" x="182.24001" y="4.88" width="0.12" height="35.66"/><rect class="cls-1" x="182.36" y="4.88" width="0.12" height="35.66"/><rect class="cls-1" x="182.47" y="4.88" width="0.12" height="35.66"/><rect class="cls-1" x="182.59" y="4.88" width="0.12" height="35.66"/><rect class="cls-1" x="182.7" y="4.88" width="0.12" height="35.66"/><rect class="cls-1" x="182.82001" y="4.88" width="0.12" height="35.66"/><rect class="cls-1" x="182.94" y="4.88" width="0.12" height="35.66"/><rect class="cls-1" x="183.05" y="4.88" width="0.12" height="35.66"/><rect class="cls-1" x="183.17" y="4.88" width="0.12" height="35.66"/><rect class="cls-1" x="183.28999" y="4.88" width="0.12" height="35.66"/><rect class="cls-1" x="183.39999" y="4.88" width="0.12" height="35.66"/><rect class="cls-1" x="183.52" y="4.88" width="0.12" height="35.66"/><rect class="cls-1" x="183.64" y="4.88" width="0.12" height="35.66"/><rect class="cls-1" x="183.75" y="4.88" width="0.12" height="35.66"/><rect class="cls-1" x="183.87" y="4.88" width="0.12" height="35.66"/><rect class="cls-1" x="183.99001" y="4.88" width="0.12" height="35.66"/><rect class="cls-1" x="184.10001" y="4.88" width="0.12" height="35.66"/><rect class="cls-1" x="184.22" y="4.88" width="0.12" height="35.66"/><rect class="cls-1" x="184.34" y="4.88" width="0.12" height="35.66"/><rect class="cls-1" x="184.45" y="4.88" width="0.12" height="35.66"/><rect class="cls-1" x="184.57001" y="4.88" width="0.12" height="35.66"/><rect class="cls-1" x="184.69" y="4.88" width="0.12" height="35.66"/><rect class="cls-1" x="184.8" y="4.88" width="0.12" height="35.66"/><rect class="cls-1" x="184.92" y="4.88" width="0.12" height="35.66"/><rect class="cls-1" x="185.03999" y="4.88" width="0.12" height="35.66"/><rect class="cls-1" x="185.14999" y="4.88" width="0.12" height="35.66"/><rect class="cls-1" x="185.27" y="4.88" width="0.12" height="35.66"/><rect class="cls-1" x="185.39" y="4.88" width="0.12" height="35.66"/><rect class="cls-1" x="185.5" y="4.88" width="0.12" height="35.66"/><rect class="cls-1" x="185.62" y="4.88" width="0.12" height="35.66"/><rect class="cls-1" x="185.73" y="4.88" width="0.12" height="35.66"/><rect class="cls-1" x="185.85001" y="4.88" width="0.12" height="35.66"/><rect class="cls-1" x="185.97" y="4.88" width="0.12" height="35.66"/><rect class="cls-1" x="186.08" y="4.88" width="0.12" height="35.66"/><rect class="cls-1" x="186.2" y="4.88" width="0.12" height="35.66"/><rect class="cls-1" x="186.32001" y="4.88" width="0.12" height="35.66"/><rect class="cls-1" x="186.42999" y="4.88" width="0.12" height="35.66"/><rect class="cls-1" x="186.55" y="4.88" width="0.12" height="35.66"/><rect class="cls-1" x="186.67" y="4.88" width="0.12" height="35.66"/><rect class="cls-1" x="186.78" y="4.88" width="0.12" height="35.66"/><rect class="cls-1" x="186.89999" y="4.88" width="0.12" height="35.66"/><rect class="cls-1" x="187.02" y="4.88" width="0.12" height="35.66"/><rect class="cls-1" x="187.13" y="4.88" width="0.12" height="35.66"/><rect class="cls-1" x="187.25" y="4.88" width="0.12" height="35.66"/><rect class="cls-1" x="187.37" y="4.88" width="0.12" height="35.66"/><rect class="cls-1" x="187.48" y="4.88" width="0.12" height="35.66"/><rect class="cls-1" x="187.60001" y="4.88" width="0.12" height="35.66"/><rect class="cls-1" x="187.72" y="4.88" width="0.12" height="35.66"/><rect class="cls-1" x="187.83" y="4.88" width="0.12" height="35.66"/><rect class="cls-1" x="187.95" y="4.88" width="0.12" height="35.66"/><rect class="cls-1" x="188.07001" y="4.88" width="0.12" height="35.66"/><rect class="cls-1" x="188.17999" y="4.88" width="0.12" height="35.66"/><rect class="cls-1" x="188.3" y="4.88" width="0.12" height="35.66"/><rect class="cls-1" x="188.42" y="4.88" width="0.12" height="35.66"/><rect class="cls-1" x="188.53" y="4.88" width="0.12" height="35.66"/><rect class="cls-1" x="188.64999" y="4.88" width="0.12" height="35.66"/><rect class="cls-1" x="188.77" y="4.88" width="0.12" height="35.66"/><rect class="cls-1" x="188.88" y="4.88" width="0.12" height="35.66"/><rect class="cls-1" x="189" y="4.88" width="0.12" height="35.66"/><rect class="cls-1" x="189.11" y="4.88" width="0.12" height="35.66"/><rect class="cls-1" x="189.23" y="4.88" width="0.12" height="35.66"/><rect class="cls-1" x="189.35001" y="4.88" width="0.12" height="35.66"/><rect class="cls-1" x="189.46001" y="4.88" width="0.12" height="35.66"/><rect class="cls-1" x="189.58" y="4.88" width="0.12" height="35.66"/><rect class="cls-1" x="189.7" y="4.88" width="0.12" height="35.66"/><rect class="cls-1" x="189.81" y="4.88" width="0.12" height="35.66"/><rect class="cls-1" x="189.92999" y="4.88" width="0.12" height="35.66"/><rect class="cls-1" x="190.05" y="4.88" width="0.12" height="35.66"/><rect class="cls-1" x="190.16" y="4.88" width="0.12" height="35.66"/><rect class="cls-1" x="190.28" y="4.88" width="0.12" height="35.66"/><rect class="cls-1" x="190.39999" y="4.88" width="0.12" height="35.66"/><rect class="cls-1" x="190.50999" y="4.88" width="0.12" height="35.66"/><rect class="cls-1" x="190.63" y="4.88" width="0.12" height="35.66"/><rect class="cls-1" x="190.75" y="4.88" width="0.12" height="35.66"/><rect class="cls-1" x="190.86" y="4.88" width="0.12" height="35.66"/><rect class="cls-1" x="190.98" y="4.88" width="0.12" height="35.66"/><rect class="cls-1" x="191.10001" y="4.88" width="0.12" height="35.66"/><rect class="cls-1" x="191.21001" y="4.88" width="0.12" height="35.66"/><rect class="cls-1" x="191.33" y="4.88" width="0.12" height="35.66"/><rect class="cls-1" x="191.45" y="4.88" width="0.12" height="35.66"/><rect class="cls-1" x="191.56" y="4.88" width="0.12" height="35.66"/><rect class="cls-1" x="191.67999" y="4.88" width="0.12" height="35.66"/><rect class="cls-1" x="191.8" y="4.88" width="0.12" height="35.66"/><rect class="cls-1" x="191.91" y="4.88" width="0.12" height="35.66"/><rect class="cls-1" x="192.03" y="4.88" width="0.12" height="35.66"/><rect class="cls-1" x="192.14" y="4.88" width="0.12" height="35.66"/><rect class="cls-1" x="192.25999" y="4.88" width="0.12" height="35.66"/><rect class="cls-1" x="192.38" y="4.88" width="0.12" height="35.66"/><rect class="cls-1" x="192.49001" y="4.88" width="0.12" height="35.66"/><rect class="cls-1" x="192.61" y="4.88" width="0.12" height="35.66"/><rect class="cls-1" x="192.73" y="4.88" width="0.12" height="35.66"/><rect class="cls-1" x="192.84" y="4.88" width="0.12" height="35.66"/><rect class="cls-1" x="192.96001" y="4.88" width="0.12" height="35.66"/><rect class="cls-1" x="193.08" y="4.88" width="0.12" height="35.66"/><rect class="cls-1" x="193.19" y="4.88" width="0.12" height="35.66"/><rect class="cls-1" x="193.31" y="4.88" width="0.12" height="35.66"/><rect class="cls-1" x="193.42999" y="4.88" width="0.12" height="35.66"/><rect class="cls-1" x="193.53999" y="4.88" width="0.12" height="35.66"/><rect class="cls-1" x="193.66" y="4.88" width="0.12" height="35.66"/><rect class="cls-1" x="193.78" y="4.88" width="0.12" height="35.66"/><rect class="cls-1" x="193.89" y="4.88" width="0.12" height="35.66"/><rect class="cls-1" x="194.00999" y="4.88" width="0.12" height="35.66"/><rect class="cls-1" x="194.13" y="4.88" width="0.12" height="35.66"/><rect class="cls-1" x="194.24001" y="4.88" width="0.12" height="35.66"/><rect class="cls-1" x="194.36" y="4.88" width="0.12" height="35.66"/><rect class="cls-1" x="194.48" y="4.88" width="0.12" height="35.66"/><rect class="cls-1" x="194.59" y="4.88" width="0.12" height="35.66"/><rect class="cls-1" x="194.71001" y="4.88" width="0.12" height="35.66"/><rect class="cls-1" x="194.83" y="4.88" width="0.12" height="35.66"/><rect class="cls-1" x="194.94" y="4.88" width="0.12" height="35.66"/><rect class="cls-1" x="195.06" y="4.88" width="0.12" height="35.66"/><rect class="cls-1" x="195.17" y="4.88" width="0.12" height="35.66"/><rect class="cls-1" x="195.28999" y="4.88" width="0.12" height="35.66"/><rect class="cls-1" x="195.41" y="4.88" width="0.12" height="35.66"/><rect class="cls-1" x="195.52" y="4.88" width="0.12" height="35.66"/><rect class="cls-1" x="195.64" y="4.88" width="0.12" height="35.66"/><rect class="cls-1" x="195.75999" y="4.88" width="0.12" height="35.66"/><rect class="cls-1" x="195.87" y="4.88" width="0.12" height="35.66"/><rect class="cls-1" x="195.99001" y="4.88" width="0.12" height="35.66"/><rect class="cls-1" x="196.11" y="4.88" width="0.12" height="35.66"/><rect class="cls-1" x="196.22" y="4.88" width="0.12" height="35.66"/><rect class="cls-1" x="196.34" y="4.88" width="0.12" height="35.66"/><rect class="cls-1" x="196.46001" y="4.88" width="0.12" height="35.66"/><rect class="cls-1" x="196.57001" y="4.88" width="0.12" height="35.66"/><rect class="cls-1" x="196.69" y="4.88" width="0.12" height="35.66"/><rect class="cls-1" x="196.81" y="4.88" width="0.12" height="35.66"/><rect class="cls-1" x="196.92" y="4.88" width="0.12" height="35.66"/><rect class="cls-1" x="197.03999" y="4.88" width="0.12" height="35.66"/><rect class="cls-1" x="197.16" y="4.88" width="0.12" height="35.66"/><rect class="cls-1" x="197.27" y="4.88" width="0.12" height="35.66"/><rect class="cls-1" x="197.39" y="4.88" width="0.12" height="35.66"/><rect class="cls-1" x="197.50999" y="4.88" width="0.12" height="35.66"/><rect class="cls-1" x="197.62" y="4.88" width="0.12" height="35.66"/><rect class="cls-1" x="197.74001" y="4.88" width="0.12" height="35.66"/><rect class="cls-1" x="197.86" y="4.88" width="0.12" height="35.66"/><rect class="cls-1" x="197.97" y="4.88" width="0.12" height="35.66"/><rect class="cls-1" x="198.09" y="4.88" width="0.12" height="35.66"/><rect class="cls-1" x="198.2" y="4.88" width="0.12" height="35.66"/><rect class="cls-1" x="198.32001" y="4.88" width="0.12" height="35.66"/><rect class="cls-1" x="198.44" y="4.88" width="0.12" height="35.66"/><rect class="cls-1" x="198.55" y="4.88" width="0.12" height="35.66"/><rect class="cls-1" x="198.67" y="4.88" width="0.12" height="35.66"/><rect class="cls-1" x="198.78999" y="4.88" width="0.12" height="35.66"/><rect class="cls-1" x="198.89999" y="4.88" width="0.12" height="35.66"/><rect class="cls-1" x="199.02" y="4.88" width="0.12" height="35.66"/><rect class="cls-1" x="199.14" y="4.88" width="0.12" height="35.66"/><rect class="cls-1" x="199.25" y="4.88" width="0.12" height="35.66"/><rect class="cls-1" x="199.37" y="4.88" width="0.12" height="35.66"/><rect class="cls-1" x="199.49001" y="4.88" width="0.12" height="35.66"/><rect class="cls-1" x="199.60001" y="4.88" width="0.12" height="35.66"/><rect class="cls-1" x="199.72" y="4.88" width="0.12" height="35.66"/><rect class="cls-1" x="199.84" y="4.88" width="0.12" height="35.66"/><rect class="cls-1" x="199.95" y="4.88" width="0.12" height="35.66"/><rect class="cls-1" x="200.07001" y="4.88" width="0.12" height="35.66"/><rect class="cls-1" x="200.19" y="4.88" width="0.12" height="35.66"/><rect class="cls-1" x="200.3" y="4.88" width="0.12" height="35.66"/><rect class="cls-1" x="200.42" y="4.88" width="0.12" height="35.66"/><rect class="cls-1" x="200.53999" y="4.88" width="0.12" height="35.66"/><rect class="cls-1" x="200.64999" y="4.88" width="0.12" height="35.66"/><rect class="cls-1" x="200.77" y="4.88" width="0.12" height="35.66"/><rect class="cls-1" x="200.89" y="4.88" width="0.12" height="35.66"/><rect class="cls-1" x="201" y="4.88" width="0.12" height="35.66"/><rect class="cls-1" x="201.12" y="4.88" width="0.12" height="35.66"/><rect class="cls-1" x="201.24001" y="4.88" width="0.12" height="35.66"/><rect class="cls-1" x="201.35001" y="4.88" width="0.12" height="35.66"/><rect class="cls-1" x="201.47" y="4.88" width="0.12" height="35.66"/><rect class="cls-1" x="201.58" y="4.88" width="0.12" height="35.66"/><rect class="cls-1" x="201.7" y="4.88" width="0.12" height="35.66"/><rect class="cls-1" x="201.82001" y="4.88" width="0.12" height="35.66"/><rect class="cls-1" x="201.92999" y="4.88" width="0.12" height="35.66"/><rect class="cls-1" x="202.05" y="4.88" width="0.12" height="35.66"/><rect class="cls-1" x="202.17" y="4.88" width="0.12" height="35.66"/><rect class="cls-1" x="202.28" y="4.88" width="0.12" height="35.66"/><rect class="cls-1" x="202.39999" y="4.88" width="0.12" height="35.66"/><rect class="cls-1" x="202.52" y="4.88" width="0.12" height="35.66"/><rect class="cls-1" x="202.63" y="4.88" width="0.12" height="35.66"/><rect class="cls-1" x="202.75" y="4.88" width="0.12" height="35.66"/><rect class="cls-1" x="202.87" y="4.88" width="0.12" height="35.66"/><rect class="cls-1" x="202.98" y="4.88" width="0.12" height="35.66"/><rect class="cls-1" x="203.10001" y="4.88" width="0.12" height="35.66"/><rect class="cls-1" x="203.22" y="4.88" width="0.12" height="35.66"/><rect class="cls-1" x="203.33" y="4.88" width="0.12" height="35.66"/><rect class="cls-1" x="203.45" y="4.88" width="0.12" height="35.66"/><rect class="cls-1" x="203.57001" y="4.88" width="0.12" height="35.66"/><rect class="cls-1" x="203.67999" y="4.88" width="0.12" height="35.66"/><rect class="cls-1" x="203.8" y="4.88" width="0.12" height="35.66"/><rect class="cls-1" x="203.92" y="4.88" width="0.12" height="35.66"/><rect class="cls-1" x="204.03" y="4.88" width="0.12" height="35.66"/><rect class="cls-1" x="204.14999" y="4.88" width="0.12" height="35.66"/><rect class="cls-1" x="204.27" y="4.88" width="0.12" height="35.66"/><rect class="cls-1" x="204.38" y="4.88" width="0.12" height="35.66"/><rect class="cls-1" x="204.5" y="4.88" width="0.12" height="35.66"/><rect class="cls-1" x="204.61" y="4.88" width="0.12" height="35.66"/><rect class="cls-1" x="204.73" y="4.88" width="0.12" height="35.66"/><rect class="cls-1" x="204.85001" y="4.88" width="0.12" height="35.66"/><rect class="cls-1" x="204.96001" y="4.88" width="0.12" height="35.66"/><rect class="cls-1" x="205.08" y="4.88" width="0.12" height="35.66"/><rect class="cls-1" x="205.2" y="4.88" width="0.12" height="35.66"/><rect class="cls-1" x="205.31" y="4.88" width="0.12" height="35.66"/><rect class="cls-1" x="205.42999" y="4.88" width="0.12" height="35.66"/><rect class="cls-1" x="205.55" y="4.88" width="0.12" height="35.66"/><rect class="cls-1" x="205.66" y="4.88" width="0.12" height="35.66"/><rect class="cls-1" x="205.78" y="4.88" width="0.12" height="35.66"/><rect class="cls-1" x="205.89999" y="4.88" width="0.12" height="35.66"/><rect class="cls-1" x="206.00999" y="4.88" width="0.12" height="35.66"/><rect class="cls-1" x="206.13" y="4.88" width="0.12" height="35.66"/><rect class="cls-1" x="206.25" y="4.88" width="0.12" height="35.66"/><rect class="cls-1" x="206.36" y="4.88" width="0.12" height="35.66"/><rect class="cls-1" x="206.48" y="4.88" width="0.12" height="35.66"/><rect class="cls-1" x="206.60001" y="4.88" width="0.12" height="35.66"/><rect class="cls-1" x="206.71001" y="4.88" width="0.12" height="35.66"/><rect class="cls-1" x="206.83" y="4.88" width="0.12" height="35.66"/><rect class="cls-1" x="206.95" y="4.88" width="0.12" height="35.66"/><rect class="cls-1" x="207.06" y="4.88" width="0.12" height="35.66"/><rect class="cls-1" x="207.17999" y="4.88" width="0.12" height="35.66"/><rect class="cls-1" x="207.3" y="4.88" width="0.12" height="35.66"/><rect class="cls-1" x="207.41" y="4.88" width="0.12" height="35.66"/><rect class="cls-1" x="207.53" y="4.88" width="0.12" height="35.66"/><rect class="cls-1" x="207.64" y="4.88" width="0.12" height="35.66"/><rect class="cls-1" x="207.75999" y="4.88" width="0.12" height="35.66"/><rect class="cls-1" x="207.88" y="4.88" width="0.12" height="35.66"/><rect class="cls-1" x="207.99001" y="4.88" width="0.12" height="35.66"/><rect class="cls-1" x="208.11" y="4.88" width="0.12" height="35.66"/><rect class="cls-1" x="208.23" y="4.88" width="0.12" height="35.66"/><rect class="cls-1" x="208.34" y="4.88" width="0.12" height="35.66"/><rect class="cls-1" x="208.46001" y="4.88" width="0.12" height="35.66"/><rect class="cls-1" x="208.58" y="4.88" width="0.12" height="35.66"/><rect class="cls-1" x="208.69" y="4.88" width="0.12" height="35.66"/><rect class="cls-1" x="208.81" y="4.88" width="0.12" height="35.66"/><rect class="cls-1" x="208.92999" y="4.88" width="0.12" height="35.66"/><rect class="cls-1" x="209.03999" y="4.88" width="0.12" height="35.66"/><rect class="cls-1" x="209.16" y="4.88" width="0.12" height="35.66"/><rect class="cls-1" x="209.28" y="4.88" width="0.12" height="35.66"/><rect class="cls-1" x="209.39" y="4.88" width="0.12" height="35.66"/><rect class="cls-1" x="209.50999" y="4.88" width="0.12" height="35.66"/><rect class="cls-1" x="209.63" y="4.88" width="0.12" height="35.66"/><rect class="cls-1" x="209.74001" y="4.88" width="0.12" height="35.66"/><rect class="cls-1" x="209.86" y="4.88" width="0.12" height="35.66"/><rect class="cls-1" x="209.98" y="4.88" width="0.12" height="35.66"/><rect class="cls-1" x="210.09" y="4.88" width="0.12" height="35.66"/><rect class="cls-1" x="210.21001" y="4.88" width="0.12" height="35.66"/><rect class="cls-1" x="210.33" y="4.88" width="0.12" height="35.66"/><rect class="cls-1" x="210.44" y="4.88" width="0.12" height="35.66"/><rect class="cls-1" x="210.56" y="4.88" width="0.12" height="35.66"/><rect class="cls-1" x="210.67" y="4.88" width="0.12" height="35.66"/><rect class="cls-1" x="210.78999" y="4.88" width="0.12" height="35.66"/><rect class="cls-1" x="210.91" y="4.88" width="0.12" height="35.66"/><rect class="cls-1" x="211.02" y="4.88" width="0.12" height="35.66"/><rect class="cls-1" x="211.14" y="4.88" width="0.12" height="35.66"/><rect class="cls-1" x="211.25999" y="4.88" width="0.12" height="35.66"/><rect class="cls-1" x="211.37" y="4.88" width="0.12" height="35.66"/><rect class="cls-1" x="211.49001" y="4.88" width="0.12" height="35.66"/><rect class="cls-1" x="211.61" y="4.88" width="0.12" height="35.66"/><rect class="cls-1" x="211.72" y="4.88" width="0.12" height="35.66"/></g></svg>