<svg id="Calque_1" data-name="Calque 1" xmlns="http://www.w3.org/2000/svg" xmlns:xlink="http://www.w3.org/1999/xlink" viewBox="0 0 51.45835 51.45835"><defs><style>.cls-1{fill:#fff;}.cls-2{clip-path:url(#clip-path);}.cls-3{clip-path:url(#clip-path-2);}</style><clipPath id="clip-path"><polygon class="cls-1" points="15.484 0 15.507 36.198 3.462 24.153 3.462 47.996 27.306 47.996 15.728 36.419 51.458 36.442 51.458 51.458 0 51.458 0 0 15.484 0"/></clipPath><clipPath id="clip-path-2"><path class="cls-1" d="M41.78629,0H16.26261l.07367,33.32275,2.49512,2.34064h32.627V9.67206A9.672,9.672,0,0,0,41.78629,0Zm-7.8797,14.16583H32.02781l-1.95843-4.132V15.607h-2.834V4.69586h2.73853l2.96154,6.44092,2.89777-6.44092h2.78631V15.607h-2.8659V10.15155ZM47.18058,27.143h-2.8659V21.6875l-1.847,4.01434H40.58891l-1.95844-4.132V27.143H35.79636V16.23181H38.535l2.96155,6.441,2.89777-6.441h2.78631Z"/></clipPath></defs><polygon class="cls-1" points="15.484 0 15.507 36.198 3.462 24.153 3.462 47.996 27.306 47.996 15.728 36.419 51.458 36.442 51.458 51.458 0 51.458 0 0 15.484 0"/><g class="cls-2"><rect class="cls-1" width="0.17039" height="51.45834"/><rect class="cls-1" x="0.17039" width="0.17039" height="51.45834"/><rect class="cls-1" x="0.34078" width="0.17039" height="51.45834"/><rect class="cls-1" x="0.51118" width="0.17039" height="51.45834"/><rect class="cls-1" x="0.68157" width="0.17039" height="51.45834"/><rect class="cls-1" x="0.85196" width="0.17039" height="51.45834"/><rect class="cls-1" x="1.02235" width="0.17039" height="51.45834"/><rect class="cls-1" x="1.19274" width="0.17039" height="51.45834"/><rect class="cls-1" x="1.36313" width="0.17039" height="51.45834"/><rect class="cls-1" x="1.53353" width="0.17039" height="51.45834"/><rect class="cls-1" x="1.70392" width="0.17039" height="51.45834"/><rect class="cls-1" x="1.87431" width="0.17039" height="51.45834"/><rect class="cls-1" x="2.0447" width="0.17039" height="51.45834"/><rect class="cls-1" x="2.21509" width="0.17039" height="51.45834"/><rect class="cls-1" x="2.38549" width="0.17039" height="51.45834"/><rect class="cls-1" x="2.55588" width="0.17039" height="51.45834"/><rect class="cls-1" x="2.72627" width="0.17039" height="51.45834"/><rect class="cls-1" x="2.89666" width="0.17039" height="51.45834"/><rect class="cls-1" x="3.06705" width="0.17039" height="51.45834"/><rect class="cls-1" x="3.23745" width="0.17039" height="51.45834"/><rect class="cls-1" x="3.40784" width="0.17039" height="51.45834"/><rect class="cls-1" x="3.57823" width="0.17039" height="51.45834"/><rect class="cls-1" x="3.74862" width="0.17039" height="51.45834"/><rect class="cls-1" x="3.91901" width="0.17039" height="51.45834"/><rect class="cls-1" x="4.08941" width="0.17039" height="51.45834"/><rect class="cls-1" x="4.2598" width="0.17039" height="51.45834"/><rect class="cls-1" x="4.43019" width="0.17039" height="51.45834"/><rect class="cls-1" x="4.60058" width="0.17039" height="51.45834"/><rect class="cls-1" x="4.77097" width="0.17039" height="51.45834"/><rect class="cls-1" x="4.94136" width="0.17039" height="51.45834"/><rect class="cls-1" x="5.11176" width="0.17039" height="51.45834"/><rect class="cls-1" x="5.28215" width="0.17039" height="51.45834"/><rect class="cls-1" x="5.45254" width="0.17039" height="51.45834"/><rect class="cls-1" x="5.62293" width="0.17039" height="51.45834"/><rect class="cls-1" x="5.79332" width="0.17039" height="51.45834"/><rect class="cls-1" x="5.96372" width="0.17039" height="51.45834"/><rect class="cls-1" x="6.13411" width="0.17039" height="51.45834"/><rect class="cls-1" x="6.3045" width="0.17039" height="51.45834"/><rect class="cls-1" x="6.47489" width="0.17039" height="51.45834"/><rect class="cls-1" x="6.64528" width="0.17039" height="51.45834"/><rect class="cls-1" x="6.81568" width="0.17039" height="51.45834"/><rect class="cls-1" x="6.98607" width="0.17039" height="51.45834"/><rect class="cls-1" x="7.15646" width="0.17039" height="51.45834"/><rect class="cls-1" x="7.32685" width="0.17039" height="51.45834"/><rect class="cls-1" x="7.49724" width="0.17039" height="51.45834"/><rect class="cls-1" x="7.66763" width="0.17039" height="51.45834"/><rect class="cls-1" x="7.83803" width="0.17039" height="51.45834"/><rect class="cls-1" x="8.00842" width="0.17039" height="51.45834"/><rect class="cls-1" x="8.17881" width="0.17039" height="51.45834"/><rect class="cls-1" x="8.3492" width="0.17039" height="51.45834"/><rect class="cls-1" x="8.51959" width="0.17039" height="51.45834"/><rect class="cls-1" x="8.68999" width="0.17039" height="51.45834"/><rect class="cls-1" x="8.86038" width="0.17039" height="51.45834"/><rect class="cls-1" x="9.03077" width="0.17039" height="51.45834"/><rect class="cls-1" x="9.20116" width="0.17039" height="51.45834"/><rect class="cls-1" x="9.37155" width="0.17039" height="51.45834"/><rect class="cls-1" x="9.54195" width="0.17039" height="51.45834"/><rect class="cls-1" x="9.71234" width="0.17039" height="51.45834"/><rect class="cls-1" x="9.88273" width="0.17039" height="51.45834"/><rect class="cls-1" x="10.05312" width="0.17039" height="51.45834"/><rect class="cls-1" x="10.22351" width="0.17039" height="51.45834"/><rect class="cls-1" x="10.3939" width="0.17039" height="51.45834"/><rect class="cls-1" x="10.5643" width="0.17039" height="51.45834"/><rect class="cls-1" x="10.73469" width="0.17039" height="51.45834"/><rect class="cls-1" x="10.90508" width="0.17039" height="51.45834"/><rect class="cls-1" x="11.07547" width="0.17039" height="51.45834"/><rect class="cls-1" x="11.24586" width="0.17039" height="51.45834"/><rect class="cls-1" x="11.41626" width="0.17039" height="51.45834"/><rect class="cls-1" x="11.58665" width="0.17039" height="51.45834"/><rect class="cls-1" x="11.75704" width="0.17039" height="51.45834"/><rect class="cls-1" x="11.92743" width="0.17039" height="51.45834"/><rect class="cls-1" x="12.09782" width="0.17039" height="51.45834"/><rect class="cls-1" x="12.26822" width="0.17039" height="51.45834"/><rect class="cls-1" x="12.43861" width="0.17039" height="51.45834"/><rect class="cls-1" x="12.609" width="0.17039" height="51.45834"/><rect class="cls-1" x="12.77939" width="0.17039" height="51.45834"/><rect class="cls-1" x="12.94978" width="0.17039" height="51.45834"/><rect class="cls-1" x="13.12017" width="0.17039" height="51.45834"/><rect class="cls-1" x="13.29057" width="0.17039" height="51.45834"/><rect class="cls-1" x="13.46096" width="0.17039" height="51.45834"/><rect class="cls-1" x="13.63135" width="0.17039" height="51.45834"/><rect class="cls-1" x="13.80174" width="0.17039" height="51.45834"/><rect class="cls-1" x="13.97213" width="0.17039" height="51.45834"/><rect class="cls-1" x="14.14253" width="0.17039" height="51.45834"/><rect class="cls-1" x="14.31292" width="0.17039" height="51.45834"/><rect class="cls-1" x="14.48331" width="0.17039" height="51.45834"/><rect class="cls-1" x="14.6537" width="0.17039" height="51.45834"/><rect class="cls-1" x="14.82409" width="0.17039" height="51.45834"/><rect class="cls-1" x="14.99449" width="0.17039" height="51.45834"/><rect class="cls-1" x="15.16488" width="0.17039" height="51.45834"/><rect class="cls-1" x="15.33527" width="0.17039" height="51.45834"/><rect class="cls-1" x="15.50566" width="0.17039" height="51.45834"/><rect class="cls-1" x="15.67605" width="0.17039" height="51.45834"/><rect class="cls-1" x="15.84645" width="0.17039" height="51.45834"/><rect class="cls-1" x="16.01684" width="0.17039" height="51.45834"/><rect class="cls-1" x="16.18723" width="0.17039" height="51.45834"/><rect class="cls-1" x="16.35762" width="0.17039" height="51.45834"/><rect class="cls-1" x="16.52801" width="0.17039" height="51.45834"/><rect class="cls-1" x="16.6984" width="0.17039" height="51.45834"/><rect class="cls-1" x="16.8688" width="0.17039" height="51.45834"/><rect class="cls-1" x="17.03919" width="0.17039" height="51.45834"/><rect class="cls-1" x="17.20958" width="0.17039" height="51.45834"/><rect class="cls-1" x="17.37997" width="0.17039" height="51.45834"/><rect class="cls-1" x="17.55036" width="0.17039" height="51.45834"/><rect class="cls-1" x="17.72076" width="0.17039" height="51.45834"/><rect class="cls-1" x="17.89115" width="0.17039" height="51.45834"/><rect class="cls-1" x="18.06154" width="0.17039" height="51.45834"/><rect class="cls-1" x="18.23193" width="0.17039" height="51.45834"/><rect class="cls-1" x="18.40232" width="0.17039" height="51.45834"/><rect class="cls-1" x="18.57271" width="0.17039" height="51.45834"/><rect class="cls-1" x="18.74311" width="0.17039" height="51.45834"/><rect class="cls-1" x="18.9135" width="0.17039" height="51.45834"/><rect class="cls-1" x="19.08389" width="0.17039" height="51.45834"/><rect class="cls-1" x="19.25428" width="0.17039" height="51.45834"/><rect class="cls-1" x="19.42467" width="0.17039" height="51.45834"/><rect class="cls-1" x="19.59507" width="0.17039" height="51.45834"/><rect class="cls-1" x="19.76546" width="0.17039" height="51.45834"/><rect class="cls-1" x="19.93585" width="0.17039" height="51.45834"/><rect class="cls-1" x="20.10624" width="0.17039" height="51.45834"/><rect class="cls-1" x="20.27663" width="0.17039" height="51.45834"/><rect class="cls-1" x="20.44703" width="0.17039" height="51.45834"/><rect class="cls-1" x="20.61742" width="0.17039" height="51.45834"/><rect class="cls-1" x="20.78781" width="0.17039" height="51.45834"/><rect class="cls-1" x="20.9582" width="0.17039" height="51.45834"/><rect class="cls-1" x="21.12859" width="0.17039" height="51.45834"/><rect class="cls-1" x="21.29899" width="0.17039" height="51.45834"/><rect class="cls-1" x="21.46938" width="0.17039" height="51.45834"/><rect class="cls-1" x="21.63977" width="0.17039" height="51.45834"/><rect class="cls-1" x="21.81016" width="0.17039" height="51.45834"/><rect class="cls-1" x="21.98055" width="0.17039" height="51.45834"/><rect class="cls-1" x="22.15094" width="0.17039" height="51.45834"/><rect class="cls-1" x="22.32134" width="0.17039" height="51.45834"/><rect class="cls-1" x="22.49173" width="0.17039" height="51.45834"/><rect class="cls-1" x="22.66212" width="0.17039" height="51.45834"/><rect class="cls-1" x="22.83251" width="0.17039" height="51.45834"/><rect class="cls-1" x="23.0029" width="0.17039" height="51.45834"/><rect class="cls-1" x="23.1733" width="0.17039" height="51.45834"/><rect class="cls-1" x="23.34369" width="0.17039" height="51.45834"/><rect class="cls-1" x="23.51408" width="0.17039" height="51.45834"/><rect class="cls-1" x="23.68447" width="0.17039" height="51.45834"/><rect class="cls-1" x="23.85486" width="0.17039" height="51.45834"/><rect class="cls-1" x="24.02526" width="0.17039" height="51.45834"/><rect class="cls-1" x="24.19565" width="0.17039" height="51.45834"/><rect class="cls-1" x="24.36604" width="0.17039" height="51.45834"/><rect class="cls-1" x="24.53643" width="0.17039" height="51.45834"/><rect class="cls-1" x="24.70682" width="0.17039" height="51.45834"/><rect class="cls-1" x="24.87721" width="0.17039" height="51.45834"/><rect class="cls-1" x="25.04761" width="0.17039" height="51.45834"/><rect class="cls-1" x="25.218" width="0.17039" height="51.45834"/><rect class="cls-1" x="25.38839" width="0.17039" height="51.45834"/><rect class="cls-1" x="25.55878" width="0.17039" height="51.45834"/><rect class="cls-1" x="25.72917" width="0.17039" height="51.45834"/><rect class="cls-1" x="25.89957" width="0.17039" height="51.45834"/><rect class="cls-1" x="26.06996" width="0.17039" height="51.45834"/><rect class="cls-1" x="26.24035" width="0.17039" height="51.45834"/><rect class="cls-1" x="26.41074" width="0.17039" height="51.45834"/><rect class="cls-1" x="26.58113" width="0.17039" height="51.45834"/><rect class="cls-1" x="26.75153" width="0.17039" height="51.45834"/><rect class="cls-1" x="26.92192" width="0.17039" height="51.45834"/><rect class="cls-1" x="27.09231" width="0.17039" height="51.45834"/><rect class="cls-1" x="27.2627" width="0.17039" height="51.45834"/><rect class="cls-1" x="27.43309" width="0.17039" height="51.45834"/><rect class="cls-1" x="27.60348" width="0.17039" height="51.45834"/><rect class="cls-1" x="27.77388" width="0.17039" height="51.45834"/><rect class="cls-1" x="27.94427" width="0.17039" height="51.45834"/><rect class="cls-1" x="28.11466" width="0.17039" height="51.45834"/><rect class="cls-1" x="28.28505" width="0.17039" height="51.45834"/><rect class="cls-1" x="28.45544" width="0.17039" height="51.45834"/><rect class="cls-1" x="28.62584" width="0.17039" height="51.45834"/><rect class="cls-1" x="28.79623" width="0.17039" height="51.45834"/><rect class="cls-1" x="28.96662" width="0.17039" height="51.45834"/><rect class="cls-1" x="29.13701" width="0.17039" height="51.45834"/><rect class="cls-1" x="29.3074" width="0.17039" height="51.45834"/><rect class="cls-1" x="29.4778" width="0.17039" height="51.45834"/><rect class="cls-1" x="29.64819" width="0.17039" height="51.45834"/><rect class="cls-1" x="29.81858" width="0.17039" height="51.45834"/><rect class="cls-1" x="29.98897" width="0.17039" height="51.45834"/><rect class="cls-1" x="30.15936" width="0.17039" height="51.45834"/><rect class="cls-1" x="30.32975" width="0.17039" height="51.45834"/><rect class="cls-1" x="30.50015" width="0.17039" height="51.45834"/><rect class="cls-1" x="30.67054" width="0.17039" height="51.45834"/><rect class="cls-1" x="30.84093" width="0.17039" height="51.45834"/><rect class="cls-1" x="31.01132" width="0.17039" height="51.45834"/><rect class="cls-1" x="31.18171" width="0.17039" height="51.45834"/><rect class="cls-1" x="31.35211" width="0.17039" height="51.45834"/><rect class="cls-1" x="31.5225" width="0.17039" height="51.45834"/><rect class="cls-1" x="31.69289" width="0.17039" height="51.45834"/><rect class="cls-1" x="31.86328" width="0.17039" height="51.45834"/><rect class="cls-1" x="32.03367" width="0.17039" height="51.45834"/><rect class="cls-1" x="32.20407" width="0.17039" height="51.45834"/><rect class="cls-1" x="32.37446" width="0.17039" height="51.45834"/><rect class="cls-1" x="32.54485" width="0.17039" height="51.45834"/><rect class="cls-1" x="32.71524" width="0.17039" height="51.45834"/><rect class="cls-1" x="32.88563" width="0.17039" height="51.45834"/><rect class="cls-1" x="33.05603" width="0.17039" height="51.45834"/><rect class="cls-1" x="33.22642" width="0.17039" height="51.45834"/><rect class="cls-1" x="33.39681" width="0.17039" height="51.45834"/><rect class="cls-1" x="33.5672" width="0.17039" height="51.45834"/><rect class="cls-1" x="33.73759" width="0.17039" height="51.45834"/><rect class="cls-1" x="33.90798" width="0.17039" height="51.45834"/><rect class="cls-1" x="34.07838" width="0.17039" height="51.45834"/><rect class="cls-1" x="34.24877" width="0.17039" height="51.45834"/><rect class="cls-1" x="34.41916" width="0.17039" height="51.45834"/><rect class="cls-1" x="34.58955" width="0.17039" height="51.45834"/><rect class="cls-1" x="34.75994" width="0.17039" height="51.45834"/><rect class="cls-1" x="34.93034" width="0.17039" height="51.45834"/><rect class="cls-1" x="35.10073" width="0.17039" height="51.45834"/><rect class="cls-1" x="35.27112" width="0.17039" height="51.45834"/><rect class="cls-1" x="35.44151" width="0.17039" height="51.45834"/><rect class="cls-1" x="35.6119" width="0.17039" height="51.45834"/><rect class="cls-1" x="35.78229" width="0.17039" height="51.45834"/><rect class="cls-1" x="35.95269" width="0.17039" height="51.45834"/><rect class="cls-1" x="36.12308" width="0.17039" height="51.45834"/><rect class="cls-1" x="36.29347" width="0.17039" height="51.45834"/><rect class="cls-1" x="36.46386" width="0.17039" height="51.45834"/><rect class="cls-1" x="36.63425" width="0.17039" height="51.45834"/><rect class="cls-1" x="36.80465" width="0.17039" height="51.45834"/><rect class="cls-1" x="36.97504" width="0.17039" height="51.45834"/><rect class="cls-1" x="37.14543" width="0.17039" height="51.45834"/><rect class="cls-1" x="37.31582" width="0.17039" height="51.45834"/><rect class="cls-1" x="37.48621" width="0.17039" height="51.45834"/><rect class="cls-1" x="37.65661" width="0.17039" height="51.45834"/><rect class="cls-1" x="37.827" width="0.17039" height="51.45834"/><rect class="cls-1" x="37.99739" width="0.17039" height="51.45834"/><rect class="cls-1" x="38.16778" width="0.17039" height="51.45834"/><rect class="cls-1" x="38.33817" width="0.17039" height="51.45834"/><rect class="cls-1" x="38.50856" width="0.17039" height="51.45834"/><rect class="cls-1" x="38.67896" width="0.17039" height="51.45834"/><rect class="cls-1" x="38.84935" width="0.17039" height="51.45834"/><rect class="cls-1" x="39.01974" width="0.17039" height="51.45834"/><rect class="cls-1" x="39.19013" width="0.17039" height="51.45834"/><rect class="cls-1" x="39.36052" width="0.17039" height="51.45834"/><rect class="cls-1" x="39.53092" width="0.17039" height="51.45834"/><rect class="cls-1" x="39.70131" width="0.17039" height="51.45834"/><rect class="cls-1" x="39.8717" width="0.17039" height="51.45834"/><rect class="cls-1" x="40.04209" width="0.17039" height="51.45834"/><rect class="cls-1" x="40.21248" width="0.17039" height="51.45834"/><rect class="cls-1" x="40.38288" width="0.17039" height="51.45834"/><rect class="cls-1" x="40.55327" width="0.17039" height="51.45834"/><rect class="cls-1" x="40.72366" width="0.17039" height="51.45834"/><rect class="cls-1" x="40.89405" width="0.17039" height="51.45834"/><rect class="cls-1" x="41.06444" width="0.17039" height="51.45834"/><rect class="cls-1" x="41.23484" width="0.17039" height="51.45834"/><rect class="cls-1" x="41.40523" width="0.17039" height="51.45834"/><rect class="cls-1" x="41.57562" width="0.17039" height="51.45834"/><rect class="cls-1" x="41.74601" width="0.17039" height="51.45834"/><rect class="cls-1" x="41.9164" width="0.17039" height="51.45834"/><rect class="cls-1" x="42.08679" width="0.17039" height="51.45834"/><rect class="cls-1" x="42.25719" width="0.17039" height="51.45834"/><rect class="cls-1" x="42.42758" width="0.17039" height="51.45834"/><rect class="cls-1" x="42.59797" width="0.17039" height="51.45834"/><rect class="cls-1" x="42.76836" width="0.17039" height="51.45834"/><rect class="cls-1" x="42.93875" width="0.17039" height="51.45834"/><rect class="cls-1" x="43.10915" width="0.17039" height="51.45834"/><rect class="cls-1" x="43.27954" width="0.17039" height="51.45834"/><rect class="cls-1" x="43.44993" width="0.17039" height="51.45834"/><rect class="cls-1" x="43.62032" width="0.17039" height="51.45834"/><rect class="cls-1" x="43.79071" width="0.17039" height="51.45834"/><rect class="cls-1" x="43.96111" width="0.17039" height="51.45834"/><rect class="cls-1" x="44.1315" width="0.17039" height="51.45834"/><rect class="cls-1" x="44.30189" width="0.17039" height="51.45834"/><rect class="cls-1" x="44.47228" width="0.17039" height="51.45834"/><rect class="cls-1" x="44.64267" width="0.17039" height="51.45834"/><rect class="cls-1" x="44.81306" width="0.17039" height="51.45834"/><rect class="cls-1" x="44.98346" width="0.17039" height="51.45834"/><rect class="cls-1" x="45.15385" width="0.17039" height="51.45834"/><rect class="cls-1" x="45.32424" width="0.17039" height="51.45834"/><rect class="cls-1" x="45.49463" width="0.17039" height="51.45834"/><rect class="cls-1" x="45.66502" width="0.17039" height="51.45834"/><rect class="cls-1" x="45.83542" width="0.17039" height="51.45834"/><rect class="cls-1" x="46.00581" width="0.17039" height="51.45834"/><rect class="cls-1" x="46.1762" width="0.17039" height="51.45834"/><rect class="cls-1" x="46.34659" width="0.17039" height="51.45834"/><rect class="cls-1" x="46.51698" width="0.17039" height="51.45834"/><rect class="cls-1" x="46.68738" width="0.17039" height="51.45834"/><rect class="cls-1" x="46.85777" width="0.17039" height="51.45834"/><rect class="cls-1" x="47.02816" width="0.17039" height="51.45834"/><rect class="cls-1" x="47.19855" width="0.17039" height="51.45834"/><rect class="cls-1" x="47.36894" width="0.17039" height="51.45834"/><rect class="cls-1" x="47.53933" width="0.17039" height="51.45834"/><rect class="cls-1" x="47.70973" width="0.17039" height="51.45834"/><rect class="cls-1" x="47.88012" width="0.17039" height="51.45834"/><rect class="cls-1" x="48.05051" width="0.17039" height="51.45834"/><rect class="cls-1" x="48.2209" width="0.17039" height="51.45834"/><rect class="cls-1" x="48.39129" width="0.17039" height="51.45834"/><rect class="cls-1" x="48.56169" width="0.17039" height="51.45834"/><rect class="cls-1" x="48.73208" width="0.17039" height="51.45834"/><rect class="cls-1" x="48.90247" width="0.17039" height="51.45834"/><rect class="cls-1" x="49.07286" width="0.17039" height="51.45834"/><rect class="cls-1" x="49.24325" width="0.17039" height="51.45834"/><rect class="cls-1" x="49.41365" width="0.17039" height="51.45834"/><rect class="cls-1" x="49.58404" width="0.17039" height="51.45834"/><rect class="cls-1" x="49.75443" width="0.17039" height="51.45834"/><rect class="cls-1" x="49.92482" width="0.17039" height="51.45834"/><rect class="cls-1" x="50.09521" width="0.17039" height="51.45834"/><rect class="cls-1" x="50.2656" width="0.17039" height="51.45834"/><rect class="cls-1" x="50.436" width="0.17039" height="51.45834"/><rect class="cls-1" x="50.60639" width="0.17039" height="51.45834"/><rect class="cls-1" x="50.77678" width="0.17039" height="51.45834"/><rect class="cls-1" x="50.94717" width="0.17039" height="51.45834"/><rect class="cls-1" x="51.11756" width="0.17039" height="51.45834"/><rect class="cls-1" x="51.28796" width="0.17039" height="51.45834"/></g><path class="cls-1" d="M41.78629,0H16.26261l.07367,33.32275,2.49512,2.34064h32.627V9.67206A9.672,9.672,0,0,0,41.78629,0Zm-7.8797,14.16583H32.02781l-1.95843-4.132V15.607h-2.834V4.69586h2.73853l2.96154,6.44092,2.89777-6.44092h2.78631V15.607h-2.8659V10.15155ZM47.18058,27.143h-2.8659V21.6875l-1.847,4.01434H40.58891l-1.95844-4.132V27.143H35.79636V16.23181H38.535l2.96155,6.441,2.89777-6.441h2.78631Z"/><g class="cls-3"><rect class="cls-1" x="35.79636" y="16.23181" width="0.04533" height="10.91119"/><rect class="cls-1" x="35.8417" y="16.23181" width="0.11654" height="10.91119"/><rect class="cls-1" x="35.95824" y="16.23181" width="0.11654" height="10.91119"/><rect class="cls-1" x="36.07478" y="16.23181" width="0.11654" height="10.91119"/><rect class="cls-1" x="36.19133" y="16.23181" width="0.11654" height="10.91119"/><rect class="cls-1" x="36.30787" y="16.23181" width="0.11654" height="10.91119"/><rect class="cls-1" x="36.42441" y="16.23181" width="0.11654" height="10.91119"/><rect class="cls-1" x="36.54095" y="16.23181" width="0.11654" height="10.91119"/><rect class="cls-1" x="36.65749" y="16.23181" width="0.11654" height="10.91119"/><rect class="cls-1" x="36.77404" y="16.23181" width="0.11654" height="10.91119"/><rect class="cls-1" x="36.89058" y="16.23181" width="0.11654" height="10.91119"/><rect class="cls-1" x="37.00712" y="16.23181" width="0.11654" height="10.91119"/><rect class="cls-1" x="37.12366" y="16.23181" width="0.11654" height="10.91119"/><rect class="cls-1" x="37.24021" y="16.23181" width="0.11654" height="10.91119"/><rect class="cls-1" x="37.35675" y="16.23181" width="0.11654" height="10.91119"/><rect class="cls-1" x="37.47329" y="16.23181" width="0.11654" height="10.91119"/><rect class="cls-1" x="37.58983" y="16.23181" width="0.11654" height="10.91119"/><rect class="cls-1" x="37.70637" y="16.23181" width="0.11654" height="10.91119"/><rect class="cls-1" x="37.82292" y="16.23181" width="0.11654" height="10.91119"/><rect class="cls-1" x="37.93946" y="16.23181" width="0.11654" height="10.91119"/><rect class="cls-1" x="38.056" y="16.23181" width="0.11654" height="10.91119"/><rect class="cls-1" x="38.17254" y="16.23181" width="0.11654" height="10.91119"/><rect class="cls-1" x="38.28909" y="16.23181" width="0.11654" height="10.91119"/><rect class="cls-1" x="38.40563" y="16.23181" width="0.11654" height="10.91119"/><rect class="cls-1" x="38.52217" y="16.23181" width="0.11654" height="10.91119"/><rect class="cls-1" x="38.63871" y="16.23181" width="0.11654" height="10.91119"/><rect class="cls-1" x="38.75525" y="16.23181" width="0.11654" height="10.91119"/><rect class="cls-1" x="38.8718" y="16.23181" width="0.11654" height="10.91119"/><rect class="cls-1" x="38.98834" y="16.23181" width="0.11654" height="10.91119"/><rect class="cls-1" x="39.10488" y="16.23181" width="0.11654" height="10.91119"/><rect class="cls-1" x="39.22142" y="16.23181" width="0.11654" height="10.91119"/><rect class="cls-1" x="39.33797" y="16.23181" width="0.11654" height="10.91119"/><rect class="cls-1" x="39.45451" y="16.23181" width="0.11654" height="10.91119"/><rect class="cls-1" x="39.57105" y="16.23181" width="0.11654" height="10.91119"/><rect class="cls-1" x="39.68759" y="16.23181" width="0.11654" height="10.91119"/><rect class="cls-1" x="39.80413" y="16.23181" width="0.11654" height="10.91119"/><rect class="cls-1" x="39.92068" y="16.23181" width="0.11654" height="10.91119"/><rect class="cls-1" x="40.03722" y="16.23181" width="0.11654" height="10.91119"/><rect class="cls-1" x="40.15376" y="16.23181" width="0.11654" height="10.91119"/><rect class="cls-1" x="40.2703" y="16.23181" width="0.11654" height="10.91119"/><rect class="cls-1" x="40.38684" y="16.23181" width="0.11654" height="10.91119"/><rect class="cls-1" x="40.50339" y="16.23181" width="0.11654" height="10.91119"/><rect class="cls-1" x="40.61993" y="16.23181" width="0.11654" height="10.91119"/><rect class="cls-1" x="40.73647" y="16.23181" width="0.11654" height="10.91119"/><rect class="cls-1" x="40.85301" y="16.23181" width="0.11654" height="10.91119"/><rect class="cls-1" x="40.96956" y="16.23181" width="0.11654" height="10.91119"/><rect class="cls-1" x="41.0861" y="16.23181" width="0.11654" height="10.91119"/><rect class="cls-1" x="41.20264" y="16.23181" width="0.11654" height="10.91119"/><rect class="cls-1" x="41.31918" y="16.23181" width="0.11654" height="10.91119"/><rect class="cls-1" x="41.43572" y="16.23181" width="0.11654" height="10.91119"/><rect class="cls-1" x="41.55227" y="16.23181" width="0.11654" height="10.91119"/><rect class="cls-1" x="41.66881" y="16.23181" width="0.11654" height="10.91119"/><rect class="cls-1" x="41.78535" y="16.23181" width="0.11654" height="10.91119"/><rect class="cls-1" x="41.90189" y="16.23181" width="0.11654" height="10.91119"/><rect class="cls-1" x="42.01844" y="16.23181" width="0.11654" height="10.91119"/><rect class="cls-1" x="42.13498" y="16.23181" width="0.11654" height="10.91119"/><rect class="cls-1" x="42.25152" y="16.23181" width="0.11654" height="10.91119"/><rect class="cls-1" x="42.36806" y="16.23181" width="0.11654" height="10.91119"/><rect class="cls-1" x="42.4846" y="16.23181" width="0.11654" height="10.91119"/><rect class="cls-1" x="42.60115" y="16.23181" width="0.11654" height="10.91119"/><rect class="cls-1" x="42.71769" y="16.23181" width="0.11654" height="10.91119"/><rect class="cls-1" x="42.83423" y="16.23181" width="0.11654" height="10.91119"/><rect class="cls-1" x="42.95077" y="16.23181" width="0.11654" height="10.91119"/><rect class="cls-1" x="43.06731" y="16.23181" width="0.11654" height="10.91119"/><rect class="cls-1" x="43.18386" y="16.23181" width="0.11654" height="10.91119"/><rect class="cls-1" x="43.3004" y="16.23181" width="0.11654" height="10.91119"/><rect class="cls-1" x="43.41694" y="16.23181" width="0.11654" height="10.91119"/><rect class="cls-1" x="43.53348" y="16.23181" width="0.11654" height="10.91119"/><rect class="cls-1" x="43.65003" y="16.23181" width="0.11654" height="10.91119"/><rect class="cls-1" x="43.76657" y="16.23181" width="0.11654" height="10.91119"/><rect class="cls-1" x="43.88311" y="16.23181" width="0.11654" height="10.91119"/><rect class="cls-1" x="43.99965" y="16.23181" width="0.11654" height="10.91119"/><rect class="cls-1" x="44.11619" y="16.23181" width="0.11654" height="10.91119"/><rect class="cls-1" x="44.23274" y="16.23181" width="0.11654" height="10.91119"/><rect class="cls-1" x="44.34928" y="16.23181" width="0.11654" height="10.91119"/><rect class="cls-1" x="44.46582" y="16.23181" width="0.11654" height="10.91119"/><rect class="cls-1" x="44.58236" y="16.23181" width="0.11654" height="10.91119"/><rect class="cls-1" x="44.69891" y="16.23181" width="0.11654" height="10.91119"/><rect class="cls-1" x="44.81545" y="16.23181" width="0.11654" height="10.91119"/><rect class="cls-1" x="44.93199" y="16.23181" width="0.11654" height="10.91119"/><rect class="cls-1" x="45.04853" y="16.23181" width="0.11654" height="10.91119"/><rect class="cls-1" x="45.16507" y="16.23181" width="0.11654" height="10.91119"/><rect class="cls-1" x="45.28162" y="16.23181" width="0.11654" height="10.91119"/><rect class="cls-1" x="45.39816" y="16.23181" width="0.11654" height="10.91119"/><rect class="cls-1" x="45.5147" y="16.23181" width="0.11654" height="10.91119"/><rect class="cls-1" x="45.63124" y="16.23181" width="0.11654" height="10.91119"/><rect class="cls-1" x="45.74779" y="16.23181" width="0.11654" height="10.91119"/><rect class="cls-1" x="45.86433" y="16.23181" width="0.11654" height="10.91119"/><rect class="cls-1" x="45.98087" y="16.23181" width="0.11654" height="10.91119"/><rect class="cls-1" x="46.09741" y="16.23181" width="0.11654" height="10.91119"/><rect class="cls-1" x="46.21395" y="16.23181" width="0.11654" height="10.91119"/><rect class="cls-1" x="46.3305" y="16.23181" width="0.11654" height="10.91119"/><rect class="cls-1" x="46.44704" y="16.23181" width="0.11654" height="10.91119"/><rect class="cls-1" x="46.56358" y="16.23181" width="0.11654" height="10.91119"/><rect class="cls-1" x="46.68012" y="16.23181" width="0.11654" height="10.91119"/><rect class="cls-1" x="46.79666" y="16.23181" width="0.11654" height="10.91119"/><rect class="cls-1" x="46.91321" y="16.23181" width="0.11654" height="10.91119"/><rect class="cls-1" x="47.02975" y="16.23181" width="0.11654" height="10.91119"/><rect class="cls-1" x="47.14629" y="16.23181" width="0.03429" height="10.91119"/><rect class="cls-1" x="27.23533" y="4.69586" width="0.09879" height="10.91113"/><rect class="cls-1" x="27.33412" y="4.69586" width="0.11654" height="10.91113"/><rect class="cls-1" x="27.45066" y="4.69586" width="0.11654" height="10.91113"/><rect class="cls-1" x="27.5672" y="4.69586" width="0.11654" height="10.91113"/><rect class="cls-1" x="27.68375" y="4.69586" width="0.11654" height="10.91113"/><rect class="cls-1" x="27.80029" y="4.69586" width="0.11654" height="10.91113"/><rect class="cls-1" x="27.91683" y="4.69586" width="0.11654" height="10.91113"/><rect class="cls-1" x="28.03337" y="4.69586" width="0.11654" height="10.91113"/><rect class="cls-1" x="28.14992" y="4.69586" width="0.11654" height="10.91113"/><rect class="cls-1" x="28.26646" y="4.69586" width="0.11654" height="10.91113"/><rect class="cls-1" x="28.383" y="4.69586" width="0.11654" height="10.91113"/><rect class="cls-1" x="28.49954" y="4.69586" width="0.11654" height="10.91113"/><rect class="cls-1" x="28.61608" y="4.69586" width="0.11654" height="10.91113"/><rect class="cls-1" x="28.73263" y="4.69586" width="0.11654" height="10.91113"/><rect class="cls-1" x="28.84917" y="4.69586" width="0.11654" height="10.91113"/><rect class="cls-1" x="28.96571" y="4.69586" width="0.11654" height="10.91113"/><rect class="cls-1" x="29.08225" y="4.69586" width="0.11654" height="10.91113"/><rect class="cls-1" x="29.19879" y="4.69586" width="0.11654" height="10.91113"/><rect class="cls-1" x="29.31534" y="4.69586" width="0.11654" height="10.91113"/><rect class="cls-1" x="29.43188" y="4.69586" width="0.11654" height="10.91113"/><rect class="cls-1" x="29.54842" y="4.69586" width="0.11654" height="10.91113"/><rect class="cls-1" x="29.66496" y="4.69586" width="0.11654" height="10.91113"/><rect class="cls-1" x="29.78151" y="4.69586" width="0.11654" height="10.91113"/><rect class="cls-1" x="29.89805" y="4.69586" width="0.11654" height="10.91113"/><rect class="cls-1" x="30.01459" y="4.69586" width="0.11654" height="10.91113"/><rect class="cls-1" x="30.13113" y="4.69586" width="0.11654" height="10.91113"/><rect class="cls-1" x="30.24767" y="4.69586" width="0.11654" height="10.91113"/><rect class="cls-1" x="30.36422" y="4.69586" width="0.11654" height="10.91113"/><rect class="cls-1" x="30.48076" y="4.69586" width="0.11654" height="10.91113"/><rect class="cls-1" x="30.5973" y="4.69586" width="0.11654" height="10.91113"/><rect class="cls-1" x="30.71384" y="4.69586" width="0.11654" height="10.91113"/><rect class="cls-1" x="30.83039" y="4.69586" width="0.11654" height="10.91113"/><rect class="cls-1" x="30.94693" y="4.69586" width="0.11654" height="10.91113"/><rect class="cls-1" x="31.06347" y="4.69586" width="0.11654" height="10.91113"/><rect class="cls-1" x="31.18001" y="4.69586" width="0.11654" height="10.91113"/><rect class="cls-1" x="31.29655" y="4.69586" width="0.11654" height="10.91113"/><rect class="cls-1" x="31.4131" y="4.69586" width="0.11654" height="10.91113"/><rect class="cls-1" x="31.52964" y="4.69586" width="0.11654" height="10.91113"/><rect class="cls-1" x="31.64618" y="4.69586" width="0.11654" height="10.91113"/><rect class="cls-1" x="31.76272" y="4.69586" width="0.11654" height="10.91113"/><rect class="cls-1" x="31.87927" y="4.69586" width="0.11654" height="10.91113"/><rect class="cls-1" x="31.99581" y="4.69586" width="0.11654" height="10.91113"/><rect class="cls-1" x="32.11235" y="4.69586" width="0.11654" height="10.91113"/><rect class="cls-1" x="32.22889" y="4.69586" width="0.11654" height="10.91113"/><rect class="cls-1" x="32.34543" y="4.69586" width="0.11654" height="10.91113"/><rect class="cls-1" x="32.46198" y="4.69586" width="0.11654" height="10.91113"/><rect class="cls-1" x="32.57852" y="4.69586" width="0.11654" height="10.91113"/><rect class="cls-1" x="32.69506" y="4.69586" width="0.11654" height="10.91113"/><rect class="cls-1" x="32.8116" y="4.69586" width="0.11654" height="10.91113"/><rect class="cls-1" x="32.92814" y="4.69586" width="0.11654" height="10.91113"/><rect class="cls-1" x="33.04469" y="4.69586" width="0.11654" height="10.91113"/><rect class="cls-1" x="33.16123" y="4.69586" width="0.11654" height="10.91113"/><rect class="cls-1" x="33.27777" y="4.69586" width="0.11654" height="10.91113"/><rect class="cls-1" x="33.39431" y="4.69586" width="0.11654" height="10.91113"/><rect class="cls-1" x="33.51086" y="4.69586" width="0.11654" height="10.91113"/><rect class="cls-1" x="33.6274" y="4.69586" width="0.11654" height="10.91113"/><rect class="cls-1" x="33.74394" y="4.69586" width="0.11654" height="10.91113"/><rect class="cls-1" x="33.86048" y="4.69586" width="0.11654" height="10.91113"/><rect class="cls-1" x="33.97702" y="4.69586" width="0.11654" height="10.91113"/><rect class="cls-1" x="34.09357" y="4.69586" width="0.11654" height="10.91113"/><rect class="cls-1" x="34.21011" y="4.69586" width="0.11654" height="10.91113"/><rect class="cls-1" x="34.32665" y="4.69586" width="0.11654" height="10.91113"/><rect class="cls-1" x="34.44319" y="4.69586" width="0.11654" height="10.91113"/><rect class="cls-1" x="34.55974" y="4.69586" width="0.11654" height="10.91113"/><rect class="cls-1" x="34.67628" y="4.69586" width="0.11654" height="10.91113"/><rect class="cls-1" x="34.79282" y="4.69586" width="0.11654" height="10.91113"/><rect class="cls-1" x="34.90936" y="4.69586" width="0.11654" height="10.91113"/><rect class="cls-1" x="35.0259" y="4.69586" width="0.11654" height="10.91113"/><rect class="cls-1" x="35.14245" y="4.69586" width="0.11654" height="10.91113"/><rect class="cls-1" x="35.25899" y="4.69586" width="0.11654" height="10.91113"/><rect class="cls-1" x="35.37553" y="4.69586" width="0.11654" height="10.91113"/><rect class="cls-1" x="35.49207" y="4.69586" width="0.11654" height="10.91113"/><rect class="cls-1" x="35.60861" y="4.69586" width="0.11654" height="10.91113"/><rect class="cls-1" x="35.72516" y="4.69586" width="0.11654" height="10.91113"/><rect class="cls-1" x="35.8417" y="4.69586" width="0.11654" height="10.91113"/><rect class="cls-1" x="35.95824" y="4.69586" width="0.11654" height="10.91113"/><rect class="cls-1" x="36.07478" y="4.69586" width="0.11654" height="10.91113"/><rect class="cls-1" x="36.19133" y="4.69586" width="0.11654" height="10.91113"/><rect class="cls-1" x="36.30787" y="4.69586" width="0.11654" height="10.91113"/><rect class="cls-1" x="36.42441" y="4.69586" width="0.11654" height="10.91113"/><rect class="cls-1" x="36.54095" y="4.69586" width="0.11654" height="10.91113"/><rect class="cls-1" x="36.65749" y="4.69586" width="0.11654" height="10.91113"/><rect class="cls-1" x="36.77404" y="4.69586" width="0.11654" height="10.91113"/><rect class="cls-1" x="36.89058" y="4.69586" width="0.11654" height="10.91113"/><rect class="cls-1" x="37.00712" y="4.69586" width="0.11654" height="10.91113"/><rect class="cls-1" x="37.12366" y="4.69586" width="0.11654" height="10.91113"/><rect class="cls-1" x="37.24021" y="4.69586" width="0.11654" height="10.91113"/><rect class="cls-1" x="37.35675" y="4.69586" width="0.11654" height="10.91113"/><rect class="cls-1" x="37.47329" y="4.69586" width="0.11654" height="10.91113"/><rect class="cls-1" x="37.58983" y="4.69586" width="0.11654" height="10.91113"/><rect class="cls-1" x="37.70637" y="4.69586" width="0.11654" height="10.91113"/><rect class="cls-1" x="37.82292" y="4.69586" width="0.11654" height="10.91113"/><rect class="cls-1" x="37.93946" y="4.69586" width="0.11654" height="10.91113"/><rect class="cls-1" x="38.056" y="4.69586" width="0.11654" height="10.91113"/><rect class="cls-1" x="38.17254" y="4.69586" width="0.11654" height="10.91113"/><rect class="cls-1" x="38.28909" y="4.69586" width="0.11654" height="10.91113"/><rect class="cls-1" x="38.40563" y="4.69586" width="0.11654" height="10.91113"/><rect class="cls-1" x="38.52217" y="4.69586" width="0.09732" height="10.91113"/><rect class="cls-1" x="16.26261" width="0.11654" height="35.66339"/><rect class="cls-1" x="16.37915" width="0.11654" height="35.66339"/><rect class="cls-1" x="16.4957" width="0.11654" height="35.66339"/><rect class="cls-1" x="16.61224" width="0.11654" height="35.66339"/><rect class="cls-1" x="16.72878" width="0.11654" height="35.66339"/><rect class="cls-1" x="16.84532" width="0.11654" height="35.66339"/><rect class="cls-1" x="16.96187" width="0.11654" height="35.66339"/><rect class="cls-1" x="17.07841" width="0.11654" height="35.66339"/><rect class="cls-1" x="17.19495" width="0.11654" height="35.66339"/><rect class="cls-1" x="17.31149" width="0.11654" height="35.66339"/><rect class="cls-1" x="17.42803" width="0.11654" height="35.66339"/><rect class="cls-1" x="17.54458" width="0.11654" height="35.66339"/><rect class="cls-1" x="17.66112" width="0.11654" height="35.66339"/><rect class="cls-1" x="17.77766" width="0.11654" height="35.66339"/><rect class="cls-1" x="17.8942" width="0.11654" height="35.66339"/><rect class="cls-1" x="18.01075" width="0.11654" height="35.66339"/><rect class="cls-1" x="18.12729" width="0.11654" height="35.66339"/><rect class="cls-1" x="18.24383" width="0.11654" height="35.66339"/><rect class="cls-1" x="18.36037" width="0.11654" height="35.66339"/><rect class="cls-1" x="18.47691" width="0.11654" height="35.66339"/><rect class="cls-1" x="18.59346" width="0.11654" height="35.66339"/><rect class="cls-1" x="18.71" width="0.11654" height="35.66339"/><rect class="cls-1" x="18.82654" width="0.11654" height="35.66339"/><rect class="cls-1" x="18.94308" width="0.11654" height="35.66339"/><rect class="cls-1" x="19.05962" width="0.11654" height="35.66339"/><rect class="cls-1" x="19.17617" width="0.11654" height="35.66339"/><rect class="cls-1" x="19.29271" width="0.11654" height="35.66339"/><rect class="cls-1" x="19.40925" width="0.11654" height="35.66339"/><rect class="cls-1" x="19.52579" width="0.11654" height="35.66339"/><rect class="cls-1" x="19.64234" width="0.11654" height="35.66339"/><rect class="cls-1" x="19.75888" width="0.11654" height="35.66339"/><rect class="cls-1" x="19.87542" width="0.11654" height="35.66339"/><rect class="cls-1" x="19.99196" width="0.11654" height="35.66339"/><rect class="cls-1" x="20.1085" width="0.11654" height="35.66339"/><rect class="cls-1" x="20.22505" width="0.11654" height="35.66339"/><rect class="cls-1" x="20.34159" width="0.11654" height="35.66339"/><rect class="cls-1" x="20.45813" width="0.11654" height="35.66339"/><rect class="cls-1" x="20.57467" width="0.11654" height="35.66339"/><rect class="cls-1" x="20.69122" width="0.11654" height="35.66339"/><rect class="cls-1" x="20.80776" width="0.11654" height="35.66339"/><rect class="cls-1" x="20.9243" width="0.11654" height="35.66339"/><rect class="cls-1" x="21.04084" width="0.11654" height="35.66339"/><rect class="cls-1" x="21.15738" width="0.11654" height="35.66339"/><rect class="cls-1" x="21.27393" width="0.11654" height="35.66339"/><rect class="cls-1" x="21.39047" width="0.11654" height="35.66339"/><rect class="cls-1" x="21.50701" width="0.11654" height="35.66339"/><rect class="cls-1" x="21.62355" width="0.11654" height="35.66339"/><rect class="cls-1" x="21.7401" width="0.11654" height="35.66339"/><rect class="cls-1" x="21.85664" width="0.11654" height="35.66339"/><rect class="cls-1" x="21.97318" width="0.11654" height="35.66339"/><rect class="cls-1" x="22.08972" width="0.11654" height="35.66339"/><rect class="cls-1" x="22.20626" width="0.11654" height="35.66339"/><rect class="cls-1" x="22.32281" width="0.11654" height="35.66339"/><rect class="cls-1" x="22.43935" width="0.11654" height="35.66339"/><rect class="cls-1" x="22.55589" width="0.11654" height="35.66339"/><rect class="cls-1" x="22.67243" width="0.11654" height="35.66339"/><rect class="cls-1" x="22.78897" width="0.11654" height="35.66339"/><rect class="cls-1" x="22.90552" width="0.11654" height="35.66339"/><rect class="cls-1" x="23.02206" width="0.11654" height="35.66339"/><rect class="cls-1" x="23.1386" width="0.11654" height="35.66339"/><rect class="cls-1" x="23.25514" width="0.11654" height="35.66339"/><rect class="cls-1" x="23.37169" width="0.11654" height="35.66339"/><rect class="cls-1" x="23.48823" width="0.11654" height="35.66339"/><rect class="cls-1" x="23.60477" width="0.11654" height="35.66339"/><rect class="cls-1" x="23.72131" width="0.11654" height="35.66339"/><rect class="cls-1" x="23.83785" width="0.11654" height="35.66339"/><rect class="cls-1" x="23.9544" width="0.11654" height="35.66339"/><rect class="cls-1" x="24.07094" width="0.11654" height="35.66339"/><rect class="cls-1" x="24.18748" width="0.11654" height="35.66339"/><rect class="cls-1" x="24.30402" width="0.11654" height="35.66339"/><rect class="cls-1" x="24.42057" width="0.11654" height="35.66339"/><rect class="cls-1" x="24.53711" width="0.11654" height="35.66339"/><rect class="cls-1" x="24.65365" width="0.11654" height="35.66339"/><rect class="cls-1" x="24.77019" width="0.11654" height="35.66339"/><rect class="cls-1" x="24.88673" width="0.11654" height="35.66339"/><rect class="cls-1" x="25.00328" width="0.11654" height="35.66339"/><rect class="cls-1" x="25.11982" width="0.11654" height="35.66339"/><rect class="cls-1" x="25.23636" width="0.11654" height="35.66339"/><rect class="cls-1" x="25.3529" width="0.11654" height="35.66339"/><rect class="cls-1" x="25.46944" width="0.11654" height="35.66339"/><rect class="cls-1" x="25.58599" width="0.11654" height="35.66339"/><rect class="cls-1" x="25.70253" width="0.11654" height="35.66339"/><rect class="cls-1" x="25.81907" width="0.11654" height="35.66339"/><rect class="cls-1" x="25.93561" width="0.11654" height="35.66339"/><rect class="cls-1" x="26.05216" width="0.11654" height="35.66339"/><rect class="cls-1" x="26.1687" width="0.11654" height="35.66339"/><rect class="cls-1" x="26.28524" width="0.11654" height="35.66339"/><rect class="cls-1" x="26.40178" width="0.11654" height="35.66339"/><rect class="cls-1" x="26.51832" width="0.11654" height="35.66339"/><rect class="cls-1" x="26.63487" width="0.11654" height="35.66339"/><rect class="cls-1" x="26.75141" width="0.11654" height="35.66339"/><rect class="cls-1" x="26.86795" width="0.11654" height="35.66339"/><rect class="cls-1" x="26.98449" width="0.11654" height="35.66339"/><rect class="cls-1" x="27.10104" width="0.11654" height="35.66339"/><rect class="cls-1" x="27.21758" width="0.11654" height="35.66339"/><rect class="cls-1" x="27.33412" width="0.11654" height="35.66339"/><rect class="cls-1" x="27.45066" width="0.11654" height="35.66339"/><rect class="cls-1" x="27.5672" width="0.11654" height="35.66339"/><rect class="cls-1" x="27.68375" width="0.11654" height="35.66339"/><rect class="cls-1" x="27.80029" width="0.11654" height="35.66339"/><rect class="cls-1" x="27.91683" width="0.11654" height="35.66339"/><rect class="cls-1" x="28.03337" width="0.11654" height="35.66339"/><rect class="cls-1" x="28.14992" width="0.11654" height="35.66339"/><rect class="cls-1" x="28.26646" width="0.11654" height="35.66339"/><rect class="cls-1" x="28.383" width="0.11654" height="35.66339"/><rect class="cls-1" x="28.49954" width="0.11654" height="35.66339"/><rect class="cls-1" x="28.61608" width="0.11654" height="35.66339"/><rect class="cls-1" x="28.73263" width="0.11654" height="35.66339"/><rect class="cls-1" x="28.84917" width="0.11654" height="35.66339"/><rect class="cls-1" x="28.96571" width="0.11654" height="35.66339"/><rect class="cls-1" x="29.08225" width="0.11654" height="35.66339"/><rect class="cls-1" x="29.19879" width="0.11654" height="35.66339"/><rect class="cls-1" x="29.31534" width="0.11654" height="35.66339"/><rect class="cls-1" x="29.43188" width="0.11654" height="35.66339"/><rect class="cls-1" x="29.54842" width="0.11654" height="35.66339"/><rect class="cls-1" x="29.66496" width="0.11654" height="35.66339"/><rect class="cls-1" x="29.78151" width="0.11654" height="35.66339"/><rect class="cls-1" x="29.89805" width="0.11654" height="35.66339"/><rect class="cls-1" x="30.01459" width="0.11654" height="35.66339"/><rect class="cls-1" x="30.13113" width="0.11654" height="35.66339"/><rect class="cls-1" x="30.24767" width="0.11654" height="35.66339"/><rect class="cls-1" x="30.36422" width="0.11654" height="35.66339"/><rect class="cls-1" x="30.48076" width="0.11654" height="35.66339"/><rect class="cls-1" x="30.5973" width="0.11654" height="35.66339"/><rect class="cls-1" x="30.71384" width="0.11654" height="35.66339"/><rect class="cls-1" x="30.83039" width="0.11654" height="35.66339"/><rect class="cls-1" x="30.94693" width="0.11654" height="35.66339"/><rect class="cls-1" x="31.06347" width="0.11654" height="35.66339"/><rect class="cls-1" x="31.18001" width="0.11654" height="35.66339"/><rect class="cls-1" x="31.29655" width="0.11654" height="35.66339"/><rect class="cls-1" x="31.4131" width="0.11654" height="35.66339"/><rect class="cls-1" x="31.52964" width="0.11654" height="35.66339"/><rect class="cls-1" x="31.64618" width="0.11654" height="35.66339"/><rect class="cls-1" x="31.76272" width="0.11654" height="35.66339"/><rect class="cls-1" x="31.87927" width="0.11654" height="35.66339"/><rect class="cls-1" x="31.99581" width="0.11654" height="35.66339"/><rect class="cls-1" x="32.11235" width="0.11654" height="35.66339"/><rect class="cls-1" x="32.22889" width="0.11654" height="35.66339"/><rect class="cls-1" x="32.34543" width="0.11654" height="35.66339"/><rect class="cls-1" x="32.46198" width="0.11654" height="35.66339"/><rect class="cls-1" x="32.57852" width="0.11654" height="35.66339"/><rect class="cls-1" x="32.69506" width="0.11654" height="35.66339"/><rect class="cls-1" x="32.8116" width="0.11654" height="35.66339"/><rect class="cls-1" x="32.92814" width="0.11654" height="35.66339"/><rect class="cls-1" x="33.04469" width="0.11654" height="35.66339"/><rect class="cls-1" x="33.16123" width="0.11654" height="35.66339"/><rect class="cls-1" x="33.27777" width="0.11654" height="35.66339"/><rect class="cls-1" x="33.39431" width="0.11654" height="35.66339"/><rect class="cls-1" x="33.51086" width="0.11654" height="35.66339"/><rect class="cls-1" x="33.6274" width="0.11654" height="35.66339"/><rect class="cls-1" x="33.74394" width="0.11654" height="35.66339"/><rect class="cls-1" x="33.86048" width="0.11654" height="35.66339"/><rect class="cls-1" x="33.97702" width="0.11654" height="35.66339"/><rect class="cls-1" x="34.09357" width="0.11654" height="35.66339"/><rect class="cls-1" x="34.21011" width="0.11654" height="35.66339"/><rect class="cls-1" x="34.32665" width="0.11654" height="35.66339"/><rect class="cls-1" x="34.44319" width="0.11654" height="35.66339"/><rect class="cls-1" x="34.55974" width="0.11654" height="35.66339"/><rect class="cls-1" x="34.67628" width="0.11654" height="35.66339"/><rect class="cls-1" x="34.79282" width="0.11654" height="35.66339"/><rect class="cls-1" x="34.90936" width="0.11654" height="35.66339"/><rect class="cls-1" x="35.0259" width="0.11654" height="35.66339"/><rect class="cls-1" x="35.14245" width="0.11654" height="35.66339"/><rect class="cls-1" x="35.25899" width="0.11654" height="35.66339"/><rect class="cls-1" x="35.37553" width="0.11654" height="35.66339"/><rect class="cls-1" x="35.49207" width="0.11654" height="35.66339"/><rect class="cls-1" x="35.60861" width="0.11654" height="35.66339"/><rect class="cls-1" x="35.72516" width="0.11654" height="35.66339"/><rect class="cls-1" x="35.8417" width="0.11654" height="35.66339"/><rect class="cls-1" x="35.95824" width="0.11654" height="35.66339"/><rect class="cls-1" x="36.07478" width="0.11654" height="35.66339"/><rect class="cls-1" x="36.19133" width="0.11654" height="35.66339"/><rect class="cls-1" x="36.30787" width="0.11654" height="35.66339"/><rect class="cls-1" x="36.42441" width="0.11654" height="35.66339"/><rect class="cls-1" x="36.54095" width="0.11654" height="35.66339"/><rect class="cls-1" x="36.65749" width="0.11654" height="35.66339"/><rect class="cls-1" x="36.77404" width="0.11654" height="35.66339"/><rect class="cls-1" x="36.89058" width="0.11654" height="35.66339"/><rect class="cls-1" x="37.00712" width="0.11654" height="35.66339"/><rect class="cls-1" x="37.12366" width="0.11654" height="35.66339"/><rect class="cls-1" x="37.24021" width="0.11654" height="35.66339"/><rect class="cls-1" x="37.35675" width="0.11654" height="35.66339"/><rect class="cls-1" x="37.47329" width="0.11654" height="35.66339"/><rect class="cls-1" x="37.58983" width="0.11654" height="35.66339"/><rect class="cls-1" x="37.70637" width="0.11654" height="35.66339"/><rect class="cls-1" x="37.82292" width="0.11654" height="35.66339"/><rect class="cls-1" x="37.93946" width="0.11654" height="35.66339"/><rect class="cls-1" x="38.056" width="0.11654" height="35.66339"/><rect class="cls-1" x="38.17254" width="0.11654" height="35.66339"/><rect class="cls-1" x="38.28909" width="0.11654" height="35.66339"/><rect class="cls-1" x="38.40563" width="0.11654" height="35.66339"/><rect class="cls-1" x="38.52217" width="0.11654" height="35.66339"/><rect class="cls-1" x="38.63871" width="0.11654" height="35.66339"/><rect class="cls-1" x="38.75525" width="0.11654" height="35.66339"/><rect class="cls-1" x="38.8718" width="0.11654" height="35.66339"/><rect class="cls-1" x="38.98834" width="0.11654" height="35.66339"/><rect class="cls-1" x="39.10488" width="0.11654" height="35.66339"/><rect class="cls-1" x="39.22142" width="0.11654" height="35.66339"/><rect class="cls-1" x="39.33797" width="0.11654" height="35.66339"/><rect class="cls-1" x="39.45451" width="0.11654" height="35.66339"/><rect class="cls-1" x="39.57105" width="0.11654" height="35.66339"/><rect class="cls-1" x="39.68759" width="0.11654" height="35.66339"/><rect class="cls-1" x="39.80413" width="0.11654" height="35.66339"/><rect class="cls-1" x="39.92068" width="0.11654" height="35.66339"/><rect class="cls-1" x="40.03722" width="0.11654" height="35.66339"/><rect class="cls-1" x="40.15376" width="0.11654" height="35.66339"/><rect class="cls-1" x="40.2703" width="0.11654" height="35.66339"/><rect class="cls-1" x="40.38684" width="0.11654" height="35.66339"/><rect class="cls-1" x="40.50339" width="0.11654" height="35.66339"/><rect class="cls-1" x="40.61993" width="0.11654" height="35.66339"/><rect class="cls-1" x="40.73647" width="0.11654" height="35.66339"/><rect class="cls-1" x="40.85301" width="0.11654" height="35.66339"/><rect class="cls-1" x="40.96956" width="0.11654" height="35.66339"/><rect class="cls-1" x="41.0861" width="0.11654" height="35.66339"/><rect class="cls-1" x="41.20264" width="0.11654" height="35.66339"/><rect class="cls-1" x="41.31918" width="0.11654" height="35.66339"/><rect class="cls-1" x="41.43572" width="0.11654" height="35.66339"/><rect class="cls-1" x="41.55227" width="0.11654" height="35.66339"/><rect class="cls-1" x="41.66881" width="0.11654" height="35.66339"/><rect class="cls-1" x="41.78535" width="0.11654" height="35.66339"/><rect class="cls-1" x="41.90189" width="0.11654" height="35.66339"/><rect class="cls-1" x="42.01844" width="0.11654" height="35.66339"/><rect class="cls-1" x="42.13498" width="0.11654" height="35.66339"/><rect class="cls-1" x="42.25152" width="0.11654" height="35.66339"/><rect class="cls-1" x="42.36806" width="0.11654" height="35.66339"/><rect class="cls-1" x="42.4846" width="0.11654" height="35.66339"/><rect class="cls-1" x="42.60115" width="0.11654" height="35.66339"/><rect class="cls-1" x="42.71769" width="0.11654" height="35.66339"/><rect class="cls-1" x="42.83423" width="0.11654" height="35.66339"/><rect class="cls-1" x="42.95077" width="0.11654" height="35.66339"/><rect class="cls-1" x="43.06731" width="0.11654" height="35.66339"/><rect class="cls-1" x="43.18386" width="0.11654" height="35.66339"/><rect class="cls-1" x="43.3004" width="0.11654" height="35.66339"/><rect class="cls-1" x="43.41694" width="0.11654" height="35.66339"/><rect class="cls-1" x="43.53348" width="0.11654" height="35.66339"/><rect class="cls-1" x="43.65003" width="0.11654" height="35.66339"/><rect class="cls-1" x="43.76657" width="0.11654" height="35.66339"/><rect class="cls-1" x="43.88311" width="0.11654" height="35.66339"/><rect class="cls-1" x="43.99965" width="0.11654" height="35.66339"/><rect class="cls-1" x="44.11619" width="0.11654" height="35.66339"/><rect class="cls-1" x="44.23274" width="0.11654" height="35.66339"/><rect class="cls-1" x="44.34928" width="0.11654" height="35.66339"/><rect class="cls-1" x="44.46582" width="0.11654" height="35.66339"/><rect class="cls-1" x="44.58236" width="0.11654" height="35.66339"/><rect class="cls-1" x="44.69891" width="0.11654" height="35.66339"/><rect class="cls-1" x="44.81545" width="0.11654" height="35.66339"/><rect class="cls-1" x="44.93199" width="0.11654" height="35.66339"/><rect class="cls-1" x="45.04853" width="0.11654" height="35.66339"/><rect class="cls-1" x="45.16507" width="0.11654" height="35.66339"/><rect class="cls-1" x="45.28162" width="0.11654" height="35.66339"/><rect class="cls-1" x="45.39816" width="0.11654" height="35.66339"/><rect class="cls-1" x="45.5147" width="0.11654" height="35.66339"/><rect class="cls-1" x="45.63124" width="0.11654" height="35.66339"/><rect class="cls-1" x="45.74779" width="0.11654" height="35.66339"/><rect class="cls-1" x="45.86433" width="0.11654" height="35.66339"/><rect class="cls-1" x="45.98087" width="0.11654" height="35.66339"/><rect class="cls-1" x="46.09741" width="0.11654" height="35.66339"/><rect class="cls-1" x="46.21395" width="0.11654" height="35.66339"/><rect class="cls-1" x="46.3305" width="0.11654" height="35.66339"/><rect class="cls-1" x="46.44704" width="0.11654" height="35.66339"/><rect class="cls-1" x="46.56358" width="0.11654" height="35.66339"/><rect class="cls-1" x="46.68012" width="0.11654" height="35.66339"/><rect class="cls-1" x="46.79666" width="0.11654" height="35.66339"/><rect class="cls-1" x="46.91321" width="0.11654" height="35.66339"/><rect class="cls-1" x="47.02975" width="0.11654" height="35.66339"/><rect class="cls-1" x="47.14629" width="0.11654" height="35.66339"/><rect class="cls-1" x="47.26283" width="0.11654" height="35.66339"/><rect class="cls-1" x="47.37938" width="0.11654" height="35.66339"/><rect class="cls-1" x="47.49592" width="0.11654" height="35.66339"/><rect class="cls-1" x="47.61246" width="0.11654" height="35.66339"/><rect class="cls-1" x="47.729" width="0.11654" height="35.66339"/><rect class="cls-1" x="47.84554" width="0.11654" height="35.66339"/><rect class="cls-1" x="47.96209" width="0.11654" height="35.66339"/><rect class="cls-1" x="48.07863" width="0.11654" height="35.66339"/><rect class="cls-1" x="48.19517" width="0.11654" height="35.66339"/><rect class="cls-1" x="48.31171" width="0.11654" height="35.66339"/><rect class="cls-1" x="48.42826" width="0.11654" height="35.66339"/><rect class="cls-1" x="48.5448" width="0.11654" height="35.66339"/><rect class="cls-1" x="48.66134" width="0.11654" height="35.66339"/><rect class="cls-1" x="48.77788" width="0.11654" height="35.66339"/><rect class="cls-1" x="48.89442" width="0.11654" height="35.66339"/><rect class="cls-1" x="49.01097" width="0.11654" height="35.66339"/><rect class="cls-1" x="49.12751" width="0.11654" height="35.66339"/><rect class="cls-1" x="49.24405" width="0.11654" height="35.66339"/><rect class="cls-1" x="49.36059" width="0.11654" height="35.66339"/><rect class="cls-1" x="49.47714" width="0.11654" height="35.66339"/><rect class="cls-1" x="49.59368" width="0.11654" height="35.66339"/><rect class="cls-1" x="49.71022" width="0.11654" height="35.66339"/><rect class="cls-1" x="49.82676" width="0.11654" height="35.66339"/><rect class="cls-1" x="49.9433" width="0.11654" height="35.66339"/><rect class="cls-1" x="50.05985" width="0.11654" height="35.66339"/><rect class="cls-1" x="50.17639" width="0.11654" height="35.66339"/><rect class="cls-1" x="50.29293" width="0.11654" height="35.66339"/><rect class="cls-1" x="50.40947" width="0.11654" height="35.66339"/><rect class="cls-1" x="50.52601" width="0.11654" height="35.66339"/><rect class="cls-1" x="50.64256" width="0.11654" height="35.66339"/><rect class="cls-1" x="50.7591" width="0.11654" height="35.66339"/><rect class="cls-1" x="50.87564" width="0.11654" height="35.66339"/><rect class="cls-1" x="50.99218" width="0.11654" height="35.66339"/><rect class="cls-1" x="51.10873" width="0.11654" height="35.66339"/><rect class="cls-1" x="51.22527" width="0.11654" height="35.66339"/><rect class="cls-1" x="51.34181" width="0.11654" height="35.66339"/></g></svg>