<svg id="Calque_1" data-name="Calque 1" xmlns="http://www.w3.org/2000/svg" xmlns:xlink="http://www.w3.org/1999/xlink" viewBox="0 0 191.40001 175.89999"><defs><style>.cls-1{fill:url(#Dégradé_sans_nom_13);}.cls-2{fill:url(#Dégradé_sans_nom_13-2);}.cls-3{fill:url(#Dégradé_sans_nom_13-3);}.cls-4{fill:url(#Dégradé_sans_nom_13-4);}.cls-5{fill:url(#Dégradé_sans_nom_13-5);}.cls-6{fill:url(#Dégradé_sans_nom_13-6);}.cls-7{fill:url(#Dégradé_sans_nom_13-7);}.cls-8{fill:url(#Dégradé_sans_nom_13-8);}.cls-9{fill:url(#Dégradé_sans_nom_12);}.cls-10{fill:url(#Dégradé_sans_nom_13-9);}</style><linearGradient id="Dégradé_sans_nom_13" x1="36.91175" y1="94.37791" x2="154.8" y2="94.37791" gradientUnits="userSpaceOnUse"><stop offset="0" stop-color="#1697cb"/><stop offset="1" stop-color="#194e83"/></linearGradient><linearGradient id="Dégradé_sans_nom_13-2" x1="111.97459" y1="36.49819" x2="134.82165" y2="36.49819" xlink:href="#Dégradé_sans_nom_13"/><linearGradient id="Dégradé_sans_nom_13-3" x1="131.62578" y1="56.41604" x2="150.84808" y2="56.41604" xlink:href="#Dégradé_sans_nom_13"/><linearGradient id="Dégradé_sans_nom_13-4" x1="76.27896" y1="124.59458" x2="85.61542" y2="124.59458" xlink:href="#Dégradé_sans_nom_13"/><linearGradient id="Dégradé_sans_nom_13-5" x1="76.27909" y1="97.95337" x2="85.60981" y2="97.95337" xlink:href="#Dégradé_sans_nom_13"/><linearGradient id="Dégradé_sans_nom_13-6" x1="76.27534" y1="106.83395" x2="85.60101" y2="106.83395" xlink:href="#Dégradé_sans_nom_13"/><linearGradient id="Dégradé_sans_nom_13-7" x1="76.27521" y1="115.71481" x2="85.608" y2="115.71481" xlink:href="#Dégradé_sans_nom_13"/><linearGradient id="Dégradé_sans_nom_13-8" x1="76.27402" y1="133.41221" x2="85.6097" y2="133.41221" xlink:href="#Dégradé_sans_nom_13"/><linearGradient id="Dégradé_sans_nom_12" x1="0.8" y1="888.0472" x2="190.5" y2="888.0472" gradientTransform="translate(0 -800.1472)" xlink:href="#Dégradé_sans_nom_13"/><linearGradient id="Dégradé_sans_nom_13-9" x1="0" y1="888.0972" x2="191.40001" y2="888.0972" gradientTransform="translate(0 -800.1472)" xlink:href="#Dégradé_sans_nom_13"/></defs><path class="cls-1" d="M43.9181,145.8a19.46777,19.46777,0,0,1-4.09934-1.79381c-3.463-2.57022-3.84718-7.28383-1.07117-10.86982q7.85649-10.14876,15.71921-20.29271c2.448-3.16117,4.91924-6.30488,7.33192-9.49286a34.9647,34.9647,0,0,0,7.31555-21.50228c.02054-6.87993-.00576-13.76.01859-20.63991a1.60941,1.60941,0,0,0-.86486-1.62537,8.95993,8.95993,0,0,1,4.73889-16.62008q13.20018-.01326,26.4004.00094a8.94044,8.94044,0,0,1,8.76615,6.8269,9.0315,9.0315,0,0,1-4.81778,10.24635c-.35657.18231-.83039.60642-.83756.92746-.06515,2.91855-.03868,5.83914-.039,8.75914,0,.35485,0,.7097,0,1.23624h1.45809q21.42033,0,42.84068.00013c4.49792.00009,6.83968,1.873,7.86293,6.27978.01447.06226.10445.107.15918.1599v1.2a21.54151,21.54151,0,0,1-1.82731,3.93511c-1.348,1.85267-3.4215,2.52491-5.81263,2.55179v1.58991c0,18.39089-.02381,36.78184.03444,55.17255.00627,1.98173-.5635,3.31186-2.47467,3.95064ZM74.40291,88.24348c-.08173.31259-.15763.53938-.1995.77229a39.90682,39.90682,0,0,1-7.13491,16.84358c-2.98761,4.05457-6.13368,7.99251-9.2151,11.97781q-7.26354,9.39419-14.53278,18.784c-.86,1.11263-.91944,2.24967-.00608,2.83708a3.90307,3.90307,0,0,0,2.01639.5204q40.43948.03736,80.879.01889a5.64933,5.64933,0,0,0,1.193-.06342,1.83862,1.83862,0,0,0,1.20476-2.87859c-.21152-.3374-.47084-.64546-.71551-.96133-7.00246-9.04009-13.95691-18.118-21.02862-27.10356a45.308,45.308,0,0,1-8.59739-16.178c-.40578-1.49843-.71594-3.02276-1.078-4.56915Zm.54742-27.36337V82.40292H96.65582V60.88028c-.41765,0-.73227.00005-1.04689,0-.63952-.00013-1.27921.00933-1.91851-.00238a2.81644,2.81644,0,0,1-.279-5.62482c1.87284-.10465,3.75506-.03532,5.63306-.05507,2.17892-.02291,3.67228-1.36359,3.66618-3.27336a3.38418,3.38418,0,0,0-3.67673-3.28108q-12.83026-.01177-25.66055-.0008c-2.15079.00152-3.69275,1.35859-3.72484,3.24163-.03276,1.92144,1.52462,3.3039,3.75792,3.31352,2.39814.01034,4.79655-.01563,7.19447.00924,1.94.02012,3.15179,1.1398,3.15707,2.8506.00529,1.71794-1.20849,2.81322-3.14366,2.82079C78.74632,60.88583,76.87825,60.88011,74.95033,60.88011Zm34.25948,41.61653c.45069.62977.68865.9862.95026,1.32435,7.30951,9.448,14.58208,18.92506,21.96117,28.31844,1.7972,2.28777,2.89839,4.64778,2.49516,7.58538-.00739.05384.08024.12072.11887.175h6.74482V138.2579c0-11.03144-.0403-22.06319.03945-33.09405.01339-1.85233-.14285-3.267-2.28743-3.60022a1.57771,1.57771,0,0,1-.42991-.20647,5.40445,5.40445,0,0,0-5.1685-.02049,11.65445,11.65445,0,0,1-11.25279-.05785,4.708,4.708,0,0,0-4.39879-.20023A13.43279,13.43279,0,0,1,109.20981,102.49664ZM102.551,76.68c-.30127,5.98624-.0202,11.7359,2.078,17.27145.273.72024.5515,1.17341,1.44083,1.30853a9.67577,9.67577,0,0,1,2.79527,1.01582,5.95973,5.95973,0,0,0,5.73361.01526,11.20628,11.20628,0,0,1,10.69956.0335,6.04609,6.04609,0,0,0,5.62842-.01914,16.91307,16.91307,0,0,1,3.85794-1.19565,11.0527,11.0527,0,0,1,6.58856,1.049V85.03981l-1.53085,0q-9.11763-.00007-18.23527-.00412a2.77909,2.77909,0,0,1-3.08438-3.12078c.09727-1.59323,1.28618-2.59087,3.14056-2.59221q12.53676-.00906,25.07351-.003c.31986,0,.72388.11722.94234-.033.47819-.32883,1.23751-.83965,1.195-1.1936-.06072-.50536-.69432-.98942-1.17072-1.37432-.19565-.15809-.619-.03815-.93883-.03817q-21.47445-.001-42.94888-.00056Z"/><path class="cls-2" d="M125.03949,25.08a31.62319,31.62319,0,0,1,3.46,1.2394,11.41579,11.41579,0,1,1-8.02231-.82575c.40864-.10807.80188-.2744,1.20227-.41365Zm-1.54742,5.76015a5.68526,5.68526,0,0,0-5.771,5.62874,5.69911,5.69911,0,1,0,5.771-5.62874Z"/><path class="cls-3" d="M141.6102,46.83992a9.59085,9.59085,0,1,1-9.96116,8.95619A9.58994,9.58994,0,0,1,141.6102,46.83992Zm-.36607,5.72169a3.927,3.927,0,0,0-3.92043,3.87587,3.90578,3.90578,0,0,0,7.81113.02662A3.93314,3.93314,0,0,0,141.24413,52.56161Z"/><path class="cls-4" d="M80.98806,127.47941c-.84058-.04394-1.64606-.0215-2.42984-.14116a2.65792,2.65792,0,0,1-2.27926-2.77879,2.56782,2.56782,0,0,1,2.28506-2.75639,28.4714,28.4714,0,0,1,4.77111.014,2.68169,2.68169,0,0,1,2.27936,2.68679,2.80015,2.80015,0,0,1-2.284,2.82191A21.95293,21.95293,0,0,1,80.98806,127.47941Z"/><path class="cls-5" d="M80.98565,100.79042c-.67771.00057-1.35777.037-2.03265-.00663a2.82961,2.82961,0,0,1,.04232-5.65272c1.27449-.04046,2.5521-.03778,3.82684-.00168a2.828,2.828,0,0,1,.0765,5.65329C82.26383,100.82637,81.62349,100.78985,80.98565,100.79042Z"/><path class="cls-6" d="M80.96376,104.00293c.67776.00084,1.3575-.03247,2.03286.00777a2.79094,2.79094,0,0,1,2.5974,2.65309,2.69258,2.69258,0,0,1-2.28,2.90677,27.16348,27.16348,0,0,1-4.76778.00338,2.61789,2.61789,0,0,1-2.26339-3.00792,2.6765,2.6765,0,0,1,2.64785-2.559C79.60721,103.97823,80.286,104.00209,80.96376,104.00293Z"/><path class="cls-7" d="M80.83094,118.54268c-.63808,0-1.28048.04788-1.91341-.00924a2.75179,2.75179,0,0,1-2.63742-3.07425,2.687,2.687,0,0,1,2.86569-2.57565c1.23642-.01629,2.47377-.02565,3.70973.00326a2.744,2.744,0,0,1,2.74381,2.62327,2.79081,2.79081,0,0,1-2.38216,2.96105,18.46622,18.46622,0,0,1-2.386.01826Z"/><path class="cls-8" d="M80.97922,136.23888c-.678.0004-1.35671.01906-2.034-.00345A2.68013,2.68013,0,0,1,76.281,133.7009a2.619,2.619,0,0,1,2.24843-3.01989,27.21715,27.21715,0,0,1,4.7673.003,2.70181,2.70181,0,0,1,2.30733,2.89032,2.75977,2.75977,0,0,1-2.7105,2.6602C82.25627,136.25825,81.61738,136.23848,80.97922,136.23888Z"/><g id="_34rysv.tif" data-name=" 34rysv.tif"><path class="cls-9" d="M190.5,45.6V175H14a1.90932,1.90932,0,0,1-.8-.3c-3.9-3.6-7.8-7.1-11.8-10.7a1.08578,1.08578,0,0,1-.4-.9c0-12.3,0-24.6-.1-36.9q.15-26.4,0-52.8C.9,49.2.8,25,.8.8H144.6c.2,0,.4.1.6.1,2,.2,3.9.4,5.9.7a48.13437,48.13437,0,0,1,31,19.7,43.78393,43.78393,0,0,1,8.1,21.1C190.3,43.5,190.4,44.6,190.5,45.6Zm-3.7,125.7V47.7a44.69224,44.69224,0,0,0-.8-8.2,41.194,41.194,0,0,0-6.5-15.4c-9-12.8-21.4-19.6-37.1-19.6-45.7-.1-91.5,0-137.2,0H4.5v.8c0,10.8.1,21.6.1,32.4,0,16.6.1,33.1.1,49.7,0,16.2.1,32.4.1,48.6,0,8.5,0,16.9.1,25.4a.90949.90949,0,0,0,.4.8c3.1,2.9,6.2,5.7,9.3,8.5a1.901,1.901,0,0,0,1.3.5H186.8Z"/><path class="cls-10" d="M14.3,175.8a.60123.60123,0,0,1-.4-.1h-.1a2.99484,2.99484,0,0,1-1-.4c-2.2-2-4.5-4.1-6.7-6.1-1.7-1.5-3.4-3.1-5.1-4.6a2.12675,2.12675,0,0,1-.7-1.5c0-8.7,0-17.5-.1-26V126.3C.2,108.7.1,91.1.1,73.6.1,56.8,0,39.9,0,23.1V0H145a.36736.36736,0,0,1,.3.1c.6.1,1.3.1,1.9.2,1.3.1,2.7.3,4.1.5a48.967,48.967,0,0,1,31.5,20.1,46.143,46.143,0,0,1,8.3,21.5,14.97891,14.97891,0,0,1,.2,2.2c0,.3.1.7.1,1V175.9H14.5A.30972.30972,0,0,0,14.3,175.8Zm-.5-1.7c.1,0,.2.1.3.1H189.7V45.6c0-.3-.1-.6-.1-1a14.91746,14.91746,0,0,1-.2-2.1,44.25864,44.25864,0,0,0-8-20.7A47.06108,47.06108,0,0,0,150.9,2.3c-1.3-.2-2.6-.4-3.9-.5-.6-.1-1.3-.1-1.9-.2a.90149.90149,0,0,1-.5-.1H1.6V22.8c0,16.8.1,33.7.1,50.5,0,17.6.1,35.2.1,52.7v10.8c0,8.5,0,17.4.1,26.1a.39922.39922,0,0,0,.2.4c1.7,1.5,3.4,3.1,5.1,4.6C9.3,170,11.6,172.1,13.8,174.1Zm2-2a2.40988,2.40988,0,0,1-1.8-.7c-1.5-1.3-2.9-2.7-4.4-4-1.6-1.5-3.3-3-4.9-4.5a1.9743,1.9743,0,0,1-.6-1.4C4.1,153.1,4,145,4,136V113.3c0-8.6,0-17.3-.1-25.9,0-16.6-.1-33.1-.1-49.7,0-7.3,0-14.7-.1-22V3.7H43.8c32.3,0,65.7,0,98.6.1,15.7,0,28.4,6.8,37.7,20a40.65479,40.65479,0,0,1,6.7,15.7,47.77393,47.77393,0,0,1,.8,8.4V172.2H168.3C118.2,172.1,66.6,172.1,15.8,172.1ZM5.3,5.3h0V15.8c0,7.3,0,14.7.1,22,0,16.6.1,33.1.1,49.7,0,8.6,0,17.3.1,25.9v22.7c0,9,0,17.1.1,25.4a.3491.3491,0,0,0,.1.2c1.6,1.5,3.3,3,4.9,4.5,1.4,1.3,2.9,2.7,4.4,4a1.08029,1.08029,0,0,0,.7.3H186.1V47.7a37.0949,37.0949,0,0,0-.8-8.1,40.34437,40.34437,0,0,0-6.4-15.1c-9-12.8-21.3-19.3-36.5-19.3-32.9-.1-66.3-.1-98.6-.1C31.2,5.3,18.1,5.3,5.3,5.3Z"/></g></svg>