<svg id="Calque_1" data-name="Calque 1" xmlns="http://www.w3.org/2000/svg" xmlns:xlink="http://www.w3.org/1999/xlink" viewBox="0 0 191.40001 175.89999"><defs><style>.cls-1{fill:url(#Dégradé_sans_nom_12);}.cls-2{fill:url(#Dégradé_sans_nom_13);}.cls-3{fill:url(#Dégradé_sans_nom_13-2);}.cls-4{fill:url(#Dégradé_sans_nom_13-3);}</style><linearGradient id="Dégradé_sans_nom_12" x1="0.8" y1="888.0472" x2="190.5" y2="888.0472" gradientTransform="translate(0 -800.1472)" gradientUnits="userSpaceOnUse"><stop offset="0" stop-color="#1697cb"/><stop offset="1" stop-color="#194e83"/></linearGradient><linearGradient id="Dégradé_sans_nom_13" x1="0" y1="888.0972" x2="191.40001" y2="888.0972" xlink:href="#Dégradé_sans_nom_12"/><linearGradient id="Dégradé_sans_nom_13-2" x1="38.42289" y1="86.85" x2="155.1771" y2="86.85" gradientTransform="matrix(1, 0, 0, 1, 0, 0)" xlink:href="#Dégradé_sans_nom_12"/><linearGradient id="Dégradé_sans_nom_13-3" x1="100.01879" y1="136.34687" x2="110.04342" y2="136.34687" gradientTransform="matrix(1, 0, 0, 1, 0, 0)" xlink:href="#Dégradé_sans_nom_12"/></defs><g id="_34rysv.tif" data-name=" 34rysv.tif"><path class="cls-1" d="M190.5,45.6V175H14a1.90932,1.90932,0,0,1-.8-.3c-3.9-3.6-7.8-7.1-11.8-10.7a1.08578,1.08578,0,0,1-.4-.9c0-12.3,0-24.6-.1-36.9q.15-26.4,0-52.8C.9,49.2.8,25,.8.8H144.6c.2,0,.4.1.6.1,2,.2,3.9.4,5.9.7a48.13437,48.13437,0,0,1,31,19.7,43.78393,43.78393,0,0,1,8.1,21.1C190.3,43.5,190.4,44.6,190.5,45.6Zm-3.7,125.7V47.7a44.69224,44.69224,0,0,0-.8-8.2,41.194,41.194,0,0,0-6.5-15.4c-9-12.8-21.4-19.6-37.1-19.6-45.7-.1-91.5,0-137.2,0H4.5v.8c0,10.8.1,21.6.1,32.4,0,16.6.1,33.1.1,49.7,0,16.2.1,32.4.1,48.6,0,8.5,0,16.9.1,25.4a.90949.90949,0,0,0,.4.8c3.1,2.9,6.2,5.7,9.3,8.5a1.901,1.901,0,0,0,1.3.5H186.8Z"/><path class="cls-2" d="M14.3,175.8a.60123.60123,0,0,1-.4-.1h-.1a2.99484,2.99484,0,0,1-1-.4c-2.2-2-4.5-4.1-6.7-6.1-1.7-1.5-3.4-3.1-5.1-4.6a2.12675,2.12675,0,0,1-.7-1.5c0-8.7,0-17.5-.1-26V126.3C.2,108.7.1,91.1.1,73.6.1,56.8,0,39.9,0,23.1V0H145a.36736.36736,0,0,1,.3.1c.6.1,1.3.1,1.9.2,1.3.1,2.7.3,4.1.5a48.967,48.967,0,0,1,31.5,20.1,46.143,46.143,0,0,1,8.3,21.5,14.97891,14.97891,0,0,1,.2,2.2c0,.3.1.7.1,1V175.9H14.5A.30972.30972,0,0,0,14.3,175.8Zm-.5-1.7c.1,0,.2.1.3.1H189.7V45.6c0-.3-.1-.6-.1-1a14.91746,14.91746,0,0,1-.2-2.1,44.25864,44.25864,0,0,0-8-20.7A47.06108,47.06108,0,0,0,150.9,2.3c-1.3-.2-2.6-.4-3.9-.5-.6-.1-1.3-.1-1.9-.2a.90149.90149,0,0,1-.5-.1H1.6V22.8c0,16.8.1,33.7.1,50.5,0,17.6.1,35.2.1,52.7v10.8c0,8.5,0,17.4.1,26.1a.39922.39922,0,0,0,.2.4c1.7,1.5,3.4,3.1,5.1,4.6C9.3,170,11.6,172.1,13.8,174.1Zm2-2a2.40988,2.40988,0,0,1-1.8-.7c-1.5-1.3-2.9-2.7-4.4-4-1.6-1.5-3.3-3-4.9-4.5a1.9743,1.9743,0,0,1-.6-1.4C4.1,153.1,4,145,4,136V113.3c0-8.6,0-17.3-.1-25.9,0-16.6-.1-33.1-.1-49.7,0-7.3,0-14.7-.1-22V3.7H43.8c32.3,0,65.7,0,98.6.1,15.7,0,28.4,6.8,37.7,20a40.65479,40.65479,0,0,1,6.7,15.7,47.77393,47.77393,0,0,1,.8,8.4V172.2H168.3C118.2,172.1,66.6,172.1,15.8,172.1ZM5.3,5.3h0V15.8c0,7.3,0,14.7.1,22,0,16.6.1,33.1.1,49.7,0,8.6,0,17.3.1,25.9v22.7c0,9,0,17.1.1,25.4a.3491.3491,0,0,0,.1.2c1.6,1.5,3.3,3,4.9,4.5,1.4,1.3,2.9,2.7,4.4,4a1.08029,1.08029,0,0,0,.7.3H186.1V47.7a37.0949,37.0949,0,0,0-.8-8.1,40.34437,40.34437,0,0,0-6.4-15.1c-9-12.8-21.3-19.3-36.5-19.3-32.9-.1-66.3-.1-98.6-.1C31.2,5.3,18.1,5.3,5.3,5.3Z"/></g><path class="cls-3" d="M79.78487,152.43468a3.641,3.641,0,0,1-1.73169-3.61381c.11321-2.87532.0083-5.75861.04837-8.63783a1.54313,1.54313,0,0,0-.866-1.51554c-14.30918-8.869-23.53005-21.44989-27.01346-37.95019A56.87593,56.87593,0,0,1,56.72372,59.7597c.17714-.31258.35877-.62266.53217-.93728a3.04442,3.04442,0,0,0,.12419-.39755c-1.4034-1.397-2.802-2.92906-4.34806-4.294-2.08082-1.837-1.9452-3.64.00731-5.21076a3.30639,3.30639,0,0,0,.39694-.41919l-4.39614-4.395c-.0444.03949-.27131.23653-.493.43931a2.51724,2.51724,0,0,1-3.66032.10366q-2.91389-2.76633-5.68584-5.68082a2.5186,2.5186,0,0,1,.12573-3.75129q6.51414-6.552,13.06711-13.06535a2.5233,2.5233,0,0,1,3.749-.10013c1.91792,1.8113,3.792,3.67435,5.59862,5.59635,1.246,1.32554,1.04346,2.4055-.66536,4.49186,1.32051,1.30263,2.63652,2.63175,3.99979,3.9105a1.10122,1.10122,0,0,0,.92553.14463,2.85975,2.85975,0,0,1,3.15254.84209q18.74191,18.76,37.50155,37.5023a2.8958,2.8958,0,0,1,.82059,3.05393,1.46911,1.46911,0,0,0,.33032,1.184c1.71539,1.79,3.49152,3.52157,5.23935,5.28066,1.52946,1.5393,1.52935,2.92479.00477,4.45789q-2.36907,2.38227-4.75026,4.75247c-1.81424,1.8137-2.99171,1.82476-4.77716.03892-1.88783-1.88824-3.7722-3.78-5.83214-5.8446C96.54443,88.67921,95.502,89.83,94.41119,90.93292c-1.61276,1.63061-2.91422,1.62366-4.51809.02365q-4.20488-4.19478-8.40632-8.393a3.16185,3.16185,0,0,0-.29508-.21461,13.15613,13.15613,0,0,1-11.06163,3.16331c-.79823,9.2881,4.016,24.73614,17.91014,33.93427,14.5465,9.63,32.24883,7.87943,43.09886.69693-.24951-.26524-.49026-.52865-.739-.78433-1.83743-1.88883-3.67645-3.77611-5.618-5.7696-2.08955,2.09727-4.0089,4.0666-5.98506,5.97718a4.273,4.273,0,0,1-1.78226,1.113,2.334,2.334,0,0,1-2.68087-1.12831,2.52327,2.52327,0,0,1,.09041-2.92651,6.32046,6.32046,0,0,1,.79718-.89206Q128.921,102.027,142.62532,88.32607c.16969-.16968.33266-.347.51147-.50648a2.6617,2.6617,0,0,1,3.77756-.10721,2.626,2.626,0,0,1-.09869,3.85045q-4.38225,4.44137-8.82329,8.82454a10.05575,10.05575,0,0,1-1.24716.8792c1.18278,1.11145,2.10438,1.93473,2.97832,2.80583q7.13866,7.11544,14.25733,14.25092c1.49,1.49092,1.57414,2.59959.33034,4.32849A57.28223,57.28223,0,0,1,139.28836,137.138a1.886,1.886,0,0,0-.9806,1.8304c.05458,3.31883-.03175,6.64035.04524,9.9583a3.37836,3.37836,0,0,1-1.92813,3.508h-1.44a3.35327,3.35327,0,0,1-1.92044-3.62665c.082-1.07365.01547-2.15865.01547-3.23857V140.842c-16.5243,7.73958-33.03739,8.10041-49.846,1.058,0,2.42005-.074,4.69059.02522,6.95349a3.52029,3.52029,0,0,1-1.79428,3.58124Zm-18.44795-89.984c-12.37794,20.23516-9.684,51.95372,15.42018,69.649a52.57932,52.57932,0,0,0,72.21448-11.15179L133.369,105.34318l-4.79734,4.80271c2.46211,2.46079,5.0115,4.99071,7.53962,7.54169a3.80238,3.80238,0,0,1-.57737,5.97074,44.70117,44.70117,0,0,1-29.61274,7.43826,44.0471,44.0471,0,0,1-28.24735-13.52651c-8.99518-9.25848-13.20536-20.47361-12.93128-33.36841a1.86619,1.86619,0,0,0-.6954-1.62565,12.33938,12.33938,0,0,1-4.085-12.87934c.50171-2.03153,1.71742-3.88674,2.68719-5.99382Zm39.65341,14.27041L66.78994,42.52086c-1.37764,1.389-2.86243,2.89646-4.35911,4.392-1.51795,1.51683-3.04765,3.0219-4.61941,4.57888,3.076,3.07644,6.02837,6.05546,9.031,8.98293a1.48727,1.48727,0,0,0,1.24767.13861A12.95359,12.95359,0,0,1,84.6922,76.89267c-.1448.45091-.20562,1.19789.05109,1.46675,2.39822,2.51179,4.87443,4.94912,7.26534,7.34515C95.08823,82.62437,98.10269,79.6093,100.99033,76.72109Zm-20.9052-3.90435a7.66527,7.66527,0,1,0-7.70245,7.67178A7.66353,7.66353,0,0,0,80.08513,72.81674Zm-26.91-32.63766,4.13894,4.14975,4.15-4.1547L57.315,36.05605Zm1.23449-12.4256-9.38233,9.37979,1.45183,1.67345,9.4468-9.44469Zm49.05259,54.249-1.80147,1.77454,4.323,4.33091c.54443-.58109,1.15086-1.22836,1.72484-1.841Z"/><path class="cls-4" d="M104.95405,138.97411l0-.00441c.87629,0,1.75583.04816,2.62814-.01079a2.606,2.606,0,0,0-.02617-5.20529c-1.67028-.0666-3.34731-.06759-5.01752-.00061a2.6061,2.6061,0,0,0-2.519,2.55507,2.64327,2.64327,0,0,0,2.5452,2.65687C103.358,139.01655,104.15741,138.97411,104.95405,138.97411Z"/><path class="cls-4" d="M104.95405,138.97411c-.79664,0-1.596.04244-2.38935-.00916a2.64327,2.64327,0,0,1-2.5452-2.65687,2.6061,2.6061,0,0,1,2.519-2.55507c1.67021-.067,3.34724-.066,5.01752.00061a2.606,2.606,0,0,1,.02617,5.20529c-.87231.059-1.75185.01079-2.62814.01079Z"/></svg>