<svg id="Calque_1" data-name="Calque 1" xmlns="http://www.w3.org/2000/svg" viewBox="0 0 191.40001 175.89999"><defs><style>.cls-1{fill:#fff;}</style></defs><g id="_34rysv.tif-6" data-name=" 34rysv.tif-6"><path class="cls-1" d="M190.6,45.4V174.8H14.1a1.90919,1.90919,0,0,1-.8-.3c-3.9-3.6-7.8-7.1-11.8-10.7a1.08578,1.08578,0,0,1-.4-.9c0-12.3,0-24.6-.1-36.9C1,108.4.9,90.8.9,73.3Q.75,37,.8.7H144.7c.2,0,.4.1.6.1,2,.2,3.9.4,5.9.7a48.13437,48.13437,0,0,1,31,19.7,43.78393,43.78393,0,0,1,8.1,21.1C190.4,43.3,190.5,44.3,190.6,45.4Zm-3.7,125.7V47.5a44.69215,44.69215,0,0,0-.8-8.2,41.194,41.194,0,0,0-6.5-15.4c-9-12.8-21.4-19.6-37.1-19.6C96.8,4.2,51,4.3,5.3,4.3H4.6v.8c0,10.8.1,21.6.1,32.4,0,16.6.1,33.1.1,49.7,0,16.2.1,32.4.1,48.6,0,8.5,0,16.9.1,25.4a.90948.90948,0,0,0,.4.8c3.1,2.9,6.2,5.7,9.3,8.5a1.901,1.901,0,0,0,1.3.5H186.9Z"/><path class="cls-1" d="M14.3,175.6a.60118.60118,0,0,1-.4-.1h-.1a2.995,2.995,0,0,1-1-.4c-2.2-2-4.5-4.1-6.7-6.1-1.7-1.5-3.4-3.1-5.1-4.6a2.12675,2.12675,0,0,1-.7-1.5c0-8.7,0-17.5-.1-26V126.1C.2,108.5.1,90.9.1,73.4.1,56.6,0,39.7,0,22.9V0H145a.36738.36738,0,0,1,.3.1c.6.1,1.3.1,1.9.2,1.3.1,2.7.3,4.1.5a48.967,48.967,0,0,1,31.5,20.1,46.143,46.143,0,0,1,8.3,21.5,14.97891,14.97891,0,0,1,.2,2.2c0,.3.1.7.1,1V175.9H14.5C14.5,175.6,14.4,175.6,14.3,175.6Zm-.4-1.7c.1,0,.2.1.3.1H189.8V45.4c0-.3-.1-.6-.1-1a14.91746,14.91746,0,0,1-.2-2.1,44.25874,44.25874,0,0,0-8-20.7A47.06108,47.06108,0,0,0,151,2.1c-1.3-.2-2.6-.4-3.9-.5-.6-.1-1.3-.1-1.9-.2a.90153.90153,0,0,1-.5-.1H1.6V22.6c0,16.8.1,33.7.1,50.5,0,17.6.1,35.2.1,52.7v10.8c0,8.5,0,17.4.1,26.1a.39923.39923,0,0,0,.2.4c1.7,1.5,3.4,3.1,5.1,4.6,2.2,2.1,4.5,4.2,6.7,6.2Zm2-2a2.40987,2.40987,0,0,1-1.8-.7c-1.5-1.3-2.9-2.7-4.4-4-1.6-1.5-3.3-3-4.9-4.5a1.97434,1.97434,0,0,1-.6-1.4c0-8.3-.1-16.4-.1-25.4V113.2c0-8.6,0-17.3-.1-25.9,0-16.6-.1-33.1-.1-49.7,0-7.3,0-14.7-.1-22V3.6H43.9c32.3,0,65.7,0,98.6.1,15.7,0,28.4,6.8,37.7,20a40.65477,40.65477,0,0,1,6.7,15.7,47.774,47.774,0,0,1,.8,8.4V172.1H168.4C118.2,171.9,66.6,171.9,15.9,171.9ZM5.4,5.1h0V15.6c0,7.3,0,14.7.1,22,0,16.6.1,33.1.1,49.7,0,8.6,0,17.3.1,25.9v22.7c0,9,0,17.1.1,25.4a.3491.3491,0,0,0,.1.2c1.6,1.5,3.3,3,4.9,4.5,1.4,1.3,2.9,2.7,4.4,4a1.08024,1.08024,0,0,0,.7.3H186.2V47.5a37.0949,37.0949,0,0,0-.8-8.1A40.34437,40.34437,0,0,0,179,24.3C170,11.5,157.7,5,142.5,5c-32.9-.1-66.3-.1-98.6-.1C31.3,5.1,18.2,5.1,5.4,5.1Z"/></g><path class="cls-1" d="M106.52312,56.13568l-11.279-.13519-11.279.13519-.065-5.41968,11.31144-.13554q.03249-.00036.065,0l11.31144.13554Z"/><path class="cls-1" d="M103.56618,42.58531l-8.322-.13484-8.3219.13484-.0878-5.41945,8.3658-.13554c.02934-.00047.05845-.00047.0878,0l8.36591.13554Z"/><rect class="cls-1" x="76.27388" y="85.81084" width="37.94069" height="5.42015"/><path class="cls-1" d="M110.65606,75.10609l-15.41189-.13531-15.41178.13531-.04751-5.41992,15.43553-.13554h.04751l15.43565.13554Z"/><path class="cls-1" d="M118.91205,113.04667l-23.66788-.13543-23.66777.13543-.031-5.41992,23.68325-.13554c.01025-.00024.02073-.00024.031,0l23.68337.13554Z"/><path class="cls-1" d="M76.27388,56.00037H57.657a2.71015,2.71015,0,0,1-2.57651-3.55024L59.499,38.89988A2.7101,2.7101,0,0,1,62.07548,37.03H78.98395v5.42015H64.04227l-2.651,8.1301H76.27388Z"/><path class="cls-1" d="M65.4337,91.231H46.16892a2.71,2.71,0,0,1-2.57651-3.55024l5.30218-16.26033a2.71012,2.71012,0,0,1,2.57651-1.86991H70.85385v5.42015H53.4379L49.90314,85.81084H65.4337Z"/><path class="cls-1" d="M54.59363,131.88153H32.91327a2.71015,2.71015,0,0,1-2.57651-3.55024L36.52267,109.361a2.71009,2.71009,0,0,1,2.57651-1.86991H60.01367v5.42015H41.066L36.6475,126.46138H54.59363Z"/><path class="cls-1" d="M132.83144,56.00037H114.21457V50.58022h14.88265l-2.651-8.1301H111.5045V37.03H128.413a2.7101,2.7101,0,0,1,2.57651,1.86991L135.408,52.45013a2.71014,2.71014,0,0,1-2.57651,3.55024Z"/><path class="cls-1" d="M144.31954,91.231h-19.2649V85.81084h15.53067l-3.53475-10.84018h-17.416V69.55051h19.38275a2.71012,2.71012,0,0,1,2.57651,1.86991l5.30219,16.26033a2.71,2.71,0,0,1-2.57651,3.55024Z"/><path class="cls-1" d="M157.57518,131.88153H135.89482v-5.42015H153.841l-4.41847-13.55014H130.47479v-5.42015h20.91449a2.71008,2.71008,0,0,1,2.5765,1.86991l6.18591,18.97029a2.71015,2.71015,0,0,1-2.57651,3.55024Z"/><rect class="cls-1" x="-0.9988" y="85.84732" width="132.84613" height="5.42009" transform="translate(-36.7807 129.50716) rotate(-75.37799)"/><path class="cls-1" d="M125.58424,153.57982l-4.71681-21.69829H69.6209l-4.71669,21.69829-5.29648-1.15143,5.18073-23.83265a2.71017,2.71017,0,0,1,2.64825-2.13436h55.61492a2.71017,2.71017,0,0,1,2.64824,2.13436l5.18085,23.83265Z"/><rect class="cls-1" x="122.35414" y="22.1343" width="5.42009" height="132.84613" transform="translate(-18.304 34.43694) rotate(-14.62098)"/></svg>