<svg id="Calque_1" data-name="Calque 1" xmlns="http://www.w3.org/2000/svg" viewBox="0 0 144.7515 89.59324"><defs><style>.cls-1{fill:#fff;}</style></defs><path class="cls-1" d="M144.06651,81.55319c.49535,0,.57886-.24628.18978-.54716l-17.013-3.755a3.072,3.072,0,0,0-1.60034-.5453H18.99949a3.038,3.038,0,0,0-1.59721.54827L.49847,81.00291c-.39234.30215-.30729.55028.18808.55028Z"/><path class="cls-1" d="M21.26715,74.97351H123.48276a4.45556,4.45556,0,0,0,4.46637-4.44235V4.44248A4.45468,4.45468,0,0,0,123.48276,0H21.26887a4.45715,4.45715,0,0,0-4.46809,4.44248V70.53116A4.45866,4.45866,0,0,0,21.26715,74.97351ZM72.37558,2.47867a1.47307,1.47307,0,1,1-1.48061,1.473A1.47659,1.47659,0,0,1,72.37558,2.47867Zm-48.23909,9.3816A4.39347,4.39347,0,0,1,28.54,7.48068h87.67142a4.39323,4.39323,0,0,1,4.40692,4.37959V63.97862a4.39233,4.39233,0,0,1-4.40692,4.37959H28.54a4.39056,4.39056,0,0,1-4.40346-4.37959Z"/><path class="cls-1" d="M143.85754,82.77851H84.26787c-.49209,0-.891.04994-.88633.11235.00344.034.00344.0743.00344.10941a3.264,3.264,0,0,1-3.35033,3.17022H64.71839a3.26313,3.26313,0,0,1-3.34705-3.17022c0-.03511,0-.07695.00172-.10941.00312-.06241-.39237-.11235-.88474-.11235H.89427A.87562.87562,0,0,0,0,83.631v.84931c0,2.82563,2.77428,5.113,6.19529,5.113h132.364c3.42119,0,6.19219-2.28735,6.19219-5.113V83.631A.87357.87357,0,0,0,143.85754,82.77851Z"/><path class="cls-1" d="M42.774,61.10539l4.45045,1.85519c-.09269.64737-.15622,1.30193-.20006,1.95962H60.27278a13.18968,13.18968,0,0,1,26.1685,0H99.69915c-.042-.66954-.10441-1.33814-.19741-2.00378l4.43281-1.83551a2.61282,2.61282,0,0,0,1.44143-3.42228l-3.03069-7.31839a2.61221,2.61221,0,0,0-3.43757-1.40647l-4.43514,1.83551a26.594,26.594,0,0,0-5.225-5.21627l1.8377-4.45233A2.64448,2.64448,0,0,0,89.65488,37.647l-7.31836-3.03492a2.64262,2.64262,0,0,0-3.451,1.42849l-1.85784,4.45045a26.47234,26.47234,0,0,0-7.38206-.00685l-1.83536-4.433a2.614,2.614,0,0,0-3.4229-1.44146l-7.32258,3.033a2.61338,2.61338,0,0,0-1.39759,3.438l1.83583,4.4325a26.60731,26.60731,0,0,0-5.21627,5.22722L47.83643,48.903a2.6472,2.6472,0,0,0-3.45565,1.4307L41.3479,57.65628A2.63758,2.63758,0,0,0,42.774,61.10539Z"/></svg>