<svg id="Calque_1" data-name="Calque 1" xmlns="http://www.w3.org/2000/svg" xmlns:xlink="http://www.w3.org/1999/xlink" viewBox="0 0 127.71585 118.8058"><defs><style>.cls-1{fill:url(#Dégradé_sans_nom);}.cls-2{fill:url(#Dégradé_sans_nom-2);}.cls-3{fill:url(#Dégradé_sans_nom-3);}</style><linearGradient id="Dégradé_sans_nom" y1="59.4029" x2="127.71585" y2="59.4029" gradientUnits="userSpaceOnUse"><stop offset="0" stop-color="#1697cb"/><stop offset="1" stop-color="#194e83"/></linearGradient><linearGradient id="Dégradé_sans_nom-2" x1="31.92759" y1="68.85519" x2="101.1082" y2="68.85519" xlink:href="#Dégradé_sans_nom"/><linearGradient id="Dégradé_sans_nom-3" x1="66.21255" y1="85.26332" x2="109.57776" y2="85.26332" xlink:href="#Dégradé_sans_nom"/></defs><path class="cls-1" d="M114.412,0H13.30366A13.42186,13.42186,0,0,0,0,13.50072v91.80437A13.42209,13.42209,0,0,0,13.30366,118.8058H114.412a13.42212,13.42212,0,0,0,13.30382-13.50071V13.50072A13.42189,13.42189,0,0,0,114.412,0ZM41.19528,11.555h75.00247v4.26562H41.19528Zm-6.6055-.75454a2.70062,2.70062,0,1,1-2.66094,2.70031A2.68174,2.68174,0,0,1,34.58978,10.80041Zm-10.64324,0a2.70062,2.70062,0,1,1-2.66041,2.70031A2.68194,2.68194,0,0,1,23.94654,10.80041Zm-10.64288,0a2.70062,2.70062,0,1,1-2.66061,2.70031A2.68188,2.68188,0,0,1,13.30366,10.80041Zm109.09067,94.50468a8.05162,8.05162,0,0,1-7.9823,8.10006H13.30366a8.05172,8.05172,0,0,1-7.9823-8.10006V27.00143h117.073Z"/><path class="cls-2" d="M34.58978,83.70394a2.65464,2.65464,0,0,0,1.88375-.78817l8.32286-8.446c-1.91053,7.64651-2.22451,16.21664-2.22451,25.43469a2.66105,2.66105,0,1,0,5.32153,0c0-13.92141.60141-26.29333,6.97666-35.30654a5.18346,5.18346,0,0,0,1.00547.20521A5.37015,5.37015,0,0,0,61.19706,59.403a5.07257,5.07257,0,0,0-.19659-.97738C72.11687,50.02271,88.8583,48.602,98.44779,48.602a2.70034,2.70034,0,0,0,0-5.40008A89.85474,89.85474,0,0,0,71.82424,47.0364l7.21594-7.32293a2.7304,2.7304,0,0,0,0-3.81793,2.6349,2.6349,0,0,0-3.76226,0l-18.109,18.377a4.92465,4.92465,0,0,0-1.29341-.26982A5.37,5.37,0,0,0,50.554,59.403a5.45564,5.45564,0,0,0,.261,1.3173L32.70583,79.09783a2.73041,2.73041,0,0,0,0,3.81794A2.65443,2.65443,0,0,0,34.58978,83.70394Z"/><path class="cls-3" d="M98.58814,70.86968l1.237-3.041a1.81523,1.81523,0,0,0-.963-2.35837l-4.92509-2.073a1.76979,1.76979,0,0,0-2.3227.97556L90.36421,67.412a17.58814,17.58814,0,0,0-4.96811-.00459l-1.23552-3.02688a1.74959,1.74959,0,0,0-2.30317-.98453l-4.928,2.07114a1.794,1.794,0,0,0-.9407,2.34811l1.23514,3.02741a18.03635,18.03635,0,0,0-3.51049,3.5696l-2.995-1.25475a1.77259,1.77259,0,0,0-2.32562.97705l-2.04111,5.00086a1.81077,1.81077,0,0,0,.9597,2.35566l2.99519,1.26683a18.42371,18.42371,0,0,0-.006,5.04217l-2.98325,1.25327a1.79456,1.79456,0,0,0-.97,2.33744L68.38844,96.389a1.74855,1.74855,0,0,0,2.31512.9559l2.98325-1.25344a18.04633,18.04633,0,0,0,3.51647,3.56392l-1.23679,3.04081a1.8171,1.8171,0,0,0,.963,2.36022l4.925,2.07242a1.76736,1.76736,0,0,0,2.32237-.975l1.25035-3.03953a17.75,17.75,0,0,0,4.96975.00587l1.23515,3.02742a1.74743,1.74743,0,0,0,2.30049.98308l4.92794-2.06986a1.79558,1.79558,0,0,0,.94234-2.34939l-1.23552-3.0261a18.11444,18.11444,0,0,0,3.51067-3.57l2.9952,1.25512a1.76978,1.76978,0,0,0,2.324-.97685l2.04272-4.99831a1.81136,1.81136,0,0,0-.96-2.35656l-2.99647-1.26905a18.35209,18.35209,0,0,0,.006-5.04127l2.98325-1.2538a1.79361,1.79361,0,0,0,.9702-2.33727L107.40318,74.139a1.74968,1.74968,0,0,0-2.31368-.96066l-2.98489,1.25377A18.028,18.028,0,0,0,98.58814,70.86968ZM91.296,93.596A8.84116,8.84116,0,0,1,79.68441,88.7138a9.064,9.064,0,0,1,4.80951-11.78346,8.84173,8.84173,0,0,1,11.61181,4.88213A9.06466,9.06466,0,0,1,91.296,93.596Z"/></svg>