<svg id="Calque_1" data-name="Calque 1" xmlns="http://www.w3.org/2000/svg" viewBox="0 0 127.31009 127.26652"><path d="M14.9598,127.26652c-.75441-.18354-1.51159-.35648-2.26281-.55225A16.986,16.986,0,0,1,.06013,110.48562,87.76612,87.76612,0,0,1,.27931,99.57117,16.55422,16.55422,0,0,1,13.38277,85.24388c.15652-.03683.30857-.09271.62279-.1885-1.69442-2.79648-1.22446-5.85724-1.24117-8.8455-.03494-6.2513-.01058-12.50295-.01058-18.82177-.46734-.12163-.90158-.21-1.31952-.34775a4.12561,4.12561,0,0,1-2.89194-3.8103c-.06928-2.23414-.07822-4.474-.00269-6.7077a4.12158,4.12158,0,0,1,4.30191-4.06446c4.38889-.03762,8.77829-.01847,13.16747-.01878q9.37922-.00068,18.75843.00193c.233-.00006.46607-.04092.88693-.08037-1.53063-2.888-1.04755-5.90176-1.0712-8.85137-.04579-5.71469-.01339-11.43-.01339-17.14506V15.18436c-1.04032-.53337-2.17963-.79663-2.7866-1.51174a6.20842,6.20842,0,0,1-1.3876-3.16614,50.05071,50.05071,0,0,1-.05657-6.081A4.23125,4.23125,0,0,1,44.82787.008q23.1087-.01558,46.2174.00066A4.2144,4.2144,0,0,1,95.49,4.45906c.01927,1.69774.00426,3.39586.004,5.09382-.00049,3.35189-.87467,4.50435-4.23436,5.43041l0,1.27632q0,9.2559-.00276,18.51181c-.00351,2.54653.27381,5.1297-1.12362,7.673,3.11985,0,6.00322-.00005,8.88658,0,3.6438.0001,7.28767-.01315,10.93139.00472,2.93379.01439,4.62267,1.70465,4.64783,4.6238.015,1.73923.00591,3.47871.00248,5.21807-.00585,2.97954-1.15087,4.39663-4.23889,5.065v1.40008q0,9.13165-.00107,18.26333a37.25555,37.25555,0,0,1-.0519,3.97193,33.68556,33.68556,0,0,1-.77768,3.65352,39.84239,39.84239,0,0,1,5.18457.82232c6.828,1.98361,10.91027,6.561,12.34925,13.51342.0658.31789.16215.62946.24425.944v12.42813a5.18452,5.18452,0,0,0-.23257.67922c-1.3862,7.00118-5.51522,11.52808-12.31138,13.6399-.77654.24132-1.57923.39846-2.3698.59464Zm48.76466-4.23443q15.03162,0,30.06325-.00021c5.54885-.00042,11.09835.04937,16.6464-.01837a12.41494,12.41494,0,0,0,12.40168-10.84826,78.6,78.6,0,0,0,.23071-9.66935c.01272-7.96844-5.423-13.39967-13.41609-13.41858-3.353-.00794-6.70616.08839-10.05916.08318-10.10284-.01569-20.20562-.07734-30.30845-.08311-6.74859-.00386-13.49725.08627-20.24585.08221-10.47549-.0063-20.951-.08348-31.42642-.07962-7.0868.0026-12.34572,4.41248-13.18286,11.28526A68.88923,68.88923,0,0,0,4.299,109.2985a17.94212,17.94212,0,0,0,.374,3.93673,12.6457,12.6457,0,0,0,12.71431,9.79107Q40.55585,123.052,63.72446,123.03209ZM17.07053,57.31281c-.03384.32794-.0726.52876-.07268.7296-.00312,7.45626-.02372,14.9126.00845,22.36872a4.13645,4.13645,0,0,0,4.48866,4.3643q14.41544.00724,28.83088.00167c3.287-.00041,4.87851-1.57737,4.88051-4.8493q.00656-10.68732-.00159-21.37462c-.00023-.39681-.04443-.7936-.07116-1.24037Zm50.842.003,0,1.09968q.00012,10.87294.003,21.74589c.00345,2.95819,1.66392,4.61379,4.606,4.61479q14.29012.00486,28.58026.00118c3.46646-.00025,5.0146-1.52856,5.01686-4.97041q.007-10.56228-.0012-21.12455c-.00023-.43784-.03943-.87565-.063-1.36658ZM48.828,14.94257c0,7.9316-.05232,15.71068.032,23.48829A3.93935,3.93935,0,0,0,53.00846,42.34q4.46786.10225,8.938.09835c6.747-.00988,13.49392-.051,20.24087-.08243,3.27955-.01527,4.8337-1.58648,4.83538-4.89618q.00539-10.61935.00114-21.23873V14.94257ZM59.44363,57.049l0,1.7071q0,9.19357-.00387,18.38715c-.005,2.55.29113,5.14089-1.07034,7.61705H64.7751c-1.42011-2.40825-1.08314-4.96477-1.0908-7.47158-.019-6.21181-.00623-12.42373-.00623-18.63561V57.049ZM73.428,4.23691c-1.31428,0-2.26022-.01893-3.2049.00747-.52314.01461-1.235-.09423-1.53535.19344-2.03961,1.9536-3.99224,3.998-6.14377,6.1869,1.47591,0,2.73758.02376,3.99712-.01752a1.42389,1.42389,0,0,0,.86866-.37773C69.3474,8.3301,71.25915,6.40433,73.428,4.23691ZM92.15753,53.00805c1.48546,0,2.596.02314,3.70468-.01249a1.873,1.873,0,0,0,1.14423-.27987c1.97166-1.90027,3.89351-3.85221,6.07029-6.02789-1.528,0-2.70863-.0225-3.8874.014a1.6239,1.6239,0,0,0-1.01031.307C96.23779,48.89767,94.33552,50.82659,92.15753,53.00805Zm-71.89111-.322.13749.32212c1.10392,0,2.20849.0216,3.31141-.01156a1.89082,1.89082,0,0,0,1.15254-.26117c1.97114-1.90951,3.8908-3.87217,6.034-6.02762-1.61756,0-2.95611-.01513-4.2936.01547a1.07769,1.07769,0,0,0-.62586.33655Q23.11334,49.86162,20.26642,52.686ZM83.874,4.375c-2.7667-.45436-5.02256-.25791-6.75853,2.09288a41.63919,41.63919,0,0,1-4.07707,4.15515c1.63325,0,2.901.02639,4.16608-.01991a1.43781,1.43781,0,0,0,.84618-.42648C79.96458,8.29549,81.85623,6.39162,83.874,4.375ZM62.73759,4.23691c-1.272,0-2.22715.06734-3.16833-.01836a2.68285,2.68285,0,0,0-2.37228.9919c-1.4693,1.5657-3.026,3.04918-4.53773,4.57545a8.90319,8.90319,0,0,0-.63633.84265c1.17033,0,2.11728.02683,3.06169-.01062.52024-.02062,1.21354.03712,1.52528-.25949C58.63123,8.4352,60.56908,6.42421,62.73759,4.23691Zm-10.66227.07915H44.64823v6.428c.57411-.16937,1.14443-.1678,1.43918-.452C48.06809,8.38219,49.99024,6.41163,52.07532,4.31606Zm39.14149.06639-.2866-.35829a9.413,9.413,0,0,0-1.73153,1.06236c-1.80523,1.723-3.5482,3.51125-5.48059,5.44093h7.49872Zm-9.5323,48.50668c4.11964.45969,4.12187.45893,6.772-2.19117q.52655-.52655,1.053-1.05323c.90907-.91292,1.81753-1.82644,2.94282-2.95739-1.46962,0-2.58108-.02383-3.69054.01286a1.87067,1.87067,0,0,0-1.14462.28745C85.66155,48.87556,83.75576,50.81513,81.68451,52.88913Zm.15281-6.1662c-1.4673,0-2.56722-.02017-3.6657.0108a1.89444,1.89444,0,0,0-1.14966.24541c-1.96943,1.90323-3.887,3.86009-6.043,6.02412,1.58477,0,2.85032.0248,4.11353-.01857a1.42253,1.42253,0,0,0,.85445-.399C77.83193,50.73763,79.69264,48.86481,81.83732,46.72293ZM63.73756,53.1051c.57367-.13092,1.13327-.0881,1.4016-.34708,1.97784-1.9089,3.89755-3.878,5.97553-5.96907H63.73756Zm-4.34633-6.72164c-3.30726,1.48571-4.87529,4.422-7.53271,6.52068h7.53271ZM41.29974,53.00838c1.32171,0,2.27222-.05182,3.21439.0146a2.61037,2.61037,0,0,0,2.27779-.92317c1.29034-1.39352,2.67189-2.70254,4.01415-4.04807.3799-.38082.75427-.76715,1.34078-1.3644-1.48886,0-2.60254-.017-3.71516.00984a1.7086,1.7086,0,0,0-1.0457.22343C45.41588,48.83916,43.49045,50.80359,41.29974,53.00838ZM30.81917,52.8332c2.86817.6,5.149.17564,6.85264-2.20676a24.4359,24.4359,0,0,1,2.69012-2.74282c.32422-.32727.63189-.67091,1.12338-1.19505-1.51482,0-2.71052-.01983-3.90472.01374a1.42728,1.42728,0,0,0-.8924.3C34.74423,48.89812,32.831,50.82541,30.81917,52.8332Zm-18.0071.42614a8.15234,8.15234,0,0,0,1.8773-.94288c1.47941-1.37462,2.87688-2.83749,4.30413-4.26815.38244-.38335.75924-.77233,1.25028-1.27244H12.81207Zm97.47187-.32165V46.58736c-.56464.14309-1.15365.11455-1.44591.39512-1.97392,1.895-3.885,3.85554-5.97619,5.95521Z"/><path d="M63.69552,93.25571q15.58965,0,31.17932.00606c4.01545.007,8.03856-.06032,12.04443.15812a12.68523,12.68523,0,0,1-.52846,25.34459c-4.75947.11023-9.52341.03106-14.28534.03129q-35.15613.00167-70.31224-.00306c-6.44211-.00246-11.47726-3.86626-12.92915-9.86737A12.6137,12.6137,0,0,1,20.10394,93.44852c4.16693-.25022,8.358-.11029,12.53827-.12422q14.34735-.0478,28.69478-.07375c.78611-.00193,1.57222-.00026,2.35832-.00026ZM61.61573,97.656a8.37431,8.37431,0,0,0-8.55665,8.4317,8.49358,8.49358,0,0,0,16.98664-.00132A8.37407,8.37407,0,0,0,61.61573,97.656Zm-31.86552-.00062a8.37264,8.37264,0,0,0-8.50753,8.3576,8.49374,8.49374,0,0,0,16.98746.02389A8.3733,8.3733,0,0,0,29.75021,97.65543Zm65.76832.00015a8.32183,8.32183,0,0,0-8.49149,8.34278,8.46616,8.46616,0,1,0,16.93218.0519A8.32215,8.32215,0,0,0,95.51853,97.65558Zm-9.70275,16.848c-4.08873-6.66128-4.09824-9.43773-.10416-16.84095H71.23355c4.1178,5.64512,4.05271,11.21973-.03731,16.84095Zm-33.87639.0235c-4.16288-5.66548-4.12766-11.24551-.1057-16.85885H39.42707c4.11061,5.67027,4.03569,11.24963-.056,16.85885Zm53.20769-16.90033c4.07542,6.12722,4.066,9.56671.02857,16.92349,3.44191.09184,6.22319-1.03348,8.04934-3.945a8.03466,8.03466,0,0,0-.08321-9.22608C111.32136,98.59983,108.63377,97.43286,105.14708,97.62679Zm-85.12587,16.678A12.84426,12.84426,0,0,1,20.032,97.76511a8.36517,8.36517,0,0,0-7.27064,8.38076C12.81447,110.2572,16.0907,114.043,20.02121,114.30477Z"/><path d="M36.10024,74.25977c-1.98593.00037-3.97209.01892-5.95776-.004a4.31241,4.31241,0,0,1-4.65612-4.64522c-.01993-1.1995-.02724-2.40022.00253-3.59933a4.20952,4.20952,0,0,1,4.41342-4.48769q6.20494-.08226,12.41167.00114a4.22057,4.22057,0,0,1,4.41113,4.49448q.03744,1.86107-.00017,3.72345a4.29488,4.29488,0,0,1-4.54289,4.51C40.15534,74.28727,38.12755,74.2594,36.10024,74.25977ZM29.8334,65.84121v4.07663H42.41249V65.84121Z"/><path d="M87.05048,61.50637c1.9445,0,3.88917-.016,5.83348.0037,3.031.03073,4.68724,1.66959,4.73453,4.67331.01889,1.19949.03153,2.40045-.00488,3.59917a4.23281,4.23281,0,0,1-4.44631,4.4641q-6.143.07-12.28737.00151a4.27349,4.27349,0,0,1-4.4905-4.554c-.01734-1.24093-.022-2.48268.00156-3.7234a4.223,4.223,0,0,1,4.33-4.44514c2.108-.06428,4.21954-.013,6.32951-.013ZM93.30963,65.847h-12.614v4.05906h12.614Z"/><path d="M67.96494,19.11177c2.0686.00019,4.13747-.02076,6.20573.00554a4.20346,4.20346,0,0,1,4.36327,4.27328c.05,1.36342.0473,2.7315.00063,4.09516a4.237,4.237,0,0,1-4.4537,4.32644q-6.14357.03243-12.28742.00088A4.22235,4.22235,0,0,1,57.314,27.52015c-.05718-1.36287-.05354-2.73167-.00243-4.095a4.19459,4.19459,0,0,1,4.44765-4.30947C63.82759,19.09516,65.89634,19.11157,67.96494,19.11177Zm-6.34171,8.40089H74.21147V23.44342H61.62323Z"/><path d="M61.577,108.148a2.0866,2.0866,0,0,1-2.12538-2.10487,2.14674,2.14674,0,0,1,2.1459-2.11009,2.1739,2.1739,0,0,1,2.072,2.06868A2.10251,2.10251,0,0,1,61.577,108.148Z"/><path d="M29.7753,108.14727a2.0844,2.0844,0,0,1-2.13933-2.08979,2.14865,2.14865,0,0,1,2.13125-2.12525,2.17413,2.17413,0,0,1,2.08541,2.05526A2.09968,2.09968,0,0,1,29.7753,108.14727Z"/><path d="M95.49138,108.14556a2.07518,2.07518,0,0,1-2.09722-2.12648,2.09961,2.09961,0,0,1,4.19916.0031A2.0791,2.0791,0,0,1,95.49138,108.14556Z"/></svg>