<svg id="Calque_1" data-name="Calque 1" xmlns="http://www.w3.org/2000/svg" viewBox="0 0 155.72279 159.88604"><g id="_06saLz.tif" data-name="06saLz.tif"><path d="M93.80783,0a44.14847,44.14847,0,0,1,6.78741,1.59628A86.97743,86.97743,0,0,1,110.362,6.34c2.08176,1.15568,2.49534,3.14249,1.396,4.723-1.10583,1.58982-2.93515,1.72559-4.92606.36562A28.93787,28.93787,0,0,0,71.14825,13.3592c-6.86088,6.09516-9.66278,13.941-9.62551,22.97824a29.40455,29.40455,0,0,0,5.54238,17.07525c1.8757,2.686,4.00672,5.21923,5.6383,8.04341,1.91092,3.30771,3.45133,6.83527,5.03947,10.319.33088.7258.56938,1.06245,1.39262,1.05942,7.38867-.02721,14.7776.00017,22.16592-.05752a1.67478,1.67478,0,0,0,1.23635-.94166A40.97979,40.97979,0,0,1,108.636,59.96173c1.87553-2.62149,3.75808-5.24074,5.54119-7.925a28.16793,28.16793,0,0,0,4.66369-16.8543c-.02221-.72813-.05721-1.45652-.054-2.18465a3.11334,3.11334,0,1,1,6.21815-.2657c.464,6.93268-.4217,13.66371-3.91514,19.756-2.217,3.86626-4.89381,7.47222-7.42019,11.15668a31.952,31.952,0,0,0-5.09414,10.15481c.36168.24095.70329.46685,1.04325.69524a10.07976,10.07976,0,0,1-.96569,17.48529,1.87311,1.87311,0,0,0-1.22136,2.00772,31.31494,31.31494,0,0,1-.1604,4.67064,10.00316,10.00316,0,0,1-9.62695,8.78923c-4.83592.1216-9.67846.113-14.5155.023A10.2456,10.2456,0,0,1,72.9385,97.34285a3.76287,3.76287,0,0,1-.00436-.62383c.33112-2.55292-.32563-4.21386-2.77135-5.86235-5.71758-3.85384-5.2626-12.36716.5445-16.27891.92129-.62059,1.22308-1.16695.71342-2.11264-1.64515-3.05263-3.17891-6.17423-4.98494-9.12906C63.946,59.26258,60.79764,55.53658,58.717,51.27788c-8.3-16.9886-2.345-43.37,22.59125-50.18037C83.05066.62164,84.85179.36082,86.62561,0ZM90.12907,86.85389c4.475,0,8.95.01373,13.42486-.00515,2.69033-.01135,4.35157-1.48,4.38233-3.80852.03142-2.38048-1.684-3.96253-4.41328-3.96806q-13.34679-.027-26.69364.00069c-2.61145.00554-4.36958,1.58182-4.40546,3.84347-.03738,2.3566,1.7028,3.922,4.43642,3.93289C81.28316,86.8668,85.70614,86.85394,90.12907,86.85389Zm-10.93836,6.3287c0,1.48935-.066,2.79019.01452,4.08188a3.88553,3.88553,0,0,0,3.83716,3.94192c4.78083.07573,9.56425.06294,14.34545-.00071a3.57962,3.57962,0,0,0,3.57869-2.92241,47.36818,47.36818,0,0,0,.3-5.10068Z"/><path d="M27.0974,112.31358a17.78134,17.78134,0,0,0,8.84952-1.28747c5.51894-2.20309,11.24854-3.41171,17.23267-2.50256,6.4067.97333,11.69288,4.21769,16.32767,8.54093a6.599,6.599,0,0,0,5.11962,1.93446c4.574-.13474,9.15474-.02978,13.73267-.044a10.34215,10.34215,0,0,1,7.03806,2.50689,1.52336,1.52336,0,0,0,2.04124.1483q10.65691-5.5174,21.33674-10.99063a11.59762,11.59762,0,0,1,9.035-1.13093,9.93634,9.93634,0,0,1,7.2904,7.95809,10.35884,10.35884,0,0,1-3.91176,10.54692c-2.40286,1.9796-5.02451,3.69533-7.56454,5.50638Q109.082,143.869,94.52627,154.21961c-3.66956,2.60719-7.52036,4.80776-12.08394,5.49157-3.60529.54021-7.03631-.26105-10.454-1.1796-11.98557-3.22131-23.93821-6.56979-35.96146-9.64264-2.65916-.67964-5.55524-.4556-8.34545-.56664-.31547-.01256-.77152.43836-.96.78455a8.19934,8.19934,0,0,1-7.80438,4.48266c-3.48548-.0103-6.97127.02456-10.45646-.00884-5.12339-.0491-8.41667-3.29714-8.43473-8.39718q-.05251-14.82692-.00155-29.65415c.01686-5.22078,3.28512-8.408,8.53067-8.42454,3.27739-.01033,6.55851.096,9.83132-.02679C22.49448,106.92385,25.39428,108.60119,27.0974,112.31358Zm.55214,6.22637v23.49319c1.69269,0,3.29779-.07553,4.89231.022a22.80019,22.80019,0,0,1,4.45873.58543c12.29767,3.2746,24.61953,6.47014,36.84629,9.99417,5.88922,1.69742,11.063.87789,15.9139-2.70039.12552-.0926.25623-.17811.38332-.26862q18.0471-12.85119,36.09146-25.70623c2.73868-1.953,3.56-4.43875,2.25411-6.63814-1.2991-2.18791-3.92918-2.63386-6.90237-1.11316-7.07812,3.62023-14.13654,7.27908-21.22618,10.87646a1.55448,1.55448,0,0,0-.98124,1.79657c.42728,6.84652-4.333,11.93912-11.19689,11.98816-6.08786.0435-12.17627.01057-18.26443.01-2.34158-.00021-4.68386.03-7.02453-.01714a3.00234,3.00234,0,0,1-3.17561-2.95014,3.08492,3.08492,0,0,1,3.05217-3.26333c.46555-.03725.93613-.01429,1.4044-.01433q11.86411-.001,23.72822-.00462c3.18525-.00485,5.275-1.87666,5.28943-4.68344.01449-2.8115-2.08938-4.726-5.234-4.74133-2.49765-.01216-4.99541-.00258-7.49312-.00262-2.13346,0-4.27483-.11689-6.39856.02688a10.37515,10.37515,0,0,1-8.40495-3.2288c-7.36857-7.18136-15.95981-9.42024-25.7844-5.77351C35.96742,117.6784,32.1009,119.23237,27.64954,118.54ZM6.26,130.22176c0,4.88451-.0093,9.769.00466,14.65351.00546,1.90872.5242,2.4494,2.37171,2.46035q5.1439.03046,10.28809-.00059c1.76235-.011,2.37422-.5998,2.3767-2.32758q.021-14.65348.00095-29.307c-.00221-1.7729-.57794-2.33937-2.324-2.34724-3.37735-.01523-6.75484-.009-10.13225-.00313-2.14073.00371-2.57751.42124-2.58242,2.52995C6.25238,120.66058,6.26,125.44117,6.26,130.22176Z"/><path d="M93.29858,32.58265c0,3.01107.01962,6.02232-.00636,9.03318-.02,2.319-1.19894,3.6749-3.11239,3.66691-1.88074-.00786-3.10667-1.405-3.116-3.69173q-.037-9.111.00012-18.22214c.00926-2.25573,1.27755-3.68466,3.14132-3.677,1.88431.00778,3.06975,1.398,3.0875,3.7018C93.31637,26.45652,93.29862,29.51965,93.29858,32.58265Z"/><path d="M134.95825,62.11877a10.76214,10.76214,0,0,1,1.83581.82113q4.94835,3.24807,9.83656,6.58744c1.78323,1.21817,2.20734,2.9999,1.17838,4.55512-.992,1.49933-2.9053,1.77635-4.66241.61051q-5.06233-3.35885-10.08352-6.77943a2.94971,2.94971,0,0,1-1.31422-3.52413C132.1783,63.01,133.203,62.29344,134.95825,62.11877Z"/><path d="M35.51794,2.39637a9.961,9.961,0,0,1,1.76333.78985q4.88219,3.205,9.70578,6.499c1.87723,1.27618,2.32374,3.06295,1.22668,4.65311C47.178,15.8396,45.33146,16.07909,43.535,14.884c-3.3714-2.24276-6.73769-4.494-10.07358-6.789A2.8964,2.8964,0,0,1,32.2086,4.56361C32.66948,3.174,33.66835,2.474,35.51794,2.39637Z"/><path d="M144.92621,2.42007a3.03039,3.03039,0,0,1,3.17123,1.903,2.76146,2.76146,0,0,1-.86508,3.51064q-5.48012,3.84158-11.11655,7.45789A2.94013,2.94013,0,0,1,132.139,14.2881a2.87047,2.87047,0,0,1,.58339-4.047c3.64667-2.57011,7.38118-5.01615,11.10128-7.48055A3.44713,3.44713,0,0,1,144.92621,2.42007Z"/><path d="M34.06091,35.81558c2.02449-.00153,4.04984-.03819,6.07325.00869,2.0612.04775,3.381,1.2852,3.39235,3.0757a3.13108,3.13108,0,0,1-3.35375,3.13552q-6.07261.074-12.14667.00251a3.11538,3.11538,0,1,1-.03835-6.21013C30.011,35.77874,32.03643,35.81712,34.06091,35.81558Z"/><path d="M48.81275,65.81071a7.24534,7.24534,0,0,1-1.55665,2.10486C43.875,70.32682,40.405,72.61613,36.926,74.8863a3.10389,3.10389,0,1,1-3.38072-5.20262c3.38422-2.31882,6.78172-4.61988,10.21736-6.86141C46.01168,61.3549,48.72488,62.67888,48.81275,65.81071Z"/><path d="M146.39789,35.81963c2.02461.00071,4.05042-.04277,6.07348.01305a3.10517,3.10517,0,1,1-.03718,6.20144q-6.15077.08127-12.30321-.00251a3.1051,3.1051,0,1,1,.03765-6.20091C142.24379,35.77779,144.32136,35.81891,146.39789,35.81963Z"/><path d="M90.13308,59.38985a3.064,3.064,0,0,1-3.04442-3.102,3.14978,3.14978,0,0,1,3.08059-3.10673,3.098,3.098,0,0,1,3.09913,3.21834A3.02208,3.02208,0,0,1,90.13308,59.38985Z"/><path d="M118.01565,16.2752a3.11134,3.11134,0,0,1,3.06929,3.10168,3.08507,3.08507,0,1,1-6.16921-.02667A3.12966,3.12966,0,0,1,118.01565,16.2752Z"/></g></svg>